<svg width="16" height="11" viewBox="0 0 16 11" fill="none" xmlns="http://www.w3.org/2000/svg">
<path d="M11.0703 0.648926L11.4067 0.921875C11.5337 1.01497 11.5972 1.13981 11.5972 1.29639C11.5972 1.39795 11.5612 1.4974 11.4893 1.59473L4.84326 10.0117C4.77979 10.0964 4.69938 10.1619 4.60205 10.2085C4.50472 10.255 4.40316 10.2783 4.29736 10.2783C4.11117 10.2783 3.94401 10.2106 3.7959 10.0752L0.799805 7.0791C0.706706 6.986 0.660156 6.87174 0.660156 6.73633C0.660156 6.60091 0.706706 6.48877 0.799805 6.3999L1.11084 6.08887C1.20817 5.99154 1.32243 5.94287 1.45361 5.94287C1.51709 5.94287 1.57845 5.95557 1.6377 5.98096C1.69694 6.00635 1.74772 6.04232 1.79004 6.08887L4.1958 8.36133L10.3848 0.725098C10.4906 0.606608 10.6175 0.547363 10.7656 0.547363C10.8883 0.547363 10.9899 0.581217 11.0703 0.648926ZM7.11572 9.00244C7.02262 8.90511 6.97607 8.79085 6.97607 8.65967C6.97607 8.54118 7.01839 8.43327 7.10303 8.33594L7.39502 8.00586C7.48812 7.90007 7.60872 7.84717 7.75684 7.84717C7.88802 7.84717 7.99382 7.88737 8.07422 7.96777C8.24772 8.08626 8.42969 8.20475 8.62012 8.32324L14.7646 0.750488C14.8704 0.631999 14.9953 0.572754 15.1392 0.572754C15.2576 0.572754 15.3571 0.606608 15.4375 0.674316L15.793 0.947266C15.9115 1.05306 15.9707 1.1779 15.9707 1.32178C15.9707 1.43604 15.9347 1.53548 15.8628 1.62012L9.24219 10.0117C9.17448 10.0964 9.09196 10.1619 8.99463 10.2085C8.8973 10.255 8.79574 10.2783 8.68994 10.2783C8.49528 10.2783 8.33024 10.2106 8.19482 10.0752L7.11572 9.00244Z" fill="#007BFC"/>
</svg>
