<svg width="300" height="400" viewBox="0 0 300 400" fill="none" xmlns="http://www.w3.org/2000/svg">
<path d="M239.372 45.5606C252.446 45.5606 263.044 37.3596 263.044 27.2432C263.044 17.1267 252.446 8.92572 239.372 8.92572C226.298 8.92572 215.7 17.1267 215.7 27.2432C215.7 37.3596 226.298 45.5606 239.372 45.5606Z" fill="#004900"/>
<path d="M238.205 188.833C251.279 188.833 261.877 180.632 261.877 170.515C261.877 160.399 251.279 152.198 238.205 152.198C225.131 152.198 214.533 160.399 214.533 170.515C214.533 180.632 225.131 188.833 238.205 188.833Z" fill="#004900"/>
<path d="M242.507 117.188C259.875 117.188 273.954 106.293 273.954 92.8536C273.954 79.4144 259.875 68.5197 242.507 68.5197C225.139 68.5197 211.06 79.4144 211.06 92.8536C211.06 106.293 225.139 117.188 242.507 117.188Z" fill="#004900"/>
<path d="M267.154 45.5606C280.228 45.5606 290.826 37.3596 290.826 27.2432C290.826 17.1267 280.228 8.92572 267.154 8.92572C254.08 8.92572 243.482 17.1267 243.482 27.2432C243.482 37.3596 254.08 45.5606 267.154 45.5606Z" fill="#004900"/>
<path d="M253.309 159.981V30.8076" stroke="#004900" stroke-width="52.7536" stroke-linecap="round"/>
<path d="M253.309 38.565C258.072 38.565 261.933 34.83 261.933 30.2227C261.933 25.6154 258.072 21.8804 253.309 21.8804C248.545 21.8804 244.684 25.6154 244.684 30.2227C244.684 34.83 248.545 38.565 253.309 38.565Z" fill="white"/>
<path d="M73.6066 91.5106L136.782 91.45" stroke="#004900" stroke-width="34.7849" stroke-linecap="round"/>
<path d="M120.324 128.153L70.3018 115.247" stroke="#004900" stroke-width="46.3798" stroke-linecap="round"/>
<path d="M66.1836 162.244L170.645 75.892" stroke="#004900" stroke-width="45" stroke-linecap="round"/>
<path d="M33.6812 45.5606C46.7549 45.5606 57.3532 37.3596 57.3532 27.2432C57.3532 17.1267 46.7549 8.92572 33.6812 8.92572C20.6074 8.92572 10.0091 17.1267 10.0091 27.2432C10.0091 37.3596 20.6074 45.5606 33.6812 45.5606Z" fill="#004900"/>
<path d="M61.4631 45.5606C74.5368 45.5606 85.1352 37.3596 85.1352 27.2432C85.1352 17.1267 74.5368 8.92572 61.4631 8.92572C48.3894 8.92572 37.791 17.1267 37.791 27.2432C37.791 37.3596 48.3894 45.5606 61.4631 45.5606Z" fill="#004900"/>
<path d="M32.5141 188.833C45.5878 188.833 56.1862 180.632 56.1862 170.515C56.1862 160.399 45.5878 152.198 32.5141 152.198C19.4404 152.198 8.84201 160.399 8.84201 170.515C8.84201 180.632 19.4404 188.833 32.5141 188.833Z" fill="#004900"/>
<path d="M47.6177 159.981V30.8076" stroke="#004900" stroke-width="52.7536" stroke-linecap="round"/>
<path d="M47.6178 38.565C52.3811 38.565 56.2425 34.83 56.2425 30.2227C56.2425 25.6154 52.3811 21.8804 47.6178 21.8804C42.8545 21.8804 38.993 25.6154 38.993 30.2227C38.993 34.83 42.8545 38.565 47.6178 38.565Z" fill="white"/>
<path d="M63.0191 188.833C76.0928 188.833 86.6912 180.632 86.6912 170.515C86.6912 160.399 76.0928 152.198 63.0191 152.198C49.9454 152.198 39.347 160.399 39.347 170.515C39.347 180.632 49.9454 188.833 63.0191 188.833Z" fill="#004900"/>
<path d="M58.5616 117.188C75.9295 117.188 90.009 106.293 90.009 92.8536C90.009 79.4144 75.9295 68.5197 58.5616 68.5197C41.1937 68.5197 27.1142 79.4144 27.1142 92.8536C27.1142 106.293 41.1937 117.188 58.5616 117.188Z" fill="#004900"/>
<path d="M36.816 117.188C54.184 117.188 68.2635 106.293 68.2635 92.8536C68.2635 79.4144 54.184 68.5197 36.816 68.5197C19.4481 68.5197 5.36862 79.4144 5.36862 92.8536C5.36862 106.293 19.4481 117.188 36.816 117.188Z" fill="#004900"/>
<path d="M47.6177 32.3239V68.6207" stroke="white" stroke-width="12" stroke-linecap="round"/>
<path d="M47.6177 120.411V165.237" stroke="white" stroke-width="12" stroke-linecap="round"/>
<path d="M38.6436 105.31C42.6991 99.1324 53.5677 99.3987 56.9809 105.31" stroke="white" stroke-width="10" stroke-linecap="round" stroke-linejoin="round"/>
<path d="M38.6436 87.7705C42.6991 81.5928 53.5677 81.8591 56.9809 87.7705" stroke="white" stroke-width="10" stroke-linecap="round" stroke-linejoin="round"/>
<path d="M226.627 91.5106L163.452 91.45" stroke="#004900" stroke-width="34.7849" stroke-linecap="round"/>
<path d="M268.71 188.833C281.784 188.833 292.382 180.632 292.382 170.515C292.382 160.399 281.784 152.198 268.71 152.198C255.636 152.198 245.038 160.399 245.038 170.515C245.038 180.632 255.636 188.833 268.71 188.833Z" fill="#004900"/>
<path d="M234.05 162.244L129.588 75.892" stroke="#004900" stroke-width="45" stroke-linecap="round"/>
<path d="M264.252 117.188C281.62 117.188 295.7 106.293 295.7 92.8536C295.7 79.4144 281.62 68.5197 264.252 68.5197C246.885 68.5197 232.805 79.4144 232.805 92.8536C232.805 106.293 246.885 117.188 264.252 117.188Z" fill="#004900"/>
<path d="M175.606 55.9966H124.249C123.174 55.9966 122.302 57.2359 122.302 58.7646V127.27C122.302 128.798 123.174 130.038 124.249 130.038H175.606C176.681 130.038 177.552 128.798 177.552 127.27V58.7646C177.552 57.2359 176.681 55.9966 175.606 55.9966Z" fill="#004900"/>
<path d="M115.505 111.781L122.488 118.614" stroke="white" stroke-width="12" stroke-linecap="round"/>
<path d="M136.495 100.914L149.878 90.2904L149.927 75.4675" stroke="white" stroke-width="12" stroke-linecap="round"/>
<path d="M179.909 128.153L229.932 115.247" stroke="#004900" stroke-width="46.3798" stroke-linecap="round"/>
<path d="M253.309 32.3239V68.6207" stroke="white" stroke-width="12" stroke-linecap="round"/>
<path d="M230.514 155.883L197.532 128.82" stroke="white" stroke-width="12" stroke-linecap="round"/>
<path d="M253.309 120.411V165.237" stroke="white" stroke-width="12" stroke-linecap="round"/>
<path d="M244.334 105.31C248.39 99.1324 259.259 99.3987 262.672 105.31" stroke="white" stroke-width="10" stroke-linecap="round" stroke-linejoin="round"/>
<path d="M244.334 87.7705C248.39 81.5928 259.259 81.8591 262.672 87.7705" stroke="white" stroke-width="10" stroke-linecap="round" stroke-linejoin="round"/>
<path d="M184.653 111.707L177.82 118.689" stroke="white" stroke-width="12" stroke-linecap="round"/>
<path d="M216.405 109.356L202.899 98.5365" stroke="white" stroke-width="12" stroke-linecap="round"/>
<path d="M163.739 100.914L150.356 90.2904L150.306 75.4675" stroke="white" stroke-width="12" stroke-linecap="round"/>
<path d="M69.7197 155.883L102.702 128.82" stroke="white" stroke-width="12" stroke-linecap="round"/>
<path d="M83.8282 109.356L97.3346 98.5365" stroke="white" stroke-width="12" stroke-linecap="round"/>
<path d="M239.372 354.49C252.446 354.49 263.044 362.691 263.044 372.807C263.044 382.924 252.446 391.125 239.372 391.125C226.298 391.125 215.7 382.924 215.7 372.807C215.7 362.691 226.298 354.49 239.372 354.49Z" fill="#004900"/>
<path d="M238.205 211.218C251.279 211.218 261.877 219.419 261.877 229.535C261.877 239.652 251.279 247.853 238.205 247.853C225.131 247.853 214.533 239.652 214.533 229.535C214.533 219.419 225.131 211.218 238.205 211.218Z" fill="#004900"/>
<path d="M242.507 282.863C259.875 282.863 273.954 293.757 273.954 307.197C273.954 320.636 259.875 331.531 242.507 331.531C225.139 331.531 211.06 320.636 211.06 307.197C211.06 293.757 225.139 282.863 242.507 282.863Z" fill="#004900"/>
<path d="M267.154 354.49C280.228 354.49 290.826 362.691 290.826 372.807C290.826 382.924 280.228 391.125 267.154 391.125C254.08 391.125 243.482 382.924 243.482 372.807C243.482 362.691 254.08 354.49 267.154 354.49Z" fill="#004900"/>
<path d="M253.309 240.07V369.243" stroke="#004900" stroke-width="52.7536" stroke-linecap="round"/>
<path d="M253.309 361.485C258.072 361.485 261.933 365.22 261.933 369.828C261.933 374.435 258.072 378.17 253.309 378.17C248.545 378.17 244.684 374.435 244.684 369.828C244.684 365.22 248.545 361.485 253.309 361.485Z" fill="white"/>
<path d="M73.6066 308.54L136.782 308.6" stroke="#004900" stroke-width="34.7849" stroke-linecap="round"/>
<path d="M120.324 271.897L70.3018 284.803" stroke="#004900" stroke-width="46.3798" stroke-linecap="round"/>
<path d="M66.1836 237.807L170.645 324.158" stroke="#004900" stroke-width="45" stroke-linecap="round"/>
<path d="M33.6812 354.49C46.7549 354.49 57.3532 362.691 57.3532 372.807C57.3532 382.924 46.7549 391.125 33.6812 391.125C20.6074 391.125 10.0091 382.924 10.0091 372.807C10.0091 362.691 20.6074 354.49 33.6812 354.49Z" fill="#004900"/>
<path d="M61.4631 354.49C74.5368 354.49 85.1352 362.691 85.1352 372.807C85.1352 382.924 74.5368 391.125 61.4631 391.125C48.3894 391.125 37.791 382.924 37.791 372.807C37.791 362.691 48.3894 354.49 61.4631 354.49Z" fill="#004900"/>
<path d="M32.5141 211.218C45.5878 211.218 56.1862 219.419 56.1862 229.535C56.1862 239.652 45.5878 247.853 32.5141 247.853C19.4404 247.853 8.84201 239.652 8.84201 229.535C8.84201 219.419 19.4404 211.218 32.5141 211.218Z" fill="#004900"/>
<path d="M47.6177 240.07V369.243" stroke="#004900" stroke-width="52.7536" stroke-linecap="round"/>
<path d="M47.6178 361.485C52.3811 361.485 56.2425 365.22 56.2425 369.828C56.2425 374.435 52.3811 378.17 47.6178 378.17C42.8545 378.17 38.993 374.435 38.993 369.828C38.993 365.22 42.8545 361.485 47.6178 361.485Z" fill="white"/>
<path d="M63.0191 211.218C76.0928 211.218 86.6912 219.419 86.6912 229.535C86.6912 239.652 76.0928 247.853 63.0191 247.853C49.9454 247.853 39.347 239.652 39.347 229.535C39.347 219.419 49.9454 211.218 63.0191 211.218Z" fill="#004900"/>
<path d="M58.5616 282.863C75.9295 282.863 90.009 293.757 90.009 307.197C90.009 320.636 75.9295 331.531 58.5616 331.531C41.1937 331.531 27.1142 320.636 27.1142 307.197C27.1142 293.757 41.1937 282.863 58.5616 282.863Z" fill="#004900"/>
<path d="M36.816 282.863C54.184 282.863 68.2635 293.757 68.2635 307.197C68.2635 320.636 54.184 331.531 36.816 331.531C19.4481 331.531 5.36862 320.636 5.36862 307.197C5.36862 293.757 19.4481 282.863 36.816 282.863Z" fill="#004900"/>
<path d="M47.6177 367.727V331.43" stroke="white" stroke-width="12" stroke-linecap="round"/>
<path d="M47.6177 279.639V234.814" stroke="white" stroke-width="12" stroke-linecap="round"/>
<path d="M38.6436 294.74C42.6991 300.918 53.5677 300.652 56.9809 294.74" stroke="white" stroke-width="10" stroke-linecap="round" stroke-linejoin="round"/>
<path d="M38.6436 312.28C42.6991 318.458 53.5677 318.191 56.9809 312.28" stroke="white" stroke-width="10" stroke-linecap="round" stroke-linejoin="round"/>
<path d="M226.627 308.54L163.452 308.6" stroke="#004900" stroke-width="34.7849" stroke-linecap="round"/>
<path d="M268.71 211.218C281.784 211.218 292.382 219.419 292.382 229.535C292.382 239.652 281.784 247.853 268.71 247.853C255.636 247.853 245.038 239.652 245.038 229.535C245.038 219.419 255.636 211.218 268.71 211.218Z" fill="#004900"/>
<path d="M234.05 237.807L129.588 324.158" stroke="#004900" stroke-width="45" stroke-linecap="round"/>
<path d="M264.252 282.863C281.62 282.863 295.7 293.757 295.7 307.197C295.7 320.636 281.62 331.531 264.252 331.531C246.885 331.531 232.805 320.636 232.805 307.197C232.805 293.757 246.885 282.863 264.252 282.863Z" fill="#004900"/>
<path d="M175.606 344.054H124.249C123.174 344.054 122.302 342.814 122.302 341.286V272.781C122.302 271.252 123.174 270.013 124.249 270.013H175.606C176.681 270.013 177.552 271.252 177.552 272.781V341.286C177.552 342.814 176.681 344.054 175.606 344.054Z" fill="#004900"/>
<path d="M115.505 288.269L122.488 281.436" stroke="white" stroke-width="12" stroke-linecap="round"/>
<path d="M136.495 299.136L149.878 309.76L149.927 324.583" stroke="white" stroke-width="12" stroke-linecap="round"/>
<path d="M179.909 271.897L229.932 284.803" stroke="#004900" stroke-width="46.3798" stroke-linecap="round"/>
<path d="M253.309 367.727V331.43" stroke="white" stroke-width="12" stroke-linecap="round"/>
<path d="M230.514 244.168L197.532 271.23" stroke="white" stroke-width="12" stroke-linecap="round"/>
<path d="M253.309 279.639V234.814" stroke="white" stroke-width="12" stroke-linecap="round"/>
<path d="M244.334 294.74C248.39 300.918 259.259 300.652 262.672 294.74" stroke="white" stroke-width="10" stroke-linecap="round" stroke-linejoin="round"/>
<path d="M244.334 312.28C248.39 318.458 259.259 318.191 262.672 312.28" stroke="white" stroke-width="10" stroke-linecap="round" stroke-linejoin="round"/>
<path d="M184.653 288.344L177.82 281.361" stroke="white" stroke-width="12" stroke-linecap="round"/>
<path d="M216.405 290.695L202.899 301.514" stroke="white" stroke-width="12" stroke-linecap="round"/>
<path d="M163.739 299.136L150.356 309.76L150.306 324.583" stroke="white" stroke-width="12" stroke-linecap="round"/>
<path d="M69.7197 244.168L102.702 271.23" stroke="white" stroke-width="12" stroke-linecap="round"/>
<path d="M83.8282 290.695L97.3346 301.514" stroke="white" stroke-width="12" stroke-linecap="round"/>
</svg>
