<svg width="300" height="400" viewBox="0 0 300 400" fill="none" xmlns="http://www.w3.org/2000/svg">
<path d="M97.7857 126.877C131.54 126.877 158.903 99.5141 158.903 65.7598C158.903 32.0054 131.54 4.64209 97.7857 4.64209C64.0314 4.64209 36.668 32.0054 36.668 65.7598C36.668 99.5141 64.0314 126.877 97.7857 126.877Z" fill="black"/>
<path d="M97.7857 216.877C131.54 216.877 158.903 189.514 158.903 155.76C158.903 122.005 131.54 94.6421 97.7857 94.6421C64.0314 94.6421 36.668 122.005 36.668 155.76C36.668 189.514 64.0314 216.877 97.7857 216.877Z" fill="black"/>
<path d="M97.7857 305.377C131.54 305.377 158.903 278.014 158.903 244.26C158.903 210.505 131.54 183.142 97.7857 183.142C64.0314 183.142 36.668 210.505 36.668 244.26C36.668 278.014 64.0314 305.377 97.7857 305.377Z" fill="black"/>
<path d="M97.7857 395.377C131.54 395.377 158.903 368.014 158.903 334.26C158.903 300.505 131.54 273.142 97.7857 273.142C64.0314 273.142 36.668 300.505 36.668 334.26C36.668 368.014 64.0314 395.377 97.7857 395.377Z" fill="black"/>
<path d="M202.214 126.877C235.968 126.877 263.331 99.5141 263.331 65.7598C263.331 32.0054 235.968 4.64209 202.214 4.64209C168.459 4.64209 141.096 32.0054 141.096 65.7598C141.096 99.5141 168.459 126.877 202.214 126.877Z" fill="black"/>
<path d="M202.214 216.877C235.968 216.877 263.331 189.514 263.331 155.76C263.331 122.005 235.968 94.6421 202.214 94.6421C168.459 94.6421 141.096 122.005 141.096 155.76C141.096 189.514 168.459 216.877 202.214 216.877Z" fill="black"/>
<path d="M202.214 305.377C235.968 305.377 263.331 278.014 263.331 244.26C263.331 210.505 235.968 183.142 202.214 183.142C168.459 183.142 141.096 210.505 141.096 244.26C141.096 278.014 168.459 305.377 202.214 305.377Z" fill="black"/>
<path d="M202.214 395.377C235.968 395.377 263.331 368.014 263.331 334.26C263.331 300.505 235.968 273.142 202.214 273.142C168.459 273.142 141.096 300.505 141.096 334.26C141.096 368.014 168.459 395.377 202.214 395.377Z" fill="black"/>
<path d="M97.7857 111.854C123.243 111.854 143.88 91.2171 143.88 65.7598C143.88 40.3024 123.243 19.6652 97.7857 19.6652C72.3284 19.6652 51.6911 40.3024 51.6911 65.7598C51.6911 91.2171 72.3284 111.854 97.7857 111.854Z" fill="white"/>
<path d="M97.7857 105.453C119.707 105.453 137.479 87.6815 137.479 65.7598C137.479 43.838 119.707 26.0669 97.7857 26.0669C75.8639 26.0669 58.0928 43.838 58.0928 65.7598C58.0928 87.6815 75.8639 105.453 97.7857 105.453Z" fill="#000037"/>
<path d="M119.334 65.6111C119.296 59.9666 117.043 54.5627 113.062 50.5613C109.081 46.56 103.688 44.2807 98.0439 44.2135C92.3997 44.1462 86.9544 46.2964 82.8789 50.2018C78.8034 54.1072 76.4231 59.456 76.2497 65.098C76.0764 70.74 78.1239 76.2247 81.952 80.3729C85.7801 84.5211 91.0831 87.0015 96.7208 87.2809C102.359 87.5603 107.881 85.6163 112.1 81.8669C116.32 78.1174 118.899 72.862 119.285 67.2305" stroke="white" stroke-width="6.75045" stroke-linecap="round" stroke-linejoin="round" stroke-dasharray="13.5 13.5"/>
<path d="M97.7857 73.7913C102.221 73.7913 105.817 70.1955 105.817 65.7597C105.817 61.3239 102.221 57.728 97.7857 57.728C93.35 57.728 89.7541 61.3239 89.7541 65.7597C89.7541 70.1955 93.35 73.7913 97.7857 73.7913Z" fill="white"/>
<path d="M97.7857 69.4274C99.8113 69.4274 101.453 67.7853 101.453 65.7598C101.453 63.7342 99.8113 62.0922 97.7857 62.0922C95.7602 62.0922 94.1181 63.7342 94.1181 65.7598C94.1181 67.7853 95.7602 69.4274 97.7857 69.4274Z" fill="#000037"/>
<path d="M97.7857 201.854C123.243 201.854 143.88 181.217 143.88 155.76C143.88 130.302 123.243 109.665 97.7857 109.665C72.3284 109.665 51.6911 130.302 51.6911 155.76C51.6911 181.217 72.3284 201.854 97.7857 201.854Z" fill="white"/>
<path d="M97.7857 195.453C119.707 195.453 137.479 177.682 137.479 155.76C137.479 133.838 119.707 116.067 97.7857 116.067C75.8639 116.067 58.0928 133.838 58.0928 155.76C58.0928 177.682 75.8639 195.453 97.7857 195.453Z" fill="#000037"/>
<path d="M119.335 155.611C119.296 149.967 117.043 144.563 113.062 140.561C109.081 136.56 103.688 134.281 98.0439 134.213C92.3997 134.146 86.9544 136.296 82.8789 140.202C78.8034 144.107 76.4231 149.456 76.2498 155.098C76.0764 160.74 78.1239 166.225 81.952 170.373C85.7801 174.521 91.0831 177.002 96.7208 177.281C102.359 177.56 107.881 175.616 112.1 171.867C116.32 168.117 118.899 162.862 119.285 157.231" stroke="white" stroke-width="6.75045" stroke-linecap="round" stroke-linejoin="round" stroke-dasharray="13.5 13.5"/>
<path d="M97.7857 163.791C102.221 163.791 105.817 160.195 105.817 155.76C105.817 151.324 102.221 147.728 97.7857 147.728C93.35 147.728 89.7541 151.324 89.7541 155.76C89.7541 160.195 93.35 163.791 97.7857 163.791Z" fill="white"/>
<path d="M97.7857 159.427C99.8113 159.427 101.453 157.785 101.453 155.76C101.453 153.734 99.8113 152.092 97.7857 152.092C95.7602 152.092 94.1181 153.734 94.1181 155.76C94.1181 157.785 95.7602 159.427 97.7857 159.427Z" fill="#000037"/>
<path d="M97.7857 290.354C123.243 290.354 143.88 269.717 143.88 244.26C143.88 218.802 123.243 198.165 97.7857 198.165C72.3284 198.165 51.6911 218.802 51.6911 244.26C51.6911 269.717 72.3284 290.354 97.7857 290.354Z" fill="white"/>
<path d="M97.7857 283.953C119.707 283.953 137.479 266.182 137.479 244.26C137.479 222.338 119.707 204.567 97.7857 204.567C75.8639 204.567 58.0928 222.338 58.0928 244.26C58.0928 266.182 75.8639 283.953 97.7857 283.953Z" fill="#000037"/>
<path d="M119.334 244.111C119.296 238.467 117.043 233.063 113.062 229.061C109.081 225.06 103.688 222.781 98.0439 222.713C92.3997 222.646 86.9544 224.796 82.8789 228.702C78.8034 232.607 76.4231 237.956 76.2497 243.598C76.0764 249.24 78.1239 254.725 81.952 258.873C85.7801 263.021 91.0831 265.502 96.7208 265.781C102.359 266.06 107.881 264.116 112.1 260.367C116.32 256.617 118.899 251.362 119.285 245.731" stroke="white" stroke-width="6.75045" stroke-linecap="round" stroke-linejoin="round" stroke-dasharray="13.5 13.5"/>
<path d="M97.7857 252.291C102.221 252.291 105.817 248.695 105.817 244.26C105.817 239.824 102.221 236.228 97.7857 236.228C93.35 236.228 89.7541 239.824 89.7541 244.26C89.7541 248.695 93.35 252.291 97.7857 252.291Z" fill="white"/>
<path d="M97.7857 247.927C99.8113 247.927 101.453 246.285 101.453 244.26C101.453 242.234 99.8113 240.592 97.7857 240.592C95.7602 240.592 94.1181 242.234 94.1181 244.26C94.1181 246.285 95.7602 247.927 97.7857 247.927Z" fill="#000037"/>
<path d="M97.7857 380.354C123.243 380.354 143.88 359.717 143.88 334.26C143.88 308.802 123.243 288.165 97.7857 288.165C72.3284 288.165 51.6911 308.802 51.6911 334.26C51.6911 359.717 72.3284 380.354 97.7857 380.354Z" fill="white"/>
<path d="M97.7857 373.953C119.707 373.953 137.479 356.182 137.479 334.26C137.479 312.338 119.707 294.567 97.7857 294.567C75.8639 294.567 58.0928 312.338 58.0928 334.26C58.0928 356.182 75.8639 373.953 97.7857 373.953Z" fill="#000037"/>
<path d="M119.335 334.111C119.296 328.467 117.043 323.063 113.062 319.061C109.081 315.06 103.688 312.781 98.0439 312.713C92.3997 312.646 86.9544 314.796 82.8789 318.702C78.8034 322.607 76.4231 327.956 76.2498 333.598C76.0764 339.24 78.1239 344.725 81.952 348.873C85.7801 353.021 91.0831 355.502 96.7208 355.781C102.359 356.06 107.881 354.116 112.1 350.367C116.32 346.617 118.899 341.362 119.285 335.731" stroke="white" stroke-width="6.75045" stroke-linecap="round" stroke-linejoin="round" stroke-dasharray="13.5 13.5"/>
<path d="M97.7857 342.291C102.221 342.291 105.817 338.695 105.817 334.26C105.817 329.824 102.221 326.228 97.7857 326.228C93.35 326.228 89.7541 329.824 89.7541 334.26C89.7541 338.695 93.35 342.291 97.7857 342.291Z" fill="white"/>
<path d="M97.7857 337.927C99.8113 337.927 101.453 336.285 101.453 334.26C101.453 332.234 99.8113 330.592 97.7857 330.592C95.7602 330.592 94.1181 332.234 94.1181 334.26C94.1181 336.285 95.7602 337.927 97.7857 337.927Z" fill="#000037"/>
<path d="M202.214 111.854C227.671 111.854 248.308 91.2171 248.308 65.7598C248.308 40.3024 227.671 19.6652 202.214 19.6652C176.756 19.6652 156.119 40.3024 156.119 65.7598C156.119 91.2171 176.756 111.854 202.214 111.854Z" fill="white"/>
<path d="M202.214 105.453C224.136 105.453 241.907 87.6815 241.907 65.7598C241.907 43.838 224.136 26.0669 202.214 26.0669C180.292 26.0669 162.521 43.838 162.521 65.7598C162.521 87.6815 180.292 105.453 202.214 105.453Z" fill="#000037"/>
<path d="M223.763 65.6111C223.724 59.9666 221.471 54.5627 217.49 50.5613C213.509 46.56 208.116 44.2807 202.472 44.2135C196.828 44.1462 191.383 46.2965 187.307 50.2019C183.231 54.1073 180.851 59.456 180.678 65.098C180.504 70.7399 182.552 76.2247 186.38 80.3729C190.208 84.5211 195.511 87.0015 201.149 87.2809C206.787 87.5603 212.309 85.6163 216.528 81.8669C220.748 78.1174 223.328 72.862 223.713 67.2305" stroke="white" stroke-width="6.75045" stroke-linecap="round" stroke-linejoin="round" stroke-dasharray="13.5 13.5"/>
<path d="M202.214 73.7913C206.65 73.7913 210.245 70.1955 210.245 65.7597C210.245 61.3239 206.65 57.728 202.214 57.728C197.778 57.728 194.182 61.3239 194.182 65.7597C194.182 70.1955 197.778 73.7913 202.214 73.7913Z" fill="white"/>
<path d="M202.214 69.4274C204.239 69.4274 205.881 67.7853 205.881 65.7598C205.881 63.7342 204.239 62.0922 202.214 62.0922C200.188 62.0922 198.546 63.7342 198.546 65.7598C198.546 67.7853 200.188 69.4274 202.214 69.4274Z" fill="#000037"/>
<path d="M202.214 201.854C227.671 201.854 248.308 181.217 248.308 155.76C248.308 130.302 227.671 109.665 202.214 109.665C176.756 109.665 156.119 130.302 156.119 155.76C156.119 181.217 176.756 201.854 202.214 201.854Z" fill="white"/>
<path d="M202.214 195.453C224.136 195.453 241.907 177.682 241.907 155.76C241.907 133.838 224.136 116.067 202.214 116.067C180.292 116.067 162.521 133.838 162.521 155.76C162.521 177.682 180.292 195.453 202.214 195.453Z" fill="#000037"/>
<path d="M223.763 155.611C223.724 149.967 221.471 144.563 217.49 140.561C213.509 136.56 208.116 134.281 202.472 134.213C196.828 134.146 191.382 136.296 187.307 140.202C183.231 144.107 180.851 149.456 180.678 155.098C180.504 160.74 182.552 166.225 186.38 170.373C190.208 174.521 195.511 177.002 201.149 177.281C206.787 177.56 212.309 175.616 216.528 171.867C220.748 168.117 223.328 162.862 223.713 157.231" stroke="white" stroke-width="6.75045" stroke-linecap="round" stroke-linejoin="round" stroke-dasharray="13.5 13.5"/>
<path d="M202.214 163.791C206.65 163.791 210.245 160.195 210.245 155.76C210.245 151.324 206.65 147.728 202.214 147.728C197.778 147.728 194.182 151.324 194.182 155.76C194.182 160.195 197.778 163.791 202.214 163.791Z" fill="white"/>
<path d="M202.214 159.427C204.239 159.427 205.881 157.785 205.881 155.76C205.881 153.734 204.239 152.092 202.214 152.092C200.188 152.092 198.546 153.734 198.546 155.76C198.546 157.785 200.188 159.427 202.214 159.427Z" fill="#000037"/>
<path d="M202.214 290.354C227.671 290.354 248.308 269.717 248.308 244.26C248.308 218.802 227.671 198.165 202.214 198.165C176.756 198.165 156.119 218.802 156.119 244.26C156.119 269.717 176.756 290.354 202.214 290.354Z" fill="white"/>
<path d="M202.214 283.953C224.136 283.953 241.907 266.182 241.907 244.26C241.907 222.338 224.136 204.567 202.214 204.567C180.292 204.567 162.521 222.338 162.521 244.26C162.521 266.182 180.292 283.953 202.214 283.953Z" fill="#000037"/>
<path d="M223.763 244.111C223.724 238.467 221.471 233.063 217.49 229.061C213.509 225.06 208.116 222.781 202.472 222.713C196.828 222.646 191.382 224.796 187.307 228.702C183.231 232.607 180.851 237.956 180.678 243.598C180.504 249.24 182.552 254.725 186.38 258.873C190.208 263.021 195.511 265.502 201.149 265.781C206.787 266.06 212.309 264.116 216.528 260.367C220.748 256.617 223.328 251.362 223.713 245.731" stroke="white" stroke-width="6.75045" stroke-linecap="round" stroke-linejoin="round" stroke-dasharray="13.5 13.5"/>
<path d="M202.214 252.291C206.65 252.291 210.245 248.695 210.245 244.26C210.245 239.824 206.65 236.228 202.214 236.228C197.778 236.228 194.182 239.824 194.182 244.26C194.182 248.695 197.778 252.291 202.214 252.291Z" fill="white"/>
<path d="M202.214 247.927C204.239 247.927 205.881 246.285 205.881 244.26C205.881 242.234 204.239 240.592 202.214 240.592C200.188 240.592 198.546 242.234 198.546 244.26C198.546 246.285 200.188 247.927 202.214 247.927Z" fill="#000037"/>
<path d="M202.214 380.354C227.671 380.354 248.308 359.717 248.308 334.26C248.308 308.802 227.671 288.165 202.214 288.165C176.756 288.165 156.119 308.802 156.119 334.26C156.119 359.717 176.756 380.354 202.214 380.354Z" fill="white"/>
<path d="M202.214 373.953C224.136 373.953 241.907 356.182 241.907 334.26C241.907 312.338 224.136 294.567 202.214 294.567C180.292 294.567 162.521 312.338 162.521 334.26C162.521 356.182 180.292 373.953 202.214 373.953Z" fill="#000037"/>
<path d="M223.763 334.111C223.724 328.467 221.471 323.063 217.49 319.061C213.509 315.06 208.116 312.781 202.472 312.713C196.828 312.646 191.383 314.796 187.307 318.702C183.231 322.607 180.851 327.956 180.678 333.598C180.504 339.24 182.552 344.725 186.38 348.873C190.208 353.021 195.511 355.502 201.149 355.781C206.787 356.06 212.309 354.116 216.528 350.367C220.748 346.617 223.328 341.362 223.713 335.73" stroke="white" stroke-width="6.75045" stroke-linecap="round" stroke-linejoin="round" stroke-dasharray="13.5 13.5"/>
<path d="M202.214 342.291C206.65 342.291 210.245 338.695 210.245 334.26C210.245 329.824 206.65 326.228 202.214 326.228C197.778 326.228 194.182 329.824 194.182 334.26C194.182 338.695 197.778 342.291 202.214 342.291Z" fill="white"/>
<path d="M202.214 337.927C204.239 337.927 205.881 336.285 205.881 334.26C205.881 332.234 204.239 330.592 202.214 330.592C200.188 330.592 198.546 332.234 198.546 334.26C198.546 336.285 200.188 337.927 202.214 337.927Z" fill="#000037"/>
</svg>
