<svg width="300" height="400" viewBox="0 0 300 400" fill="none" xmlns="http://www.w3.org/2000/svg">
<path fill-rule="evenodd" clip-rule="evenodd" d="M35.0899 112.46C26.9409 113.632 17.2006 102.049 28.8466 98.747C65.9869 90.8474 191.862 68.8953 206.273 62.2952C218.924 58.1078 247.74 80.6718 265.585 91.1271C276.666 98.2603 271.618 106.35 263.088 109.998C256.181 112.288 215.499 116.403 193.709 113.515C189.552 113.047 191.13 102.001 181.846 100.417C139.253 91.7084 78.3773 106.6 35.0899 112.46Z" fill="#19328C"/>
<path fill-rule="evenodd" clip-rule="evenodd" d="M191.504 111.108C190.42 114.652 189.868 119.582 187.574 120.759C183.171 122.421 178.28 121.285 175.837 125.437C172.275 131.733 150.495 149.582 135.388 162.752C131.105 166.486 123.862 163.741 123.395 156.778L123.336 182.468L134.064 181.884C143.405 173.851 169.155 146.94 180.675 146.624C189.832 145.824 200.432 142.727 202.956 136.018C205.081 130.024 198.778 125.794 199.361 122.45C200.27 118.544 207.808 114.518 210.336 114.487C214.651 114.434 192.583 107.336 191.504 111.108Z" fill="#19328C"/>
<path fill-rule="evenodd" clip-rule="evenodd" d="M57.3708 195.758C101.696 184.158 206.311 148.194 221.639 154.921C240.63 165.09 275.658 189.012 276.142 199.111C276.335 208.936 276.226 209.772 268.697 217.701C257.501 229.796 221.641 289.9 216.417 313.022C215.208 318.888 216.041 330.235 212.025 334.936C206.403 341.826 137.178 333.88 92.1148 331.915C76.8804 331.353 69.805 314.16 92.568 313.638C121.56 313.063 171.089 311.746 176.961 303.823C182.264 296.384 218.84 212.668 218.925 203.652C219.015 197.997 209.799 184.748 204.31 180.927C197.609 175.717 103.67 207.147 61.8534 213.684L57.3708 195.758Z" fill="#19328C"/>
<path fill-rule="evenodd" clip-rule="evenodd" d="M38.9039 208.237C50.7322 233.404 76.2311 279.873 86.4156 324.706L113.69 322.717C106.943 288.981 90.4681 231.653 74.4815 203.531C45.6891 153.299 14.8326 159.947 38.9039 208.237Z" fill="#19328C"/>
<path fill-rule="evenodd" clip-rule="evenodd" d="M122.531 138.017C119.8 123.477 109.359 125.936 110.981 141.288L126.677 322.185L138.7 321.531L122.531 138.017Z" fill="#19328C"/>
<path fill-rule="evenodd" clip-rule="evenodd" d="M180.756 139.133H169.429L148.069 318.614H159.052L180.756 139.133Z" fill="#19328C"/>
</svg>
