<svg width="300" height="400" viewBox="0 0 300 400" fill="none" xmlns="http://www.w3.org/2000/svg">
<path d="M77.6664 150.978C111.421 150.978 138.784 123.615 138.784 89.8606C138.784 56.1062 111.421 28.7429 77.6664 28.7429C43.912 28.7429 16.5487 56.1062 16.5487 89.8606C16.5487 123.615 43.912 150.978 77.6664 150.978Z" fill="#D71E1E"/>
<path d="M77.6664 135.955C103.124 135.955 123.761 115.318 123.761 89.8606C123.761 64.4032 103.124 43.766 77.6664 43.766C52.209 43.766 31.5718 64.4032 31.5718 89.8606C31.5718 115.318 52.209 135.955 77.6664 135.955Z" fill="white"/>
<path d="M77.6664 129.553C99.5882 129.553 117.359 111.782 117.359 89.8606C117.359 67.9388 99.5882 50.1677 77.6664 50.1677C55.7446 50.1677 37.9735 67.9388 37.9735 89.8606C37.9735 111.782 55.7446 129.553 77.6664 129.553Z" fill="#D71E1E"/>
<path d="M99.2152 89.712C99.1763 84.0675 96.9241 78.6637 92.9427 74.6623C88.9614 70.6609 83.5689 68.3816 77.9247 68.3144C72.2804 68.2471 66.8351 70.3974 62.7596 74.3028C58.6841 78.2082 56.3038 83.5569 56.1305 89.1989C55.9571 94.8409 58.0046 100.326 61.8327 104.474C65.6608 108.622 70.9638 111.102 76.6016 111.382C82.2393 111.661 87.7615 109.717 91.981 105.968C96.2004 102.218 98.7802 96.9629 99.1655 91.3314" stroke="white" stroke-width="6.75045" stroke-linecap="round" stroke-linejoin="round" stroke-dasharray="13.5 13.5"/>
<path d="M77.6664 97.8923C82.1022 97.8923 85.6981 94.2964 85.6981 89.8606C85.6981 85.4249 82.1022 81.829 77.6664 81.829C73.2307 81.829 69.6348 85.4249 69.6348 89.8606C69.6348 94.2964 73.2307 97.8923 77.6664 97.8923Z" fill="white"/>
<path d="M77.6664 93.5282C79.692 93.5282 81.334 91.8862 81.334 89.8606C81.334 87.835 79.692 86.193 77.6664 86.193C75.6408 86.193 73.9988 87.835 73.9988 89.8606C73.9988 91.8862 75.6408 93.5282 77.6664 93.5282Z" fill="#D71E1E"/>
<path d="M221.784 150.978C255.539 150.978 282.902 123.615 282.902 89.8606C282.902 56.1062 255.539 28.7429 221.784 28.7429C188.03 28.7429 160.667 56.1062 160.667 89.8606C160.667 123.615 188.03 150.978 221.784 150.978Z" fill="#D71E1E"/>
<path d="M221.784 135.955C247.242 135.955 267.879 115.318 267.879 89.8606C267.879 64.4032 247.242 43.766 221.784 43.766C196.327 43.766 175.69 64.4032 175.69 89.8606C175.69 115.318 196.327 135.955 221.784 135.955Z" fill="white"/>
<path d="M221.784 129.553C243.706 129.553 261.477 111.782 261.477 89.8606C261.477 67.9388 243.706 50.1677 221.784 50.1677C199.863 50.1677 182.092 67.9388 182.092 89.8606C182.092 111.782 199.863 129.553 221.784 129.553Z" fill="#D71E1E"/>
<path d="M243.333 89.712C243.294 84.0675 241.042 78.6637 237.061 74.6623C233.079 70.6609 227.687 68.3816 222.043 68.3144C216.398 68.2471 210.953 70.3974 206.878 74.3028C202.802 78.2082 200.422 83.5569 200.249 89.1989C200.075 94.8409 202.123 100.326 205.951 104.474C209.779 108.622 215.082 111.102 220.72 111.382C226.357 111.661 231.88 109.717 236.099 105.968C240.318 102.218 242.898 96.9629 243.284 91.3314" stroke="white" stroke-width="6.75045" stroke-linecap="round" stroke-linejoin="round" stroke-dasharray="13.5 13.5"/>
<path d="M221.784 97.8923C226.22 97.8923 229.816 94.2964 229.816 89.8606C229.816 85.4249 226.22 81.829 221.784 81.829C217.349 81.829 213.753 85.4249 213.753 89.8606C213.753 94.2964 217.349 97.8923 221.784 97.8923Z" fill="white"/>
<path d="M221.784 93.5282C223.81 93.5282 225.452 91.8862 225.452 89.8606C225.452 87.835 223.81 86.193 221.784 86.193C219.759 86.193 218.117 87.835 218.117 89.8606C218.117 91.8862 219.759 93.5282 221.784 93.5282Z" fill="#D71E1E"/>
<path d="M77.6664 370.909C111.421 370.909 138.784 343.546 138.784 309.792C138.784 276.037 111.421 248.674 77.6664 248.674C43.912 248.674 16.5487 276.037 16.5487 309.792C16.5487 343.546 43.912 370.909 77.6664 370.909Z" fill="#D71E1E"/>
<path d="M77.6664 355.886C103.124 355.886 123.761 335.249 123.761 309.792C123.761 284.334 103.124 263.697 77.6664 263.697C52.209 263.697 31.5718 284.334 31.5718 309.792C31.5718 335.249 52.209 355.886 77.6664 355.886Z" fill="white"/>
<path d="M77.6664 349.485C99.5882 349.485 117.359 331.713 117.359 309.792C117.359 287.87 99.5882 270.099 77.6664 270.099C55.7446 270.099 37.9735 287.87 37.9735 309.792C37.9735 331.713 55.7446 349.485 77.6664 349.485Z" fill="#D71E1E"/>
<path d="M99.2152 309.643C99.1763 303.999 96.9241 298.595 92.9427 294.593C88.9614 290.592 83.5689 288.313 77.9247 288.245C72.2804 288.178 66.8351 290.328 62.7596 294.234C58.6841 298.139 56.3038 303.488 56.1305 309.13C55.9571 314.772 58.0046 320.257 61.8327 324.405C65.6608 328.553 70.9638 331.034 76.6016 331.313C82.2393 331.592 87.7615 329.648 91.981 325.899C96.2004 322.149 98.7802 316.894 99.1655 311.262" stroke="white" stroke-width="6.75045" stroke-linecap="round" stroke-linejoin="round" stroke-dasharray="13.5 13.5"/>
<path d="M77.6664 317.823C82.1022 317.823 85.6981 314.227 85.6981 309.792C85.6981 305.356 82.1022 301.76 77.6664 301.76C73.2307 301.76 69.6348 305.356 69.6348 309.792C69.6348 314.227 73.2307 317.823 77.6664 317.823Z" fill="white"/>
<path d="M77.6664 313.459C79.692 313.459 81.334 311.817 81.334 309.792C81.334 307.766 79.692 306.124 77.6664 306.124C75.6408 306.124 73.9988 307.766 73.9988 309.792C73.9988 311.817 75.6408 313.459 77.6664 313.459Z" fill="#D71E1E"/>
<path d="M221.784 370.909C255.539 370.909 282.902 343.546 282.902 309.792C282.902 276.037 255.539 248.674 221.784 248.674C188.03 248.674 160.667 276.037 160.667 309.792C160.667 343.546 188.03 370.909 221.784 370.909Z" fill="#D71E1E"/>
<path d="M221.784 355.886C247.242 355.886 267.879 335.249 267.879 309.792C267.879 284.334 247.242 263.697 221.784 263.697C196.327 263.697 175.69 284.334 175.69 309.792C175.69 335.249 196.327 355.886 221.784 355.886Z" fill="white"/>
<path d="M221.784 349.485C243.706 349.485 261.477 331.713 261.477 309.792C261.477 287.87 243.706 270.099 221.784 270.099C199.863 270.099 182.092 287.87 182.092 309.792C182.092 331.713 199.863 349.485 221.784 349.485Z" fill="#D71E1E"/>
<path d="M243.333 309.643C243.294 303.999 241.042 298.595 237.061 294.593C233.079 290.592 227.687 288.313 222.043 288.245C216.398 288.178 210.953 290.328 206.878 294.234C202.802 298.139 200.422 303.488 200.249 309.13C200.075 314.772 202.123 320.257 205.951 324.405C209.779 328.553 215.082 331.034 220.72 331.313C226.357 331.592 231.88 329.648 236.099 325.899C240.318 322.149 242.898 316.894 243.284 311.262" stroke="white" stroke-width="6.75045" stroke-linecap="round" stroke-linejoin="round" stroke-dasharray="13.5 13.5"/>
<path d="M221.784 317.823C226.22 317.823 229.816 314.227 229.816 309.792C229.816 305.356 226.22 301.76 221.784 301.76C217.349 301.76 213.753 305.356 213.753 309.792C213.753 314.227 217.349 317.823 221.784 317.823Z" fill="white"/>
<path d="M221.784 313.459C223.81 313.459 225.452 311.817 225.452 309.792C225.452 307.766 223.81 306.124 221.784 306.124C219.759 306.124 218.117 307.766 218.117 309.792C218.117 311.817 219.759 313.459 221.784 313.459Z" fill="#D71E1E"/>
<path d="M149.981 261.795C183.735 261.795 211.099 234.432 211.099 200.677C211.099 166.923 183.735 139.559 149.981 139.559C116.227 139.559 88.8633 166.923 88.8633 200.677C88.8633 234.432 116.227 261.795 149.981 261.795Z" fill="#D71E1E"/>
<path d="M149.981 246.772C175.438 246.772 196.076 226.134 196.076 200.677C196.076 175.22 175.438 154.583 149.981 154.583C124.524 154.583 103.886 175.22 103.886 200.677C103.886 226.134 124.524 246.772 149.981 246.772Z" fill="white"/>
<path d="M149.981 240.37C171.903 240.37 189.674 222.599 189.674 200.677C189.674 178.755 171.903 160.984 149.981 160.984C128.059 160.984 110.288 178.755 110.288 200.677C110.288 222.599 128.059 240.37 149.981 240.37Z" fill="#D71E1E"/>
<path d="M171.53 200.529C171.491 194.884 169.239 189.48 165.257 185.479C161.276 181.477 155.883 179.198 150.239 179.131C144.595 179.064 139.15 181.214 135.074 185.119C130.999 189.025 128.618 194.373 128.445 200.015C128.272 205.657 130.319 211.142 134.147 215.29C137.975 219.439 143.278 221.919 148.916 222.198C154.554 222.478 160.076 220.534 164.296 216.784C168.515 213.035 171.095 207.779 171.48 202.148" stroke="white" stroke-width="6.75045" stroke-linecap="round" stroke-linejoin="round" stroke-dasharray="13.5 13.5"/>
<path d="M149.981 208.709C154.417 208.709 158.013 205.113 158.013 200.677C158.013 196.241 154.417 192.646 149.981 192.646C145.545 192.646 141.949 196.241 141.949 200.677C141.949 205.113 145.545 208.709 149.981 208.709Z" fill="white"/>
<path d="M149.981 204.345C152.007 204.345 153.649 202.703 153.649 200.677C153.649 198.652 152.007 197.01 149.981 197.01C147.955 197.01 146.313 198.652 146.313 200.677C146.313 202.703 147.955 204.345 149.981 204.345Z" fill="#D71E1E"/>
<path d="M46.1629 219.779C57.0888 219.779 65.946 210.922 65.946 199.996C65.946 189.07 57.0888 180.213 46.1629 180.213C35.237 180.213 26.3798 189.07 26.3798 199.996C26.3798 210.922 35.237 219.779 46.1629 219.779Z" fill="#D71E1E"/>
</svg>
