<svg width="300" height="400" viewBox="0 0 300 400" fill="none" xmlns="http://www.w3.org/2000/svg">
<path d="M150.005 181.023C195.502 181.023 232.384 144.141 232.384 98.6437C232.384 53.1468 195.502 16.2643 150.005 16.2643C104.508 16.2643 67.6252 53.1468 67.6252 98.6437C67.6252 144.141 104.508 181.023 150.005 181.023Z" fill="white" stroke="black" stroke-width="13.1856" stroke-linejoin="round"/>
<path d="M150.005 166.179C187.146 166.179 217.256 136.07 217.256 98.9277C217.256 61.7859 187.146 31.6765 150.005 31.6765C112.863 31.6765 82.7534 61.7859 82.7534 98.9277C82.7534 136.07 112.863 166.179 150.005 166.179Z" fill="#000037"/>
<path d="M116.825 107.44C114.254 109.209 110.956 110.104 107.606 109.944C104.256 109.784 101.107 108.581 98.8036 106.58C96.5006 104.579 95.2178 101.933 95.2178 99.1822C95.2178 96.4315 96.5006 93.7849 98.8036 91.7842C101.107 89.7835 104.256 88.5799 107.606 88.42C110.956 88.2601 114.254 89.1558 116.825 90.9239" stroke="white" stroke-width="9.13212" stroke-linecap="round" stroke-linejoin="round"/>
<path d="M140.467 132.037C140.713 135.147 139.84 138.451 138.026 141.273C136.212 144.094 133.596 146.22 130.711 147.214C127.827 148.208 124.894 147.996 122.512 146.62C120.129 145.245 118.479 142.811 117.898 139.816C117.316 136.821 117.849 133.492 119.385 130.511C120.922 127.529 123.347 125.121 126.163 123.779" stroke="white" stroke-width="9.13212" stroke-linecap="round" stroke-linejoin="round"/>
<path d="M172.761 123.429C175.578 124.772 178.002 127.18 179.539 130.162C181.076 133.143 181.608 136.472 181.027 139.467C180.446 142.462 178.795 144.896 176.413 146.271C174.031 147.646 171.097 147.859 168.213 146.865C165.329 145.871 162.712 143.745 160.898 140.924C159.085 138.102 158.211 134.798 158.457 131.688" stroke="white" stroke-width="9.13212" stroke-linecap="round" stroke-linejoin="round"/>
<path d="M181.453 91.1585C184.024 89.3905 187.322 88.4947 190.673 88.6546C194.023 88.8146 197.172 90.0181 199.475 92.0188C201.778 94.0196 203.061 96.6662 203.061 99.4168C203.061 102.167 201.778 104.814 199.475 106.815C197.172 108.816 194.023 110.019 190.673 110.179C187.322 110.339 184.024 109.443 181.453 107.675" stroke="white" stroke-width="9.13212" stroke-linecap="round" stroke-linejoin="round"/>
<path d="M157.852 67.495C157.606 64.3846 158.48 61.0804 160.293 58.2589C162.107 55.4374 164.724 53.3121 167.608 52.318C170.492 51.3239 173.426 51.5362 175.808 52.9115C178.19 54.2869 179.841 56.7211 180.422 59.716C181.003 62.7108 180.471 66.0397 178.934 69.0211C177.398 72.0025 174.973 74.411 172.156 75.7533" stroke="white" stroke-width="9.13212" stroke-linecap="round" stroke-linejoin="round"/>
<path d="M125.559 76.1026C122.742 74.7602 120.317 72.3518 118.781 69.3704C117.244 66.389 116.712 63.0601 117.293 60.0652C117.874 57.0704 119.525 54.6361 121.907 53.2608C124.289 51.8855 127.222 51.6732 130.107 52.6673C132.991 53.6614 135.608 55.7867 137.421 58.6082C139.235 61.4297 140.108 64.7339 139.862 67.8443" stroke="white" stroke-width="9.13212" stroke-linecap="round" stroke-linejoin="round"/>
<path d="M149.892 112.773C157.585 112.773 163.821 106.536 163.821 98.843C163.821 91.1499 157.585 84.9135 149.892 84.9135C142.199 84.9135 135.962 91.1499 135.962 98.843C135.962 106.536 142.199 112.773 149.892 112.773Z" stroke="white" stroke-width="9.40902" stroke-linejoin="round"/>
<path d="M150.005 383.523C195.502 383.523 232.384 346.641 232.384 301.144C232.384 255.647 195.502 218.764 150.005 218.764C104.508 218.764 67.6252 255.647 67.6252 301.144C67.6252 346.641 104.508 383.523 150.005 383.523Z" fill="white" stroke="black" stroke-width="13.1856" stroke-linejoin="round"/>
<path d="M150.005 368.679C187.146 368.679 217.256 338.57 217.256 301.428C217.256 264.286 187.146 234.177 150.005 234.177C112.863 234.177 82.7534 264.286 82.7534 301.428C82.7534 338.57 112.863 368.679 150.005 368.679Z" fill="#000037"/>
<path d="M116.825 309.94C114.254 311.709 110.956 312.604 107.606 312.444C104.256 312.284 101.107 311.081 98.8036 309.08C96.5006 307.079 95.2178 304.433 95.2178 301.682C95.2178 298.932 96.5006 296.285 98.8036 294.284C101.107 292.283 104.256 291.08 107.606 290.92C110.956 290.76 114.254 291.656 116.825 293.424" stroke="white" stroke-width="9.13212" stroke-linecap="round" stroke-linejoin="round"/>
<path d="M140.467 334.537C140.713 337.647 139.84 340.951 138.026 343.773C136.212 346.594 133.596 348.72 130.711 349.714C127.827 350.708 124.894 350.496 122.512 349.12C120.129 347.745 118.479 345.311 117.898 342.316C117.316 339.321 117.849 335.992 119.385 333.011C120.922 330.029 123.347 327.621 126.163 326.279" stroke="white" stroke-width="9.13212" stroke-linecap="round" stroke-linejoin="round"/>
<path d="M172.761 325.929C175.578 327.272 178.002 329.68 179.539 332.662C181.076 335.643 181.608 338.972 181.027 341.967C180.446 344.962 178.795 347.396 176.413 348.771C174.031 350.146 171.097 350.359 168.213 349.365C165.329 348.371 162.712 346.245 160.898 343.424C159.085 340.602 158.211 337.298 158.457 334.188" stroke="white" stroke-width="9.13212" stroke-linecap="round" stroke-linejoin="round"/>
<path d="M181.453 293.659C184.024 291.89 187.322 290.995 190.673 291.155C194.023 291.315 197.172 292.518 199.475 294.519C201.778 296.52 203.061 299.166 203.061 301.917C203.061 304.667 201.778 307.314 199.475 309.315C197.172 311.316 194.023 312.519 190.673 312.679C187.322 312.839 184.024 311.943 181.453 310.175" stroke="white" stroke-width="9.13212" stroke-linecap="round" stroke-linejoin="round"/>
<path d="M157.852 269.995C157.606 266.885 158.48 263.58 160.293 260.759C162.107 257.937 164.724 255.812 167.608 254.818C170.492 253.824 173.426 254.036 175.808 255.412C178.19 256.787 179.841 259.221 180.422 262.216C181.003 265.211 180.471 268.54 178.934 271.521C177.398 274.503 174.973 276.911 172.156 278.253" stroke="white" stroke-width="9.13212" stroke-linecap="round" stroke-linejoin="round"/>
<path d="M125.559 278.603C122.742 277.26 120.317 274.852 118.781 271.87C117.244 268.889 116.712 265.56 117.293 262.565C117.874 259.57 119.525 257.136 121.907 255.761C124.289 254.386 127.222 254.173 130.107 255.167C132.991 256.161 135.608 258.287 137.421 261.108C139.235 263.93 140.108 267.234 139.862 270.344" stroke="white" stroke-width="9.13212" stroke-linecap="round" stroke-linejoin="round"/>
<path d="M149.892 315.273C157.585 315.273 163.821 309.036 163.821 301.343C163.821 293.65 157.585 287.413 149.892 287.413C142.199 287.413 135.962 293.65 135.962 301.343C135.962 309.036 142.199 315.273 149.892 315.273Z" stroke="white" stroke-width="9.40902" stroke-linejoin="round"/>
</svg>
