<svg width="300" height="400" viewBox="0 0 300 400" fill="none" xmlns="http://www.w3.org/2000/svg">
<path d="M135.651 45.3943C148.725 45.3943 159.323 37.1933 159.323 27.0769C159.323 16.9604 148.725 8.75946 135.651 8.75946C122.578 8.75946 111.979 16.9604 111.979 27.0769C111.979 37.1933 122.578 45.3943 135.651 45.3943Z" fill="#004900"/>
<path d="M163.433 45.3943C176.507 45.3943 187.105 37.1933 187.105 27.0769C187.105 16.9604 176.507 8.75946 163.433 8.75946C150.36 8.75946 139.761 16.9604 139.761 27.0769C139.761 37.1933 150.36 45.3943 163.433 45.3943Z" fill="#004900"/>
<path d="M134.484 188.666C147.558 188.666 158.156 180.465 158.156 170.349C158.156 160.232 147.558 152.031 134.484 152.031C121.411 152.031 110.812 160.232 110.812 170.349C110.812 180.465 121.411 188.666 134.484 188.666Z" fill="#004900"/>
<path d="M149.588 159.814V30.6413" stroke="#004900" stroke-width="52.7536" stroke-linecap="round"/>
<path d="M164.989 188.666C178.063 188.666 188.661 180.465 188.661 170.349C188.661 160.232 178.063 152.031 164.989 152.031C151.916 152.031 141.317 160.232 141.317 170.349C141.317 180.465 151.916 188.666 164.989 188.666Z" fill="#004900"/>
<path d="M160.532 117.021C177.9 117.021 191.979 106.127 191.979 92.6874C191.979 79.2481 177.9 68.3534 160.532 68.3534C143.164 68.3534 129.084 79.2481 129.084 92.6874C129.084 106.127 143.164 117.021 160.532 117.021Z" fill="#004900"/>
<path d="M138.786 117.021C156.154 117.021 170.234 106.127 170.234 92.6874C170.234 79.2481 156.154 68.3534 138.786 68.3534C121.418 68.3534 107.339 79.2481 107.339 92.6874C107.339 106.127 121.418 117.021 138.786 117.021Z" fill="#004900"/>
<path d="M149.588 32.1576V68.4544" stroke="white" stroke-width="12" stroke-linecap="round"/>
<path d="M149.588 120.245V165.07" stroke="white" stroke-width="12" stroke-linecap="round"/>
<path d="M149.588 38.3987C154.351 38.3987 158.213 34.6637 158.213 30.0564C158.213 25.4491 154.351 21.7142 149.588 21.7142C144.825 21.7142 140.963 25.4491 140.963 30.0564C140.963 34.6637 144.825 38.3987 149.588 38.3987Z" fill="white"/>
<path d="M140.614 105.144C144.669 98.9661 155.538 99.2323 158.951 105.144" stroke="white" stroke-width="10" stroke-linecap="round" stroke-linejoin="round"/>
<path d="M140.614 87.6042C144.669 81.4265 155.538 81.6928 158.951 87.6042" stroke="white" stroke-width="10" stroke-linecap="round" stroke-linejoin="round"/>
<path d="M36.3312 253.827C49.4049 253.827 60.0032 245.626 60.0032 235.509C60.0032 225.393 49.4049 217.192 36.3312 217.192C23.2574 217.192 12.6591 225.393 12.6591 235.509C12.6591 245.626 23.2574 253.827 36.3312 253.827Z" fill="#004900"/>
<path d="M64.1131 253.827C77.1868 253.827 87.7852 245.626 87.7852 235.509C87.7852 225.393 77.1868 217.192 64.1131 217.192C51.0394 217.192 40.441 225.393 40.441 235.509C40.441 245.626 51.0394 253.827 64.1131 253.827Z" fill="#004900"/>
<path d="M35.1641 397.099C48.2378 397.099 58.8362 388.898 58.8362 378.781C58.8362 368.665 48.2378 360.464 35.1641 360.464C22.0904 360.464 11.492 368.665 11.492 378.781C11.492 388.898 22.0904 397.099 35.1641 397.099Z" fill="#004900"/>
<path d="M50.2677 368.247V239.074" stroke="#004900" stroke-width="52.7536" stroke-linecap="round"/>
<path d="M65.6691 397.099C78.7428 397.099 89.3412 388.898 89.3412 378.781C89.3412 368.665 78.7428 360.464 65.6691 360.464C52.5954 360.464 41.997 368.665 41.997 378.781C41.997 388.898 52.5954 397.099 65.6691 397.099Z" fill="#004900"/>
<path d="M61.2116 325.454C78.5795 325.454 92.659 314.559 92.659 301.12C92.659 287.681 78.5795 276.786 61.2116 276.786C43.8436 276.786 29.7642 287.681 29.7642 301.12C29.7642 314.559 43.8436 325.454 61.2116 325.454Z" fill="#004900"/>
<path d="M39.466 325.454C56.834 325.454 70.9135 314.559 70.9135 301.12C70.9135 287.681 56.834 276.786 39.466 276.786C22.0981 276.786 8.01862 287.681 8.01862 301.12C8.01862 314.559 22.0981 325.454 39.466 325.454Z" fill="#004900"/>
<path d="M50.2677 240.59V276.887" stroke="white" stroke-width="12" stroke-linecap="round"/>
<path d="M50.2677 328.678V373.503" stroke="white" stroke-width="12" stroke-linecap="round"/>
<path d="M50.2677 246.831C55.0311 246.831 58.8925 243.096 58.8925 238.489C58.8925 233.882 55.0311 230.147 50.2677 230.147C45.5044 230.147 41.643 233.882 41.643 238.489C41.643 243.096 45.5044 246.831 50.2677 246.831Z" fill="white"/>
<path d="M41.2935 313.576C45.3491 307.399 56.2177 307.665 59.6309 313.576" stroke="white" stroke-width="10" stroke-linecap="round" stroke-linejoin="round"/>
<path d="M41.2935 296.037C45.3491 289.859 56.2177 290.125 59.6309 296.037" stroke="white" stroke-width="10" stroke-linecap="round" stroke-linejoin="round"/>
<path d="M239.168 253.827C252.242 253.827 262.84 245.626 262.84 235.509C262.84 225.393 252.242 217.192 239.168 217.192C226.094 217.192 215.496 225.393 215.496 235.509C215.496 245.626 226.094 253.827 239.168 253.827Z" fill="#004900"/>
<path d="M266.95 253.827C280.024 253.827 290.622 245.626 290.622 235.509C290.622 225.393 280.024 217.192 266.95 217.192C253.876 217.192 243.278 225.393 243.278 235.509C243.278 245.626 253.876 253.827 266.95 253.827Z" fill="#004900"/>
<path d="M238.001 397.099C251.075 397.099 261.673 388.898 261.673 378.781C261.673 368.665 251.075 360.464 238.001 360.464C224.927 360.464 214.329 368.665 214.329 378.781C214.329 388.898 224.927 397.099 238.001 397.099Z" fill="#004900"/>
<path d="M253.105 368.247V239.074" stroke="#004900" stroke-width="52.7536" stroke-linecap="round"/>
<path d="M268.506 397.099C281.58 397.099 292.178 388.898 292.178 378.781C292.178 368.665 281.58 360.464 268.506 360.464C255.432 360.464 244.834 368.665 244.834 378.781C244.834 388.898 255.432 397.099 268.506 397.099Z" fill="#004900"/>
<path d="M264.049 325.454C281.417 325.454 295.496 314.559 295.496 301.12C295.496 287.681 281.417 276.786 264.049 276.786C246.681 276.786 232.601 287.681 232.601 301.12C232.601 314.559 246.681 325.454 264.049 325.454Z" fill="#004900"/>
<path d="M242.303 325.454C259.671 325.454 273.751 314.559 273.751 301.12C273.751 287.681 259.671 276.786 242.303 276.786C224.935 276.786 210.856 287.681 210.856 301.12C210.856 314.559 224.935 325.454 242.303 325.454Z" fill="#004900"/>
<path d="M253.105 240.59V276.887" stroke="white" stroke-width="12" stroke-linecap="round"/>
<path d="M253.105 328.678V373.503" stroke="white" stroke-width="12" stroke-linecap="round"/>
<path d="M253.105 246.831C257.868 246.831 261.73 243.096 261.73 238.489C261.73 233.882 257.868 230.147 253.105 230.147C248.341 230.147 244.48 233.882 244.48 238.489C244.48 243.096 248.341 246.831 253.105 246.831Z" fill="white"/>
<path d="M244.131 313.576C248.186 307.399 259.055 307.665 262.468 313.576" stroke="white" stroke-width="10" stroke-linecap="round" stroke-linejoin="round"/>
<path d="M244.131 296.037C248.186 289.859 259.055 290.125 262.468 296.037" stroke="white" stroke-width="10" stroke-linecap="round" stroke-linejoin="round"/>
<path d="M36.3312 45.3943C49.4049 45.3943 60.0032 37.1933 60.0032 27.0769C60.0032 16.9604 49.4049 8.75946 36.3312 8.75946C23.2574 8.75946 12.6591 16.9604 12.6591 27.0769C12.6591 37.1933 23.2574 45.3943 36.3312 45.3943Z" fill="#004900"/>
<path d="M64.1131 45.3943C77.1868 45.3943 87.7852 37.1933 87.7852 27.0769C87.7852 16.9604 77.1868 8.75946 64.1131 8.75946C51.0394 8.75946 40.441 16.9604 40.441 27.0769C40.441 37.1933 51.0394 45.3943 64.1131 45.3943Z" fill="#004900"/>
<path d="M35.1641 188.666C48.2378 188.666 58.8362 180.465 58.8362 170.349C58.8362 160.232 48.2378 152.031 35.1641 152.031C22.0904 152.031 11.492 160.232 11.492 170.349C11.492 180.465 22.0904 188.666 35.1641 188.666Z" fill="#004900"/>
<path d="M50.2677 159.814V30.6413" stroke="#004900" stroke-width="52.7536" stroke-linecap="round"/>
<path d="M65.6691 188.666C78.7428 188.666 89.3412 180.465 89.3412 170.349C89.3412 160.232 78.7428 152.031 65.6691 152.031C52.5954 152.031 41.997 160.232 41.997 170.349C41.997 180.465 52.5954 188.666 65.6691 188.666Z" fill="#004900"/>
<path d="M61.2116 117.021C78.5795 117.021 92.659 106.127 92.659 92.6874C92.659 79.2481 78.5795 68.3534 61.2116 68.3534C43.8436 68.3534 29.7642 79.2481 29.7642 92.6874C29.7642 106.127 43.8436 117.021 61.2116 117.021Z" fill="#004900"/>
<path d="M39.466 117.021C56.834 117.021 70.9135 106.127 70.9135 92.6874C70.9135 79.2481 56.834 68.3534 39.466 68.3534C22.0981 68.3534 8.01862 79.2481 8.01862 92.6874C8.01862 106.127 22.0981 117.021 39.466 117.021Z" fill="#004900"/>
<path d="M50.2677 32.1576V68.4544" stroke="white" stroke-width="12" stroke-linecap="round"/>
<path d="M50.2677 120.245V165.07" stroke="white" stroke-width="12" stroke-linecap="round"/>
<path d="M50.2677 38.3987C55.0311 38.3987 58.8925 34.6637 58.8925 30.0564C58.8925 25.4491 55.0311 21.7142 50.2677 21.7142C45.5044 21.7142 41.643 25.4491 41.643 30.0564C41.643 34.6637 45.5044 38.3987 50.2677 38.3987Z" fill="white"/>
<path d="M41.2935 105.144C45.3491 98.9661 56.2177 99.2323 59.6309 105.144" stroke="white" stroke-width="10" stroke-linecap="round" stroke-linejoin="round"/>
<path d="M41.2935 87.6042C45.3491 81.4265 56.2177 81.6928 59.6309 87.6042" stroke="white" stroke-width="10" stroke-linecap="round" stroke-linejoin="round"/>
<path d="M239.168 45.3943C252.242 45.3943 262.84 37.1933 262.84 27.0769C262.84 16.9604 252.242 8.75946 239.168 8.75946C226.094 8.75946 215.496 16.9604 215.496 27.0769C215.496 37.1933 226.094 45.3943 239.168 45.3943Z" fill="#004900"/>
<path d="M266.95 45.3943C280.024 45.3943 290.622 37.1933 290.622 27.0769C290.622 16.9604 280.024 8.75946 266.95 8.75946C253.876 8.75946 243.278 16.9604 243.278 27.0769C243.278 37.1933 253.876 45.3943 266.95 45.3943Z" fill="#004900"/>
<path d="M238.001 188.666C251.075 188.666 261.673 180.465 261.673 170.349C261.673 160.232 251.075 152.031 238.001 152.031C224.927 152.031 214.329 160.232 214.329 170.349C214.329 180.465 224.927 188.666 238.001 188.666Z" fill="#004900"/>
<path d="M253.105 159.814V30.6413" stroke="#004900" stroke-width="52.7536" stroke-linecap="round"/>
<path d="M268.506 188.666C281.58 188.666 292.178 180.465 292.178 170.349C292.178 160.232 281.58 152.031 268.506 152.031C255.432 152.031 244.834 160.232 244.834 170.349C244.834 180.465 255.432 188.666 268.506 188.666Z" fill="#004900"/>
<path d="M264.049 117.021C281.417 117.021 295.496 106.127 295.496 92.6874C295.496 79.2481 281.417 68.3534 264.049 68.3534C246.681 68.3534 232.601 79.2481 232.601 92.6874C232.601 106.127 246.681 117.021 264.049 117.021Z" fill="#004900"/>
<path d="M242.303 117.021C259.671 117.021 273.751 106.127 273.751 92.6874C273.751 79.2481 259.671 68.3534 242.303 68.3534C224.935 68.3534 210.856 79.2481 210.856 92.6874C210.856 106.127 224.935 117.021 242.303 117.021Z" fill="#004900"/>
<path d="M253.105 32.1576V68.4544" stroke="white" stroke-width="12" stroke-linecap="round"/>
<path d="M253.105 120.245V165.07" stroke="white" stroke-width="12" stroke-linecap="round"/>
<path d="M253.105 38.3987C257.868 38.3987 261.73 34.6637 261.73 30.0564C261.73 25.4491 257.868 21.7142 253.105 21.7142C248.341 21.7142 244.48 25.4491 244.48 30.0564C244.48 34.6637 248.341 38.3987 253.105 38.3987Z" fill="white"/>
<path d="M244.131 105.144C248.186 98.9661 259.055 99.2323 262.468 105.144" stroke="white" stroke-width="10" stroke-linecap="round" stroke-linejoin="round"/>
<path d="M244.131 87.6042C248.186 81.4265 259.055 81.6928 262.468 87.6042" stroke="white" stroke-width="10" stroke-linecap="round" stroke-linejoin="round"/>
<path d="M135.651 253.827C148.725 253.827 159.323 245.626 159.323 235.509C159.323 225.393 148.725 217.192 135.651 217.192C122.578 217.192 111.979 225.393 111.979 235.509C111.979 245.626 122.578 253.827 135.651 253.827Z" fill="#004900"/>
<path d="M163.433 253.827C176.507 253.827 187.105 245.626 187.105 235.509C187.105 225.393 176.507 217.192 163.433 217.192C150.36 217.192 139.761 225.393 139.761 235.509C139.761 245.626 150.36 253.827 163.433 253.827Z" fill="#004900"/>
<path d="M134.484 397.099C147.558 397.099 158.156 388.898 158.156 378.781C158.156 368.665 147.558 360.464 134.484 360.464C121.411 360.464 110.812 368.665 110.812 378.781C110.812 388.898 121.411 397.099 134.484 397.099Z" fill="#004900"/>
<path d="M149.588 368.247V239.074" stroke="#004900" stroke-width="52.7536" stroke-linecap="round"/>
<path d="M164.989 397.099C178.063 397.099 188.661 388.898 188.661 378.781C188.661 368.665 178.063 360.464 164.989 360.464C151.916 360.464 141.317 368.665 141.317 378.781C141.317 388.898 151.916 397.099 164.989 397.099Z" fill="#004900"/>
<path d="M160.532 325.454C177.9 325.454 191.979 314.559 191.979 301.12C191.979 287.681 177.9 276.786 160.532 276.786C143.164 276.786 129.084 287.681 129.084 301.12C129.084 314.559 143.164 325.454 160.532 325.454Z" fill="#004900"/>
<path d="M138.786 325.454C156.154 325.454 170.234 314.559 170.234 301.12C170.234 287.681 156.154 276.786 138.786 276.786C121.418 276.786 107.339 287.681 107.339 301.12C107.339 314.559 121.418 325.454 138.786 325.454Z" fill="#004900"/>
<path d="M149.588 240.59V276.887" stroke="white" stroke-width="12" stroke-linecap="round"/>
<path d="M149.588 328.678V373.503" stroke="white" stroke-width="12" stroke-linecap="round"/>
<path d="M149.588 246.831C154.351 246.831 158.213 243.096 158.213 238.489C158.213 233.882 154.351 230.147 149.588 230.147C144.825 230.147 140.963 233.882 140.963 238.489C140.963 243.096 144.825 246.831 149.588 246.831Z" fill="white"/>
<path d="M140.614 313.576C144.669 307.399 155.538 307.665 158.951 313.576" stroke="white" stroke-width="10" stroke-linecap="round" stroke-linejoin="round"/>
<path d="M140.614 296.037C144.669 289.859 155.538 290.125 158.951 296.037" stroke="white" stroke-width="10" stroke-linecap="round" stroke-linejoin="round"/>
</svg>
