<svg width="300" height="400" viewBox="0 0 300 400" fill="none" xmlns="http://www.w3.org/2000/svg">
<path fill-rule="evenodd" clip-rule="evenodd" d="M60.443 226.858C161.953 237.635 155.529 211.096 240.504 208.281C259.389 205.536 258.139 190.822 240.055 192.264C149.687 194.507 181.276 227.204 62.362 208.356C33.3647 203.18 38.0983 222.924 60.443 226.858Z" fill="#B93C3C"/>
<path fill-rule="evenodd" clip-rule="evenodd" d="M151.707 183.66C153.019 179.735 143.71 173.478 138.488 180.187C133.657 187.667 132.224 192.343 127.628 197.607C125.669 200 125.386 205.332 127.411 206.875C134.979 213.074 134.135 211.659 138.91 221.613L159.441 219.851C152.921 211.262 151.844 212.016 149.31 203.427C148.145 194.1 148.502 193.251 151.707 183.66Z" fill="#B93C3C"/>
<path fill-rule="evenodd" clip-rule="evenodd" d="M177.5 145.698C175.428 143.533 174.191 142.765 171.287 145.698L155.895 161.238C154.548 162.739 154.524 164.943 155.632 166.208L164.802 175.042C169.155 179.294 170.265 182.356 167.701 187.377C164.282 196.994 161.715 206.745 161.605 212.085L182.786 208.598C178.826 198.781 178.915 196.241 185.651 186.952C191.21 180.625 196.584 179.178 191.646 170.535L177.5 145.698Z" fill="#B93C3C"/>
<path fill-rule="evenodd" clip-rule="evenodd" d="M199.904 226.053C197.524 226.053 194.788 226.405 191.917 226.729C165.936 230.968 147.285 240.39 104.134 238.869C98.2927 238.899 93.3369 241.977 93.5422 246.459C93.958 256.352 101.242 308.636 101.847 313.348C102.7 319.765 111.637 320.336 112.814 314.689C113.029 313.655 113.035 310.732 112.911 306.693C113.459 305.55 114.309 304.673 115.22 304.51L172.202 299.418C172.782 299.425 173.217 299.963 173.523 300.748C173.081 320.841 172.838 340.49 173.269 347.371C173.392 348.891 173.32 350.491 174.839 351.857C178.466 354.891 198.947 353.221 204.247 349.91C205.716 348.832 206.247 348.327 206.445 346.08C203.484 312.088 205.777 268.863 208.05 235.207C208.647 227.754 205.139 226.052 199.904 226.053ZM172.923 242.816C178.575 241.427 174.945 258.645 173.011 258.693L114.183 263.305C109.056 262.281 109.302 250.239 112.761 250.076C139.399 249.18 148.505 246.895 172.923 242.816ZM172.794 271.969C174.5 271.838 174.812 284.353 172.413 284.555L115.093 289.352C110.992 288.201 110.741 277.39 114.314 276.859L172.794 271.969Z" fill="#B93C3C"/>
<path fill-rule="evenodd" clip-rule="evenodd" d="M152.8 242.844L133.568 243.479L128.277 334.038C127.525 344.33 132.769 354.649 139.518 354.801L158.26 348.254L152.8 242.844Z" fill="#B93C3C"/>
<path fill-rule="evenodd" clip-rule="evenodd" d="M91.7065 351.464L92.5528 359.492C146.799 377.775 134.189 350.916 189.447 344.341L188.813 339.412C146.571 336.425 124.46 352.592 91.7065 351.464Z" fill="#B93C3C"/>
<path fill-rule="evenodd" clip-rule="evenodd" d="M86.5274 292.031C81.7367 277.681 68.4797 280.5 70.9578 292.916C84.8545 336.364 88.8996 360.413 90.7567 363.774C101.549 382.003 109.159 377.228 109.835 361.34C109.947 356.491 95.6009 317.846 86.5274 292.031Z" fill="#B93C3C"/>
<path fill-rule="evenodd" clip-rule="evenodd" d="M43.8397 321.036C35.4806 319.731 36.2392 330.12 40.5231 332.324C100.37 358.791 164.361 323.458 218.49 326.633C220.548 327.002 223.802 328.197 226.784 329.835C236.341 334.883 230.518 349.345 225.808 352.313C204.272 362.158 209.294 352.404 185.135 363.563C182.857 365.024 176.877 366.16 174.653 365.248C165.71 362.27 158.351 357.146 152.503 352.584L141.314 358.23C148.22 366.831 158.414 370.901 166.855 374.601C173.602 377.815 180.981 377.455 185.884 377.607C210.992 377.951 234.473 368.31 246.287 366.851C249.745 366.321 253.77 360.326 255.337 357.542C265.029 341.669 261.026 338.971 254.252 322.353C250.402 316.12 239.271 314.341 233.424 313.548C172.707 310.974 95.1701 332.36 43.8397 321.036Z" fill="#B93C3C"/>
<path fill-rule="evenodd" clip-rule="evenodd" d="M119.395 21.0229C112.474 25.6492 108.743 26.8379 105.9 36.6056C105.449 38.1851 105.107 44.3882 107.188 48.6434C125.22 66.3073 60.0468 104.684 36.7479 120.837C21.5832 130.777 26.7396 141.924 46.6309 132.155C72.2962 120.219 117.532 106.32 126.423 70.3885C126.509 66.4469 129.138 64.7873 132.896 63.8489C138.648 62.4397 133.596 36.3635 130.29 29.5676C126.985 22.7717 121.633 19.7263 119.395 21.0229Z" fill="black"/>
<path fill-rule="evenodd" clip-rule="evenodd" d="M100.883 86.1993C102.081 90.7831 106.258 102.556 105.496 107.491C101.983 116.508 97.0724 119.936 95.1106 129.532C94.27 134.811 111.534 151.132 116.492 148.552C122.825 144.255 126.19 135.366 126.086 131.373C125.399 112.168 114.458 98.569 114.063 76.4608L100.883 86.1993Z" fill="black"/>
<path fill-rule="evenodd" clip-rule="evenodd" d="M126.675 28.1184C167.951 43.4518 185.693 12.0355 223.007 3.9233C233.706 1.59725 244.361 6.22068 252.571 8.03738C270.327 12.4982 256.304 39.4005 242.75 33.1462C210.47 17.2031 182.79 41.2057 152.151 48.7111C149.885 49.1208 148.5 46.0331 147.053 43.936C142.364 37.1423 135.288 42.7472 129.518 40.628L126.675 28.1184Z" fill="black"/>
<path fill-rule="evenodd" clip-rule="evenodd" d="M175.275 35.005L147.227 41.84C155.924 52.5307 135.328 94.6894 124.973 122.336L150.144 118.535C152.672 89.7644 168.772 63.1121 175.275 35.005Z" fill="black"/>
<path fill-rule="evenodd" clip-rule="evenodd" d="M114.246 64.5501C128.197 99.0252 175.304 50.7151 205.399 53.5013V72.6934C174.52 67.0941 122.705 107.811 110.359 79.3264L114.246 64.5501Z" fill="black"/>
<path fill-rule="evenodd" clip-rule="evenodd" d="M199.124 44.2538C196.665 43.7936 189.636 51.4199 189.653 54.1814C190.261 78.3799 189.727 102.038 187.757 126.236C187.043 137.569 208.863 128.592 209.766 123.224C212.799 97.888 211.495 49.6765 209.538 48.4808C206.518 46.4911 203.599 45.1629 199.124 44.2538Z" fill="black"/>
<path fill-rule="evenodd" clip-rule="evenodd" d="M112.933 120.888C209.46 90.1677 259.695 112.758 262.505 118.66C264.402 121.899 263.992 128.65 261.998 132.031C245.347 156.811 156.369 93.1299 116.245 142.613L112.933 120.888Z" fill="black"/>
</svg>
