<svg width="300" height="400" viewBox="0 0 300 400" fill="none" xmlns="http://www.w3.org/2000/svg">
<path d="M100.568 396.931C134.323 396.931 161.686 369.568 161.686 335.813C161.686 302.059 134.323 274.696 100.568 274.696C66.8141 274.696 39.4508 302.059 39.4508 335.813C39.4508 369.568 66.8141 396.931 100.568 396.931Z" fill="black"/>
<path d="M199.498 396.931C233.252 396.931 260.616 369.568 260.616 335.813C260.616 302.059 233.252 274.696 199.498 274.696C165.744 274.696 138.38 302.059 138.38 335.813C138.38 369.568 165.744 396.931 199.498 396.931Z" fill="black"/>
<path d="M199.498 309.603C233.252 309.603 260.616 282.24 260.616 248.486C260.616 214.731 233.252 187.368 199.498 187.368C165.744 187.368 138.38 214.731 138.38 248.486C138.38 282.24 165.744 309.603 199.498 309.603Z" fill="black"/>
<path d="M232.193 227.044C265.948 227.044 293.311 199.68 293.311 165.926C293.311 132.172 265.948 104.808 232.193 104.808C198.439 104.808 171.076 132.172 171.076 165.926C171.076 199.68 198.439 227.044 232.193 227.044Z" fill="black"/>
<path d="M150.026 176.088C183.78 176.088 211.143 148.724 211.143 114.97C211.143 81.2157 183.78 53.8524 150.026 53.8524C116.271 53.8524 88.9081 81.2157 88.9081 114.97C88.9081 148.724 116.271 176.088 150.026 176.088Z" fill="black"/>
<path d="M150.026 161.065C175.483 161.065 196.12 140.427 196.12 114.97C196.12 89.5127 175.483 68.8755 150.026 68.8755C124.568 68.8755 103.931 89.5127 103.931 114.97C103.931 140.427 124.568 161.065 150.026 161.065Z" fill="white"/>
<path d="M150.026 154.663C171.948 154.663 189.719 136.892 189.719 114.97C189.719 93.0483 171.948 75.2772 150.026 75.2772C128.104 75.2772 110.333 93.0483 110.333 114.97C110.333 136.892 128.104 154.663 150.026 154.663Z" fill="#000037"/>
<path d="M171.575 114.822C171.536 109.177 169.283 103.773 165.302 99.7718C161.321 95.7704 155.928 93.4911 150.284 93.4239C144.64 93.3566 139.194 95.5069 135.119 99.4123C131.043 103.318 128.663 108.666 128.49 114.308C128.316 119.95 130.364 125.435 134.192 129.583C138.02 133.732 143.323 136.212 148.961 136.491C154.599 136.771 160.121 134.827 164.34 131.077C168.56 127.328 171.139 122.072 171.525 116.441" stroke="white" stroke-width="6.75045" stroke-linecap="round" stroke-linejoin="round" stroke-dasharray="13.5 13.5"/>
<path d="M150.026 123.002C154.461 123.002 158.057 119.406 158.057 114.97C158.057 110.534 154.461 106.938 150.026 106.938C145.59 106.938 141.994 110.534 141.994 114.97C141.994 119.406 145.59 123.002 150.026 123.002Z" fill="white"/>
<path d="M150.026 118.638C152.051 118.638 153.693 116.996 153.693 114.97C153.693 112.945 152.051 111.302 150.026 111.302C148 111.302 146.358 112.945 146.358 114.97C146.358 116.996 148 118.638 150.026 118.638Z" fill="#000037"/>
<path d="M150.026 176.088C183.78 176.088 211.143 148.724 211.143 114.97C211.143 81.2157 183.78 53.8524 150.026 53.8524C116.271 53.8524 88.9081 81.2157 88.9081 114.97C88.9081 148.724 116.271 176.088 150.026 176.088Z" fill="black"/>
<path d="M100.568 309.603C134.323 309.603 161.686 282.24 161.686 248.486C161.686 214.731 134.323 187.368 100.568 187.368C66.8141 187.368 39.4508 214.731 39.4508 248.486C39.4508 282.24 66.8141 309.603 100.568 309.603Z" fill="black"/>
<path d="M100.568 294.58C126.026 294.58 146.663 273.943 146.663 248.486C146.663 223.028 126.026 202.391 100.568 202.391C75.1111 202.391 54.4739 223.028 54.4739 248.486C54.4739 273.943 75.1111 294.58 100.568 294.58Z" fill="white"/>
<path d="M100.568 288.179C122.49 288.179 140.261 270.407 140.261 248.486C140.261 226.564 122.49 208.793 100.568 208.793C78.6467 208.793 60.8756 226.564 60.8756 248.486C60.8756 270.407 78.6467 288.179 100.568 288.179Z" fill="#B93C3C"/>
<path d="M122.117 248.337C122.078 242.693 119.826 237.289 115.845 233.287C111.863 229.286 106.471 227.007 100.827 226.939C95.1824 226.872 89.7372 229.022 85.6616 232.928C81.5861 236.833 79.2058 242.182 79.0325 247.824C78.8591 253.466 80.9066 258.951 84.7347 263.099C88.5628 267.247 93.8658 269.727 99.5036 270.007C105.141 270.286 110.664 268.342 114.883 264.593C119.102 260.843 121.682 255.588 122.067 249.956" stroke="white" stroke-width="6.75045" stroke-linecap="round" stroke-linejoin="round" stroke-dasharray="13.5 13.5"/>
<path d="M100.568 256.517C105.004 256.517 108.6 252.921 108.6 248.486C108.6 244.05 105.004 240.454 100.568 240.454C96.1327 240.454 92.5368 244.05 92.5368 248.486C92.5368 252.921 96.1327 256.517 100.568 256.517Z" fill="white"/>
<path d="M100.568 252.153C102.594 252.153 104.236 250.511 104.236 248.486C104.236 246.46 102.594 244.818 100.568 244.818C98.5429 244.818 96.9008 246.46 96.9008 248.486C96.9008 250.511 98.5429 252.153 100.568 252.153Z" fill="#B93C3C"/>
<path d="M67.7909 125.088C101.545 125.088 128.909 97.7245 128.909 63.9701C128.909 30.2157 101.545 2.85242 67.7909 2.85242C34.0365 2.85242 6.67322 30.2157 6.67322 63.9701C6.67322 97.7245 34.0365 125.088 67.7909 125.088Z" fill="black"/>
<path d="M67.7909 110.065C93.2483 110.065 113.886 89.4274 113.886 63.9701C113.886 38.5127 93.2483 17.8756 67.7909 17.8756C42.3336 17.8756 21.6963 38.5127 21.6963 63.9701C21.6963 89.4274 42.3336 110.065 67.7909 110.065Z" fill="white"/>
<path d="M67.7909 103.663C89.7127 103.663 107.484 85.8919 107.484 63.9701C107.484 42.0483 89.7127 24.2772 67.7909 24.2772C45.8691 24.2772 28.098 42.0483 28.098 63.9701C28.098 85.8919 45.8691 103.663 67.7909 103.663Z" fill="#000037"/>
<path d="M89.3397 63.8215C89.3008 58.1769 87.0486 52.7732 83.0672 48.7718C79.0859 44.7704 73.6934 42.4909 68.0491 42.4237C62.4049 42.3565 56.9596 44.5067 52.8841 48.4122C48.8085 52.3176 46.4282 57.6663 46.2549 63.3083C46.0816 68.9503 48.1291 74.4351 51.9572 78.5833C55.7853 82.7315 61.0883 85.2119 66.726 85.4912C72.3638 85.7706 77.886 83.8267 82.1055 80.0773C86.3249 76.3278 88.9046 71.0722 89.2899 65.4407" stroke="white" stroke-width="6.75045" stroke-linecap="round" stroke-linejoin="round" stroke-dasharray="13.5 13.5"/>
<path d="M67.7909 72.0018C72.2267 72.0018 75.8226 68.4058 75.8226 63.9701C75.8226 59.5343 72.2267 55.9384 67.7909 55.9384C63.3552 55.9384 59.7593 59.5343 59.7593 63.9701C59.7593 68.4058 63.3552 72.0018 67.7909 72.0018Z" fill="white"/>
<path d="M67.7909 67.6378C69.8165 67.6378 71.4585 65.9957 71.4585 63.9701C71.4585 61.9445 69.8165 60.3024 67.7909 60.3024C65.7653 60.3024 64.1233 61.9445 64.1233 63.9701C64.1233 65.9957 65.7653 67.6378 67.7909 67.6378Z" fill="#000037"/>
<path d="M150.026 161.065C175.483 161.065 196.12 140.427 196.12 114.97C196.12 89.5127 175.483 68.8756 150.026 68.8756C124.568 68.8756 103.931 89.5127 103.931 114.97C103.931 140.427 124.568 161.065 150.026 161.065Z" fill="white"/>
<path d="M150.026 154.663C171.948 154.663 189.719 136.892 189.719 114.97C189.719 93.0483 171.948 75.2772 150.026 75.2772C128.104 75.2772 110.333 93.0483 110.333 114.97C110.333 136.892 128.104 154.663 150.026 154.663Z" fill="#000037"/>
<path d="M171.574 114.821C171.536 109.177 169.283 103.773 165.302 99.7718C161.321 95.7704 155.928 93.4909 150.284 93.4237C144.64 93.3565 139.194 95.5068 135.119 99.4122C131.043 103.318 128.663 108.666 128.49 114.308C128.316 119.95 130.364 125.435 134.192 129.583C138.02 133.731 143.323 136.212 148.961 136.491C154.599 136.771 160.121 134.827 164.34 131.077C168.56 127.328 171.139 122.072 171.525 116.441" stroke="white" stroke-width="6.75045" stroke-linecap="round" stroke-linejoin="round" stroke-dasharray="13.5 13.5"/>
<path d="M150.026 123.002C154.461 123.002 158.057 119.406 158.057 114.97C158.057 110.534 154.461 106.938 150.026 106.938C145.59 106.938 141.994 110.534 141.994 114.97C141.994 119.406 145.59 123.002 150.026 123.002Z" fill="white"/>
<path d="M150.026 118.638C152.051 118.638 153.693 116.996 153.693 114.97C153.693 112.945 152.051 111.302 150.026 111.302C148 111.302 146.358 112.945 146.358 114.97C146.358 116.996 148 118.638 150.026 118.638Z" fill="#000037"/>
<path d="M232.193 212.02C257.651 212.02 278.288 191.383 278.288 165.926C278.288 140.469 257.651 119.831 232.193 119.831C206.736 119.831 186.099 140.469 186.099 165.926C186.099 191.383 206.736 212.02 232.193 212.02Z" fill="white"/>
<path d="M232.193 205.619C254.115 205.619 271.886 187.848 271.886 165.926C271.886 144.004 254.115 126.233 232.193 126.233C210.271 126.233 192.5 144.004 192.5 165.926C192.5 187.848 210.271 205.619 232.193 205.619Z" fill="#000037"/>
<path d="M253.742 165.777C253.703 160.133 251.451 154.729 247.47 150.728C243.488 146.726 238.096 144.447 232.451 144.38C226.807 144.312 221.362 146.463 217.286 150.368C213.211 154.273 210.831 159.622 210.657 165.264C210.484 170.906 212.531 176.391 216.36 180.539C220.188 184.687 225.491 187.168 231.128 187.447C236.766 187.726 242.288 185.782 246.508 182.033C250.727 178.284 253.307 173.028 253.692 167.397" stroke="white" stroke-width="6.75045" stroke-linecap="round" stroke-linejoin="round" stroke-dasharray="13.5 13.5"/>
<path d="M232.193 173.958C236.629 173.958 240.225 170.362 240.225 165.926C240.225 161.49 236.629 157.894 232.193 157.894C227.757 157.894 224.162 161.49 224.162 165.926C224.162 170.362 227.757 173.958 232.193 173.958Z" fill="white"/>
<path d="M232.193 169.594C234.219 169.594 235.861 167.951 235.861 165.926C235.861 163.9 234.219 162.258 232.193 162.258C230.168 162.258 228.526 163.9 228.526 165.926C228.526 167.951 230.168 169.594 232.193 169.594Z" fill="#000037"/>
<path d="M199.498 294.58C224.955 294.58 245.593 273.943 245.593 248.486C245.593 223.028 224.955 202.391 199.498 202.391C174.041 202.391 153.403 223.028 153.403 248.486C153.403 273.943 174.041 294.58 199.498 294.58Z" fill="white"/>
<path d="M199.498 288.179C221.42 288.179 239.191 270.407 239.191 248.486C239.191 226.564 221.42 208.793 199.498 208.793C177.576 208.793 159.805 226.564 159.805 248.486C159.805 270.407 177.576 288.179 199.498 288.179Z" fill="#B93C3C"/>
<path d="M221.047 248.337C221.008 242.692 218.756 237.289 214.774 233.287C210.793 229.286 205.4 227.006 199.756 226.939C194.112 226.872 188.667 229.022 184.591 232.928C180.516 236.833 178.135 242.182 177.962 247.824C177.789 253.466 179.836 258.95 183.664 263.099C187.492 267.247 192.795 269.727 198.433 270.007C204.071 270.286 209.593 268.342 213.813 264.593C218.032 260.843 220.612 255.588 220.997 249.956" stroke="white" stroke-width="6.75045" stroke-linecap="round" stroke-linejoin="round" stroke-dasharray="13.5 13.5"/>
<path d="M199.498 256.517C203.934 256.517 207.53 252.921 207.53 248.486C207.53 244.05 203.934 240.454 199.498 240.454C195.062 240.454 191.466 244.05 191.466 248.486C191.466 252.921 195.062 256.517 199.498 256.517Z" fill="white"/>
<path d="M199.498 252.153C201.524 252.153 203.166 250.511 203.166 248.486C203.166 246.46 201.524 244.818 199.498 244.818C197.472 244.818 195.83 246.46 195.83 248.486C195.83 250.511 197.472 252.153 199.498 252.153Z" fill="#B93C3C"/>
<path d="M100.568 381.908C126.026 381.908 146.663 361.271 146.663 335.813C146.663 310.356 126.026 289.719 100.568 289.719C75.1111 289.719 54.4739 310.356 54.4739 335.813C54.4739 361.271 75.1111 381.908 100.568 381.908Z" fill="white"/>
<path d="M100.568 375.506C122.49 375.506 140.261 357.735 140.261 335.813C140.261 313.892 122.49 296.12 100.568 296.12C78.6467 296.12 60.8756 313.892 60.8756 335.813C60.8756 357.735 78.6467 375.506 100.568 375.506Z" fill="#B93C3C"/>
<path d="M122.117 335.665C122.078 330.02 119.826 324.616 115.845 320.615C111.863 316.614 106.471 314.334 100.827 314.267C95.1824 314.2 89.7372 316.35 85.6616 320.255C81.5861 324.161 79.2058 329.51 79.0325 335.152C78.8591 340.794 80.9066 346.278 84.7347 350.426C88.5628 354.575 93.8658 357.055 99.5036 357.334C105.141 357.614 110.664 355.67 114.883 351.921C119.102 348.171 121.682 342.915 122.067 337.284" stroke="white" stroke-width="6.75045" stroke-linecap="round" stroke-linejoin="round" stroke-dasharray="13.5 13.5"/>
<path d="M100.568 343.845C105.004 343.845 108.6 340.249 108.6 335.813C108.6 331.378 105.004 327.782 100.568 327.782C96.1327 327.782 92.5368 331.378 92.5368 335.813C92.5368 340.249 96.1327 343.845 100.568 343.845Z" fill="white"/>
<path d="M100.568 339.481C102.594 339.481 104.236 337.839 104.236 335.813C104.236 333.788 102.594 332.146 100.568 332.146C98.5429 332.146 96.9008 333.788 96.9008 335.813C96.9008 337.839 98.5429 339.481 100.568 339.481Z" fill="#B93C3C"/>
<path d="M199.498 381.908C224.955 381.908 245.593 361.271 245.593 335.813C245.593 310.356 224.955 289.719 199.498 289.719C174.041 289.719 153.403 310.356 153.403 335.813C153.403 361.271 174.041 381.908 199.498 381.908Z" fill="white"/>
<path d="M199.498 375.506C221.42 375.506 239.191 357.735 239.191 335.813C239.191 313.892 221.42 296.12 199.498 296.12C177.576 296.12 159.805 313.892 159.805 335.813C159.805 357.735 177.576 375.506 199.498 375.506Z" fill="#B93C3C"/>
<path d="M221.047 335.665C221.008 330.02 218.756 324.616 214.774 320.615C210.793 316.613 205.4 314.334 199.756 314.267C194.112 314.2 188.667 316.35 184.591 320.255C180.516 324.161 178.135 329.51 177.962 335.152C177.789 340.794 179.836 346.278 183.664 350.427C187.492 354.575 192.795 357.055 198.433 357.334C204.071 357.614 209.593 355.67 213.813 351.921C218.032 348.171 220.612 342.915 220.997 337.284" stroke="white" stroke-width="6.75045" stroke-linecap="round" stroke-linejoin="round" stroke-dasharray="13.5 13.5"/>
<path d="M199.498 343.845C203.934 343.845 207.53 340.249 207.53 335.813C207.53 331.378 203.934 327.782 199.498 327.782C195.062 327.782 191.466 331.378 191.466 335.813C191.466 340.249 195.062 343.845 199.498 343.845Z" fill="white"/>
<path d="M199.498 339.481C201.524 339.481 203.166 337.839 203.166 335.813C203.166 333.788 201.524 332.146 199.498 332.146C197.472 332.146 195.83 333.788 195.83 335.813C195.83 337.839 197.472 339.481 199.498 339.481Z" fill="#B93C3C"/>
</svg>
