<svg width="300" height="400" viewBox="0 0 300 400" fill="none" xmlns="http://www.w3.org/2000/svg">
<path d="M246 30C259.255 30 270 40.7452 270 54V346C270 359.255 259.255 370 246 370H54C40.7452 370 30 359.255 30 346V54C30 40.7452 40.7452 30 54 30H246ZM62 50C55.3726 50 50 55.3726 50 62V338C50 344.627 55.3726 350 62 350H238C244.627 350 250 344.627 250 338V62C250 55.3726 244.627 50 238 50H62ZM222 70C226.418 70 230 73.5817 230 78V322C230 326.418 226.418 330 222 330H78C73.5817 330 70 326.418 70 322V78C70 73.5817 73.5817 70 78 70H222ZM90 306C90 308.209 91.7909 310 94 310H111.515L90 288.485V306ZM189.485 310H206C208.209 310 210 308.209 210 306V289.485L189.485 310ZM90 128.59V271.515L128.485 310H172.515L210 272.515V127.59L172.41 90H128.59L90 128.59ZM94 90C91.7909 90 90 91.7909 90 94V111.619L111.619 90H94ZM210 110.619V94C210 91.7909 208.209 90 206 90H189.381L210 110.619Z" fill="#202C8E"/>
</svg>
