<svg width="300" height="400" viewBox="0 0 300 400" fill="none" xmlns="http://www.w3.org/2000/svg">
<path d="M75.5095 136.665C109.264 136.665 136.627 109.302 136.627 75.5474C136.627 41.793 109.264 14.4297 75.5095 14.4297C41.7552 14.4297 14.3918 41.793 14.3918 75.5474C14.3918 109.302 41.7552 136.665 75.5095 136.665Z" fill="black"/>
<path d="M75.5095 121.642C100.967 121.642 121.604 101.005 121.604 75.5473C121.604 50.09 100.967 29.4528 75.5095 29.4528C50.0522 29.4528 29.4149 50.09 29.4149 75.5473C29.4149 101.005 50.0522 121.642 75.5095 121.642Z" fill="white"/>
<path d="M75.5095 115.24C97.4313 115.24 115.202 97.4692 115.202 75.5474C115.202 53.6256 97.4313 35.8545 75.5095 35.8545C53.5878 35.8545 35.8167 53.6256 35.8167 75.5474C35.8167 97.4692 53.5878 115.24 75.5095 115.24Z" fill="#000037"/>
<path d="M97.0584 75.3988C97.0195 69.7543 94.7672 64.3504 90.7859 60.3491C86.8045 56.3477 81.412 54.0684 75.7678 54.0011C70.1235 53.9339 64.6783 56.0841 60.6028 59.9895C56.5272 63.8949 54.1469 69.2437 53.9736 74.8856C53.8003 80.5276 55.8478 86.0123 59.6759 90.1606C63.504 94.3088 68.807 96.7893 74.4447 97.0686C80.0824 97.348 85.6047 95.404 89.8241 91.6545C94.0436 87.9051 96.6233 82.6497 97.0086 77.0182" stroke="white" stroke-width="6.75045" stroke-linecap="round" stroke-linejoin="round" stroke-dasharray="13.5 13.5"/>
<path d="M75.5096 83.579C79.9453 83.579 83.5412 79.9832 83.5412 75.5474C83.5412 71.1117 79.9453 67.5157 75.5096 67.5157C71.0738 67.5157 67.4779 71.1117 67.4779 75.5474C67.4779 79.9832 71.0738 83.579 75.5096 83.579Z" fill="white"/>
<path d="M75.5095 79.215C77.5351 79.215 79.1772 77.573 79.1772 75.5474C79.1772 73.5218 77.5351 71.8798 75.5095 71.8798C73.484 71.8798 71.8419 73.5218 71.8419 75.5474C71.8419 77.573 73.484 79.215 75.5095 79.215Z" fill="#000037"/>
<path d="M149.992 261.071C183.746 261.071 211.11 233.708 211.11 199.953C211.11 166.199 183.746 138.836 149.992 138.836C116.238 138.836 88.8743 166.199 88.8743 199.953C88.8743 233.708 116.238 261.071 149.992 261.071Z" fill="black"/>
<path d="M149.992 246.048C175.449 246.048 196.087 225.411 196.087 199.953C196.087 174.496 175.449 153.859 149.992 153.859C124.535 153.859 103.897 174.496 103.897 199.953C103.897 225.411 124.535 246.048 149.992 246.048Z" fill="white"/>
<path d="M149.992 239.646C171.914 239.646 189.685 221.875 189.685 199.953C189.685 178.032 171.914 160.26 149.992 160.26C128.07 160.26 110.299 178.032 110.299 199.953C110.299 221.875 128.07 239.646 149.992 239.646Z" fill="#B93C3C"/>
<path d="M171.541 199.805C171.502 194.16 169.25 188.756 165.268 184.755C161.287 180.754 155.894 178.474 150.25 178.407C144.606 178.34 139.161 180.49 135.085 184.396C131.01 188.301 128.629 193.65 128.456 199.292C128.283 204.934 130.33 210.418 134.158 214.567C137.986 218.715 143.289 221.195 148.927 221.475C154.565 221.754 160.087 219.81 164.307 216.061C168.526 212.311 171.106 207.056 171.491 201.424" stroke="white" stroke-width="6.75045" stroke-linecap="round" stroke-linejoin="round" stroke-dasharray="13.5 13.5"/>
<path d="M149.992 207.985C154.428 207.985 158.024 204.389 158.024 199.953C158.024 195.518 154.428 191.922 149.992 191.922C145.556 191.922 141.96 195.518 141.96 199.953C141.96 204.389 145.556 207.985 149.992 207.985Z" fill="white"/>
<path d="M149.992 203.621C152.018 203.621 153.66 201.979 153.66 199.953C153.66 197.928 152.018 196.286 149.992 196.286C147.966 196.286 146.324 197.928 146.324 199.953C146.324 201.979 147.966 203.621 149.992 203.621Z" fill="#B93C3C"/>
<path d="M224.478 385.603C258.233 385.603 285.596 358.239 285.596 324.485C285.596 290.731 258.233 263.367 224.478 263.367C190.724 263.367 163.361 290.731 163.361 324.485C163.361 358.239 190.724 385.603 224.478 385.603Z" fill="black"/>
<path d="M224.478 370.58C249.936 370.58 270.573 349.942 270.573 324.485C270.573 299.028 249.936 278.39 224.478 278.39C199.021 278.39 178.384 299.028 178.384 324.485C178.384 349.942 199.021 370.58 224.478 370.58Z" fill="white"/>
<path d="M224.478 364.178C246.4 364.178 264.171 346.407 264.171 324.485C264.171 302.563 246.4 284.792 224.478 284.792C202.557 284.792 184.785 302.563 184.785 324.485C184.785 346.407 202.557 364.178 224.478 364.178Z" fill="#000037"/>
<path d="M246.027 324.336C245.988 318.692 243.736 313.288 239.755 309.287C235.773 305.285 230.381 303.006 224.737 302.939C219.092 302.872 213.647 305.022 209.572 308.927C205.496 312.833 203.116 318.181 202.942 323.823C202.769 329.465 204.817 334.95 208.645 339.098C212.473 343.246 217.776 345.727 223.413 346.006C229.051 346.286 234.573 344.342 238.793 340.592C243.012 336.843 245.592 331.587 245.977 325.956" stroke="white" stroke-width="6.75045" stroke-linecap="round" stroke-linejoin="round" stroke-dasharray="13.5 13.5"/>
<path d="M224.478 332.517C228.914 332.517 232.51 328.921 232.51 324.485C232.51 320.049 228.914 316.453 224.478 316.453C220.043 316.453 216.447 320.049 216.447 324.485C216.447 328.921 220.043 332.517 224.478 332.517Z" fill="white"/>
<path d="M224.478 328.153C226.504 328.153 228.146 326.51 228.146 324.485C228.146 322.459 226.504 320.817 224.478 320.817C222.453 320.817 220.811 322.459 220.811 324.485C220.811 326.51 222.453 328.153 224.478 328.153Z" fill="#000037"/>
</svg>
