<svg width="300" height="400" viewBox="0 0 300 400" fill="none" xmlns="http://www.w3.org/2000/svg">
<path d="M135.651 45.3943C148.725 45.3943 159.323 37.1933 159.323 27.0769C159.323 16.9604 148.725 8.75946 135.651 8.75946C122.578 8.75946 111.979 16.9604 111.979 27.0769C111.979 37.1933 122.578 45.3943 135.651 45.3943Z" fill="#004900"/>
<path d="M163.433 45.3943C176.507 45.3943 187.105 37.1933 187.105 27.0769C187.105 16.9604 176.507 8.75946 163.433 8.75946C150.36 8.75946 139.761 16.9604 139.761 27.0769C139.761 37.1933 150.36 45.3943 163.433 45.3943Z" fill="#004900"/>
<path d="M134.484 188.666C147.558 188.666 158.156 180.465 158.156 170.349C158.156 160.232 147.558 152.031 134.484 152.031C121.411 152.031 110.812 160.232 110.812 170.349C110.812 180.465 121.411 188.666 134.484 188.666Z" fill="#004900"/>
<path d="M149.588 159.814V30.6413" stroke="#004900" stroke-width="52.7536" stroke-linecap="round"/>
<path d="M164.989 188.666C178.063 188.666 188.661 180.465 188.661 170.349C188.661 160.232 178.063 152.031 164.989 152.031C151.916 152.031 141.317 160.232 141.317 170.349C141.317 180.465 151.916 188.666 164.989 188.666Z" fill="#004900"/>
<path d="M160.532 117.021C177.9 117.021 191.979 106.127 191.979 92.6874C191.979 79.2481 177.9 68.3534 160.532 68.3534C143.164 68.3534 129.084 79.2481 129.084 92.6874C129.084 106.127 143.164 117.021 160.532 117.021Z" fill="#004900"/>
<path d="M138.786 117.021C156.154 117.021 170.234 106.127 170.234 92.6874C170.234 79.2481 156.154 68.3534 138.786 68.3534C121.418 68.3534 107.339 79.2481 107.339 92.6874C107.339 106.127 121.418 117.021 138.786 117.021Z" fill="#004900"/>
<path d="M149.588 32.1576V68.4544" stroke="white" stroke-width="12" stroke-linecap="round"/>
<path d="M149.588 120.245V165.07" stroke="white" stroke-width="12" stroke-linecap="round"/>
<path d="M149.588 38.3987C154.351 38.3987 158.213 34.6637 158.213 30.0564C158.213 25.4491 154.351 21.7142 149.588 21.7142C144.825 21.7142 140.963 25.4491 140.963 30.0564C140.963 34.6637 144.825 38.3987 149.588 38.3987Z" fill="white"/>
<path d="M140.614 105.144C144.669 98.9661 155.538 99.2323 158.951 105.144" stroke="white" stroke-width="10" stroke-linecap="round" stroke-linejoin="round"/>
<path d="M140.614 87.6042C144.669 81.4265 155.538 81.6928 158.951 87.6042" stroke="white" stroke-width="10" stroke-linecap="round" stroke-linejoin="round"/>
<path d="M36.3312 253.827C49.4049 253.827 60.0032 245.626 60.0032 235.509C60.0032 225.393 49.4049 217.192 36.3312 217.192C23.2574 217.192 12.6591 225.393 12.6591 235.509C12.6591 245.626 23.2574 253.827 36.3312 253.827Z" fill="#004900"/>
<path d="M64.1131 253.827C77.1869 253.827 87.7852 245.626 87.7852 235.509C87.7852 225.393 77.1869 217.192 64.1131 217.192C51.0394 217.192 40.441 225.393 40.441 235.509C40.441 245.626 51.0394 253.827 64.1131 253.827Z" fill="#004900"/>
<path d="M35.1642 397.099C48.2379 397.099 58.8363 388.898 58.8363 378.781C58.8363 368.665 48.2379 360.464 35.1642 360.464C22.0904 360.464 11.4921 368.665 11.4921 378.781C11.4921 388.898 22.0904 397.099 35.1642 397.099Z" fill="#004900"/>
<path d="M50.2678 368.247V239.074" stroke="#004900" stroke-width="52.7536" stroke-linecap="round"/>
<path d="M65.6692 397.099C78.7429 397.099 89.3413 388.898 89.3413 378.781C89.3413 368.665 78.7429 360.464 65.6692 360.464C52.5954 360.464 41.9971 368.665 41.9971 378.781C41.9971 388.898 52.5954 397.099 65.6692 397.099Z" fill="#004900"/>
<path d="M61.2117 325.454C78.5796 325.454 92.6591 314.559 92.6591 301.12C92.6591 287.681 78.5796 276.786 61.2117 276.786C43.8438 276.786 29.7643 287.681 29.7643 301.12C29.7643 314.559 43.8438 325.454 61.2117 325.454Z" fill="#004900"/>
<path d="M39.4661 325.454C56.834 325.454 70.9135 314.559 70.9135 301.12C70.9135 287.681 56.834 276.786 39.4661 276.786C22.0982 276.786 8.01868 287.681 8.01868 301.12C8.01868 314.559 22.0982 325.454 39.4661 325.454Z" fill="#004900"/>
<path d="M50.2678 240.59V276.887" stroke="white" stroke-width="12" stroke-linecap="round"/>
<path d="M50.2678 328.678V373.503" stroke="white" stroke-width="12" stroke-linecap="round"/>
<path d="M50.2678 246.831C55.0311 246.831 58.8925 243.096 58.8925 238.489C58.8925 233.882 55.0311 230.147 50.2678 230.147C45.5045 230.147 41.6431 233.882 41.6431 238.489C41.6431 243.096 45.5045 246.831 50.2678 246.831Z" fill="white"/>
<path d="M41.2936 313.576C45.3491 307.399 56.2178 307.665 59.6309 313.576" stroke="white" stroke-width="10" stroke-linecap="round" stroke-linejoin="round"/>
<path d="M41.2936 296.037C45.3491 289.859 56.2178 290.125 59.6309 296.037" stroke="white" stroke-width="10" stroke-linecap="round" stroke-linejoin="round"/>
<path d="M239.168 253.827C252.242 253.827 262.84 245.626 262.84 235.509C262.84 225.393 252.242 217.192 239.168 217.192C226.094 217.192 215.496 225.393 215.496 235.509C215.496 245.626 226.094 253.827 239.168 253.827Z" fill="#004900"/>
<path d="M266.95 253.827C280.024 253.827 290.622 245.626 290.622 235.509C290.622 225.393 280.024 217.192 266.95 217.192C253.876 217.192 243.278 225.393 243.278 235.509C243.278 245.626 253.876 253.827 266.95 253.827Z" fill="#004900"/>
<path d="M238.001 397.099C251.075 397.099 261.673 388.898 261.673 378.781C261.673 368.665 251.075 360.464 238.001 360.464C224.927 360.464 214.329 368.665 214.329 378.781C214.329 388.898 224.927 397.099 238.001 397.099Z" fill="#004900"/>
<path d="M253.105 368.247V239.074" stroke="#004900" stroke-width="52.7536" stroke-linecap="round"/>
<path d="M268.506 397.099C281.58 397.099 292.178 388.898 292.178 378.781C292.178 368.665 281.58 360.464 268.506 360.464C255.432 360.464 244.834 368.665 244.834 378.781C244.834 388.898 255.432 397.099 268.506 397.099Z" fill="#004900"/>
<path d="M264.049 325.454C281.417 325.454 295.496 314.559 295.496 301.12C295.496 287.681 281.417 276.786 264.049 276.786C246.681 276.786 232.601 287.681 232.601 301.12C232.601 314.559 246.681 325.454 264.049 325.454Z" fill="#004900"/>
<path d="M242.303 325.454C259.671 325.454 273.751 314.559 273.751 301.12C273.751 287.681 259.671 276.786 242.303 276.786C224.935 276.786 210.856 287.681 210.856 301.12C210.856 314.559 224.935 325.454 242.303 325.454Z" fill="#004900"/>
<path d="M253.105 240.59V276.887" stroke="white" stroke-width="12" stroke-linecap="round"/>
<path d="M253.105 328.678V373.503" stroke="white" stroke-width="12" stroke-linecap="round"/>
<path d="M253.105 246.831C257.868 246.831 261.73 243.096 261.73 238.489C261.73 233.882 257.868 230.147 253.105 230.147C248.342 230.147 244.48 233.882 244.48 238.489C244.48 243.096 248.342 246.831 253.105 246.831Z" fill="white"/>
<path d="M244.131 313.576C248.186 307.399 259.055 307.665 262.468 313.576" stroke="white" stroke-width="10" stroke-linecap="round" stroke-linejoin="round"/>
<path d="M244.131 296.037C248.186 289.859 259.055 290.125 262.468 296.037" stroke="white" stroke-width="10" stroke-linecap="round" stroke-linejoin="round"/>
</svg>
