<svg width="300" height="400" viewBox="0 0 300 400" fill="none" xmlns="http://www.w3.org/2000/svg">
<path d="M77.6664 150.978C111.421 150.978 138.784 123.615 138.784 89.8605C138.784 56.1061 111.421 28.7428 77.6664 28.7428C43.912 28.7428 16.5487 56.1061 16.5487 89.8605C16.5487 123.615 43.912 150.978 77.6664 150.978Z" fill="black"/>
<path d="M77.6664 135.955C103.124 135.955 123.761 115.318 123.761 89.8605C123.761 64.4031 103.124 43.7659 77.6664 43.7659C52.209 43.7659 31.5718 64.4031 31.5718 89.8605C31.5718 115.318 52.209 135.955 77.6664 135.955Z" fill="white"/>
<path d="M77.6664 129.553C99.5882 129.553 117.359 111.782 117.359 89.8605C117.359 67.9387 99.5882 50.1676 77.6664 50.1676C55.7446 50.1676 37.9735 67.9387 37.9735 89.8605C37.9735 111.782 55.7446 129.553 77.6664 129.553Z" fill="#000037"/>
<path d="M99.2152 89.7119C99.1763 84.0674 96.9241 78.6635 92.9427 74.6622C88.9614 70.6608 83.5689 68.3815 77.9247 68.3142C72.2804 68.247 66.8351 70.3972 62.7596 74.3026C58.6841 78.2081 56.3038 83.5568 56.1305 89.1988C55.9571 94.8407 58.0046 100.325 61.8327 104.474C65.6608 108.622 70.9638 111.102 76.6016 111.382C82.2393 111.661 87.7615 109.717 91.981 105.968C96.2004 102.218 98.7802 96.9628 99.1655 91.3313" stroke="white" stroke-width="6.75045" stroke-linecap="round" stroke-linejoin="round" stroke-dasharray="13.5 13.5"/>
<path d="M77.6664 97.8922C82.1022 97.8922 85.6981 94.2963 85.6981 89.8605C85.6981 85.4248 82.1022 81.8289 77.6664 81.8289C73.2307 81.8289 69.6348 85.4248 69.6348 89.8605C69.6348 94.2963 73.2307 97.8922 77.6664 97.8922Z" fill="white"/>
<path d="M77.6664 93.5281C79.692 93.5281 81.334 91.8861 81.334 89.8605C81.334 87.8349 79.692 86.1929 77.6664 86.1929C75.6408 86.1929 73.9988 87.8349 73.9988 89.8605C73.9988 91.8861 75.6408 93.5281 77.6664 93.5281Z" fill="#000037"/>
<path d="M221.784 150.978C255.539 150.978 282.902 123.615 282.902 89.8605C282.902 56.1061 255.539 28.7428 221.784 28.7428C188.03 28.7428 160.667 56.1061 160.667 89.8605C160.667 123.615 188.03 150.978 221.784 150.978Z" fill="black"/>
<path d="M221.784 135.955C247.242 135.955 267.879 115.318 267.879 89.8605C267.879 64.4031 247.242 43.7659 221.784 43.7659C196.327 43.7659 175.69 64.4031 175.69 89.8605C175.69 115.318 196.327 135.955 221.784 135.955Z" fill="white"/>
<path d="M221.784 129.553C243.706 129.553 261.477 111.782 261.477 89.8605C261.477 67.9387 243.706 50.1676 221.784 50.1676C199.863 50.1676 182.092 67.9387 182.092 89.8605C182.092 111.782 199.863 129.553 221.784 129.553Z" fill="#000037"/>
<path d="M243.333 89.7119C243.294 84.0674 241.042 78.6635 237.061 74.6622C233.079 70.6608 227.687 68.3815 222.043 68.3142C216.398 68.247 210.953 70.3972 206.878 74.3026C202.802 78.2081 200.422 83.5568 200.249 89.1988C200.075 94.8407 202.123 100.325 205.951 104.474C209.779 108.622 215.082 111.102 220.72 111.382C226.357 111.661 231.88 109.717 236.099 105.968C240.318 102.218 242.898 96.9628 243.284 91.3313" stroke="white" stroke-width="6.75045" stroke-linecap="round" stroke-linejoin="round" stroke-dasharray="13.5 13.5"/>
<path d="M221.784 97.8922C226.22 97.8922 229.816 94.2963 229.816 89.8605C229.816 85.4248 226.22 81.8289 221.784 81.8289C217.349 81.8289 213.753 85.4248 213.753 89.8605C213.753 94.2963 217.349 97.8922 221.784 97.8922Z" fill="white"/>
<path d="M221.784 93.5281C223.81 93.5281 225.452 91.8861 225.452 89.8605C225.452 87.8349 223.81 86.1929 221.784 86.1929C219.759 86.1929 218.117 87.8349 218.117 89.8605C218.117 91.8861 219.759 93.5281 221.784 93.5281Z" fill="#000037"/>
<path d="M77.6664 370.909C111.421 370.909 138.784 343.546 138.784 309.792C138.784 276.037 111.421 248.674 77.6664 248.674C43.912 248.674 16.5487 276.037 16.5487 309.792C16.5487 343.546 43.912 370.909 77.6664 370.909Z" fill="black"/>
<path d="M77.6664 355.886C103.124 355.886 123.761 335.249 123.761 309.792C123.761 284.334 103.124 263.697 77.6664 263.697C52.209 263.697 31.5718 284.334 31.5718 309.792C31.5718 335.249 52.209 355.886 77.6664 355.886Z" fill="white"/>
<path d="M77.6664 349.485C99.5882 349.485 117.359 331.713 117.359 309.792C117.359 287.87 99.5882 270.099 77.6664 270.099C55.7446 270.099 37.9735 287.87 37.9735 309.792C37.9735 331.713 55.7446 349.485 77.6664 349.485Z" fill="#000037"/>
<path d="M99.2152 309.643C99.1763 303.999 96.9241 298.595 92.9427 294.593C88.9614 290.592 83.5689 288.313 77.9247 288.245C72.2804 288.178 66.8351 290.328 62.7596 294.234C58.6841 298.139 56.3038 303.488 56.1305 309.13C55.9571 314.772 58.0046 320.257 61.8327 324.405C65.6608 328.553 70.9638 331.034 76.6016 331.313C82.2393 331.592 87.7615 329.648 91.981 325.899C96.2004 322.149 98.7802 316.894 99.1655 311.262" stroke="white" stroke-width="6.75045" stroke-linecap="round" stroke-linejoin="round" stroke-dasharray="13.5 13.5"/>
<path d="M77.6664 317.823C82.1022 317.823 85.6981 314.227 85.6981 309.792C85.6981 305.356 82.1022 301.76 77.6664 301.76C73.2307 301.76 69.6348 305.356 69.6348 309.792C69.6348 314.227 73.2307 317.823 77.6664 317.823Z" fill="white"/>
<path d="M77.6664 313.459C79.692 313.459 81.334 311.817 81.334 309.792C81.334 307.766 79.692 306.124 77.6664 306.124C75.6408 306.124 73.9988 307.766 73.9988 309.792C73.9988 311.817 75.6408 313.459 77.6664 313.459Z" fill="#000037"/>
<path d="M221.784 370.909C255.539 370.909 282.902 343.546 282.902 309.792C282.902 276.037 255.539 248.674 221.784 248.674C188.03 248.674 160.667 276.037 160.667 309.792C160.667 343.546 188.03 370.909 221.784 370.909Z" fill="black"/>
<path d="M221.784 355.886C247.242 355.886 267.879 335.249 267.879 309.792C267.879 284.334 247.242 263.697 221.784 263.697C196.327 263.697 175.69 284.334 175.69 309.792C175.69 335.249 196.327 355.886 221.784 355.886Z" fill="white"/>
<path d="M221.784 349.485C243.706 349.485 261.477 331.713 261.477 309.792C261.477 287.87 243.706 270.099 221.784 270.099C199.863 270.099 182.092 287.87 182.092 309.792C182.092 331.713 199.863 349.485 221.784 349.485Z" fill="#000037"/>
<path d="M243.333 309.643C243.294 303.999 241.042 298.595 237.061 294.593C233.079 290.592 227.687 288.313 222.043 288.245C216.398 288.178 210.953 290.328 206.878 294.234C202.802 298.139 200.422 303.488 200.249 309.13C200.075 314.772 202.123 320.257 205.951 324.405C209.779 328.553 215.082 331.034 220.72 331.313C226.357 331.592 231.88 329.648 236.099 325.899C240.318 322.149 242.898 316.894 243.284 311.262" stroke="white" stroke-width="6.75045" stroke-linecap="round" stroke-linejoin="round" stroke-dasharray="13.5 13.5"/>
<path d="M221.784 317.823C226.22 317.823 229.816 314.227 229.816 309.792C229.816 305.356 226.22 301.76 221.784 301.76C217.349 301.76 213.753 305.356 213.753 309.792C213.753 314.227 217.349 317.823 221.784 317.823Z" fill="white"/>
<path d="M221.784 313.459C223.81 313.459 225.452 311.817 225.452 309.792C225.452 307.766 223.81 306.124 221.784 306.124C219.759 306.124 218.117 307.766 218.117 309.792C218.117 311.817 219.759 313.459 221.784 313.459Z" fill="#000037"/>
</svg>
