<svg width="300" height="400" viewBox="0 0 300 400" fill="none" xmlns="http://www.w3.org/2000/svg">
<path d="M237.424 124.118C271.178 124.118 298.542 96.7551 298.542 63.0007C298.542 29.2464 271.178 1.88306 237.424 1.88306C203.67 1.88306 176.306 29.2464 176.306 63.0007C176.306 96.7551 203.67 124.118 237.424 124.118Z" fill="black"/>
<path d="M62.7685 124.118C96.5229 124.118 123.886 96.7551 123.886 63.0007C123.886 29.2464 96.5229 1.88306 62.7685 1.88306C29.0141 1.88306 1.65082 29.2464 1.65082 63.0007C1.65082 96.7551 29.0141 124.118 62.7685 124.118Z" fill="black"/>
<path d="M150.096 124.118C183.851 124.118 211.214 96.7551 211.214 63.0007C211.214 29.2464 183.851 1.88306 150.096 1.88306C116.342 1.88306 88.9785 29.2464 88.9785 63.0007C88.9785 96.7551 116.342 124.118 150.096 124.118Z" fill="black"/>
<path d="M150.096 109.095C175.554 109.095 196.191 88.4581 196.191 63.0007C196.191 37.5434 175.554 16.9061 150.096 16.9061C124.639 16.9061 104.002 37.5434 104.002 63.0007C104.002 88.4581 124.639 109.095 150.096 109.095Z" fill="white"/>
<path d="M150.096 102.694C172.018 102.694 189.789 84.9225 189.789 63.0007C189.789 41.079 172.018 23.3079 150.096 23.3079C128.174 23.3079 110.403 41.079 110.403 63.0007C110.403 84.9225 128.174 102.694 150.096 102.694Z" fill="#000037"/>
<path d="M171.645 62.8521C171.606 57.2076 169.354 51.8037 165.372 47.8023C161.391 43.8009 155.999 41.5216 150.354 41.4544C144.71 41.3872 139.265 43.5374 135.189 47.4429C131.114 51.3483 128.734 56.6969 128.56 62.3389C128.387 67.9809 130.434 73.4656 134.262 77.6138C138.091 81.7621 143.394 84.2425 149.031 84.5219C154.669 84.8012 160.191 82.8573 164.411 79.1078C168.63 75.3584 171.21 70.103 171.595 64.4715" stroke="white" stroke-width="6.75045" stroke-linecap="round" stroke-linejoin="round" stroke-dasharray="13.5 13.5"/>
<path d="M150.096 71.0323C154.532 71.0323 158.128 67.4364 158.128 63.0007C158.128 58.5649 154.532 54.969 150.096 54.969C145.66 54.969 142.065 58.5649 142.065 63.0007C142.065 67.4364 145.66 71.0323 150.096 71.0323Z" fill="white"/>
<path d="M150.096 66.6683C152.122 66.6683 153.764 65.0263 153.764 63.0007C153.764 60.9752 152.122 59.3331 150.096 59.3331C148.071 59.3331 146.429 60.9752 146.429 63.0007C146.429 65.0263 148.071 66.6683 150.096 66.6683Z" fill="#000037"/>
<path d="M62.7685 109.095C88.2258 109.095 108.863 88.4581 108.863 63.0007C108.863 37.5434 88.2258 16.9061 62.7685 16.9061C37.3111 16.9061 16.6739 37.5434 16.6739 63.0007C16.6739 88.4581 37.3111 109.095 62.7685 109.095Z" fill="white"/>
<path d="M62.7685 102.694C84.6903 102.694 102.461 84.9225 102.461 63.0007C102.461 41.079 84.6903 23.3079 62.7685 23.3079C40.8467 23.3079 23.0756 41.079 23.0756 63.0007C23.0756 84.9225 40.8467 102.694 62.7685 102.694Z" fill="#000037"/>
<path d="M84.3173 62.8521C84.2784 57.2076 82.0261 51.8037 78.0448 47.8023C74.0634 43.8009 68.6709 41.5216 63.0267 41.4544C57.3824 41.3872 51.9372 43.5374 47.8617 47.4428C43.7862 51.3482 41.4058 56.6969 41.2325 62.3389C41.0592 67.9809 43.1067 73.4656 46.9348 77.6138C50.7629 81.7621 56.0659 84.2425 61.7036 84.5219C67.3413 84.8012 72.8636 82.8573 77.083 79.1078C81.3025 75.3584 83.8822 70.103 84.2675 64.4715" stroke="white" stroke-width="6.75045" stroke-linecap="round" stroke-linejoin="round" stroke-dasharray="13.5 13.5"/>
<path d="M62.7685 71.0323C67.2043 71.0323 70.8002 67.4364 70.8002 63.0007C70.8002 58.5649 67.2043 54.969 62.7685 54.969C58.3328 54.969 54.7369 58.5649 54.7369 63.0007C54.7369 67.4364 58.3328 71.0323 62.7685 71.0323Z" fill="white"/>
<path d="M62.7685 66.6683C64.7941 66.6683 66.4361 65.0263 66.4361 63.0007C66.4361 60.9752 64.7941 59.3331 62.7685 59.3331C60.7429 59.3331 59.1009 60.9752 59.1009 63.0007C59.1009 65.0263 60.7429 66.6683 62.7685 66.6683Z" fill="#000037"/>
<path d="M237.424 109.095C262.881 109.095 283.518 88.4581 283.518 63.0007C283.518 37.5434 262.881 16.9061 237.424 16.9061C211.967 16.9061 191.329 37.5434 191.329 63.0007C191.329 88.4581 211.967 109.095 237.424 109.095Z" fill="white"/>
<path d="M237.424 102.694C259.346 102.694 277.117 84.9225 277.117 63.0007C277.117 41.079 259.346 23.3079 237.424 23.3079C215.502 23.3079 197.731 41.079 197.731 63.0007C197.731 84.9225 215.502 102.694 237.424 102.694Z" fill="#000037"/>
<path d="M258.973 62.8521C258.934 57.2076 256.682 51.8037 252.7 47.8023C248.719 43.8009 243.326 41.5216 237.682 41.4544C232.038 41.3872 226.593 43.5374 222.517 47.4429C218.442 51.3483 216.061 56.6969 215.888 62.3389C215.715 67.9809 217.762 73.4656 221.59 77.6138C225.418 81.7621 230.721 84.2425 236.359 84.5219C241.997 84.8012 247.519 82.8573 251.738 79.1078C255.958 75.3584 258.538 70.103 258.923 64.4715" stroke="white" stroke-width="6.75045" stroke-linecap="round" stroke-linejoin="round" stroke-dasharray="13.5 13.5"/>
<path d="M237.424 71.0323C241.86 71.0323 245.456 67.4364 245.456 63.0007C245.456 58.5649 241.86 54.969 237.424 54.969C232.988 54.969 229.392 58.5649 229.392 63.0007C229.392 67.4364 232.988 71.0323 237.424 71.0323Z" fill="white"/>
<path d="M237.424 66.6683C239.449 66.6683 241.092 65.0263 241.092 63.0007C241.092 60.9752 239.449 59.3331 237.424 59.3331C235.398 59.3331 233.756 60.9752 233.756 63.0007C233.756 65.0263 235.398 66.6683 237.424 66.6683Z" fill="#000037"/>
<path d="M237.424 398.118C271.178 398.118 298.542 370.755 298.542 337.001C298.542 303.246 271.178 275.883 237.424 275.883C203.67 275.883 176.306 303.246 176.306 337.001C176.306 370.755 203.67 398.118 237.424 398.118Z" fill="black"/>
<path d="M62.7685 398.118C96.5229 398.118 123.886 370.755 123.886 337.001C123.886 303.246 96.5229 275.883 62.7685 275.883C29.0141 275.883 1.65082 303.246 1.65082 337.001C1.65082 370.755 29.0141 398.118 62.7685 398.118Z" fill="black"/>
<path d="M150.096 398.118C183.851 398.118 211.214 370.755 211.214 337.001C211.214 303.246 183.851 275.883 150.096 275.883C116.342 275.883 88.9785 303.246 88.9785 337.001C88.9785 370.755 116.342 398.118 150.096 398.118Z" fill="black"/>
<path d="M150.096 383.095C175.554 383.095 196.191 362.458 196.191 337.001C196.191 311.543 175.554 290.906 150.096 290.906C124.639 290.906 104.002 311.543 104.002 337.001C104.002 362.458 124.639 383.095 150.096 383.095Z" fill="white"/>
<path d="M150.096 376.694C172.018 376.694 189.789 358.923 189.789 337.001C189.789 315.079 172.018 297.308 150.096 297.308C128.174 297.308 110.403 315.079 110.403 337.001C110.403 358.923 128.174 376.694 150.096 376.694Z" fill="#000037"/>
<path d="M171.645 336.852C171.606 331.208 169.354 325.804 165.372 321.802C161.391 317.801 155.999 315.522 150.354 315.454C144.71 315.387 139.265 317.537 135.189 321.443C131.114 325.348 128.734 330.697 128.56 336.339C128.387 341.981 130.434 347.466 134.262 351.614C138.091 355.762 143.394 358.243 149.031 358.522C154.669 358.801 160.191 356.857 164.411 353.108C168.63 349.358 171.21 344.103 171.595 338.471" stroke="white" stroke-width="6.75045" stroke-linecap="round" stroke-linejoin="round" stroke-dasharray="13.5 13.5"/>
<path d="M150.096 345.032C154.532 345.032 158.128 341.436 158.128 337.001C158.128 332.565 154.532 328.969 150.096 328.969C145.66 328.969 142.065 332.565 142.065 337.001C142.065 341.436 145.66 345.032 150.096 345.032Z" fill="white"/>
<path d="M150.096 340.668C152.122 340.668 153.764 339.026 153.764 337.001C153.764 334.975 152.122 333.333 150.096 333.333C148.071 333.333 146.429 334.975 146.429 337.001C146.429 339.026 148.071 340.668 150.096 340.668Z" fill="#000037"/>
<path d="M62.7685 383.095C88.2258 383.095 108.863 362.458 108.863 337.001C108.863 311.543 88.2258 290.906 62.7685 290.906C37.3111 290.906 16.6739 311.543 16.6739 337.001C16.6739 362.458 37.3111 383.095 62.7685 383.095Z" fill="white"/>
<path d="M62.7685 376.694C84.6903 376.694 102.461 358.923 102.461 337.001C102.461 315.079 84.6903 297.308 62.7685 297.308C40.8467 297.308 23.0756 315.079 23.0756 337.001C23.0756 358.923 40.8467 376.694 62.7685 376.694Z" fill="#000037"/>
<path d="M84.3173 336.852C84.2784 331.208 82.0261 325.804 78.0448 321.802C74.0634 317.801 68.6709 315.522 63.0267 315.454C57.3824 315.387 51.9372 317.537 47.8617 321.443C43.7862 325.348 41.4058 330.697 41.2325 336.339C41.0592 341.981 43.1067 347.466 46.9348 351.614C50.7629 355.762 56.0659 358.243 61.7036 358.522C67.3413 358.801 72.8636 356.857 77.083 353.108C81.3025 349.358 83.8822 344.103 84.2675 338.471" stroke="white" stroke-width="6.75045" stroke-linecap="round" stroke-linejoin="round" stroke-dasharray="13.5 13.5"/>
<path d="M62.7685 345.032C67.2043 345.032 70.8002 341.436 70.8002 337.001C70.8002 332.565 67.2043 328.969 62.7685 328.969C58.3328 328.969 54.7369 332.565 54.7369 337.001C54.7369 341.436 58.3328 345.032 62.7685 345.032Z" fill="white"/>
<path d="M62.7685 340.668C64.7941 340.668 66.4361 339.026 66.4361 337.001C66.4361 334.975 64.7941 333.333 62.7685 333.333C60.7429 333.333 59.1009 334.975 59.1009 337.001C59.1009 339.026 60.7429 340.668 62.7685 340.668Z" fill="#000037"/>
<path d="M237.424 383.095C262.881 383.095 283.518 362.458 283.518 337.001C283.518 311.543 262.881 290.906 237.424 290.906C211.967 290.906 191.329 311.543 191.329 337.001C191.329 362.458 211.967 383.095 237.424 383.095Z" fill="white"/>
<path d="M237.424 376.694C259.346 376.694 277.117 358.923 277.117 337.001C277.117 315.079 259.346 297.308 237.424 297.308C215.502 297.308 197.731 315.079 197.731 337.001C197.731 358.923 215.502 376.694 237.424 376.694Z" fill="#000037"/>
<path d="M258.973 336.852C258.934 331.208 256.682 325.804 252.7 321.802C248.719 317.801 243.326 315.522 237.682 315.454C232.038 315.387 226.593 317.537 222.517 321.443C218.442 325.348 216.061 330.697 215.888 336.339C215.715 341.981 217.762 347.466 221.59 351.614C225.418 355.762 230.721 358.242 236.359 358.522C241.997 358.801 247.519 356.857 251.738 353.108C255.958 349.358 258.538 344.103 258.923 338.471" stroke="white" stroke-width="6.75045" stroke-linecap="round" stroke-linejoin="round" stroke-dasharray="13.5 13.5"/>
<path d="M237.424 345.032C241.86 345.032 245.456 341.436 245.456 337.001C245.456 332.565 241.86 328.969 237.424 328.969C232.988 328.969 229.392 332.565 229.392 337.001C229.392 341.436 232.988 345.032 237.424 345.032Z" fill="white"/>
<path d="M237.424 340.668C239.449 340.668 241.092 339.026 241.092 337.001C241.092 334.975 239.449 333.333 237.424 333.333C235.398 333.333 233.756 334.975 233.756 337.001C233.756 339.026 235.398 340.668 237.424 340.668Z" fill="#000037"/>
<path d="M63.0286 261.53C96.783 261.53 124.146 234.167 124.146 200.413C124.146 166.658 96.783 139.295 63.0286 139.295C29.2743 139.295 1.91095 166.658 1.91095 200.413C1.91095 234.167 29.2743 261.53 63.0286 261.53Z" fill="black"/>
<path d="M237.684 261.53C271.438 261.53 298.802 234.167 298.802 200.413C298.802 166.658 271.438 139.295 237.684 139.295C203.93 139.295 176.566 166.658 176.566 200.413C176.566 234.167 203.93 261.53 237.684 261.53Z" fill="black"/>
<path d="M150.003 261.53C183.757 261.53 211.12 234.167 211.12 200.413C211.12 166.658 183.757 139.295 150.003 139.295C116.248 139.295 88.8851 166.658 88.8851 200.413C88.8851 234.167 116.248 261.53 150.003 261.53Z" fill="black"/>
<path d="M150.003 246.507C175.46 246.507 196.097 225.87 196.097 200.413C196.097 174.955 175.46 154.318 150.003 154.318C124.545 154.318 103.908 174.955 103.908 200.413C103.908 225.87 124.545 246.507 150.003 246.507Z" fill="white"/>
<path d="M150.003 240.105C171.925 240.105 189.696 222.334 189.696 200.413C189.696 178.491 171.925 160.72 150.003 160.72C128.081 160.72 110.31 178.491 110.31 200.413C110.31 222.334 128.081 240.105 150.003 240.105Z" fill="#B93C3C"/>
<path d="M171.552 200.264C171.513 194.619 169.26 189.216 165.279 185.214C161.298 181.213 155.905 178.934 150.261 178.866C144.617 178.799 139.171 180.949 135.096 184.855C131.02 188.76 128.64 194.109 128.467 199.751C128.293 205.393 130.341 210.877 134.169 215.026C137.997 219.174 143.3 221.654 148.938 221.934C154.576 222.213 160.098 220.269 164.317 216.52C168.537 212.77 171.116 207.515 171.502 201.883" stroke="white" stroke-width="6.75045" stroke-linecap="round" stroke-linejoin="round" stroke-dasharray="13.5 13.5"/>
<path d="M150.003 208.444C154.439 208.444 158.034 204.848 158.034 200.413C158.034 195.977 154.439 192.381 150.003 192.381C145.567 192.381 141.971 195.977 141.971 200.413C141.971 204.848 145.567 208.444 150.003 208.444Z" fill="white"/>
<path d="M150.003 204.08C152.028 204.08 153.67 202.438 153.67 200.413C153.67 198.387 152.028 196.745 150.003 196.745C147.977 196.745 146.335 198.387 146.335 200.413C146.335 202.438 147.977 204.08 150.003 204.08Z" fill="#B93C3C"/>
<path d="M63.0286 246.507C88.486 246.507 109.123 225.87 109.123 200.413C109.123 174.955 88.486 154.318 63.0286 154.318C37.5713 154.318 16.934 174.955 16.934 200.413C16.934 225.87 37.5713 246.507 63.0286 246.507Z" fill="white"/>
<path d="M63.0286 240.105C84.9504 240.105 102.722 222.334 102.722 200.413C102.722 178.491 84.9504 160.72 63.0286 160.72C41.1069 160.72 23.3358 178.491 23.3358 200.413C23.3358 222.334 41.1069 240.105 63.0286 240.105Z" fill="#B93C3C"/>
<path d="M84.5774 200.264C84.5385 194.619 82.2863 189.216 78.3049 185.214C74.3236 181.213 68.9311 178.934 63.2868 178.866C57.6426 178.799 52.1973 180.949 48.1218 184.855C44.0463 188.76 41.666 194.109 41.4926 199.751C41.3193 205.393 43.3668 210.877 47.1949 215.026C51.023 219.174 56.326 221.654 61.9637 221.934C67.6015 222.213 73.1237 220.269 77.3432 216.52C81.5626 212.77 84.1423 207.515 84.5276 201.883" stroke="white" stroke-width="6.75045" stroke-linecap="round" stroke-linejoin="round" stroke-dasharray="13.5 13.5"/>
<path d="M63.0287 208.444C67.4644 208.444 71.0603 204.848 71.0603 200.413C71.0603 195.977 67.4644 192.381 63.0287 192.381C58.5929 192.381 54.997 195.977 54.997 200.413C54.997 204.848 58.5929 208.444 63.0287 208.444Z" fill="white"/>
<path d="M63.0286 204.08C65.0542 204.08 66.6963 202.438 66.6963 200.413C66.6963 198.387 65.0542 196.745 63.0286 196.745C61.0031 196.745 59.361 198.387 59.361 200.413C59.361 202.438 61.0031 204.08 63.0286 204.08Z" fill="#B93C3C"/>
<path d="M237.684 246.507C263.141 246.507 283.779 225.87 283.779 200.413C283.779 174.955 263.141 154.318 237.684 154.318C212.227 154.318 191.589 174.955 191.589 200.413C191.589 225.87 212.227 246.507 237.684 246.507Z" fill="white"/>
<path d="M237.684 240.105C259.606 240.105 277.377 222.334 277.377 200.413C277.377 178.491 259.606 160.72 237.684 160.72C215.762 160.72 197.991 178.491 197.991 200.413C197.991 222.334 215.762 240.105 237.684 240.105Z" fill="#B93C3C"/>
<path d="M259.233 200.264C259.194 194.619 256.942 189.216 252.96 185.214C248.979 181.213 243.586 178.934 237.942 178.866C232.298 178.799 226.853 180.949 222.777 184.855C218.702 188.76 216.321 194.109 216.148 199.751C215.975 205.393 218.022 210.877 221.85 215.026C225.678 219.174 230.981 221.654 236.619 221.934C242.257 222.213 247.779 220.269 251.999 216.52C256.218 212.77 258.798 207.515 259.183 201.883" stroke="white" stroke-width="6.75045" stroke-linecap="round" stroke-linejoin="round" stroke-dasharray="13.5 13.5"/>
<path d="M237.684 208.444C242.12 208.444 245.716 204.848 245.716 200.413C245.716 195.977 242.12 192.381 237.684 192.381C233.248 192.381 229.652 195.977 229.652 200.413C229.652 204.848 233.248 208.444 237.684 208.444Z" fill="white"/>
<path d="M237.684 204.08C239.71 204.08 241.352 202.438 241.352 200.413C241.352 198.387 239.71 196.745 237.684 196.745C235.658 196.745 234.016 198.387 234.016 200.413C234.016 202.438 235.658 204.08 237.684 204.08Z" fill="#B93C3C"/>
</svg>
