<svg width="300" height="400" viewBox="0 0 300 400" fill="none" xmlns="http://www.w3.org/2000/svg">
<path d="M137.031 41.3612C148.147 41.3612 157.158 34.4633 157.158 25.9543C157.158 17.4454 148.147 10.5475 137.031 10.5475C125.915 10.5475 116.904 17.4454 116.904 25.9543C116.904 34.4633 125.915 41.3612 137.031 41.3612Z" fill="#B93C3C"/>
<path d="M163.014 41.3612C174.13 41.3612 183.141 34.4633 183.141 25.9543C183.141 17.4454 174.13 10.5475 163.014 10.5475C151.899 10.5475 142.888 17.4454 142.888 25.9543C142.888 34.4633 151.899 41.3612 163.014 41.3612Z" fill="#B93C3C"/>
<path d="M135.94 123.959C147.055 123.959 156.066 117.061 156.066 108.552C156.066 100.043 147.055 93.145 135.94 93.145C124.824 93.145 115.813 100.043 115.813 108.552C115.813 117.061 124.824 123.959 135.94 123.959Z" fill="#B93C3C"/>
<path d="M150.065 105.966V23.856" stroke="#B93C3C" stroke-width="38.1977" stroke-linecap="round"/>
<path d="M164.47 123.959C175.585 123.959 184.596 117.061 184.596 108.552C184.596 100.043 175.585 93.145 164.47 93.145C153.354 93.145 144.343 100.043 144.343 108.552C144.343 117.061 153.354 123.959 164.47 123.959Z" fill="#B93C3C"/>
<path d="M160.301 83.8973C173.837 83.8973 184.81 75.4974 184.81 65.1356C184.81 54.7737 173.837 46.3738 160.301 46.3738C146.765 46.3738 135.791 54.7737 135.791 65.1356C135.791 75.4974 146.765 83.8973 160.301 83.8973Z" fill="#B93C3C"/>
<path d="M139.963 83.8973C153.499 83.8973 164.473 75.4974 164.473 65.1356C164.473 54.7737 153.499 46.3738 139.963 46.3738C126.427 46.3738 115.454 54.7737 115.454 65.1356C115.454 75.4974 126.427 83.8973 139.963 83.8973Z" fill="#B93C3C"/>
<path d="M149.9 22.3907V48.4373" stroke="white" stroke-width="11" stroke-linecap="round"/>
<path d="M149.9 81.4008V106.078" stroke="white" stroke-width="11" stroke-linecap="round"/>
<path d="M149.147 64.7081H150.661" stroke="white" stroke-width="11" stroke-linecap="round" stroke-linejoin="round"/>
<path d="M32.3627 308.338C43.4784 308.338 52.4895 301.44 52.4895 292.931C52.4895 284.422 43.4784 277.525 32.3627 277.525C21.247 277.525 12.236 284.422 12.236 292.931C12.236 301.44 21.247 308.338 32.3627 308.338Z" fill="#004900"/>
<path d="M58.3459 308.338C69.4616 308.338 78.4727 301.44 78.4727 292.931C78.4727 284.422 69.4616 277.525 58.3459 277.525C47.2302 277.525 38.2191 284.422 38.2191 292.931C38.2191 301.44 47.2302 308.338 58.3459 308.338Z" fill="#004900"/>
<path d="M31.2713 390.935C42.387 390.935 51.398 384.038 51.398 375.529C51.398 367.02 42.387 360.122 31.2713 360.122C20.1555 360.122 11.1445 367.02 11.1445 375.529C11.1445 384.038 20.1555 390.935 31.2713 390.935Z" fill="#004900"/>
<path d="M45.397 372.943V290.833" stroke="#004900" stroke-width="38.1977" stroke-linecap="round"/>
<path d="M59.8012 390.935C70.9169 390.935 79.928 384.038 79.928 375.529C79.928 367.02 70.9169 360.122 59.8012 360.122C48.6855 360.122 39.6744 367.02 39.6744 375.529C39.6744 384.038 48.6855 390.935 59.8012 390.935Z" fill="#004900"/>
<path d="M55.6323 350.874C69.1685 350.874 80.1417 342.474 80.1417 332.113C80.1417 321.751 69.1685 313.351 55.6323 313.351C42.0961 313.351 31.1229 321.751 31.1229 332.113C31.1229 342.474 42.0961 350.874 55.6323 350.874Z" fill="#004900"/>
<path d="M35.2947 350.874C48.8309 350.874 59.8041 342.474 59.8041 332.113C59.8041 321.751 48.8309 313.351 35.2947 313.351C21.7585 313.351 10.7852 321.751 10.7852 332.113C10.7852 342.474 21.7585 350.874 35.2947 350.874Z" fill="#004900"/>
<path d="M45.2314 289.368V315.414" stroke="white" stroke-width="11" stroke-linecap="round"/>
<path d="M45.2314 348.378V373.055" stroke="white" stroke-width="11" stroke-linecap="round"/>
<path d="M44.4786 331.685H45.9924" stroke="white" stroke-width="11" stroke-linecap="round" stroke-linejoin="round"/>
<path d="M240.795 308.338C251.911 308.338 260.922 301.44 260.922 292.931C260.922 284.422 251.911 277.525 240.795 277.525C229.68 277.525 220.669 284.422 220.669 292.931C220.669 301.44 229.68 308.338 240.795 308.338Z" fill="#004900"/>
<path d="M266.778 308.338C277.894 308.338 286.905 301.44 286.905 292.931C286.905 284.422 277.894 277.525 266.778 277.525C255.663 277.525 246.652 284.422 246.652 292.931C246.652 301.44 255.663 308.338 266.778 308.338Z" fill="#004900"/>
<path d="M239.704 390.935C250.82 390.935 259.831 384.038 259.831 375.529C259.831 367.02 250.82 360.122 239.704 360.122C228.588 360.122 219.577 367.02 219.577 375.529C219.577 384.038 228.588 390.935 239.704 390.935Z" fill="#004900"/>
<path d="M253.83 372.943V290.833" stroke="#004900" stroke-width="38.1977" stroke-linecap="round"/>
<path d="M268.234 390.935C279.349 390.935 288.36 384.038 288.36 375.529C288.36 367.02 279.349 360.122 268.234 360.122C257.118 360.122 248.107 367.02 248.107 375.529C248.107 384.038 257.118 390.935 268.234 390.935Z" fill="#004900"/>
<path d="M264.065 350.874C277.601 350.874 288.574 342.474 288.574 332.113C288.574 321.751 277.601 313.351 264.065 313.351C250.529 313.351 239.555 321.751 239.555 332.113C239.555 342.474 250.529 350.874 264.065 350.874Z" fill="#004900"/>
<path d="M243.727 350.874C257.263 350.874 268.237 342.474 268.237 332.113C268.237 321.751 257.263 313.351 243.727 313.351C230.191 313.351 219.218 321.751 219.218 332.113C219.218 342.474 230.191 350.874 243.727 350.874Z" fill="#004900"/>
<path d="M253.664 289.368V315.414" stroke="white" stroke-width="11" stroke-linecap="round"/>
<path d="M253.664 348.378V373.055" stroke="white" stroke-width="11" stroke-linecap="round"/>
<path d="M252.911 331.685H254.425" stroke="white" stroke-width="11" stroke-linecap="round" stroke-linejoin="round"/>
<path d="M32.3627 176.381C43.4784 176.381 52.4895 169.483 52.4895 160.974C52.4895 152.465 43.4784 145.567 32.3627 145.567C21.247 145.567 12.236 152.465 12.236 160.974C12.236 169.483 21.247 176.381 32.3627 176.381Z" fill="#004900"/>
<path d="M58.3459 176.381C69.4616 176.381 78.4727 169.483 78.4727 160.974C78.4727 152.465 69.4616 145.567 58.3459 145.567C47.2302 145.567 38.2191 152.465 38.2191 160.974C38.2191 169.483 47.2302 176.381 58.3459 176.381Z" fill="#004900"/>
<path d="M31.2713 258.978C42.387 258.978 51.398 252.08 51.398 243.571C51.398 235.062 42.387 228.165 31.2713 228.165C20.1555 228.165 11.1445 235.062 11.1445 243.571C11.1445 252.08 20.1555 258.978 31.2713 258.978Z" fill="#004900"/>
<path d="M45.397 240.986V158.876" stroke="#004900" stroke-width="38.1977" stroke-linecap="round"/>
<path d="M59.8012 258.978C70.9169 258.978 79.928 252.08 79.928 243.571C79.928 235.062 70.9169 228.165 59.8012 228.165C48.6855 228.165 39.6744 235.062 39.6744 243.571C39.6744 252.08 48.6855 258.978 59.8012 258.978Z" fill="#004900"/>
<path d="M55.6323 218.917C69.1685 218.917 80.1417 210.517 80.1417 200.155C80.1417 189.793 69.1685 181.394 55.6323 181.394C42.0961 181.394 31.1229 189.793 31.1229 200.155C31.1229 210.517 42.0961 218.917 55.6323 218.917Z" fill="#004900"/>
<path d="M35.2947 218.917C48.8309 218.917 59.8041 210.517 59.8041 200.155C59.8041 189.793 48.8309 181.394 35.2947 181.394C21.7585 181.394 10.7852 189.793 10.7852 200.155C10.7852 210.517 21.7585 218.917 35.2947 218.917Z" fill="#004900"/>
<path d="M45.2314 157.41V183.457" stroke="white" stroke-width="11" stroke-linecap="round"/>
<path d="M45.2314 216.42V241.098" stroke="white" stroke-width="11" stroke-linecap="round"/>
<path d="M44.4786 199.728H45.9924" stroke="white" stroke-width="11" stroke-linecap="round" stroke-linejoin="round"/>
<path d="M240.795 176.381C251.911 176.381 260.922 169.483 260.922 160.974C260.922 152.465 251.911 145.567 240.795 145.567C229.68 145.567 220.669 152.465 220.669 160.974C220.669 169.483 229.68 176.381 240.795 176.381Z" fill="#004900"/>
<path d="M266.778 176.381C277.894 176.381 286.905 169.483 286.905 160.974C286.905 152.465 277.894 145.567 266.778 145.567C255.663 145.567 246.652 152.465 246.652 160.974C246.652 169.483 255.663 176.381 266.778 176.381Z" fill="#004900"/>
<path d="M239.704 258.978C250.82 258.978 259.831 252.08 259.831 243.571C259.831 235.062 250.82 228.165 239.704 228.165C228.588 228.165 219.577 235.062 219.577 243.571C219.577 252.08 228.588 258.978 239.704 258.978Z" fill="#004900"/>
<path d="M253.83 240.986V158.876" stroke="#004900" stroke-width="38.1977" stroke-linecap="round"/>
<path d="M268.234 258.978C279.349 258.978 288.36 252.08 288.36 243.571C288.36 235.062 279.349 228.165 268.234 228.165C257.118 228.165 248.107 235.062 248.107 243.571C248.107 252.08 257.118 258.978 268.234 258.978Z" fill="#004900"/>
<path d="M264.065 218.917C277.601 218.917 288.574 210.517 288.574 200.155C288.574 189.793 277.601 181.394 264.065 181.394C250.529 181.394 239.555 189.793 239.555 200.155C239.555 210.517 250.529 218.917 264.065 218.917Z" fill="#004900"/>
<path d="M243.727 218.917C257.263 218.917 268.237 210.517 268.237 200.155C268.237 189.793 257.263 181.394 243.727 181.394C230.191 181.394 219.218 189.793 219.218 200.155C219.218 210.517 230.191 218.917 243.727 218.917Z" fill="#004900"/>
<path d="M253.664 157.41V183.457" stroke="white" stroke-width="11" stroke-linecap="round"/>
<path d="M253.664 216.42V241.098" stroke="white" stroke-width="11" stroke-linecap="round"/>
<path d="M252.911 199.728H254.425" stroke="white" stroke-width="11" stroke-linecap="round" stroke-linejoin="round"/>
<path d="M137.031 176.381C148.147 176.381 157.158 169.483 157.158 160.974C157.158 152.465 148.147 145.567 137.031 145.567C125.915 145.567 116.904 152.465 116.904 160.974C116.904 169.483 125.915 176.381 137.031 176.381Z" fill="#B93C3C"/>
<path d="M163.014 176.381C174.13 176.381 183.141 169.483 183.141 160.974C183.141 152.465 174.13 145.567 163.014 145.567C151.899 145.567 142.888 152.465 142.888 160.974C142.888 169.483 151.899 176.381 163.014 176.381Z" fill="#B93C3C"/>
<path d="M135.94 258.978C147.055 258.978 156.066 252.08 156.066 243.571C156.066 235.062 147.055 228.165 135.94 228.165C124.824 228.165 115.813 235.062 115.813 243.571C115.813 252.08 124.824 258.978 135.94 258.978Z" fill="#B93C3C"/>
<path d="M150.065 240.986V158.876" stroke="#B93C3C" stroke-width="38.1977" stroke-linecap="round"/>
<path d="M164.47 258.978C175.585 258.978 184.596 252.08 184.596 243.571C184.596 235.062 175.585 228.165 164.47 228.165C153.354 228.165 144.343 235.062 144.343 243.571C144.343 252.08 153.354 258.978 164.47 258.978Z" fill="#B93C3C"/>
<path d="M160.301 218.917C173.837 218.917 184.81 210.517 184.81 200.155C184.81 189.793 173.837 181.394 160.301 181.394C146.765 181.394 135.791 189.793 135.791 200.155C135.791 210.517 146.765 218.917 160.301 218.917Z" fill="#B93C3C"/>
<path d="M139.963 218.917C153.499 218.917 164.473 210.517 164.473 200.155C164.473 189.793 153.499 181.394 139.963 181.394C126.427 181.394 115.454 189.793 115.454 200.155C115.454 210.517 126.427 218.917 139.963 218.917Z" fill="#B93C3C"/>
<path d="M149.9 157.41V183.457" stroke="white" stroke-width="11" stroke-linecap="round"/>
<path d="M149.9 216.42V241.098" stroke="white" stroke-width="11" stroke-linecap="round"/>
<path d="M149.147 199.728H150.661" stroke="white" stroke-width="11" stroke-linecap="round" stroke-linejoin="round"/>
<path d="M137.031 308.338C148.147 308.338 157.158 301.44 157.158 292.931C157.158 284.422 148.147 277.525 137.031 277.525C125.915 277.525 116.904 284.422 116.904 292.931C116.904 301.44 125.915 308.338 137.031 308.338Z" fill="#B93C3C"/>
<path d="M163.014 308.338C174.13 308.338 183.141 301.44 183.141 292.931C183.141 284.422 174.13 277.525 163.014 277.525C151.899 277.525 142.888 284.422 142.888 292.931C142.888 301.44 151.899 308.338 163.014 308.338Z" fill="#B93C3C"/>
<path d="M135.94 390.935C147.055 390.935 156.066 384.038 156.066 375.529C156.066 367.02 147.055 360.122 135.94 360.122C124.824 360.122 115.813 367.02 115.813 375.529C115.813 384.038 124.824 390.935 135.94 390.935Z" fill="#B93C3C"/>
<path d="M150.065 372.943V290.833" stroke="#B93C3C" stroke-width="38.1977" stroke-linecap="round"/>
<path d="M164.47 390.935C175.585 390.935 184.596 384.038 184.596 375.529C184.596 367.02 175.585 360.122 164.47 360.122C153.354 360.122 144.343 367.02 144.343 375.529C144.343 384.038 153.354 390.935 164.47 390.935Z" fill="#B93C3C"/>
<path d="M160.301 350.874C173.837 350.874 184.81 342.474 184.81 332.113C184.81 321.751 173.837 313.351 160.301 313.351C146.765 313.351 135.791 321.751 135.791 332.113C135.791 342.474 146.765 350.874 160.301 350.874Z" fill="#B93C3C"/>
<path d="M139.963 350.874C153.499 350.874 164.473 342.474 164.473 332.113C164.473 321.751 153.499 313.351 139.963 313.351C126.427 313.351 115.454 321.751 115.454 332.113C115.454 342.474 126.427 350.874 139.963 350.874Z" fill="#B93C3C"/>
<path d="M149.9 289.368V315.414" stroke="white" stroke-width="11" stroke-linecap="round"/>
<path d="M149.9 348.378V373.055" stroke="white" stroke-width="11" stroke-linecap="round"/>
<path d="M149.147 331.685H150.661" stroke="white" stroke-width="11" stroke-linecap="round" stroke-linejoin="round"/>
<path d="M32.3627 41.3612C43.4784 41.3612 52.4895 34.4633 52.4895 25.9543C52.4895 17.4454 43.4784 10.5475 32.3627 10.5475C21.247 10.5475 12.236 17.4454 12.236 25.9543C12.236 34.4633 21.247 41.3612 32.3627 41.3612Z" fill="#004900"/>
<path d="M58.3459 41.3612C69.4616 41.3612 78.4727 34.4633 78.4727 25.9543C78.4727 17.4454 69.4616 10.5475 58.3459 10.5475C47.2302 10.5475 38.2191 17.4454 38.2191 25.9543C38.2191 34.4633 47.2302 41.3612 58.3459 41.3612Z" fill="#004900"/>
<path d="M31.2713 123.959C42.387 123.959 51.398 117.061 51.398 108.552C51.398 100.043 42.387 93.145 31.2713 93.145C20.1555 93.145 11.1445 100.043 11.1445 108.552C11.1445 117.061 20.1555 123.959 31.2713 123.959Z" fill="#004900"/>
<path d="M45.397 105.966V23.856" stroke="#004900" stroke-width="38.1977" stroke-linecap="round"/>
<path d="M59.8012 123.959C70.9169 123.959 79.928 117.061 79.928 108.552C79.928 100.043 70.9169 93.145 59.8012 93.145C48.6855 93.145 39.6744 100.043 39.6744 108.552C39.6744 117.061 48.6855 123.959 59.8012 123.959Z" fill="#004900"/>
<path d="M55.6323 83.8973C69.1685 83.8973 80.1417 75.4974 80.1417 65.1356C80.1417 54.7737 69.1685 46.3738 55.6323 46.3738C42.0961 46.3738 31.1229 54.7737 31.1229 65.1356C31.1229 75.4974 42.0961 83.8973 55.6323 83.8973Z" fill="#004900"/>
<path d="M35.2947 83.8973C48.8309 83.8973 59.8041 75.4974 59.8041 65.1356C59.8041 54.7737 48.8309 46.3738 35.2947 46.3738C21.7585 46.3738 10.7852 54.7737 10.7852 65.1356C10.7852 75.4974 21.7585 83.8973 35.2947 83.8973Z" fill="#004900"/>
<path d="M45.2314 22.3907V48.4373" stroke="white" stroke-width="11" stroke-linecap="round"/>
<path d="M45.2314 81.4008V106.078" stroke="white" stroke-width="11" stroke-linecap="round"/>
<path d="M44.4786 64.7081H45.9924" stroke="white" stroke-width="11" stroke-linecap="round" stroke-linejoin="round"/>
<path d="M240.795 41.3612C251.911 41.3612 260.922 34.4633 260.922 25.9543C260.922 17.4454 251.911 10.5475 240.795 10.5475C229.68 10.5475 220.669 17.4454 220.669 25.9543C220.669 34.4633 229.68 41.3612 240.795 41.3612Z" fill="#004900"/>
<path d="M266.778 41.3612C277.894 41.3612 286.905 34.4633 286.905 25.9543C286.905 17.4454 277.894 10.5475 266.778 10.5475C255.663 10.5475 246.652 17.4454 246.652 25.9543C246.652 34.4633 255.663 41.3612 266.778 41.3612Z" fill="#004900"/>
<path d="M239.704 123.959C250.82 123.959 259.831 117.061 259.831 108.552C259.831 100.043 250.82 93.145 239.704 93.145C228.588 93.145 219.577 100.043 219.577 108.552C219.577 117.061 228.588 123.959 239.704 123.959Z" fill="#004900"/>
<path d="M253.83 105.966V23.856" stroke="#004900" stroke-width="38.1977" stroke-linecap="round"/>
<path d="M268.234 123.959C279.349 123.959 288.36 117.061 288.36 108.552C288.36 100.043 279.349 93.145 268.234 93.145C257.118 93.145 248.107 100.043 248.107 108.552C248.107 117.061 257.118 123.959 268.234 123.959Z" fill="#004900"/>
<path d="M264.065 83.8973C277.601 83.8973 288.574 75.4974 288.574 65.1356C288.574 54.7737 277.601 46.3738 264.065 46.3738C250.529 46.3738 239.555 54.7737 239.555 65.1356C239.555 75.4974 250.529 83.8973 264.065 83.8973Z" fill="#004900"/>
<path d="M243.727 83.8973C257.263 83.8973 268.237 75.4974 268.237 65.1356C268.237 54.7737 257.263 46.3738 243.727 46.3738C230.191 46.3738 219.218 54.7737 219.218 65.1356C219.218 75.4974 230.191 83.8973 243.727 83.8973Z" fill="#004900"/>
<path d="M253.664 22.3907V48.4373" stroke="white" stroke-width="11" stroke-linecap="round"/>
<path d="M253.664 81.4008V106.078" stroke="white" stroke-width="11" stroke-linecap="round"/>
<path d="M252.911 64.7081H254.425" stroke="white" stroke-width="11" stroke-linecap="round" stroke-linejoin="round"/>
</svg>
