<svg width="300" height="400" viewBox="0 0 300 400" fill="none" xmlns="http://www.w3.org/2000/svg">
<path d="M58.0136 253.827C71.0874 253.827 81.6857 245.626 81.6857 235.509C81.6857 225.393 71.0874 217.192 58.0136 217.192C44.9399 217.192 34.3416 225.393 34.3416 235.509C34.3416 245.626 44.9399 253.827 58.0136 253.827Z" fill="#004900"/>
<path d="M85.7956 253.827C98.8694 253.827 109.468 245.626 109.468 235.509C109.468 225.393 98.8694 217.192 85.7956 217.192C72.7219 217.192 62.1235 225.393 62.1235 235.509C62.1235 245.626 72.7219 253.827 85.7956 253.827Z" fill="#004900"/>
<path d="M56.8467 397.099C69.9204 397.099 80.5187 388.898 80.5187 378.781C80.5187 368.665 69.9204 360.464 56.8467 360.464C43.7729 360.464 33.1746 368.665 33.1746 378.781C33.1746 388.898 43.7729 397.099 56.8467 397.099Z" fill="#004900"/>
<path d="M71.9503 368.247V239.074" stroke="#004900" stroke-width="52.7536" stroke-linecap="round"/>
<path d="M87.3517 397.099C100.425 397.099 111.024 388.898 111.024 378.781C111.024 368.665 100.425 360.464 87.3517 360.464C74.2779 360.464 63.6796 368.665 63.6796 378.781C63.6796 388.898 74.2779 397.099 87.3517 397.099Z" fill="#004900"/>
<path d="M82.8942 325.454C100.262 325.454 114.342 314.559 114.342 301.12C114.342 287.681 100.262 276.786 82.8942 276.786C65.5263 276.786 51.4468 287.681 51.4468 301.12C51.4468 314.559 65.5263 325.454 82.8942 325.454Z" fill="#004900"/>
<path d="M61.1486 325.454C78.5165 325.454 92.596 314.559 92.596 301.12C92.596 287.681 78.5165 276.786 61.1486 276.786C43.7807 276.786 29.7012 287.681 29.7012 301.12C29.7012 314.559 43.7807 325.454 61.1486 325.454Z" fill="#004900"/>
<path d="M71.9503 240.59V276.887" stroke="white" stroke-width="12" stroke-linecap="round"/>
<path d="M71.9503 328.678V373.503" stroke="white" stroke-width="12" stroke-linecap="round"/>
<path d="M71.9503 246.831C76.7136 246.831 80.575 243.096 80.575 238.489C80.575 233.882 76.7136 230.147 71.9503 230.147C67.187 230.147 63.3256 233.882 63.3256 238.489C63.3256 243.096 67.187 246.831 71.9503 246.831Z" fill="white"/>
<path d="M62.9761 313.576C67.0316 307.399 77.9002 307.665 81.3134 313.576" stroke="white" stroke-width="10" stroke-linecap="round" stroke-linejoin="round"/>
<path d="M62.9761 296.037C67.0316 289.859 77.9002 290.125 81.3134 296.037" stroke="white" stroke-width="10" stroke-linecap="round" stroke-linejoin="round"/>
<path d="M213.289 253.827C226.363 253.827 236.961 245.626 236.961 235.509C236.961 225.393 226.363 217.192 213.289 217.192C200.215 217.192 189.617 225.393 189.617 235.509C189.617 245.626 200.215 253.827 213.289 253.827Z" fill="#004900"/>
<path d="M241.071 253.827C254.145 253.827 264.743 245.626 264.743 235.509C264.743 225.393 254.145 217.192 241.071 217.192C227.997 217.192 217.399 225.393 217.399 235.509C217.399 245.626 227.997 253.827 241.071 253.827Z" fill="#004900"/>
<path d="M212.122 397.099C225.196 397.099 235.794 388.898 235.794 378.781C235.794 368.665 225.196 360.464 212.122 360.464C199.048 360.464 188.45 368.665 188.45 378.781C188.45 388.898 199.048 397.099 212.122 397.099Z" fill="#004900"/>
<path d="M227.226 368.247V239.074" stroke="#004900" stroke-width="52.7536" stroke-linecap="round"/>
<path d="M242.627 397.099C255.701 397.099 266.299 388.898 266.299 378.781C266.299 368.665 255.701 360.464 242.627 360.464C229.553 360.464 218.955 368.665 218.955 378.781C218.955 388.898 229.553 397.099 242.627 397.099Z" fill="#004900"/>
<path d="M238.169 325.454C255.537 325.454 269.617 314.559 269.617 301.12C269.617 287.681 255.537 276.786 238.169 276.786C220.802 276.786 206.722 287.681 206.722 301.12C206.722 314.559 220.802 325.454 238.169 325.454Z" fill="#004900"/>
<path d="M216.424 325.454C233.792 325.454 247.871 314.559 247.871 301.12C247.871 287.681 233.792 276.786 216.424 276.786C199.056 276.786 184.976 287.681 184.976 301.12C184.976 314.559 199.056 325.454 216.424 325.454Z" fill="#004900"/>
<path d="M227.226 240.59V276.887" stroke="white" stroke-width="12" stroke-linecap="round"/>
<path d="M227.226 328.678V373.503" stroke="white" stroke-width="12" stroke-linecap="round"/>
<path d="M227.226 246.831C231.989 246.831 235.85 243.096 235.85 238.489C235.85 233.882 231.989 230.147 227.226 230.147C222.462 230.147 218.601 233.882 218.601 238.489C218.601 243.096 222.462 246.831 227.226 246.831Z" fill="white"/>
<path d="M218.251 313.576C222.307 307.399 233.176 307.665 236.589 313.576" stroke="white" stroke-width="10" stroke-linecap="round" stroke-linejoin="round"/>
<path d="M218.251 296.037C222.307 289.859 233.176 290.125 236.589 296.037" stroke="white" stroke-width="10" stroke-linecap="round" stroke-linejoin="round"/>
<path d="M58.0136 45.3943C71.0874 45.3943 81.6857 37.1933 81.6857 27.0769C81.6857 16.9604 71.0874 8.75946 58.0136 8.75946C44.9399 8.75946 34.3416 16.9604 34.3416 27.0769C34.3416 37.1933 44.9399 45.3943 58.0136 45.3943Z" fill="#004900"/>
<path d="M85.7956 45.3943C98.8694 45.3943 109.468 37.1933 109.468 27.0769C109.468 16.9604 98.8694 8.75946 85.7956 8.75946C72.7219 8.75946 62.1235 16.9604 62.1235 27.0769C62.1235 37.1933 72.7219 45.3943 85.7956 45.3943Z" fill="#004900"/>
<path d="M56.8467 188.666C69.9204 188.666 80.5187 180.465 80.5187 170.349C80.5187 160.232 69.9204 152.031 56.8467 152.031C43.7729 152.031 33.1746 160.232 33.1746 170.349C33.1746 180.465 43.7729 188.666 56.8467 188.666Z" fill="#004900"/>
<path d="M71.9503 159.814V30.6413" stroke="#004900" stroke-width="52.7536" stroke-linecap="round"/>
<path d="M87.3517 188.666C100.425 188.666 111.024 180.465 111.024 170.349C111.024 160.232 100.425 152.031 87.3517 152.031C74.2779 152.031 63.6796 160.232 63.6796 170.349C63.6796 180.465 74.2779 188.666 87.3517 188.666Z" fill="#004900"/>
<path d="M82.8942 117.021C100.262 117.021 114.342 106.127 114.342 92.6874C114.342 79.2481 100.262 68.3534 82.8942 68.3534C65.5263 68.3534 51.4468 79.2481 51.4468 92.6874C51.4468 106.127 65.5263 117.021 82.8942 117.021Z" fill="#004900"/>
<path d="M61.1486 117.021C78.5165 117.021 92.596 106.127 92.596 92.6874C92.596 79.2481 78.5165 68.3534 61.1486 68.3534C43.7807 68.3534 29.7012 79.2481 29.7012 92.6874C29.7012 106.127 43.7807 117.021 61.1486 117.021Z" fill="#004900"/>
<path d="M71.9503 32.1576V68.4544" stroke="white" stroke-width="12" stroke-linecap="round"/>
<path d="M71.9503 120.245V165.07" stroke="white" stroke-width="12" stroke-linecap="round"/>
<path d="M71.9503 38.3987C76.7136 38.3987 80.575 34.6637 80.575 30.0564C80.575 25.4491 76.7136 21.7142 71.9503 21.7142C67.187 21.7142 63.3256 25.4491 63.3256 30.0564C63.3256 34.6637 67.187 38.3987 71.9503 38.3987Z" fill="white"/>
<path d="M62.9761 105.144C67.0316 98.9661 77.9002 99.2323 81.3134 105.144" stroke="white" stroke-width="10" stroke-linecap="round" stroke-linejoin="round"/>
<path d="M62.9761 87.6042C67.0316 81.4265 77.9002 81.6928 81.3134 87.6042" stroke="white" stroke-width="10" stroke-linecap="round" stroke-linejoin="round"/>
<path d="M213.289 45.3943C226.363 45.3943 236.961 37.1933 236.961 27.0769C236.961 16.9604 226.363 8.75946 213.289 8.75946C200.215 8.75946 189.617 16.9604 189.617 27.0769C189.617 37.1933 200.215 45.3943 213.289 45.3943Z" fill="#004900"/>
<path d="M241.071 45.3943C254.145 45.3943 264.743 37.1933 264.743 27.0769C264.743 16.9604 254.145 8.75946 241.071 8.75946C227.997 8.75946 217.399 16.9604 217.399 27.0769C217.399 37.1933 227.997 45.3943 241.071 45.3943Z" fill="#004900"/>
<path d="M212.122 188.666C225.196 188.666 235.794 180.465 235.794 170.349C235.794 160.232 225.196 152.031 212.122 152.031C199.048 152.031 188.45 160.232 188.45 170.349C188.45 180.465 199.048 188.666 212.122 188.666Z" fill="#004900"/>
<path d="M227.226 159.814V30.6413" stroke="#004900" stroke-width="52.7536" stroke-linecap="round"/>
<path d="M242.627 188.666C255.701 188.666 266.299 180.465 266.299 170.349C266.299 160.232 255.701 152.031 242.627 152.031C229.553 152.031 218.955 160.232 218.955 170.349C218.955 180.465 229.553 188.666 242.627 188.666Z" fill="#004900"/>
<path d="M238.169 117.021C255.537 117.021 269.617 106.127 269.617 92.6874C269.617 79.2481 255.537 68.3534 238.169 68.3534C220.802 68.3534 206.722 79.2481 206.722 92.6874C206.722 106.127 220.802 117.021 238.169 117.021Z" fill="#004900"/>
<path d="M216.424 117.021C233.792 117.021 247.871 106.127 247.871 92.6874C247.871 79.2481 233.792 68.3534 216.424 68.3534C199.056 68.3534 184.976 79.2481 184.976 92.6874C184.976 106.127 199.056 117.021 216.424 117.021Z" fill="#004900"/>
<path d="M227.226 32.1576V68.4544" stroke="white" stroke-width="12" stroke-linecap="round"/>
<path d="M227.226 120.245V165.07" stroke="white" stroke-width="12" stroke-linecap="round"/>
<path d="M227.226 38.3987C231.989 38.3987 235.85 34.6637 235.85 30.0564C235.85 25.4491 231.989 21.7142 227.226 21.7142C222.462 21.7142 218.601 25.4491 218.601 30.0564C218.601 34.6637 222.462 38.3987 227.226 38.3987Z" fill="white"/>
<path d="M218.251 105.144C222.307 98.9661 233.176 99.2323 236.589 105.144" stroke="white" stroke-width="10" stroke-linecap="round" stroke-linejoin="round"/>
<path d="M218.251 87.6042C222.307 81.4265 233.176 81.6928 236.589 87.6042" stroke="white" stroke-width="10" stroke-linecap="round" stroke-linejoin="round"/>
</svg>
