<svg width="300" height="400" viewBox="0 0 300 400" fill="none" xmlns="http://www.w3.org/2000/svg">
<path fill-rule="evenodd" clip-rule="evenodd" d="M151.119 109.537C175.751 119.142 202.724 185.99 222.949 238.674C223.939 240.817 224.541 243.142 227.003 244.416C245.487 254.845 266.939 270.363 275.878 277.671C292.557 289.481 301.269 281.711 296.727 270.471C293.295 261.812 279.953 241.808 276.968 235.407C273.163 228.308 263.245 220.166 250.442 210.508C224.934 192.107 209.443 151.825 163.444 94.8258C161.201 92.6983 149.921 105.101 151.119 109.537Z" fill="#004900"/>
<path fill-rule="evenodd" clip-rule="evenodd" d="M160.942 103.966C105.177 182.465 69.9238 227.289 15.8352 260.836C0.8795 271.011 -2.24823 262.501 9.29554 253.29C75.8114 199.13 90.2856 153.612 145.927 93.4473L160.942 103.966Z" fill="#004900"/>
<path fill-rule="evenodd" clip-rule="evenodd" d="M144.91 72.0643C123.507 91.4687 110.672 114.017 84.3345 127.54C72.4848 134.95 72.1056 143.309 87.2465 141.414C111.967 137.451 139.38 122.522 159.677 110.601C176.811 99.952 174.682 46.9516 144.91 72.0643Z" fill="#004900"/>
<path fill-rule="evenodd" clip-rule="evenodd" d="M196.136 65.2965C190.43 84.4126 185.371 99.225 173.902 118.932L187.085 131.036C205.35 94.4684 211.614 76.7837 220.746 74.0987C223.785 72.4483 221.908 66.9508 220.344 64.0865C217.062 58.0757 213.756 51.066 209.625 46.7907C200.662 38.2041 199.107 57.3283 196.136 65.2965Z" fill="#004900"/>
<path fill-rule="evenodd" clip-rule="evenodd" d="M233.684 119.567C229.742 115.291 225.291 116.797 222.057 124.38C219.154 131.468 204.025 150.73 185.451 168.643C179.114 175.104 184.742 181.314 194.739 174.283C211.463 158.472 224.889 146.185 235.153 143.803C239.819 142.884 247.985 145.878 247.069 139.527C245.413 131.89 240.01 125.828 233.684 119.567Z" fill="#004900"/>
<path fill-rule="evenodd" clip-rule="evenodd" d="M66.6947 148.616C53.1884 135.651 42.3912 140.376 56.5899 159.751C85.9889 200.238 104.024 207.968 96.9047 222.82L110.543 222.825C118.057 214.709 115.368 219.968 109.862 195.297C108.293 188.264 87.7447 177.635 66.6947 148.616Z" fill="#004900"/>
<path fill-rule="evenodd" clip-rule="evenodd" d="M81.7621 190.641L62.3123 209.261C86.9895 207.238 98.147 208.939 123.257 194.549C140.914 184.815 129.915 176.068 120.078 179.432C98.745 188.414 100.128 187.424 81.7621 190.641Z" fill="#004900"/>
<path fill-rule="evenodd" clip-rule="evenodd" d="M57.5654 247.987C51.9983 251.288 44.9865 245.504 48.8043 254.25C52.5944 260.861 60.2969 260.136 67.8117 257.381C74.3111 254.97 118.831 220.53 147.546 216.469L149.071 197.241C102.467 213.006 63.053 244.225 57.5654 247.987Z" fill="#004900"/>
<path fill-rule="evenodd" clip-rule="evenodd" d="M163.253 141.528C160.983 138.884 155.129 134.946 152.129 144.43C151.446 148.889 153.222 153.319 152.589 160.17C149.593 201.35 140.51 213.826 137.522 230.793C136.145 239.837 140.188 246.154 146.712 233.167C151.587 218.558 157.037 208.199 173.662 165.711C174.769 158.208 170.658 149.836 163.253 141.528Z" fill="#004900"/>
<path fill-rule="evenodd" clip-rule="evenodd" d="M110.055 228.697L99.18 234.441C105.973 250.593 89.8201 307.873 77.7454 306.943C63.2349 305.431 49.0051 294.787 38.2136 287.023L33.3259 287.471C45.3352 307.096 61.2123 330.119 78.6205 333.291C84.1016 334.158 94.8033 327.276 97.6403 322.578C118.685 279.332 125.621 257.304 121.209 244.972C119.186 239.32 112.162 235.054 110.055 228.697Z" fill="#004900"/>
<path fill-rule="evenodd" clip-rule="evenodd" d="M104.72 264.833L103.224 251.746C76.8611 260.786 56.4264 275.746 35.8942 278.857C27.7296 279.952 21.5501 277.216 15.9286 273.427C12.1427 270.398 10.3166 272.974 11.0785 276.932C13.2077 285.279 14.4327 285.071 19.6943 289.172C24.613 292.202 28.5681 292.414 36.5107 291.865C56.6398 290.286 82.3841 272.127 104.72 264.833Z" fill="#004900"/>
<path fill-rule="evenodd" clip-rule="evenodd" d="M147.294 216.944L141.083 236.116C163.97 233.069 176.562 231.815 196.942 224.348C212.772 212.64 204.329 209.475 194.523 208.46C166.502 210.796 175.97 213.296 147.294 216.944Z" fill="#004900"/>
<path fill-rule="evenodd" clip-rule="evenodd" d="M173.486 222.928L158.369 227.183C158.018 256.534 159.057 262.117 155.985 269.689C146.654 287.495 154.264 290.776 110.593 323.269C104.479 327.696 110.084 336.306 117.196 334.966C147.419 329.918 173.641 311.819 175.4 305.05C179.518 284.975 175.833 255.086 173.486 222.928Z" fill="#004900"/>
<path fill-rule="evenodd" clip-rule="evenodd" d="M112.158 260.061L111.276 277.632C107.7 276.463 182.387 272.049 227.642 275.364C233.609 275.139 242.505 275.487 241.127 270.176C230.952 255.137 225.401 253.451 219.249 252.731C217.122 252.918 213.14 254.903 210.279 254.653C192.206 256.189 147.891 259.059 112.158 260.061Z" fill="#004900"/>
<path fill-rule="evenodd" clip-rule="evenodd" d="M192.139 299.616C203.847 308.018 208.63 316.408 211.663 333.515C212.004 335.443 211.279 338.755 216.837 339.722C237.267 343.278 257.92 333.508 259.735 324.002C260.872 304.593 222.788 287.789 196.221 290.033C190.747 290.95 189.727 297.872 192.139 299.616Z" fill="#004900"/>
</svg>
