<svg width="300" height="400" viewBox="0 0 300 400" fill="none" xmlns="http://www.w3.org/2000/svg">
<path d="M135.651 45.3943C148.725 45.3943 159.323 37.1933 159.323 27.0769C159.323 16.9604 148.725 8.75946 135.651 8.75946C122.578 8.75946 111.979 16.9604 111.979 27.0769C111.979 37.1933 122.578 45.3943 135.651 45.3943Z" fill="#004900"/>
<path d="M163.433 45.3943C176.507 45.3943 187.105 37.1933 187.105 27.0769C187.105 16.9604 176.507 8.75946 163.433 8.75946C150.36 8.75946 139.761 16.9604 139.761 27.0769C139.761 37.1933 150.36 45.3943 163.433 45.3943Z" fill="#004900"/>
<path d="M134.484 188.666C147.558 188.666 158.156 180.465 158.156 170.349C158.156 160.232 147.558 152.031 134.484 152.031C121.411 152.031 110.812 160.232 110.812 170.349C110.812 180.465 121.411 188.666 134.484 188.666Z" fill="#004900"/>
<path d="M149.588 159.814V30.6413" stroke="#004900" stroke-width="52.7536" stroke-linecap="round"/>
<path d="M164.989 188.666C178.063 188.666 188.661 180.465 188.661 170.349C188.661 160.232 178.063 152.031 164.989 152.031C151.916 152.031 141.317 160.232 141.317 170.349C141.317 180.465 151.916 188.666 164.989 188.666Z" fill="#004900"/>
<path d="M160.532 117.021C177.9 117.021 191.979 106.127 191.979 92.6874C191.979 79.2481 177.9 68.3534 160.532 68.3534C143.164 68.3534 129.084 79.2481 129.084 92.6874C129.084 106.127 143.164 117.021 160.532 117.021Z" fill="#004900"/>
<path d="M138.786 117.021C156.154 117.021 170.234 106.127 170.234 92.6874C170.234 79.2481 156.154 68.3534 138.786 68.3534C121.418 68.3534 107.339 79.2481 107.339 92.6874C107.339 106.127 121.418 117.021 138.786 117.021Z" fill="#004900"/>
<path d="M149.588 32.1576V68.4544" stroke="white" stroke-width="12" stroke-linecap="round"/>
<path d="M149.588 120.245V165.07" stroke="white" stroke-width="12" stroke-linecap="round"/>
<path d="M149.588 38.3987C154.351 38.3987 158.213 34.6637 158.213 30.0564C158.213 25.4491 154.351 21.7142 149.588 21.7142C144.825 21.7142 140.963 25.4491 140.963 30.0564C140.963 34.6637 144.825 38.3987 149.588 38.3987Z" fill="white"/>
<path d="M140.614 105.144C144.669 98.9661 155.538 99.2323 158.951 105.144" stroke="white" stroke-width="10" stroke-linecap="round" stroke-linejoin="round"/>
<path d="M140.614 87.6042C144.669 81.4265 155.538 81.6928 158.951 87.6042" stroke="white" stroke-width="10" stroke-linecap="round" stroke-linejoin="round"/>
<path d="M135.651 253.827C148.725 253.827 159.323 245.626 159.323 235.509C159.323 225.393 148.725 217.192 135.651 217.192C122.578 217.192 111.979 225.393 111.979 235.509C111.979 245.626 122.578 253.827 135.651 253.827Z" fill="#004900"/>
<path d="M163.433 253.827C176.507 253.827 187.105 245.626 187.105 235.509C187.105 225.393 176.507 217.192 163.433 217.192C150.36 217.192 139.761 225.393 139.761 235.509C139.761 245.626 150.36 253.827 163.433 253.827Z" fill="#004900"/>
<path d="M134.484 397.099C147.558 397.099 158.156 388.898 158.156 378.781C158.156 368.665 147.558 360.464 134.484 360.464C121.411 360.464 110.812 368.665 110.812 378.781C110.812 388.898 121.411 397.099 134.484 397.099Z" fill="#004900"/>
<path d="M149.588 368.247V239.074" stroke="#004900" stroke-width="52.7536" stroke-linecap="round"/>
<path d="M164.989 397.099C178.063 397.099 188.661 388.898 188.661 378.781C188.661 368.665 178.063 360.464 164.989 360.464C151.916 360.464 141.317 368.665 141.317 378.781C141.317 388.898 151.916 397.099 164.989 397.099Z" fill="#004900"/>
<path d="M160.532 325.454C177.9 325.454 191.979 314.559 191.979 301.12C191.979 287.681 177.9 276.786 160.532 276.786C143.164 276.786 129.084 287.681 129.084 301.12C129.084 314.559 143.164 325.454 160.532 325.454Z" fill="#004900"/>
<path d="M138.786 325.454C156.154 325.454 170.234 314.559 170.234 301.12C170.234 287.681 156.154 276.786 138.786 276.786C121.418 276.786 107.339 287.681 107.339 301.12C107.339 314.559 121.418 325.454 138.786 325.454Z" fill="#004900"/>
<path d="M149.588 240.59V276.887" stroke="white" stroke-width="12" stroke-linecap="round"/>
<path d="M149.588 328.678V373.503" stroke="white" stroke-width="12" stroke-linecap="round"/>
<path d="M149.588 246.831C154.351 246.831 158.213 243.096 158.213 238.489C158.213 233.882 154.351 230.147 149.588 230.147C144.825 230.147 140.963 233.882 140.963 238.489C140.963 243.096 144.825 246.831 149.588 246.831Z" fill="white"/>
<path d="M140.614 313.576C144.669 307.399 155.538 307.665 158.951 313.576" stroke="white" stroke-width="10" stroke-linecap="round" stroke-linejoin="round"/>
<path d="M140.614 296.037C144.669 289.859 155.538 290.125 158.951 296.037" stroke="white" stroke-width="10" stroke-linecap="round" stroke-linejoin="round"/>
</svg>
