<svg width="300" height="400" viewBox="0 0 300 400" fill="none" xmlns="http://www.w3.org/2000/svg">
<path fill-rule="evenodd" clip-rule="evenodd" d="M232.907 105.345C182.926 116.55 80.4592 139.975 75.298 135.013C60.9028 124.408 45.616 130.861 54.7159 145.156C69.3434 172.055 91.7191 196.8 102.502 225.953C104.563 230.18 106.625 230.838 108.687 230.806C140.116 231.389 162.384 223.845 192.415 221.053C197.141 220.559 203.386 226.121 206.897 224.461C210.006 222.627 211.3 216.106 212.12 212.017C218.297 187.23 237.386 165.519 248.054 141.101C249.41 138.18 256.922 137.639 256.865 134.819C255.767 124.27 241.28 104.873 232.907 105.345ZM212.065 138.094C223.289 137.797 211.706 162.521 207.11 163.559C201.99 164.374 201.174 156.437 194.899 156.297C190.185 156.833 191.257 160.131 186.397 161.701C156.746 168.006 135.01 170.245 104.072 173.538C100.17 173.644 90.5029 156.741 95.9533 155.367C132.828 145.676 194.836 138.354 212.065 138.094ZM197.303 186.885C200.919 193.583 194.742 200.344 190.27 201.088C163.074 205.492 119.786 212.935 116.406 209.116C114.002 206.342 109.126 198.408 109.901 192.987C119.932 189.363 193.036 178.919 197.303 186.885Z" fill="#142896"/>
<path fill-rule="evenodd" clip-rule="evenodd" d="M133.358 8.63455C116.811 1.41656 115.009 14.3226 117.233 22.6187C122.829 42.3209 130.228 50.5433 139.334 64.242C140.96 66.6 142.765 71.1263 142.491 73.2836L139.966 275.751C139.989 282.089 138.864 302.137 135.159 298.976C120.517 286.924 116.091 280.16 92.6061 248.704C82.5714 234.144 74.6924 241.931 86.8726 260.984C125.116 314.258 128.376 319.339 128.941 373.246C130.404 401.704 157.546 397.286 160.08 379.233C163.169 359.755 158.597 328.729 158.414 307.294C157.717 225.343 157.64 152.868 169.984 73.6793C172.32 61.3255 190.691 51.1831 200.585 47.6283C204.968 46.0487 209.851 33.9995 201.396 33.5332C178.717 30.9499 154.305 18.3663 133.358 8.63455Z" fill="#142896"/>
<path fill-rule="evenodd" clip-rule="evenodd" d="M103.597 100.141C77.9282 98.8658 96.9245 115.538 102.693 115.116C134.64 111.974 187.3 103.74 219.876 95.7181C222.13 95.6417 219.704 78.9529 204.26 77.2665C199.565 77.018 200.372 79.8033 194.821 81.9821C169.932 87.836 126.228 101.703 103.597 100.141Z" fill="#142896"/>
<path fill-rule="evenodd" clip-rule="evenodd" d="M113.523 207.929C95.4719 245.779 78.8748 259.255 24.2662 284.793C3.13597 293.954 4.64207 307.862 30.251 298.346C99.7572 269.1 114.333 250.843 125.668 215.395L113.523 207.929Z" fill="#142896"/>
<path fill-rule="evenodd" clip-rule="evenodd" d="M156.598 208.672C178.946 236.896 209.509 312.982 226.456 301.683C239.834 292.378 257.035 291.279 264.345 293.411C273.914 296.14 274.374 300.974 279.729 304.109C293.812 310.535 290.866 302.139 285.978 294.752C273.329 273.686 213.407 260.94 175.813 204.469L156.598 208.672Z" fill="#142896"/>
</svg>
