<svg width="300" height="400" viewBox="0 0 300 400" fill="none" xmlns="http://www.w3.org/2000/svg">
<path d="M100.455 135.196C134.209 135.196 161.573 107.833 161.573 74.0785C161.573 40.3241 134.209 12.9608 100.455 12.9608C66.7004 12.9608 39.3371 40.3241 39.3371 74.0785C39.3371 107.833 66.7004 135.196 100.455 135.196Z" fill="black"/>
<path d="M100.568 386.881C134.323 386.881 161.686 359.518 161.686 325.763C161.686 292.009 134.323 264.646 100.568 264.646C66.8141 264.646 39.4508 292.009 39.4508 325.763C39.4508 359.518 66.8141 386.881 100.568 386.881Z" fill="black"/>
<path d="M199.498 386.881C233.252 386.881 260.616 359.518 260.616 325.763C260.616 292.009 233.252 264.646 199.498 264.646C165.744 264.646 138.38 292.009 138.38 325.763C138.38 359.518 165.744 386.881 199.498 386.881Z" fill="black"/>
<path d="M199.498 299.553C233.252 299.553 260.616 272.19 260.616 238.436C260.616 204.681 233.252 177.318 199.498 177.318C165.744 177.318 138.38 204.681 138.38 238.436C138.38 272.19 165.744 299.553 199.498 299.553Z" fill="black"/>
<path d="M100.568 299.553C134.323 299.553 161.686 272.19 161.686 238.436C161.686 204.681 134.323 177.318 100.568 177.318C66.8141 177.318 39.4508 204.681 39.4508 238.436C39.4508 272.19 66.8141 299.553 100.568 299.553Z" fill="black"/>
<path d="M100.568 284.53C126.026 284.53 146.663 263.893 146.663 238.435C146.663 212.978 126.026 192.341 100.568 192.341C75.1111 192.341 54.4738 212.978 54.4738 238.435C54.4738 263.893 75.1111 284.53 100.568 284.53Z" fill="white"/>
<path d="M100.568 278.128C122.49 278.128 140.261 260.357 140.261 238.436C140.261 216.514 122.49 198.743 100.568 198.743C78.6467 198.743 60.8756 216.514 60.8756 238.436C60.8756 260.357 78.6467 278.128 100.568 278.128Z" fill="#B93C3C"/>
<path d="M122.117 238.287C122.078 232.642 119.826 227.238 115.845 223.237C111.863 219.236 106.471 216.956 100.827 216.889C95.1824 216.822 89.7371 218.972 85.6616 222.878C81.5861 226.783 79.2058 232.132 79.0325 237.774C78.8591 243.416 80.9066 248.9 84.7347 253.049C88.5628 257.197 93.8658 259.677 99.5035 259.957C105.141 260.236 110.664 258.292 114.883 254.543C119.102 250.793 121.682 245.538 122.067 239.906" stroke="white" stroke-width="6.75045" stroke-linecap="round" stroke-linejoin="round" stroke-dasharray="13.5 13.5"/>
<path d="M100.568 246.467C105.004 246.467 108.6 242.871 108.6 238.435C108.6 234 105.004 230.404 100.568 230.404C96.1327 230.404 92.5368 234 92.5368 238.435C92.5368 242.871 96.1327 246.467 100.568 246.467Z" fill="white"/>
<path d="M100.568 242.103C102.594 242.103 104.236 240.461 104.236 238.435C104.236 236.41 102.594 234.768 100.568 234.768C98.5429 234.768 96.9008 236.41 96.9008 238.435C96.9008 240.461 98.5429 242.103 100.568 242.103Z" fill="#B93C3C"/>
<path d="M199.498 284.53C224.955 284.53 245.593 263.893 245.593 238.435C245.593 212.978 224.955 192.341 199.498 192.341C174.041 192.341 153.403 212.978 153.403 238.435C153.403 263.893 174.041 284.53 199.498 284.53Z" fill="white"/>
<path d="M199.498 278.128C221.42 278.128 239.191 260.357 239.191 238.436C239.191 216.514 221.42 198.743 199.498 198.743C177.576 198.743 159.805 216.514 159.805 238.436C159.805 260.357 177.576 278.128 199.498 278.128Z" fill="#B93C3C"/>
<path d="M221.047 238.287C221.008 232.642 218.756 227.238 214.774 223.237C210.793 219.236 205.4 216.956 199.756 216.889C194.112 216.822 188.667 218.972 184.591 222.878C180.516 226.783 178.135 232.132 177.962 237.774C177.789 243.416 179.836 248.9 183.664 253.049C187.492 257.197 192.795 259.677 198.433 259.957C204.071 260.236 209.593 258.292 213.813 254.543C218.032 250.793 220.612 245.538 220.997 239.906" stroke="white" stroke-width="6.75045" stroke-linecap="round" stroke-linejoin="round" stroke-dasharray="13.5 13.5"/>
<path d="M199.498 246.467C203.934 246.467 207.53 242.871 207.53 238.435C207.53 234 203.934 230.404 199.498 230.404C195.062 230.404 191.466 234 191.466 238.435C191.466 242.871 195.062 246.467 199.498 246.467Z" fill="white"/>
<path d="M199.498 242.103C201.524 242.103 203.166 240.461 203.166 238.435C203.166 236.41 201.524 234.768 199.498 234.768C197.472 234.768 195.83 236.41 195.83 238.435C195.83 240.461 197.472 242.103 199.498 242.103Z" fill="#B93C3C"/>
<path d="M100.568 371.858C126.026 371.858 146.663 351.221 146.663 325.763C146.663 300.306 126.026 279.669 100.568 279.669C75.1111 279.669 54.4738 300.306 54.4738 325.763C54.4738 351.221 75.1111 371.858 100.568 371.858Z" fill="white"/>
<path d="M100.568 365.456C122.49 365.456 140.261 347.685 140.261 325.763C140.261 303.841 122.49 286.07 100.568 286.07C78.6467 286.07 60.8756 303.841 60.8756 325.763C60.8756 347.685 78.6467 365.456 100.568 365.456Z" fill="#B93C3C"/>
<path d="M122.117 325.615C122.078 319.97 119.826 314.566 115.845 310.565C111.863 306.563 106.471 304.284 100.827 304.217C95.1824 304.15 89.7371 306.3 85.6616 310.205C81.5861 314.111 79.2058 319.459 79.0325 325.101C78.8591 330.743 80.9066 336.228 84.7347 340.376C88.5628 344.525 93.8658 347.005 99.5035 347.284C105.141 347.564 110.664 345.62 114.883 341.87C119.102 338.121 121.682 332.865 122.067 327.234" stroke="white" stroke-width="6.75045" stroke-linecap="round" stroke-linejoin="round" stroke-dasharray="13.5 13.5"/>
<path d="M100.568 333.795C105.004 333.795 108.6 330.199 108.6 325.763C108.6 321.327 105.004 317.731 100.568 317.731C96.1327 317.731 92.5368 321.327 92.5368 325.763C92.5368 330.199 96.1327 333.795 100.568 333.795Z" fill="white"/>
<path d="M100.568 329.431C102.594 329.431 104.236 327.789 104.236 325.763C104.236 323.738 102.594 322.096 100.568 322.096C98.5429 322.096 96.9008 323.738 96.9008 325.763C96.9008 327.789 98.5429 329.431 100.568 329.431Z" fill="#B93C3C"/>
<path d="M199.498 371.858C224.955 371.858 245.593 351.221 245.593 325.763C245.593 300.306 224.955 279.669 199.498 279.669C174.041 279.669 153.403 300.306 153.403 325.763C153.403 351.221 174.041 371.858 199.498 371.858Z" fill="white"/>
<path d="M199.498 365.456C221.42 365.456 239.191 347.685 239.191 325.763C239.191 303.841 221.42 286.07 199.498 286.07C177.576 286.07 159.805 303.841 159.805 325.763C159.805 347.685 177.576 365.456 199.498 365.456Z" fill="#B93C3C"/>
<path d="M221.047 325.615C221.008 319.97 218.756 314.566 214.774 310.565C210.793 306.563 205.4 304.284 199.756 304.217C194.112 304.15 188.667 306.3 184.591 310.205C180.516 314.111 178.135 319.459 177.962 325.101C177.789 330.743 179.836 336.228 183.664 340.376C187.492 344.525 192.795 347.005 198.433 347.284C204.071 347.564 209.593 345.62 213.813 341.87C218.032 338.121 220.612 332.865 220.997 327.234" stroke="white" stroke-width="6.75045" stroke-linecap="round" stroke-linejoin="round" stroke-dasharray="13.5 13.5"/>
<path d="M199.498 333.795C203.934 333.795 207.53 330.199 207.53 325.763C207.53 321.327 203.934 317.731 199.498 317.731C195.062 317.731 191.466 321.327 191.466 325.763C191.466 330.199 195.062 333.795 199.498 333.795Z" fill="white"/>
<path d="M199.498 329.431C201.524 329.431 203.166 327.789 203.166 325.763C203.166 323.738 201.524 322.096 199.498 322.096C197.472 322.096 195.83 323.738 195.83 325.763C195.83 327.789 197.472 329.431 199.498 329.431Z" fill="#B93C3C"/>
<path d="M199.627 135.196C233.381 135.196 260.744 107.833 260.744 74.0785C260.744 40.3241 233.381 12.9608 199.627 12.9608C165.872 12.9608 138.509 40.3241 138.509 74.0785C138.509 107.833 165.872 135.196 199.627 135.196Z" fill="black"/>
<path d="M199.627 120.173C225.084 120.173 245.721 99.5358 245.721 74.0785C245.721 48.6211 225.084 27.9839 199.627 27.9839C174.169 27.9839 153.532 48.6211 153.532 74.0785C153.532 99.5358 174.169 120.173 199.627 120.173Z" fill="white"/>
<path d="M199.627 113.771C221.548 113.771 239.319 96.0003 239.319 74.0785C239.319 52.1567 221.548 34.3856 199.627 34.3856C177.705 34.3856 159.934 52.1567 159.934 74.0785C159.934 96.0003 177.705 113.771 199.627 113.771Z" fill="#000037"/>
<path d="M221.175 73.93C221.136 68.2855 218.884 62.8816 214.903 58.8802C210.921 54.8788 205.529 52.5995 199.885 52.5323C194.24 52.4651 188.795 54.6153 184.72 58.5207C180.644 62.4261 178.264 67.7748 178.091 73.4168C177.917 79.0588 179.965 84.5435 183.793 88.6917C187.621 92.8399 192.924 95.3204 198.562 95.5998C204.199 95.8791 209.722 93.9351 213.941 90.1857C218.161 86.4363 220.74 81.1809 221.126 75.5494" stroke="white" stroke-width="6.75045" stroke-linecap="round" stroke-linejoin="round" stroke-dasharray="13.5 13.5"/>
<path d="M199.627 82.1102C204.062 82.1102 207.658 78.5142 207.658 74.0785C207.658 69.6427 204.062 66.0469 199.627 66.0469C195.191 66.0469 191.595 69.6427 191.595 74.0785C191.595 78.5142 195.191 82.1102 199.627 82.1102Z" fill="white"/>
<path d="M199.627 77.7461C201.652 77.7461 203.294 76.1041 203.294 74.0785C203.294 72.0529 201.652 70.4109 199.627 70.4109C197.601 70.4109 195.959 72.0529 195.959 74.0785C195.959 76.1041 197.601 77.7461 199.627 77.7461Z" fill="#000037"/>
<path d="M100.455 120.173C125.912 120.173 146.549 99.5358 146.549 74.0785C146.549 48.6211 125.912 27.9839 100.455 27.9839C74.9975 27.9839 54.3602 48.6211 54.3602 74.0785C54.3602 99.5358 74.9975 120.173 100.455 120.173Z" fill="white"/>
<path d="M100.455 113.771C122.377 113.771 140.148 96.0003 140.148 74.0785C140.148 52.1567 122.377 34.3856 100.455 34.3856C78.533 34.3856 60.7619 52.1567 60.7619 74.0785C60.7619 96.0003 78.533 113.771 100.455 113.771Z" fill="#000037"/>
<path d="M122.004 73.93C121.965 68.2855 119.712 62.8816 115.731 58.8802C111.75 54.8788 106.357 52.5995 100.713 52.5323C95.0688 52.4651 89.6235 54.6153 85.548 58.5207C81.4725 62.4261 79.0922 67.7748 78.9188 73.4168C78.7455 79.0588 80.793 84.5435 84.6211 88.6917C88.4492 92.8399 93.7522 95.3204 99.3899 95.5998C105.028 95.8791 110.55 93.9352 114.769 90.1857C118.989 86.4363 121.569 81.1809 121.954 75.5494" stroke="white" stroke-width="6.75045" stroke-linecap="round" stroke-linejoin="round" stroke-dasharray="13.5 13.5"/>
<path d="M100.455 82.1102C104.891 82.1102 108.486 78.5142 108.486 74.0785C108.486 69.6427 104.891 66.0469 100.455 66.0469C96.0191 66.0469 92.4232 69.6427 92.4232 74.0785C92.4232 78.5142 96.0191 82.1102 100.455 82.1102Z" fill="white"/>
<path d="M100.455 77.7461C102.48 77.7461 104.122 76.1041 104.122 74.0785C104.122 72.0529 102.48 70.4109 100.455 70.4109C98.4292 70.4109 96.7872 72.0529 96.7872 74.0785C96.7872 76.1041 98.4292 77.7461 100.455 77.7461Z" fill="#000037"/>
</svg>
