<svg width="300" height="400" viewBox="0 0 300 400" fill="none" xmlns="http://www.w3.org/2000/svg">
<path fill-rule="evenodd" clip-rule="evenodd" d="M60.443 226.858C161.953 237.634 155.529 211.096 240.504 208.281C259.389 205.536 258.139 190.822 240.055 192.264C149.687 194.507 181.276 227.204 62.362 208.356C33.3647 203.18 38.0983 222.923 60.443 226.858Z" fill="#B93C3C"/>
<path fill-rule="evenodd" clip-rule="evenodd" d="M151.707 183.659C153.019 179.735 143.71 173.478 138.488 180.187C133.657 187.666 132.224 192.343 127.628 197.607C125.669 200 125.386 205.332 127.411 206.875C134.979 213.073 134.135 211.659 138.91 221.613L159.441 219.851C152.921 211.261 151.844 212.016 149.31 203.427C148.145 194.1 148.502 193.251 151.707 183.659Z" fill="#B93C3C"/>
<path fill-rule="evenodd" clip-rule="evenodd" d="M177.5 145.697C175.428 143.533 174.191 142.765 171.287 145.697L155.895 161.238C154.548 162.739 154.524 164.943 155.632 166.208L164.802 175.042C169.155 179.294 170.265 182.356 167.701 187.377C164.282 196.994 161.715 206.745 161.605 212.085L182.786 208.598C178.826 198.781 178.915 196.241 185.651 186.952C191.21 180.625 196.584 179.178 191.646 170.534L177.5 145.697Z" fill="#B93C3C"/>
<path fill-rule="evenodd" clip-rule="evenodd" d="M199.904 226.053C197.524 226.053 194.788 226.405 191.917 226.728C165.936 230.968 147.285 240.39 104.134 238.869C98.2927 238.899 93.3369 241.977 93.5422 246.459C93.958 256.352 101.242 308.636 101.847 313.348C102.7 319.765 111.637 320.336 112.814 314.689C113.029 313.655 113.035 310.732 112.911 306.693C113.459 305.55 114.309 304.673 115.22 304.51L172.202 299.418C172.782 299.425 173.217 299.962 173.523 300.748C173.081 320.841 172.838 340.49 173.269 347.371C173.392 348.891 173.32 350.491 174.839 351.857C178.466 354.891 198.947 353.221 204.247 349.91C205.716 348.832 206.247 348.327 206.445 346.08C203.484 312.088 205.777 268.863 208.05 235.207C208.647 227.754 205.139 226.052 199.904 226.053ZM172.923 242.816C178.575 241.427 174.945 258.645 173.011 258.693L114.183 263.305C109.056 262.28 109.302 250.238 112.761 250.076C139.399 249.18 148.505 246.895 172.923 242.816ZM172.794 271.969C174.5 271.838 174.812 284.353 172.413 284.555L115.093 289.351C110.992 288.201 110.741 277.39 114.314 276.859L172.794 271.969Z" fill="#B93C3C"/>
<path fill-rule="evenodd" clip-rule="evenodd" d="M152.8 242.844L133.568 243.478L128.277 334.038C127.525 344.33 132.769 354.649 139.518 354.801L158.26 348.254L152.8 242.844Z" fill="#B93C3C"/>
<path fill-rule="evenodd" clip-rule="evenodd" d="M91.7065 351.464L92.5528 359.491C146.799 377.775 134.189 350.915 189.447 344.34L188.813 339.412C146.571 336.425 124.46 352.591 91.7065 351.464Z" fill="#B93C3C"/>
<path fill-rule="evenodd" clip-rule="evenodd" d="M86.5274 292.03C81.7367 277.681 68.4797 280.5 70.9578 292.915C84.8545 336.364 88.8996 360.413 90.7567 363.774C101.549 382.003 109.159 377.228 109.835 361.34C109.947 356.491 95.6009 317.846 86.5274 292.03Z" fill="#B93C3C"/>
<path fill-rule="evenodd" clip-rule="evenodd" d="M43.8397 321.036C35.4806 319.731 36.2392 330.12 40.5231 332.324C100.37 358.791 164.361 323.458 218.49 326.633C220.548 327.002 223.802 328.197 226.784 329.835C236.341 334.883 230.518 349.345 225.808 352.313C204.272 362.158 209.294 352.404 185.135 363.563C182.857 365.024 176.877 366.16 174.653 365.248C165.71 362.27 158.351 357.146 152.503 352.584L141.314 358.23C148.22 366.831 158.414 370.901 166.855 374.601C173.602 377.815 180.981 377.455 185.884 377.607C210.992 377.951 234.473 368.31 246.287 366.851C249.745 366.321 253.77 360.326 255.337 357.542C265.029 341.669 261.026 338.971 254.252 322.353C250.402 316.12 239.271 314.341 233.424 313.548C172.707 310.974 95.1701 332.36 43.8397 321.036Z" fill="#B93C3C"/>
<path fill-rule="evenodd" clip-rule="evenodd" d="M138.731 9.15986C132.07 2.20905 129.587 3.38899 124.721 7.20875C120.821 11.2065 117.107 13.4357 115.318 21.3543C114.351 25.7129 115.182 34.3965 117.269 41.841C118.556 45.5026 123.288 49.222 128.274 50.6209C129.983 51.1627 127.652 59.2926 125.835 63.6284L144.046 62.6528C142.504 57.7525 138.554 49.8148 139.493 48.3447C144.593 40.3629 150.328 29.6208 150.354 25.5817C150.424 21.9005 144.727 15.4186 138.731 9.15986Z" fill="black"/>
<path fill-rule="evenodd" clip-rule="evenodd" d="M64.5497 77.8277C52.9574 76.6276 41.0102 61.9792 67.5784 63.5195C110.079 66.7654 142.772 63.273 199.267 37.9089C206.176 36.2229 257.592 50.2532 259.7 55.4688C262.354 63.3774 258.671 85.7999 247.034 84.9626C230.562 79.7575 193.606 60.5071 180.66 63.9794C131.204 76.1379 114.022 81.0971 64.5497 77.8277Z" fill="black"/>
<path fill-rule="evenodd" clip-rule="evenodd" d="M133.871 80.6432C129.848 78.5039 109.402 94.1482 108.974 97.0328C108.129 102.358 113.761 109.953 111.274 111.222C76.1357 129.427 63.8906 130.506 45.8058 133.709C24.3815 137.907 29.7335 149.63 45.8058 147.874C96.6459 142.579 85.5269 136.088 137.98 125.892C142.059 124.995 149.849 107.835 149.849 101.1C149.849 95.37 139.572 83.6647 133.871 80.6432Z" fill="black"/>
<path fill-rule="evenodd" clip-rule="evenodd" d="M160.507 89.8836C158.475 89.7657 157.941 90.546 158.426 91.6976C169.334 117.595 217.222 153.156 219.753 147.819C227.189 130.699 224.934 128.247 221.781 123.129C209.926 104.033 178.57 91.1391 160.507 89.8836Z" fill="black"/>
</svg>
