<svg width="300" height="400" viewBox="0 0 300 400" fill="none" xmlns="http://www.w3.org/2000/svg">
<path fill-rule="evenodd" clip-rule="evenodd" d="M52.8945 69.9599C35.3876 69.8472 43.841 88.8588 51.9882 89.4315C108.409 101.749 144.328 77.7947 183.413 79.9065C204.092 81.9574 237.237 90.9474 244.927 95.5372C246.565 96.5149 248.905 96.2781 249.922 95.7373C258.262 91.3437 257.635 70.6325 254.28 58.8844C253.348 55.3974 245.611 51.1734 239.224 59.0627C237.13 61.1737 228.372 59.7027 226.518 58.4384C218.14 52.7252 195.074 47.2521 182.96 50.3557C136.732 60.1134 100.214 76.9058 52.8945 69.9599Z" fill="black"/>
<path fill-rule="evenodd" clip-rule="evenodd" d="M60.4431 226.858C161.953 237.634 155.53 211.096 240.504 208.281C259.389 205.536 258.139 190.822 240.055 192.264C149.687 194.507 181.276 227.204 62.3622 208.356C33.3649 203.18 38.0985 222.923 60.4431 226.858Z" fill="#B93C3C"/>
<path fill-rule="evenodd" clip-rule="evenodd" d="M151.707 183.659C153.019 179.735 143.71 173.478 138.488 180.187C133.657 187.666 132.224 192.343 127.628 197.607C125.669 200 125.386 205.332 127.411 206.875C134.979 213.073 134.135 211.659 138.91 221.613L159.441 219.851C152.921 211.261 151.844 212.016 149.31 203.427C148.145 194.1 148.502 193.251 151.707 183.659Z" fill="#B93C3C"/>
<path fill-rule="evenodd" clip-rule="evenodd" d="M177.5 145.697C175.428 143.533 174.191 142.765 171.287 145.697L155.896 161.238C154.548 162.739 154.524 164.943 155.632 166.208L164.802 175.042C169.155 179.294 170.266 182.356 167.701 187.377C164.282 196.994 161.715 206.745 161.605 212.085L182.786 208.598C178.826 198.781 178.915 196.241 185.651 186.952C191.21 180.625 196.584 179.178 191.646 170.534L177.5 145.697Z" fill="#B93C3C"/>
<path fill-rule="evenodd" clip-rule="evenodd" d="M199.904 226.053C197.524 226.053 194.788 226.405 191.917 226.728C165.936 230.968 147.285 240.39 104.134 238.869C98.2928 238.899 93.337 241.977 93.5423 246.459C93.9581 256.352 101.242 308.636 101.847 313.348C102.7 319.765 111.637 320.336 112.814 314.689C113.029 313.655 113.035 310.732 112.911 306.693C113.459 305.55 114.309 304.673 115.22 304.51L172.203 299.418C172.782 299.425 173.217 299.962 173.523 300.748C173.081 320.841 172.839 340.49 173.269 347.371C173.392 348.891 173.32 350.491 174.839 351.857C178.466 354.891 198.947 353.221 204.247 349.91C205.716 348.832 206.247 348.327 206.445 346.08C203.484 312.088 205.777 268.863 208.05 235.207C208.647 227.754 205.139 226.052 199.904 226.053ZM172.923 242.816C178.575 241.427 174.945 258.645 173.011 258.693L114.183 263.305C109.056 262.28 109.303 250.238 112.761 250.076C139.4 249.18 148.505 246.895 172.923 242.816ZM172.794 271.969C174.5 271.838 174.812 284.353 172.413 284.555L115.093 289.351C110.992 288.201 110.741 277.39 114.314 276.859L172.794 271.969Z" fill="#B93C3C"/>
<path fill-rule="evenodd" clip-rule="evenodd" d="M152.801 242.844L133.568 243.478L128.277 334.038C127.526 344.33 132.769 354.649 139.518 354.801L158.26 348.254L152.801 242.844Z" fill="#B93C3C"/>
<path fill-rule="evenodd" clip-rule="evenodd" d="M91.7065 351.464L92.5528 359.491C146.799 377.775 134.189 350.915 189.447 344.34L188.813 339.412C146.571 336.425 124.46 352.591 91.7065 351.464Z" fill="#B93C3C"/>
<path fill-rule="evenodd" clip-rule="evenodd" d="M86.5276 292.03C81.7369 277.681 68.48 280.5 70.9581 292.915C84.8547 336.364 88.8998 360.413 90.757 363.774C101.549 382.003 109.16 377.228 109.835 361.34C109.947 356.491 95.6011 317.846 86.5276 292.03Z" fill="#B93C3C"/>
<path fill-rule="evenodd" clip-rule="evenodd" d="M43.8398 321.036C35.4807 319.731 36.2393 330.12 40.5233 332.324C100.371 358.791 164.362 323.458 218.49 326.633C220.548 327.002 223.803 328.197 226.784 329.835C236.341 334.883 230.518 349.345 225.808 352.313C204.272 362.158 209.294 352.404 185.135 363.563C182.857 365.024 176.878 366.16 174.653 365.248C165.71 362.27 158.351 357.146 152.503 352.584L141.314 358.23C148.22 366.831 158.414 370.901 166.855 374.601C173.602 377.815 180.981 377.455 185.884 377.607C210.992 377.951 234.473 368.31 246.287 366.851C249.745 366.321 253.77 360.326 255.337 357.542C265.029 341.669 261.026 338.971 254.252 322.353C250.402 316.12 239.272 314.341 233.424 313.548C172.707 310.974 95.1702 332.36 43.8398 321.036Z" fill="#B93C3C"/>
</svg>
