<svg width="300" height="400" viewBox="0 0 300 400" fill="none" xmlns="http://www.w3.org/2000/svg">
<path d="M36.3312 45.3943C49.4049 45.3943 60.0032 37.1933 60.0032 27.0769C60.0032 16.9604 49.4049 8.75946 36.3312 8.75946C23.2574 8.75946 12.6591 16.9604 12.6591 27.0769C12.6591 37.1933 23.2574 45.3943 36.3312 45.3943Z" fill="#D71E1E"/>
<path d="M64.1131 45.3943C77.1868 45.3943 87.7852 37.1933 87.7852 27.0769C87.7852 16.9604 77.1868 8.75946 64.1131 8.75946C51.0393 8.75946 40.441 16.9604 40.441 27.0769C40.441 37.1933 51.0393 45.3943 64.1131 45.3943Z" fill="#D71E1E"/>
<path d="M35.1641 188.666C48.2378 188.666 58.8362 180.465 58.8362 170.349C58.8362 160.232 48.2378 152.031 35.1641 152.031C22.0904 152.031 11.492 160.232 11.492 170.349C11.492 180.465 22.0904 188.666 35.1641 188.666Z" fill="#D71E1E"/>
<path d="M50.2677 159.814V30.6413" stroke="#D71E1E" stroke-width="52.7536" stroke-linecap="round"/>
<path d="M65.6691 188.666C78.7428 188.666 89.3412 180.465 89.3412 170.349C89.3412 160.232 78.7428 152.031 65.6691 152.031C52.5954 152.031 41.997 160.232 41.997 170.349C41.997 180.465 52.5954 188.666 65.6691 188.666Z" fill="#D71E1E"/>
<path d="M61.2116 117.021C78.5795 117.021 92.659 106.127 92.659 92.6874C92.659 79.2481 78.5795 68.3534 61.2116 68.3534C43.8436 68.3534 29.7642 79.2481 29.7642 92.6874C29.7642 106.127 43.8436 117.021 61.2116 117.021Z" fill="#D71E1E"/>
<path d="M39.466 117.021C56.834 117.021 70.9135 106.127 70.9135 92.6874C70.9135 79.2481 56.834 68.3534 39.466 68.3534C22.0981 68.3534 8.01862 79.2481 8.01862 92.6874C8.01862 106.127 22.0981 117.021 39.466 117.021Z" fill="#D71E1E"/>
<path d="M50.2677 32.1576V68.4544" stroke="white" stroke-width="12" stroke-linecap="round"/>
<path d="M50.2677 120.245V165.07" stroke="white" stroke-width="12" stroke-linecap="round"/>
<path d="M50.2677 38.3987C55.0311 38.3987 58.8925 34.6637 58.8925 30.0564C58.8925 25.4491 55.0311 21.7142 50.2677 21.7142C45.5044 21.7142 41.643 25.4491 41.643 30.0564C41.643 34.6637 45.5044 38.3987 50.2677 38.3987Z" fill="white"/>
<path d="M41.2935 105.144C45.3491 98.9661 56.2177 99.2323 59.6309 105.144" stroke="white" stroke-width="10" stroke-linecap="round" stroke-linejoin="round"/>
<path d="M41.2935 87.6042C45.3491 81.4265 56.2177 81.6928 59.6309 87.6042" stroke="white" stroke-width="10" stroke-linecap="round" stroke-linejoin="round"/>
<path d="M239.168 45.3943C252.242 45.3943 262.84 37.1933 262.84 27.0769C262.84 16.9604 252.242 8.75946 239.168 8.75946C226.094 8.75946 215.496 16.9604 215.496 27.0769C215.496 37.1933 226.094 45.3943 239.168 45.3943Z" fill="#D71E1E"/>
<path d="M266.95 45.3943C280.024 45.3943 290.622 37.1933 290.622 27.0769C290.622 16.9604 280.024 8.75946 266.95 8.75946C253.876 8.75946 243.278 16.9604 243.278 27.0769C243.278 37.1933 253.876 45.3943 266.95 45.3943Z" fill="#D71E1E"/>
<path d="M238.001 188.666C251.075 188.666 261.673 180.465 261.673 170.349C261.673 160.232 251.075 152.031 238.001 152.031C224.927 152.031 214.329 160.232 214.329 170.349C214.329 180.465 224.927 188.666 238.001 188.666Z" fill="#D71E1E"/>
<path d="M253.105 159.814V30.6413" stroke="#D71E1E" stroke-width="52.7536" stroke-linecap="round"/>
<path d="M268.506 188.666C281.58 188.666 292.178 180.465 292.178 170.349C292.178 160.232 281.58 152.031 268.506 152.031C255.432 152.031 244.834 160.232 244.834 170.349C244.834 180.465 255.432 188.666 268.506 188.666Z" fill="#D71E1E"/>
<path d="M264.049 117.021C281.417 117.021 295.496 106.127 295.496 92.6874C295.496 79.2481 281.417 68.3534 264.049 68.3534C246.681 68.3534 232.601 79.2481 232.601 92.6874C232.601 106.127 246.681 117.021 264.049 117.021Z" fill="#D71E1E"/>
<path d="M242.303 117.021C259.671 117.021 273.751 106.127 273.751 92.6874C273.751 79.2481 259.671 68.3534 242.303 68.3534C224.935 68.3534 210.856 79.2481 210.856 92.6874C210.856 106.127 224.935 117.021 242.303 117.021Z" fill="#D71E1E"/>
<path d="M253.105 32.1576V68.4544" stroke="white" stroke-width="12" stroke-linecap="round"/>
<path d="M253.105 120.245V165.07" stroke="white" stroke-width="12" stroke-linecap="round"/>
<path d="M253.105 38.3987C257.868 38.3987 261.73 34.6637 261.73 30.0564C261.73 25.4491 257.868 21.7142 253.105 21.7142C248.342 21.7142 244.48 25.4491 244.48 30.0564C244.48 34.6637 248.342 38.3987 253.105 38.3987Z" fill="white"/>
<path d="M244.131 105.144C248.186 98.9661 259.055 99.2323 262.468 105.144" stroke="white" stroke-width="10" stroke-linecap="round" stroke-linejoin="round"/>
<path d="M244.131 87.6042C248.186 81.4265 259.055 81.6928 262.468 87.6042" stroke="white" stroke-width="10" stroke-linecap="round" stroke-linejoin="round"/>
<path d="M239.168 253.827C252.242 253.827 262.84 245.626 262.84 235.509C262.84 225.393 252.242 217.192 239.168 217.192C226.094 217.192 215.496 225.393 215.496 235.509C215.496 245.626 226.094 253.827 239.168 253.827Z" fill="#D71E1E"/>
<path d="M266.95 253.827C280.024 253.827 290.622 245.626 290.622 235.509C290.622 225.393 280.024 217.192 266.95 217.192C253.876 217.192 243.278 225.393 243.278 235.509C243.278 245.626 253.876 253.827 266.95 253.827Z" fill="#D71E1E"/>
<path d="M238.001 397.099C251.075 397.099 261.673 388.898 261.673 378.781C261.673 368.665 251.075 360.464 238.001 360.464C224.927 360.464 214.329 368.665 214.329 378.781C214.329 388.898 224.927 397.099 238.001 397.099Z" fill="#D71E1E"/>
<path d="M253.105 368.247V239.074" stroke="#D71E1E" stroke-width="52.7536" stroke-linecap="round"/>
<path d="M268.506 397.099C281.58 397.099 292.178 388.898 292.178 378.781C292.178 368.665 281.58 360.464 268.506 360.464C255.432 360.464 244.834 368.665 244.834 378.781C244.834 388.898 255.432 397.099 268.506 397.099Z" fill="#D71E1E"/>
<path d="M264.049 325.454C281.417 325.454 295.496 314.559 295.496 301.12C295.496 287.681 281.417 276.786 264.049 276.786C246.681 276.786 232.601 287.681 232.601 301.12C232.601 314.559 246.681 325.454 264.049 325.454Z" fill="#D71E1E"/>
<path d="M242.303 325.454C259.671 325.454 273.751 314.559 273.751 301.12C273.751 287.681 259.671 276.786 242.303 276.786C224.935 276.786 210.856 287.681 210.856 301.12C210.856 314.559 224.935 325.454 242.303 325.454Z" fill="#D71E1E"/>
<path d="M253.105 240.59V276.887" stroke="white" stroke-width="12" stroke-linecap="round"/>
<path d="M253.105 328.678V373.503" stroke="white" stroke-width="12" stroke-linecap="round"/>
<path d="M253.105 246.831C257.868 246.831 261.73 243.096 261.73 238.489C261.73 233.882 257.868 230.147 253.105 230.147C248.342 230.147 244.48 233.882 244.48 238.489C244.48 243.096 248.342 246.831 253.105 246.831Z" fill="white"/>
<path d="M244.131 313.576C248.186 307.399 259.055 307.665 262.468 313.576" stroke="white" stroke-width="10" stroke-linecap="round" stroke-linejoin="round"/>
<path d="M244.131 296.037C248.186 289.859 259.055 290.125 262.468 296.037" stroke="white" stroke-width="10" stroke-linecap="round" stroke-linejoin="round"/>
<path d="M36.3312 253.827C49.4049 253.827 60.0032 245.626 60.0032 235.509C60.0032 225.393 49.4049 217.192 36.3312 217.192C23.2574 217.192 12.6591 225.393 12.6591 235.509C12.6591 245.626 23.2574 253.827 36.3312 253.827Z" fill="#D71E1E"/>
<path d="M64.1131 253.827C77.1868 253.827 87.7852 245.626 87.7852 235.509C87.7852 225.393 77.1868 217.192 64.1131 217.192C51.0393 217.192 40.441 225.393 40.441 235.509C40.441 245.626 51.0393 253.827 64.1131 253.827Z" fill="#D71E1E"/>
<path d="M35.1641 397.099C48.2378 397.099 58.8362 388.898 58.8362 378.781C58.8362 368.665 48.2378 360.464 35.1641 360.464C22.0904 360.464 11.492 368.665 11.492 378.781C11.492 388.898 22.0904 397.099 35.1641 397.099Z" fill="#D71E1E"/>
<path d="M50.2677 368.247V239.074" stroke="#D71E1E" stroke-width="52.7536" stroke-linecap="round"/>
<path d="M65.6691 397.099C78.7428 397.099 89.3412 388.898 89.3412 378.781C89.3412 368.665 78.7428 360.464 65.6691 360.464C52.5954 360.464 41.997 368.665 41.997 378.781C41.997 388.898 52.5954 397.099 65.6691 397.099Z" fill="#D71E1E"/>
<path d="M61.2116 325.454C78.5795 325.454 92.659 314.559 92.659 301.12C92.659 287.681 78.5795 276.786 61.2116 276.786C43.8436 276.786 29.7642 287.681 29.7642 301.12C29.7642 314.559 43.8436 325.454 61.2116 325.454Z" fill="#D71E1E"/>
<path d="M39.466 325.454C56.834 325.454 70.9135 314.559 70.9135 301.12C70.9135 287.681 56.834 276.786 39.466 276.786C22.0981 276.786 8.01862 287.681 8.01862 301.12C8.01862 314.559 22.0981 325.454 39.466 325.454Z" fill="#D71E1E"/>
<path d="M50.2677 240.59V276.887" stroke="white" stroke-width="12" stroke-linecap="round"/>
<path d="M50.2677 328.678V373.503" stroke="white" stroke-width="12" stroke-linecap="round"/>
<path d="M50.2677 246.831C55.0311 246.831 58.8925 243.096 58.8925 238.489C58.8925 233.882 55.0311 230.147 50.2677 230.147C45.5044 230.147 41.643 233.882 41.643 238.489C41.643 243.096 45.5044 246.831 50.2677 246.831Z" fill="white"/>
<path d="M41.2935 313.576C45.3491 307.399 56.2177 307.665 59.6309 313.576" stroke="white" stroke-width="10" stroke-linecap="round" stroke-linejoin="round"/>
<path d="M41.2935 296.037C45.3491 289.859 56.2177 290.125 59.6309 296.037" stroke="white" stroke-width="10" stroke-linecap="round" stroke-linejoin="round"/>
<path d="M135.651 149.236C148.725 149.236 159.323 141.035 159.323 130.919C159.323 120.802 148.725 112.601 135.651 112.601C122.578 112.601 111.979 120.802 111.979 130.919C111.979 141.035 122.578 149.236 135.651 149.236Z" fill="#D71E1E"/>
<path d="M163.433 149.236C176.507 149.236 187.105 141.035 187.105 130.919C187.105 120.802 176.507 112.601 163.433 112.601C150.36 112.601 139.761 120.802 139.761 130.919C139.761 141.035 150.36 149.236 163.433 149.236Z" fill="#D71E1E"/>
<path d="M134.484 292.508C147.558 292.508 158.156 284.307 158.156 274.19C158.156 264.074 147.558 255.873 134.484 255.873C121.411 255.873 110.812 264.074 110.812 274.19C110.812 284.307 121.411 292.508 134.484 292.508Z" fill="#D71E1E"/>
<path d="M149.588 263.656V134.483" stroke="#D71E1E" stroke-width="52.7536" stroke-linecap="round"/>
<path d="M164.989 292.508C178.063 292.508 188.661 284.307 188.661 274.19C188.661 264.074 178.063 255.873 164.989 255.873C151.916 255.873 141.317 264.074 141.317 274.19C141.317 284.307 151.916 292.508 164.989 292.508Z" fill="#D71E1E"/>
<path d="M160.532 220.863C177.9 220.863 191.979 209.968 191.979 196.529C191.979 183.09 177.9 172.195 160.532 172.195C143.164 172.195 129.084 183.09 129.084 196.529C129.084 209.968 143.164 220.863 160.532 220.863Z" fill="#D71E1E"/>
<path d="M138.786 220.863C156.154 220.863 170.234 209.968 170.234 196.529C170.234 183.09 156.154 172.195 138.786 172.195C121.418 172.195 107.339 183.09 107.339 196.529C107.339 209.968 121.418 220.863 138.786 220.863Z" fill="#D71E1E"/>
<path d="M149.588 135.999V172.296" stroke="white" stroke-width="12" stroke-linecap="round"/>
<path d="M149.588 224.087V268.912" stroke="white" stroke-width="12" stroke-linecap="round"/>
<path d="M149.588 142.24C154.351 142.24 158.213 138.505 158.213 133.898C158.213 129.291 154.351 125.556 149.588 125.556C144.825 125.556 140.963 129.291 140.963 133.898C140.963 138.505 144.825 142.24 149.588 142.24Z" fill="white"/>
<path d="M140.614 208.985C144.669 202.808 155.538 203.074 158.951 208.985" stroke="white" stroke-width="10" stroke-linecap="round" stroke-linejoin="round"/>
<path d="M140.614 191.446C144.669 185.268 155.538 185.534 158.951 191.446" stroke="white" stroke-width="10" stroke-linecap="round" stroke-linejoin="round"/>
<path d="M150.356 365.926C161.282 365.926 170.139 357.069 170.139 346.143C170.139 335.217 161.282 326.36 150.356 326.36C139.43 326.36 130.573 335.217 130.573 346.143C130.573 357.069 139.43 365.926 150.356 365.926Z" fill="#D71E1E"/>
</svg>
