<svg width="300" height="400" viewBox="0 0 300 400" fill="none" xmlns="http://www.w3.org/2000/svg">
<path fill-rule="evenodd" clip-rule="evenodd" d="M33.1605 160.401C27.3601 167.914 53.2266 187.971 72.187 194.011C78.3141 196.295 97.3112 176.487 89.8901 171.951C69.4845 161.383 37.2832 154.829 33.1605 160.401Z" fill="#142896"/>
<path fill-rule="evenodd" clip-rule="evenodd" d="M67.9921 163.968C44.6105 251.885 51.4577 242.552 11.175 296.629C4.6809 313.096 26.0355 327.251 36.4904 320.957C50.9595 311.269 67.2988 300.096 77.4946 287.545C96.0072 264.756 181.016 201.41 238.518 183.646C250.099 180.069 260.893 180.583 271.463 178.298C279.407 176.04 271.426 164.235 267.063 159.766C252.356 144.269 226.455 135.101 217.971 141.21C214.249 143.05 219.778 168.816 215.263 171.235C171.628 192.593 90.7327 247.718 53.9663 275.944C52.5902 276.586 55.2235 270.979 56.1315 269.161C64.2092 252.99 72.9971 207.61 77.4117 161.436C77.8295 151.061 69.5343 154.67 67.9921 163.968Z" fill="#142896"/>
<path fill-rule="evenodd" clip-rule="evenodd" d="M111.997 105.354C102.615 104.358 97.4919 113.603 98.5665 122.643C99.4779 130.31 99.7386 140.13 107.774 148.452C113.061 155.005 109.133 204.729 109.031 246.783C109.024 249.73 106.764 250.355 106.814 253.196C106.805 260.605 110.686 279.281 115.503 279.435C120.001 279.213 126.498 272.314 126.835 262.43C129.37 215.613 133.669 154.044 137.376 146.174C142.047 136.257 150.101 138.924 150.908 129.453C152.099 116.198 132.993 108.287 111.997 105.354Z" fill="#142896"/>
<path fill-rule="evenodd" clip-rule="evenodd" d="M178.704 58.6533C168.365 58.6533 148.305 87.0638 148.247 93.0392C148.357 100.715 167.67 107.741 167.281 119.172C166.915 184.404 149.786 288.796 162.895 305.858C182.129 328.835 274.192 307.606 279.896 302.911C288.974 295.471 292.923 288.01 289.721 280.478C286.289 272.187 217.896 290.927 187.784 279.823C175.144 275.181 184.052 185.608 184.271 132.992C184.912 121.02 208.399 107.458 208.505 102.209C208.879 92.0182 191.303 59.88 178.704 58.6533Z" fill="#142896"/>
</svg>
