<svg width="300" height="400" viewBox="0 0 300 400" fill="none" xmlns="http://www.w3.org/2000/svg">
<path fill-rule="evenodd" clip-rule="evenodd" d="M170.08 22.7094C163.643 22.2222 140.487 48.0858 134.426 57.1832C128.879 64.1187 139.096 68.3623 143.058 74.2422C148.057 82.3385 144.247 164.546 134.937 209.976L150.002 207.655C159.89 170.421 167.205 101.267 174.608 95.0805C181.654 89.4067 197.664 90.0038 195.719 81.6047C191.694 62.8501 175.804 22.9215 170.08 22.7094Z" fill="#19328C"/>
<path fill-rule="evenodd" clip-rule="evenodd" d="M113.594 130.641C95.1701 131.525 85.5448 141.386 112.572 145.205C144.421 146.556 210.862 139.22 210.938 129.927C211.425 117.487 201.509 99.4323 195.619 99.5442C190.935 99.6111 181.392 105.653 180.525 112.955C179.773 121.517 130.858 129.618 113.594 130.641Z" fill="#19328C"/>
<path fill-rule="evenodd" clip-rule="evenodd" d="M144.426 182.788C169.392 172.178 189.16 162.264 212.769 148.854C221.052 144.436 228.8 153.526 227.102 159.395C225.998 163.209 213.382 186.281 224.476 187.181C214.446 195.246 187.396 219.118 171.875 255.284L147.691 253.177C158.07 226.393 197.725 181.682 195.038 178.748C190.459 173.64 153.979 192.348 146.009 189.989L144.426 182.788Z" fill="#19328C"/>
<path fill-rule="evenodd" clip-rule="evenodd" d="M51.5244 227.505C90.5665 205.78 177.096 186.138 246.874 185.021C255.752 184.462 276.983 237.626 276.796 246.811C276.213 272.954 232.544 335.7 205.453 373.485C199.811 379.936 187.046 378.352 178.477 372.864L132.176 341.16C127.497 337.092 129.25 328.514 137.095 333.382C147.459 339.961 168.657 348.306 180.404 349.889C191.19 351.368 227.29 263.355 229.449 248.514C230.718 241.776 222.161 209.097 206.723 208.064C102.267 212.075 67.2987 244.018 53.2789 245.477L51.5244 227.505Z" fill="#19328C"/>
<path fill-rule="evenodd" clip-rule="evenodd" d="M29.0123 190.049C20.8998 192.533 23.613 203.03 24.7666 209.369C34.28 252.808 69.8947 335.272 77.0134 340.184C98.9264 352.721 107.495 344.365 107.122 334.915C106.015 325.754 77.6287 250.099 59.8097 210.167C53.6563 197.409 38.3289 187.63 29.0123 190.049Z" fill="#19328C"/>
<path fill-rule="evenodd" clip-rule="evenodd" d="M62.1527 169.719C48.7979 163.242 53.1101 151.51 71.1743 158.574C112.185 174.359 127.897 200.73 141.297 252.669L126.232 256.885C113.299 207.747 97.8971 189.519 62.1527 169.719Z" fill="#19328C"/>
<path fill-rule="evenodd" clip-rule="evenodd" d="M112.815 277.69C97.3239 283.619 100.123 259.6 110.615 256.566C182.818 233.314 186.202 235.314 198.273 240.264C209.817 245.047 213.949 262.311 198.615 261.455C168.239 259.478 144.474 264.016 112.815 277.69Z" fill="#19328C"/>
<path fill-rule="evenodd" clip-rule="evenodd" d="M115.776 293.685C105.82 296.404 108.942 312.035 118.969 309.705C145.018 304.017 163.354 300.633 190.12 296.651C198.186 295.271 197.934 273.974 190.644 270.654C180.818 267.613 179.718 274.288 175.399 276.793C163.575 283.028 139.147 287.288 115.776 293.685Z" fill="#19328C"/>
<path fill-rule="evenodd" clip-rule="evenodd" d="M137.735 259.688C139.909 285.603 142.521 314.678 139.438 340.593L156.505 350.279C159.551 320.474 162.85 286.804 160.646 256.999L137.735 259.688Z" fill="#19328C"/>
</svg>
