<svg width="300" height="400" viewBox="0 0 300 400" fill="none" xmlns="http://www.w3.org/2000/svg">
<path d="M149.943 342.905C228.882 342.905 292.875 278.912 292.875 199.973C292.875 121.034 228.882 57.0414 149.943 57.0414C71.004 57.0414 7.01123 121.034 7.01123 199.973C7.01123 278.912 71.004 342.905 149.943 342.905Z" fill="white" stroke="black" stroke-width="8.96272" stroke-linejoin="round"/>
<path d="M149.943 329.505C221.482 329.505 279.475 271.512 279.475 199.973C279.475 128.435 221.482 70.4412 149.943 70.4412C78.4045 70.4412 20.4111 128.435 20.4111 199.973C20.4111 271.512 78.4045 329.505 149.943 329.505Z" fill="#000037" stroke="#000037" stroke-width="8.96272" stroke-linejoin="round"/>
<path d="M143.405 132.187C136.015 58.0983 164.918 58.0956 157.061 132.187" stroke="white" stroke-width="8" stroke-linecap="round"/>
<path d="M166.565 134.665C184.96 62.517 212.121 72.4001 179.398 139.336" stroke="white" stroke-width="8" stroke-linecap="round"/>
<path d="M187.808 144.244C229.77 82.7389 251.913 101.316 198.27 153.022" stroke="white" stroke-width="8" stroke-linecap="round"/>
<path d="M204.494 160.511C264.961 117.067 279.416 142.097 211.322 172.338" stroke="white" stroke-width="8" stroke-linecap="round"/>
<path d="M214.61 181.504C286.289 161.361 291.311 189.825 216.981 194.953" stroke="white" stroke-width="8" stroke-linecap="round"/>
<path d="M216.936 204.691C291.182 210.279 286.165 238.743 214.564 218.14" stroke="white" stroke-width="8" stroke-linecap="round"/>
<path d="M211.191 227.275C279.048 257.919 264.599 282.952 204.363 239.102" stroke="white" stroke-width="8" stroke-linecap="round"/>
<path d="M198.069 246.532C251.353 298.537 229.213 317.118 187.607 255.311" stroke="white" stroke-width="8" stroke-linecap="round"/>
<path d="M179.151 260.14C211.435 327.233 184.276 337.121 166.318 264.811" stroke="white" stroke-width="8" stroke-linecap="round"/>
<path d="M156.72 266.457C164.11 340.545 135.207 340.548 143.064 266.457" stroke="white" stroke-width="8" stroke-linecap="round"/>
<path d="M133.482 264.721C115.086 336.869 87.925 326.986 120.649 260.05" stroke="white" stroke-width="8" stroke-linecap="round"/>
<path d="M112.239 255.142C70.2767 316.647 48.1335 298.071 101.777 246.364" stroke="white" stroke-width="8" stroke-linecap="round"/>
<path d="M95.5525 238.875C35.0852 282.319 20.6311 257.289 88.7243 227.048" stroke="white" stroke-width="8" stroke-linecap="round"/>
<path d="M85.4363 217.882C13.7569 238.025 8.73519 209.561 83.0649 204.433" stroke="white" stroke-width="8" stroke-linecap="round"/>
<path d="M83.1105 194.695C8.86459 189.108 13.881 160.643 85.4819 181.246" stroke="white" stroke-width="8" stroke-linecap="round"/>
<path d="M88.8553 172.111C20.998 141.467 35.4474 116.434 95.6835 160.284" stroke="white" stroke-width="8" stroke-linecap="round"/>
<path d="M101.978 152.854C48.6937 100.849 70.8334 82.2682 112.439 144.076" stroke="white" stroke-width="8" stroke-linecap="round"/>
<path d="M120.895 139.246C88.6111 72.1533 115.771 62.2652 133.728 134.575" stroke="white" stroke-width="8" stroke-linecap="round"/>
<path d="M149.943 275.435C191.62 275.435 225.405 241.65 225.405 199.973C225.405 158.297 191.62 124.511 149.943 124.511C108.267 124.511 74.481 158.297 74.481 199.973C74.481 241.65 108.267 275.435 149.943 275.435Z" fill="white" stroke="#000037" stroke-width="9.14763" stroke-linejoin="round"/>
<path d="M149.943 264.574C185.621 264.574 214.543 235.651 214.543 199.973C214.543 164.295 185.621 135.373 149.943 135.373C114.265 135.373 85.3425 164.295 85.3425 199.973C85.3425 235.651 114.265 264.574 149.943 264.574Z" fill="#B93C3C"/>
<path d="M150.975 183.867C148.165 174.988 124.561 154.774 149.883 153.481C176.12 154.911 150.661 174.5 148.348 184.013" stroke="white" stroke-width="20.6444"/>
<path d="M149.785 184.713V161.792" stroke="#B93C3C" stroke-width="5.35994" stroke-linecap="round" stroke-linejoin="round"/>
<path d="M149.785 164.578C152.162 164.578 154.09 162.651 154.09 160.274C154.09 157.896 152.162 155.969 149.785 155.969C147.408 155.969 145.48 157.896 145.48 160.274C145.48 162.651 147.408 164.578 149.785 164.578Z" fill="#B93C3C"/>
<path d="M153.973 186.764L159.837 172.373" stroke="#B93C3C" stroke-width="3.57329" stroke-linecap="round"/>
<path d="M145.542 186.764L139.677 172.373" stroke="#B93C3C" stroke-width="3.57329" stroke-linecap="round"/>
<path d="M149.943 214.297C157.854 214.297 164.267 207.884 164.267 199.973C164.267 192.062 157.854 185.649 149.943 185.649C142.032 185.649 135.619 192.062 135.619 199.973C135.619 207.884 142.032 214.297 149.943 214.297Z" fill="white" stroke="#B93C3C" stroke-width="5.95809" stroke-linecap="round" stroke-linejoin="round"/>
<path d="M149.943 207.599C154.155 207.599 157.569 204.185 157.569 199.973C157.569 195.761 154.155 192.347 149.943 192.347C145.731 192.347 142.317 195.761 142.317 199.973C142.317 204.185 145.731 207.599 149.943 207.599Z" fill="#B93C3C"/>
<path d="M134.931 193.99C125.617 193.918 99.0985 210.12 105.694 185.638C115.162 161.128 125.925 191.393 134.258 196.534" stroke="white" stroke-width="20.6444"/>
<path d="M135.367 195.383L113.569 188.3" stroke="#B93C3C" stroke-width="5.35994" stroke-linecap="round" stroke-linejoin="round"/>
<path d="M116.218 189.16C116.953 186.899 115.715 184.471 113.454 183.736C111.193 183.002 108.765 184.239 108.03 186.5C107.295 188.761 108.533 191.19 110.794 191.924C113.055 192.659 115.483 191.421 116.218 189.16Z" fill="#B93C3C"/>
<path d="M138.612 192.034L126.737 182.009" stroke="#B93C3C" stroke-width="3.57329" stroke-linecap="round"/>
<path d="M136.006 200.052L120.508 201.183" stroke="#B93C3C" stroke-width="3.57329" stroke-linecap="round"/>
<path d="M139.6 212.376C136.654 221.212 143.868 251.439 122.623 237.601C102.237 221.023 134.348 220.139 141.811 213.802" stroke="white" stroke-width="20.6444"/>
<path d="M141.059 212.391L127.587 230.935" stroke="#B93C3C" stroke-width="5.35994" stroke-linecap="round" stroke-linejoin="round"/>
<path d="M129.224 228.681C127.301 227.283 124.609 227.71 123.212 229.633C121.814 231.557 122.241 234.248 124.164 235.646C126.087 237.043 128.779 236.617 130.177 234.694C131.574 232.77 131.148 230.078 129.224 228.681Z" fill="#B93C3C"/>
<path d="M138.877 208.271L125.674 216.466" stroke="#B93C3C" stroke-width="3.57329" stroke-linecap="round"/>
<path d="M145.698 213.226L141.984 228.316" stroke="#B93C3C" stroke-width="3.57329" stroke-linecap="round"/>
<path d="M158.529 213.617C166.022 219.15 197 221.629 177.273 237.559C155.207 251.824 164.289 221.012 160.569 211.955" stroke="white" stroke-width="20.6444"/>
<path d="M158.995 212.234L172.467 230.777" stroke="#B93C3C" stroke-width="5.35994" stroke-linecap="round" stroke-linejoin="round"/>
<path d="M170.83 228.524C168.906 229.921 168.48 232.613 169.877 234.536C171.275 236.46 173.967 236.886 175.89 235.489C177.813 234.091 178.24 231.399 176.842 229.476C175.445 227.553 172.753 227.126 170.83 228.524Z" fill="#B93C3C"/>
<path d="M154.402 213.036L158.116 228.126" stroke="#B93C3C" stroke-width="3.57329" stroke-linecap="round"/>
<path d="M161.222 208.081L174.426 216.276" stroke="#B93C3C" stroke-width="3.57329" stroke-linecap="round"/>
<path d="M165.559 195.998C173.136 190.582 185.067 161.886 194.121 185.57C200.869 210.964 174.371 192.805 164.609 193.545" stroke="white" stroke-width="20.6444"/>
<path d="M164.387 195.128L186.186 188.045" stroke="#B93C3C" stroke-width="5.35994" stroke-linecap="round" stroke-linejoin="round"/>
<path d="M183.537 188.906C184.272 191.167 186.7 192.404 188.961 191.67C191.222 190.935 192.459 188.507 191.725 186.246C190.99 183.985 188.562 182.747 186.301 183.482C184.04 184.216 182.802 186.645 183.537 188.906Z" fill="#B93C3C"/>
<path d="M163.731 199.744L179.23 200.875" stroke="#B93C3C" stroke-width="3.57329" stroke-linecap="round"/>
<path d="M161.126 191.726L173 181.701" stroke="#B93C3C" stroke-width="3.57329" stroke-linecap="round"/>
</svg>
