<svg width="300" height="400" viewBox="0 0 300 400" fill="none" xmlns="http://www.w3.org/2000/svg">
<path fill-rule="evenodd" clip-rule="evenodd" d="M177.579 308.105L180.747 337.299C172.271 338.821 165.697 336.954 159.674 336.379C164.741 342.824 172.036 345.896 180.832 348.538L182.23 369.363C169.4 370.006 167.337 370.112 157.42 370.901C166.775 372.49 170.227 373.708 176.8 375.378C166.818 379.684 163.858 381.039 150.398 387.852C164.914 383.803 170.17 383.427 181.511 380.289C177.406 385.347 172.72 387.679 169.763 395.659C181.038 390.296 189.28 382.474 194.727 377.889C200.198 375.727 203.902 373.597 211.708 370.219C207.679 368.676 201.106 368.475 194.277 368.358L192.216 346.627C203.473 341.811 210.286 333.715 215.671 330.145C207.041 334.043 201.378 334.471 191.764 335.644L188.628 305.94L177.579 308.105Z" fill="#B93C3C"/>
<path fill-rule="evenodd" clip-rule="evenodd" d="M119.072 307.798L116.046 336.993C107.454 336.523 101.429 333.187 95.6704 331.238C99.2657 338.69 105.742 343.367 113.774 347.971L110.775 368.598C98.1167 366.267 96.0811 365.895 86.2366 364.378C95.0349 368.084 98.1487 370.067 104.215 373.211C93.5693 375.108 90.3956 375.747 75.8301 379.287C90.8468 378.685 96.0565 379.531 107.783 379.085C102.717 383.071 97.6543 384.264 93.096 391.363C105.225 388.733 114.909 383.007 121.186 379.793C126.979 378.945 131.041 377.722 139.368 376.228C135.759 373.795 129.385 372.084 122.744 370.395L125.286 348.732C137.284 346.632 145.629 340.309 151.633 338.069C142.394 339.88 136.777 338.992 127.147 337.919L130.31 308.234L119.072 307.798Z" fill="#B93C3C"/>
<path fill-rule="evenodd" clip-rule="evenodd" d="M78.2817 234.324C65.5233 227.805 62.1016 223.212 58.063 218.492C49.7241 208.967 41.6909 203.628 31.9934 196.985C40.3221 204.583 47.5905 210.783 54.7561 224.019L31.6562 219.406C48.5197 225.637 61.3102 233.802 69.9305 242.744L78.2817 234.324Z" fill="black"/>
<path fill-rule="evenodd" clip-rule="evenodd" d="M234.341 264.259C253.764 254.539 270.392 242.648 295.07 236.125C267.499 247.252 252.475 257.699 238.961 272.812C237.505 275.997 239.193 279.183 239.733 282.369L226.183 257.445C229.384 261.027 231.859 265.389 234.341 264.259Z" fill="black" stroke="black" stroke-width="0.442893"/>
<path fill-rule="evenodd" clip-rule="evenodd" d="M214.419 233.026C220.064 241.947 250.92 213.585 267.035 202.443L237.148 228.521L266.261 210.337C249.201 224.594 229.128 234.04 222.484 249.188L214.419 233.026Z" fill="black" stroke="black" stroke-width="0.310495"/>
<path fill-rule="evenodd" clip-rule="evenodd" d="M94.6348 67.6148C91.983 68.0457 90.3477 67.5095 89.2471 66.5974C87.7449 65.5113 86.6574 64.23 85.6837 62.9133C83.2387 59.6233 81.2037 56.1724 78.3879 52.9942C77.8399 52.357 77.2657 51.7321 76.6587 51.126C75.1332 54.9821 73.8634 59.0404 73.6707 62.9527C73.4827 66.7952 74.4735 70.4818 76.7848 72.8263C76.853 72.7369 77.2084 72.5421 77.6579 72.2515C78.3797 71.8282 79.6205 71.5725 81.2346 71.2312C82.6516 70.968 84.4764 70.7944 86.676 70.4644C87.5467 70.3487 88.6692 70.1423 90.0267 69.7814C90.9986 69.6357 92.5626 68.9513 94.6348 67.6148ZM76.7848 72.8263C76.2175 72.3269 75.6087 71.892 74.962 71.5381C68.2588 71.1994 61.8934 70.0106 55.4331 68.9339C57.3141 73.3782 59.1309 77.9076 61.1074 82.2929C62.2849 84.8797 63.5574 87.382 65.0873 89.5555C65.5731 88.7582 66.1734 87.8815 66.8446 86.9032C69.8417 82.6521 73.3846 78.1542 76.79 72.8732C76.7686 72.8642 76.7679 72.8484 76.7848 72.8263ZM65.0873 89.5555C63.6427 89.2586 62.1912 89.0188 60.7175 88.8978C57.2965 88.5737 53.6128 88.9402 50.0828 90.9044C48.0163 92.0729 46.052 93.7225 44.2818 95.6975C46.0069 97.0515 47.8304 98.0661 49.6746 98.8045C55.0699 100.901 60.4377 100.853 65.6139 100.475C64.7041 98.4964 63.9773 96.8127 63.7273 95.3993C63.5578 94.4283 63.4643 93.622 63.5848 93.1172C63.6076 92.6197 63.914 91.8748 64.3355 90.9325C64.5367 90.4997 64.7907 90.0424 65.0873 89.5555ZM65.6139 100.475L65.6129 100.476C61.112 107.66 57.8377 113.632 55.3421 117.786C62.5453 118.212 69.2013 119.942 75.501 123.613C71.5511 115.805 67.971 108.252 65.6139 100.475ZM75.501 123.613C74.5817 125.232 73.7503 126.552 72.9797 127.538C68.5714 128.504 64.0518 128.78 59.4588 128.414C61.0819 131.683 63.2439 137.074 65.8685 144.36C69.4836 138.585 73.558 133.231 77.9387 128.391C77.1157 126.785 76.3007 125.194 75.501 123.613ZM65.8685 144.36C63.3353 144.345 60.7867 144.117 58.2303 143.688C53.6089 142.647 48.7722 142.056 43.7315 142.255C44.7994 144.706 45.9861 147.053 47.3036 149.26C49.963 153.726 53.2046 157.661 56.9826 160.316C57.3608 158.863 57.9893 157.311 58.75 155.692C59.9471 153.22 61.5776 150.801 63.4526 148.404C64.2325 147.035 65.0384 145.687 65.8685 144.36ZM56.9826 160.316C55.2248 160.453 53.4642 160.761 51.7198 161.287C46.7008 162.747 41.7401 166.222 38.291 171.952C39.0755 172.318 39.8647 172.641 40.6557 172.919C47.6416 175.274 54.2665 173.895 59.6816 170.981C58.3692 169.532 57.3477 168.087 56.9931 166.734C56.5168 165.467 56.446 163.778 56.6505 162.063C56.7129 161.499 56.8264 160.916 56.9826 160.316ZM59.6816 170.981C59.3409 171.728 59.0313 172.502 58.7529 173.297C56.6495 179.568 56.4311 186.827 57.2068 194.162C60.0838 192.363 62.7424 190.331 65.2385 188.189C68.4427 185.443 71.3806 182.499 74.1113 179.41C72.5299 178.837 70.9898 178.21 69.4977 177.518C65.7944 175.749 62.513 173.914 60.2301 171.57C60.0426 171.373 59.8594 171.177 59.6816 170.981ZM74.1113 179.41C75.0831 187.019 77.048 194.741 79.5306 202.39C81.2366 200.349 82.8756 198.274 84.4616 196.176C87.4289 192.165 90.3249 188.12 93.1394 184.042C91.0157 183.691 88.8924 183.32 86.7697 182.931C82.3615 181.965 78.105 180.858 74.1113 179.41ZM93.1394 184.042C95.5694 191.404 98.2065 198.748 101.092 206.061C105.402 199.702 109.506 193.259 113.367 186.73C106.626 186.073 99.8808 185.156 93.1394 184.042ZM113.367 186.73C115.547 192.168 117.875 197.583 120.369 202.968C121.17 204.698 121.987 206.424 122.819 208.147C126.663 201.473 130.26 194.717 133.652 187.898C129.515 187.823 125.391 187.655 121.284 187.379C118.646 187.205 116.007 186.987 113.367 186.73ZM133.652 187.898C137.06 194.841 140.707 201.722 144.541 208.538C146.548 204.416 148.487 200.275 150.368 196.122C151.654 193.284 152.916 190.44 154.161 187.592C152.81 187.65 151.463 187.703 150.117 187.748C144.611 187.935 139.12 187.997 133.652 187.898ZM154.161 187.592C157.987 194.313 161.958 200.989 165.962 207.647C169.022 200.58 172.015 193.501 175.039 186.425C168.012 186.853 161.055 187.296 154.161 187.592ZM175.039 186.425C176.724 189.225 178.41 192.025 180.089 194.828C182.393 198.681 184.705 202.54 187.019 206.405C190.046 199.356 193.06 192.323 196.086 185.313C190.592 185.542 185.11 185.827 179.642 186.149C178.104 186.24 176.57 186.332 175.039 186.425ZM196.086 185.313C200.085 192.031 204.081 198.772 208.046 205.543C210.526 199.845 213.021 194.166 215.544 188.508C216.071 187.207 216.582 185.904 217.074 184.6C216.508 184.661 215.94 184.72 215.371 184.776C208.925 184.857 202.497 185.046 196.086 185.313ZM217.074 184.6C220.831 191.098 225.06 197.467 230.08 203.455C232.71 195.955 234.638 188.397 235.534 180.883C229.777 182.827 223.548 183.896 217.074 184.6ZM235.534 180.883C235.786 181.171 236.04 181.459 236.296 181.745C241.031 186.943 246.421 191.874 253.032 195.44C253.389 190.611 253.245 185.884 252.415 181.429C251.831 178.341 250.886 175.404 249.581 172.792C248.974 173.455 248.295 174.106 247.573 174.738C244.589 177.32 240.51 179.121 235.996 180.725C235.842 180.778 235.688 180.831 235.534 180.883ZM249.581 172.792C254.05 174.949 259.213 175.963 264.715 174.845C266.901 174.387 269.105 173.599 271.268 172.512C267.649 167.522 262.967 164.207 258.142 162.497C256.333 161.842 254.5 161.391 252.662 161.113C252.777 161.744 252.855 162.362 252.89 162.967C253.03 165.146 252.789 167.304 252.057 168.968C251.601 170.265 250.716 171.551 249.581 172.792ZM252.662 161.113C257.022 158.309 260.811 153.934 263.858 148.851C264.913 147.097 265.888 145.251 266.783 143.33C260.283 142.85 254.048 143.652 248.222 145.275C247.196 145.561 246.183 145.875 245.183 146.215C245.455 146.549 245.723 146.888 245.986 147.23C247.953 149.82 249.63 152.532 250.838 155.336C251.67 157.323 252.325 159.269 252.662 161.113ZM245.183 146.215C247.796 140.03 249.541 133.166 250.156 125.842C250.293 125.215 250.431 124.641 250.566 124.12C244.771 128.424 238.338 129.646 232.337 128.081C232.043 127.74 231.729 127.357 231.394 126.934C231.249 127.461 231.101 127.988 230.951 128.515C233.758 131.985 236.587 136.034 239.459 140.372C241.521 142.101 243.438 144.068 245.183 146.215ZM231.394 126.934C236.78 121.273 243.386 118.725 251.233 118.538C250.249 117.353 249.125 115.934 247.854 114.298C244.685 109.889 241.115 105.914 237.147 102.912C236.71 104.746 236.072 106.648 235.319 108.601C234.476 114.746 233.08 120.837 231.394 126.934ZM237.147 102.912C239.815 102.475 242.476 101.771 245.097 100.704C249.264 99.0163 253.34 96.363 256.829 92.4682C255.245 91.5361 253.63 90.7478 252 90.1222C246.379 87.9711 240.648 87.9123 235.645 89.483C236.489 90.8549 237.124 92.3608 237.451 93.8623C237.874 95.5816 237.902 97.6162 237.691 99.7565C237.59 100.782 237.403 101.835 237.147 102.912ZM235.645 89.483L235.657 89.4666C239.892 83.6581 241.619 75.5951 241.82 67.1848C238.758 68.4274 235.895 69.9725 233.211 71.6752C229.647 74.1067 225.982 75.7559 222.033 76.4546C223.952 78.2118 225.782 79.9924 227.502 81.8348C231.029 84.2377 234.067 86.6714 235.641 89.4776L235.645 89.483ZM222.033 76.4546C221.998 70.9212 222.137 67.1292 222.991 65.2906C224.578 63.9675 226.241 62.7744 227.976 61.6953C225.241 60.4811 221.256 57.3959 215.914 53.1673C215.535 58.4488 214.718 63.822 213.718 69.2821C216.62 71.694 219.409 74.0523 222.033 76.4546ZM215.914 53.1673C219.766 50.4021 223.982 48.202 228.518 46.3417C230.951 45.1968 233.37 43.8248 235.688 42.1381C229.518 37.4722 222.653 34.3592 216.062 34.8735C215.856 34.8908 215.651 34.9117 215.447 34.9359C215.466 34.9881 215.485 35.0406 215.504 35.0933C216.487 37.4487 216.417 40.8667 216.106 44.7074C216.196 47.5002 216.118 50.3204 215.914 53.1673ZM215.447 34.9359C217.991 32.8855 220.169 30.0939 221.58 26.669C223.006 23.2104 223.634 19.1166 223.35 14.8233C223.324 14.4536 223.293 14.0826 223.256 13.7105C215.4 16.3831 210.147 22.1772 206.591 28.392C209.036 28.9639 211.169 29.697 212.531 30.871C213.212 31.4019 213.815 32.0087 214.268 32.6546C214.732 33.282 215.127 34.0697 215.447 34.9359ZM206.591 28.392C206.543 28.1228 206.493 27.8534 206.439 27.584C204.976 20.5391 201.439 13.6634 196.912 7.34552C196.23 8.7219 195.599 10.1105 195.013 11.5059C192.541 17.3626 190.824 23.3452 189.706 29.3323C192.002 28.7598 194.3 28.3371 196.584 28.0956C200.059 27.7551 203.36 27.7229 206.314 28.3282C206.407 28.3492 206.499 28.3705 206.591 28.392ZM189.706 29.3323C187.533 26.4674 185.132 23.7192 182.547 21.1015C179.771 18.2898 176.781 15.6239 173.577 13.1429C172.651 19.2092 172.261 25.2291 172.439 31.099C172.251 32.8533 171.906 34.5701 171.412 36.2406C172.442 35.9355 173.483 35.6371 174.534 35.3441C177.94 33.4228 181.559 31.8492 185.303 30.6072C186.767 30.1264 188.236 29.6987 189.706 29.3323ZM171.412 36.2406C165.001 32.1823 161.429 29.1077 160.419 27.7896C160.341 27.0704 160.277 26.3483 160.228 25.6233C158.479 27.2788 154.477 29.2244 149.296 32.1973C152.589 34.6196 155.849 37.4836 159.188 40.5019C162.979 38.9128 167.095 37.519 171.412 36.2406ZM149.296 32.1973C148.261 24.652 148.428 16.8196 148.358 8.37002C148.276 8.42482 148.194 8.47991 148.112 8.5353C142.881 11.3243 138.388 15.3445 136.084 20.2243C135.333 21.8269 134.811 23.5053 134.521 25.2031C134.871 25.1882 135.218 25.2021 135.552 25.2459C136.619 25.321 137.906 25.8507 139.311 26.5824C142.745 27.8357 146.037 29.8002 149.296 32.1973ZM134.521 25.2031C133.844 22.6133 132.551 20.1266 130.72 17.9713C127.711 14.4387 123.406 11.9252 118.578 10.2301C118.423 16.2927 119.806 21.9411 121.643 27.0338C122.36 29.0153 123.162 30.9351 124.034 32.8037C124.535 32.1677 125.047 31.556 125.571 30.9712C128.253 28.2109 130.633 25.9147 132.78 25.5078C133.343 25.332 133.937 25.2279 134.521 25.2031ZM124.034 32.8037C117.181 30.8288 109.666 30.2569 102.106 30.2521C103.091 32.1772 104.117 34.0594 105.17 35.909C107.967 40.654 110.738 45.4416 113.102 50.6343C114.623 48.1906 115.981 45.7756 117.243 43.4477C119.425 39.5266 121.609 35.8805 124.034 32.8037ZM113.102 50.6343C110.048 50.5631 107.016 50.3785 104.052 49.986C99.6212 49.4083 95.2353 48.3523 92.1543 45.5917C92.1543 45.5917 92.167 45.6204 92.167 45.6204C93.642 48.4395 93.7592 51.9491 93.6655 55.4854C93.5249 59.7069 93.5075 63.9261 94.4187 67.7681C95.4023 67.0644 96.704 66.3757 98.24 65.5666C99.8137 64.7952 101.744 63.665 103.891 61.9873C106.626 59.6631 108.675 57.2391 110.204 55.0035C111.238 53.5451 112.199 52.0847 113.102 50.6343Z" fill="#004900"/>
<path fill-rule="evenodd" clip-rule="evenodd" d="M22.5117 323.397C35.1838 173.926 236.085 198.37 236.432 197.047L213.362 228.42C213.362 228.42 246.372 316.176 282.089 321.476C302.802 324.549 227.383 314.458 153.139 314.261C91.8831 314.098 29.6378 323.651 22.5117 323.397Z" fill="black" stroke="black" stroke-width="0.961924"/>
<path d="M76.9662 258.696C78.5269 260.592 78.9563 262.847 78.1603 264.967C77.3643 267.086 75.4079 268.897 72.7198 270.001C70.0318 271.106 66.8314 271.416 63.8203 270.861C60.8091 270.307 58.2328 268.934 56.656 267.044C55.0793 265.154 54.6307 262.901 55.4087 260.778C56.1867 258.656 58.1277 256.837 60.8064 255.721C63.485 254.604 66.6827 254.282 69.6985 254.823C72.7143 255.365 75.3022 256.727 76.895 258.61" fill="white"/>
<path d="M97.5507 239.817C99.1114 241.713 99.5408 243.968 98.7448 246.088C97.9488 248.207 95.9924 250.018 93.3043 251.122C90.6163 252.227 87.4159 252.537 84.4047 251.982C81.3935 251.428 78.8172 250.055 77.2405 248.165C75.6637 246.275 75.2152 244.022 75.9932 241.899C76.7712 239.777 78.7122 237.958 81.3908 236.842C84.0695 235.725 87.2671 235.403 90.283 235.944C93.2988 236.486 95.8867 237.848 97.4795 239.731" fill="white"/>
<path d="M110.812 260.148C112.373 262.045 112.802 264.3 112.006 266.419C111.21 268.538 109.254 270.349 106.566 271.454C103.878 272.559 100.677 272.868 97.6662 272.314C94.655 271.76 92.0787 270.387 90.502 268.497C88.9252 266.607 88.4767 264.353 89.2547 262.231C90.0326 260.108 91.9737 258.289 94.6523 257.173C97.3309 256.057 100.529 255.734 103.544 256.276C106.56 256.818 109.148 258.179 110.741 260.063" fill="white"/>
<path d="M93.5724 278.873C95.1331 280.769 95.5625 283.025 94.7665 285.144C93.9705 287.263 92.0141 289.074 89.326 290.179C86.638 291.284 83.4376 291.593 80.4265 291.038C77.4153 290.484 74.839 289.111 73.2622 287.221C71.6855 285.331 71.2369 283.078 72.0149 280.955C72.7929 278.833 74.7339 277.014 77.4126 275.898C80.0912 274.782 83.2889 274.459 86.3047 275.001C89.3205 275.542 91.9084 276.904 93.5012 278.787" fill="white"/>
<path d="M61.0168 278.577C62.5774 280.474 63.0068 282.729 62.2109 284.848C61.4149 286.967 59.4584 288.778 56.7704 289.883C54.0823 290.988 50.882 291.297 47.8708 290.743C44.8596 290.188 42.2833 288.816 40.7065 286.926C39.1298 285.036 38.6813 282.782 39.4592 280.66C40.2372 278.537 42.1783 276.718 44.8569 275.602C47.5355 274.486 50.7332 274.163 53.749 274.705C56.7649 275.246 59.3528 276.608 60.9455 278.492" fill="white"/>
<path d="M81.017 300.427C82.5777 302.324 83.0071 304.579 82.2111 306.698C81.4151 308.818 79.4587 310.628 76.7706 311.733C74.0826 312.838 70.8822 313.147 67.871 312.593C64.8599 312.039 62.2835 310.666 60.7068 308.776C59.13 306.886 58.6815 304.633 59.4595 302.51C60.2375 300.387 62.1785 298.569 64.8571 297.452C67.5358 296.336 70.7334 296.013 73.7493 296.555C76.7651 297.097 79.353 298.459 80.9458 300.342" fill="white"/>
<path d="M53.0014 299.562C54.5621 301.459 54.9915 303.714 54.1955 305.833C53.3995 307.952 51.4431 309.763 48.755 310.868C46.0669 311.973 42.8666 312.282 39.8554 311.728C36.8442 311.173 34.2679 309.801 32.6912 307.911C31.1144 306.021 30.6659 303.767 31.4439 301.645C32.2218 299.522 34.1629 297.703 36.8415 296.587C39.5201 295.471 42.7178 295.148 45.7336 295.69C48.7495 296.231 51.3374 297.593 52.9302 299.477" fill="white"/>
<path d="M193.126 265.812C194.686 267.709 195.116 269.964 194.32 272.083C193.524 274.203 191.567 276.013 188.879 277.118C186.191 278.223 182.991 278.532 179.98 277.978C176.968 277.424 174.392 276.051 172.815 274.161C171.239 272.271 170.79 270.018 171.568 267.895C172.346 265.772 174.287 263.954 176.966 262.837C179.644 261.721 182.842 261.398 185.858 261.94C188.874 262.482 191.462 263.843 193.054 265.727" fill="white"/>
<path d="M204.524 283.383C206.084 285.279 206.514 287.535 205.718 289.654C204.922 291.773 202.965 293.584 200.277 294.689C197.589 295.794 194.389 296.103 191.378 295.548C188.366 294.994 185.79 293.621 184.213 291.731C182.637 289.841 182.188 287.588 182.966 285.465C183.744 283.343 185.685 281.524 188.364 280.408C191.042 279.292 194.24 278.969 197.256 279.511C200.272 280.052 202.86 281.414 204.452 283.297" fill="white"/>
<path d="M218.774 303.092C220.335 304.989 220.764 307.244 219.968 309.363C219.172 311.483 217.216 313.293 214.527 314.398C211.839 315.503 208.639 315.812 205.628 315.258C202.617 314.704 200.04 313.331 198.464 311.441C196.887 309.551 196.438 307.298 197.216 305.175C197.994 303.052 199.935 301.234 202.614 300.117C205.293 299.001 208.49 298.678 211.506 299.22C214.522 299.762 217.11 301.123 218.703 303.007" fill="white"/>
<path d="M223.137 265.023C224.698 266.92 225.127 269.175 224.331 271.294C223.535 273.414 221.579 275.224 218.891 276.329C216.203 277.434 213.002 277.743 209.991 277.189C206.98 276.635 204.404 275.262 202.827 273.372C201.25 271.482 200.802 269.229 201.58 267.106C202.358 264.983 204.299 263.165 206.977 262.048C209.656 260.932 212.854 260.61 215.869 261.151C218.885 261.693 221.473 263.055 223.066 264.938" fill="white"/>
<path d="M234.965 284.352C236.525 286.248 236.955 288.504 236.159 290.623C235.363 292.742 233.406 294.553 230.718 295.658C228.03 296.763 224.83 297.072 221.819 296.517C218.807 295.963 216.231 294.59 214.654 292.7C213.078 290.81 212.629 288.557 213.407 286.434C214.185 284.312 216.126 282.493 218.805 281.377C221.483 280.261 224.681 279.938 227.697 280.48C230.713 281.021 233.301 282.383 234.893 284.266" fill="white"/>
<path d="M248.275 301.919C249.835 303.816 250.265 306.071 249.469 308.19C248.673 310.309 246.716 312.12 244.028 313.225C241.34 314.33 238.14 314.639 235.129 314.085C232.117 313.531 229.541 312.158 227.964 310.268C226.388 308.378 225.939 306.124 226.717 304.002C227.495 301.879 229.436 300.06 232.115 298.944C234.793 297.828 237.991 297.505 241.007 298.047C244.023 298.589 246.611 299.95 248.203 301.834" fill="white"/>
<path d="M214.214 244.512C215.775 246.408 216.204 248.663 215.408 250.783C214.612 252.902 212.656 254.713 209.968 255.818C207.28 256.922 204.079 257.232 201.068 256.677C198.057 256.123 195.481 254.75 193.904 252.86C192.327 250.97 191.879 248.717 192.657 246.594C193.434 244.472 195.376 242.653 198.054 241.537C200.733 240.421 203.93 240.098 206.946 240.639C209.962 241.181 212.55 242.543 214.143 244.426" fill="white"/>
<path d="M186.037 243.609C187.598 245.505 188.027 247.761 187.231 249.88C186.435 251.999 184.479 253.81 181.791 254.915C179.103 256.02 175.902 256.329 172.891 255.775C169.88 255.22 167.304 253.848 165.727 251.958C164.15 250.067 163.702 247.814 164.48 245.692C165.258 243.569 167.199 241.75 169.877 240.634C172.556 239.518 175.754 239.195 178.77 239.737C181.785 240.278 184.373 241.64 185.966 243.523" fill="white"/>
<path d="M203.234 223.605C204.795 225.502 205.224 227.757 204.428 229.876C203.632 231.996 201.676 233.806 198.988 234.911C196.3 236.016 193.099 236.325 190.088 235.771C187.077 235.217 184.501 233.844 182.924 231.954C181.347 230.064 180.899 227.811 181.677 225.688C182.455 223.566 184.396 221.747 187.074 220.631C189.753 219.514 192.951 219.192 195.967 219.733C198.982 220.275 201.57 221.637 203.163 223.52" fill="white"/>
<path d="M187.841 203.618C189.401 205.515 189.831 207.77 189.035 209.889C188.239 212.008 186.282 213.819 183.594 214.924C180.906 216.029 177.706 216.338 174.695 215.784C171.684 215.229 169.107 213.857 167.531 211.967C165.954 210.077 165.505 207.823 166.283 205.701C167.061 203.578 169.002 201.759 171.681 200.643C174.359 199.527 177.557 199.204 180.573 199.746C183.589 200.287 186.177 201.649 187.77 203.533" fill="white"/>
<path d="M217.502 204.671C219.063 206.568 219.492 208.823 218.696 210.943C217.9 213.062 215.944 214.872 213.255 215.977C210.567 217.082 207.367 217.392 204.356 216.837C201.345 216.283 198.768 214.91 197.192 213.02C195.615 211.13 195.166 208.877 195.944 206.754C196.722 204.632 198.663 202.813 201.342 201.697C204.021 200.58 207.218 200.258 210.234 200.799C213.25 201.341 215.838 202.703 217.431 204.586" fill="white"/>
<path d="M109.664 208.72C98.7897 207.996 85.1284 206.208 78.6709 204.663C67.558 202.004 60.2239 198.116 55.4885 192.372C51.9025 188.023 50.631 184.32 50.6199 178.193C50.601 167.78 56.1618 154.961 65.8466 143.092C66.9167 141.78 68.3067 139.495 68.9354 138.013C69.564 136.531 71.0659 133.319 72.273 130.874L74.4675 126.428L68.6707 119.346C62.5085 111.818 60.1948 108.563 57.3099 103.366C56.3221 101.586 54.9392 99.2203 54.2367 98.108C52.6773 95.6388 53.1 93.3752 53.1099 91.0937C53.1301 86.4521 56.6565 80.9913 64.5899 74.3424C68.15 71.3587 68.7528 69.7267 79.2815 69.2098C83.7771 68.989 88.0609 68.6002 88.8012 68.3456C92.1648 67.1891 96.5719 63.6217 99.2637 59.8767C100.856 57.6608 101.793 55.8703 105.609 47.7517C111.33 35.5772 117.01 26.0821 121.763 20.7471C128.027 13.7151 132.468 11.9565 137.703 14.4341C143.528 17.1905 148.566 21.1666 154.968 28.0609L158.21 31.5528L161.193 30.3313C162.833 29.6595 166.144 28.4885 168.55 27.7292C170.956 26.9699 175.12 25.4376 177.803 24.324C193.938 17.6287 210.629 18.1325 217.617 25.5258C219.326 27.3346 220.68 30.3991 221.002 33.1908C221.402 36.6561 220.598 50.8444 219.683 56.4478C218.239 65.3007 218.04 64.1377 221.505 67.1048C223.154 68.517 226.393 71.6112 228.703 73.9808C231.013 76.3503 233.84 79.0968 234.985 80.0842C237.86 82.5625 240.78 86.4292 242.009 89.3836C244.154 94.5436 244.235 99.1538 242.304 106.092C241.669 108.374 240.732 112.335 240.222 114.893C239.713 117.452 238.663 121.832 237.889 124.626L236.483 129.708L238.98 132.918C240.353 134.684 242.376 137.43 243.475 139.021C244.575 140.612 246.505 142.835 247.765 143.961C256.57 151.831 261.838 162.782 260.691 170.831C260.132 174.751 258.822 177.606 255.851 181.379C249.646 189.258 238.215 196.239 222.893 201.505C219.49 202.675 218.996 202.733 209.434 203.084C195.122 203.611 191.456 203.886 164.176 206.483C156.032 207.258 146.796 208.083 143.649 208.316C135.587 208.913 116.062 209.145 109.664 208.72Z" fill="#004900"/>
<path fill-rule="evenodd" clip-rule="evenodd" d="M100.039 158.935C91.0081 160.226 74.6682 150.58 73.3496 151.169C72.7193 151.451 93.7323 161.946 91.9896 162.396C83.8076 164.51 74.8414 164.899 66.4584 165.918L97.7409 167.913L65.9915 175.893C76.808 175.55 89.9651 172.192 98.558 174.521C97.3462 169.782 98.6481 163.211 100.039 158.935Z" fill="white" stroke="white" stroke-width="2.38692" stroke-linejoin="round"/>
<path fill-rule="evenodd" clip-rule="evenodd" d="M126.831 191.514L77.1947 172.408L99.9599 190.979L72.9878 186.253L112.387 212.797L126.831 191.514Z" fill="#B93C3C"/>
<path d="M142.912 61.2718C144.55 62.6058 145.777 64.4322 146.436 66.5165C147.095 68.6007 147.155 70.8478 146.61 72.9692C146.065 75.0905 144.938 76.9894 143.375 78.422C141.812 79.8546 139.884 80.7556 137.838 81.0092C135.793 81.2629 133.723 80.8576 131.894 79.8455C130.065 78.8334 128.562 77.2606 127.576 75.3291C126.59 73.3975 126.168 71.1954 126.362 69.0053C126.556 66.8153 127.359 64.7372 128.667 63.038" fill="#004900"/>
<path d="M142.912 61.2718C144.55 62.6058 145.777 64.4322 146.436 66.5165C147.095 68.6007 147.155 70.8478 146.61 72.9692C146.065 75.0905 144.938 76.9894 143.375 78.422C141.812 79.8546 139.884 80.7556 137.838 81.0092C135.793 81.2629 133.723 80.8576 131.894 79.8455C130.065 78.8334 128.562 77.2606 127.576 75.3291C126.59 73.3975 126.168 71.1954 126.362 69.0053C126.556 66.8153 127.359 64.7372 128.667 63.038" stroke="white" stroke-width="8.72118" stroke-linecap="round" stroke-linejoin="round"/>
<path d="M183.568 64.3336C184.86 66.047 185.643 68.1337 185.816 70.3257C185.99 72.5178 185.546 74.7152 184.542 76.6359C183.537 78.5566 182.019 80.1129 180.181 81.105C178.342 82.0971 176.269 82.4798 174.225 82.2038C172.182 81.9279 170.263 81.006 168.714 79.5564C167.164 78.1068 166.056 76.1958 165.531 74.0686C165.006 71.9413 165.088 69.6951 165.767 67.6181C166.446 65.5411 167.69 63.7282 169.341 62.4121" fill="#004900"/>
<path d="M183.568 64.3336C184.86 66.047 185.643 68.1337 185.816 70.3257C185.99 72.5178 185.546 74.7152 184.542 76.6359C183.537 78.5566 182.019 80.1129 180.181 81.105C178.342 82.0971 176.269 82.4798 174.225 82.2038C172.182 81.9279 170.263 81.006 168.714 79.5564C167.164 78.1068 166.056 76.1958 165.531 74.0686C165.006 71.9413 165.088 69.6951 165.767 67.6181C166.446 65.5411 167.69 63.7282 169.341 62.4121" stroke="white" stroke-width="8.72113" stroke-linecap="round" stroke-linejoin="round"/>
<path d="M162.782 96.1014C164.245 97.6494 165.242 99.6293 165.644 101.787C166.046 103.944 165.836 106.181 165.039 108.21C164.243 110.239 162.897 111.967 161.174 113.173C159.452 114.378 157.431 115.007 155.372 114.977C153.313 114.947 151.309 114.261 149.617 113.006C147.926 111.751 146.624 109.984 145.879 107.933C145.135 105.882 144.981 103.64 145.437 101.495C145.894 99.35 146.94 97.3997 148.442 95.8944" fill="#004900"/>
<path d="M162.782 96.1014C164.245 97.6494 165.242 99.6293 165.644 101.787C166.046 103.944 165.836 106.181 165.039 108.21C164.243 110.239 162.897 111.967 161.174 113.173C159.452 114.378 157.431 115.007 155.372 114.977C153.313 114.947 151.309 114.261 149.617 113.006C147.926 111.751 146.624 109.984 145.879 107.933C145.135 105.882 144.981 103.64 145.437 101.495C145.894 99.35 146.94 97.3997 148.442 95.8944" stroke="white" stroke-width="8.72169" stroke-linecap="round" stroke-linejoin="round"/>
<path d="M120.161 93.3662C122.056 94.229 123.666 95.6769 124.784 97.524C125.903 99.3712 126.479 101.533 126.439 103.733C126.399 105.932 125.744 108.069 124.559 109.868C123.374 111.667 121.713 113.047 119.788 113.83C117.864 114.614 115.764 114.765 113.759 114.264C111.753 113.764 109.934 112.634 108.533 111.021C107.133 109.408 106.216 107.384 105.9 105.211C105.585 103.037 105.884 100.812 106.761 98.8208" fill="#004900"/>
<path d="M120.161 93.3662C122.056 94.229 123.666 95.6769 124.784 97.524C125.903 99.3712 126.479 101.533 126.439 103.733C126.399 105.932 125.744 108.069 124.559 109.868C123.374 111.667 121.713 113.047 119.788 113.83C117.864 114.614 115.764 114.765 113.759 114.264C111.753 113.764 109.934 112.634 108.533 111.021C107.133 109.408 106.216 107.384 105.9 105.211C105.585 103.037 105.884 100.812 106.761 98.8208" stroke="white" stroke-width="8.71746" stroke-linecap="round" stroke-linejoin="round"/>
<path d="M203.943 98.2818C204.919 100.219 205.33 102.424 205.125 104.613C204.919 106.801 204.106 108.875 202.79 110.566C201.473 112.258 199.713 113.491 197.736 114.106C195.759 114.722 193.654 114.692 191.693 114.021C189.732 113.35 188.003 112.068 186.729 110.34C185.454 108.612 184.693 106.516 184.541 104.322C184.39 102.128 184.856 99.936 185.88 98.027C186.903 96.118 188.438 94.5793 190.286 93.6085" fill="#004900"/>
<path d="M203.943 98.2818C204.919 100.219 205.33 102.424 205.125 104.613C204.919 106.801 204.106 108.875 202.79 110.566C201.473 112.258 199.713 113.491 197.736 114.106C195.759 114.722 193.654 114.692 191.693 114.021C189.732 113.35 188.003 112.068 186.729 110.34C185.454 108.612 184.693 106.516 184.541 104.322C184.39 102.128 184.856 99.936 185.88 98.027C186.903 96.118 188.438 94.5793 190.286 93.6085" stroke="white" stroke-width="8.71854" stroke-linecap="round" stroke-linejoin="round"/>
<path d="M139.887 125.689C141.781 126.552 143.391 128 144.51 129.847C145.628 131.694 146.204 133.856 146.164 136.056C146.124 138.255 145.47 140.392 144.285 142.191C143.1 143.99 141.438 145.37 139.514 146.153C137.589 146.937 135.49 147.088 133.484 146.587C131.479 146.087 129.659 144.957 128.259 143.344C126.858 141.731 125.942 139.707 125.626 137.533C125.31 135.36 125.609 133.134 126.486 131.144" fill="#004900"/>
<path d="M139.887 125.689C141.781 126.552 143.391 128 144.51 129.847C145.628 131.694 146.204 133.856 146.164 136.056C146.124 138.255 145.47 140.392 144.285 142.191C143.1 143.99 141.438 145.37 139.514 146.153C137.589 146.937 135.49 147.088 133.484 146.587C131.479 146.087 129.659 144.957 128.259 143.344C126.858 141.731 125.942 139.707 125.626 137.533C125.31 135.36 125.609 133.134 126.486 131.144" stroke="white" stroke-width="8.71746" stroke-linecap="round" stroke-linejoin="round"/>
<path d="M182.388 130.162C183.364 132.099 183.775 134.304 183.57 136.493C183.364 138.682 182.551 140.755 181.235 142.447C179.918 144.138 178.158 145.371 176.181 145.987C174.204 146.602 172.099 146.572 170.138 145.901C168.177 145.23 166.448 143.948 165.174 142.22C163.899 140.492 163.138 138.396 162.986 136.202C162.835 134.008 163.301 131.816 164.325 129.907C165.348 127.998 166.883 126.459 168.731 125.489" fill="#004900"/>
<path d="M182.388 130.162C183.364 132.099 183.775 134.304 183.57 136.493C183.364 138.682 182.551 140.755 181.235 142.447C179.918 144.138 178.158 145.371 176.181 145.987C174.204 146.602 172.099 146.572 170.138 145.901C168.177 145.23 166.448 143.948 165.174 142.22C163.899 140.492 163.138 138.396 162.986 136.202C162.835 134.008 163.301 131.816 164.325 129.907C165.348 127.998 166.883 126.459 168.731 125.489" stroke="white" stroke-width="8.71854" stroke-linecap="round" stroke-linejoin="round"/>
<path d="M162.589 162.183C164.052 163.731 165.049 165.711 165.451 167.868C165.854 170.026 165.643 172.263 164.847 174.291C164.05 176.32 162.704 178.048 160.982 179.254C159.259 180.46 157.239 181.088 155.179 181.059C153.12 181.029 151.116 180.343 149.425 179.087C147.733 177.832 146.432 176.066 145.687 174.015C144.942 171.964 144.788 169.722 145.245 167.577C145.701 165.432 146.748 163.481 148.25 161.976" fill="#004900"/>
<path d="M162.589 162.183C164.052 163.731 165.049 165.711 165.451 167.868C165.854 170.026 165.643 172.263 164.847 174.291C164.05 176.32 162.704 178.048 160.982 179.254C159.259 180.46 157.239 181.088 155.179 181.059C153.12 181.029 151.116 180.343 149.425 179.087C147.733 177.832 146.432 176.066 145.687 174.015C144.942 171.964 144.788 169.722 145.245 167.577C145.701 165.432 146.748 163.481 148.25 161.976" stroke="white" stroke-width="8.72169" stroke-linecap="round" stroke-linejoin="round"/>
<path d="M220.109 133.907C220.393 136.085 220.06 138.305 219.154 140.281C218.248 142.257 216.811 143.898 215.025 144.994C213.24 146.091 211.188 146.592 209.134 146.434C207.08 146.276 205.117 145.466 203.497 144.108C201.877 142.75 200.674 140.905 200.042 138.811C199.411 136.717 199.379 134.469 199.952 132.356C200.525 130.243 201.677 128.362 203.258 126.952C204.84 125.543 206.779 124.671 208.828 124.448" fill="#004900"/>
<path d="M220.109 133.907C220.393 136.085 220.06 138.305 219.154 140.281C218.248 142.257 216.811 143.898 215.025 144.994C213.24 146.091 211.188 146.592 209.134 146.434C207.08 146.276 205.117 145.466 203.497 144.108C201.877 142.75 200.674 140.905 200.042 138.811C199.411 136.717 199.379 134.469 199.952 132.356C200.525 130.243 201.677 128.362 203.258 126.952C204.84 125.543 206.779 124.671 208.828 124.448" stroke="white" stroke-width="8.71278" stroke-linecap="round" stroke-linejoin="round"/>
<path d="M200.363 168.108C200.646 170.287 200.314 172.507 199.408 174.482C198.502 176.458 197.064 178.099 195.279 179.196C193.494 180.292 191.442 180.794 189.388 180.636C187.334 180.478 185.371 179.668 183.751 178.309C182.131 176.951 180.928 175.106 180.296 173.013C179.665 170.919 179.633 168.671 180.206 166.558C180.779 164.445 181.93 162.563 183.512 161.154C185.094 159.745 187.033 158.873 189.082 158.65" fill="#004900"/>
<path d="M200.363 168.108C200.646 170.287 200.314 172.507 199.408 174.482C198.502 176.458 197.064 178.099 195.279 179.196C193.494 180.292 191.442 180.794 189.388 180.636C187.334 180.478 185.371 179.668 183.751 178.309C182.131 176.951 180.928 175.106 180.296 173.013C179.665 170.919 179.633 168.671 180.206 166.558C180.779 164.445 181.93 162.563 183.512 161.154C185.094 159.745 187.033 158.873 189.082 158.65" stroke="white" stroke-width="8.71278" stroke-linecap="round" stroke-linejoin="round"/>
<path d="M97.0722 125.471C99.1314 125.434 101.154 126.056 102.88 127.256C104.606 128.457 105.957 130.181 106.759 132.207C107.561 134.233 107.778 136.469 107.382 138.628C106.985 140.787 105.994 142.77 104.536 144.322C103.077 145.875 101.217 146.927 99.1942 147.342C97.1717 147.758 95.0792 147.518 93.1852 146.654C91.2913 145.79 89.6823 144.341 88.5648 142.493C87.4473 140.645 86.8724 138.483 86.9137 136.283" fill="#004900"/>
<path d="M97.0722 125.471C99.1314 125.434 101.154 126.056 102.88 127.256C104.606 128.457 105.957 130.181 106.759 132.207C107.561 134.233 107.778 136.469 107.382 138.628C106.985 140.787 105.994 142.77 104.536 144.322C103.077 145.875 101.217 146.927 99.1942 147.342C97.1717 147.758 95.0792 147.518 93.1852 146.654C91.2913 145.79 89.6823 144.341 88.5648 142.493C87.4473 140.645 86.8724 138.483 86.9137 136.283" stroke="white" stroke-width="8.71222" stroke-linecap="round" stroke-linejoin="round"/>
<path d="M118.234 159.046C120.293 159.01 122.315 159.631 124.041 160.832C125.767 162.032 127.118 163.756 127.92 165.782C128.722 167.808 128.939 170.044 128.543 172.203C128.147 174.362 127.156 176.345 125.697 177.898C124.238 179.45 122.378 180.502 120.356 180.918C118.333 181.333 116.241 181.093 114.347 180.229C112.453 179.365 110.844 177.916 109.726 176.068C108.609 174.22 108.034 172.058 108.075 169.859" fill="#004900"/>
<path d="M118.234 159.046C120.293 159.01 122.315 159.631 124.041 160.832C125.767 162.032 127.118 163.756 127.92 165.782C128.722 167.808 128.939 170.044 128.543 172.203C128.147 174.362 127.156 176.345 125.697 177.898C124.238 179.45 122.378 180.502 120.356 180.918C118.333 181.333 116.241 181.093 114.347 180.229C112.453 179.365 110.844 177.916 109.726 176.068C108.609 174.22 108.034 172.058 108.075 169.859" stroke="white" stroke-width="8.71222" stroke-linecap="round" stroke-linejoin="round"/>
<path d="M121.905 223.129C123.465 225.026 123.895 227.281 123.099 229.4C122.303 231.519 120.346 233.33 117.658 234.435C114.97 235.54 111.77 235.849 108.759 235.295C105.748 234.74 103.171 233.368 101.594 231.478C100.018 229.588 99.5692 227.334 100.347 225.212C101.125 223.089 103.066 221.27 105.745 220.154C108.423 219.038 111.621 218.715 114.637 219.257C117.653 219.798 120.241 221.16 121.833 223.044" fill="white"/>
<path d="M137.753 242.772C139.314 244.668 139.743 246.923 138.947 249.043C138.151 251.162 136.195 252.973 133.507 254.078C130.819 255.182 127.618 255.492 124.607 254.937C121.596 254.383 119.02 253.01 117.443 251.12C115.866 249.23 115.418 246.977 116.196 244.854C116.974 242.732 118.915 240.913 121.593 239.797C124.272 238.681 127.47 238.358 130.485 238.899C133.501 239.441 136.089 240.803 137.682 242.686" fill="white"/>
<path fill-rule="evenodd" clip-rule="evenodd" d="M223.455 314.975C198.833 316.157 175.756 316.548 151.694 310.341C137.619 308.937 110.106 319.13 81.0887 319.438C62.0502 321.029 61.9873 312.752 68.8011 301.029C78.901 283.89 121.911 260.06 155.119 239.953C143.029 239.596 115.799 230.919 112.65 217.033C110.396 207.618 113.02 196.375 122.87 193.401C133.186 190.253 135.565 189.365 150.95 194.277C156.105 194.461 161.655 200.852 166.255 203.964C172.766 211.94 180.639 218.124 182.356 232.414C182.11 238.736 181.689 245.058 178.118 251.381C170.588 259.534 153.246 271.858 143.459 276.298C152.776 273.124 170.214 262.736 178.966 258.075C192.353 279.891 207.853 297.534 223.455 314.975Z" fill="white" stroke="black" stroke-width="6" stroke-linecap="round" stroke-linejoin="round"/>
<path fill-rule="evenodd" clip-rule="evenodd" d="M137.337 203.042C136.374 204.924 135.846 205.915 136.123 209.02C137.833 211.163 139.08 213.259 142.824 210.601C145.222 208.393 144.633 206.902 144.483 204.89C143.214 201.854 143.385 200.828 141.676 200.354C139.601 199.975 138.437 202.139 137.337 203.042Z" fill="black"/>
<path fill-rule="evenodd" clip-rule="evenodd" d="M61.6801 187.546C38.6724 185.966 26.182 179.722 3.72607 176.374C20.7669 176.964 28.5151 178.675 45.8538 177.355C27.3161 170.802 28.2408 169.09 10.9659 161.525C33.2369 169.413 37.9202 168.031 64.7772 171.934L61.6801 187.546Z" fill="#004900"/>
<path fill-rule="evenodd" clip-rule="evenodd" d="M148.206 52.0463C144.053 48.5619 143.725 44.3759 147.61 39.4173L139.335 47.2447L144.678 34.3823L136.622 44.3781L138.692 31.5037L134.003 42.5115L131.379 31.4349L129.923 44.2259L125.585 32.1204C128 43.3796 125.085 46.792 122.241 53.957C131.349 49.4872 139.367 47.0735 148.206 52.0463Z" fill="white" stroke="white" stroke-width="1.90968" stroke-linecap="round" stroke-linejoin="round"/>
<path fill-rule="evenodd" clip-rule="evenodd" d="M204.722 58.4557C203.715 54.9368 201.339 52.0444 197.57 49.7897L203.533 38.8504L193.953 46.9927L196.792 34.1061L190.17 45.9928L188.599 33.3059L185.251 45.3226L179.991 35.1451C179.525 39.7879 180.639 45.2263 172.59 46.0495C182.203 47.4197 199.354 53.8073 204.722 58.4557Z" fill="white" stroke="white" stroke-width="2.13132" stroke-linecap="round" stroke-linejoin="round"/>
<path fill-rule="evenodd" clip-rule="evenodd" d="M201.09 85.6906C204.299 78.9868 203.851 74.8879 204.997 69.6538L207.213 84.2137L215.28 74.9262L212.274 86.7544L224.263 80.5316L217.044 89.035L231.169 89.8432L220.17 92.6307L230.705 99.0911C225.197 96.234 219.629 95.7941 213.635 102.826C214.783 88.3885 207.841 87.3709 201.09 85.6906Z" fill="white" stroke="white" stroke-width="2.10276" stroke-linejoin="round"/>
<path fill-rule="evenodd" clip-rule="evenodd" d="M234.145 105.815L208.232 115.291C213.74 118.306 217.115 119.844 218.271 125.515L234.145 120.528L217.804 121.525L231.811 114.543L216.403 116.538L234.145 105.815Z" fill="white" stroke="white" stroke-width="2.38692" stroke-linejoin="round"/>
<path fill-rule="evenodd" clip-rule="evenodd" d="M228.332 149.782C233.983 152.063 236.347 154.237 246.368 154.184L222.729 157.762L228.332 149.782Z" fill="white" stroke="white" stroke-width="2.38692" stroke-linejoin="round"/>
<path fill-rule="evenodd" clip-rule="evenodd" d="M210.854 171.304C220.367 171.471 230.467 168.308 239.935 166.729C231.643 171.592 222.551 172.184 213.82 174.701C220.868 177.103 227.704 179.665 236.151 182.301C227.286 181.453 218.861 179.073 212.014 182.809C217.203 185.622 222.105 188.486 231.367 190.574L197.705 189.138C204.365 187.959 212.462 175.834 210.854 171.304Z" fill="white" stroke="white" stroke-width="2.38692" stroke-linejoin="round"/>
<path fill-rule="evenodd" clip-rule="evenodd" d="M98.1172 105.119C98.3316 96.1206 98.5512 95.091 103.101 90.7795C93.8029 89.1172 92.295 84.4328 86.9735 80.3987L96.1746 93.0805L74.8044 86.1056L92.0193 95.6169H68.8682L88.4576 98.7874C87.4401 103.56 80.4958 103.611 73.3203 107.031C80.8902 105.071 92.1291 102.01 98.1172 105.119Z" fill="white" stroke="white" stroke-width="2.14587" stroke-linejoin="round"/>
<path fill-rule="evenodd" clip-rule="evenodd" d="M108.123 60.2706C109.853 68.2516 110.417 75.2355 115.901 81.7402C112.542 80.1653 111.832 82.518 105.836 83.4068C108.767 75.4883 106.408 67.92 108.123 60.2706Z" fill="white" stroke="white" stroke-width="2.05925" stroke-linejoin="round"/>
<path fill-rule="evenodd" clip-rule="evenodd" d="M92.0876 118.16C78.2953 112.319 76.594 114.479 76.594 114.479L90.815 120.983L92.0876 118.16Z" fill="white" stroke="white" stroke-width="2.13662" stroke-linejoin="round"/>
<path fill-rule="evenodd" clip-rule="evenodd" d="M28.5784 285.138C19.21 287.422 11.7465 293.859 6.54126 298.236C12.2093 296.302 18.994 293.982 24.9879 293.37C28.1722 293.284 28.0679 293.263 27.6963 295.222L35.0069 275.875C33.4104 277.662 31.1027 283.907 28.5784 285.138Z" fill="black" stroke="black" stroke-width="0.220879"/>
</svg>
