<svg width="300" height="400" viewBox="0 0 300 400" fill="none" xmlns="http://www.w3.org/2000/svg">
<path fill-rule="evenodd" clip-rule="evenodd" d="M232.606 83.414C170.588 100.096 146.334 105.323 66.4479 126.268C61.0227 126.171 49.9134 125.34 44.7762 116.76C40.018 110.841 35.0731 117.441 35.3386 123.502C35.7037 131.836 35.937 138.794 39.8192 142.703C61.4834 162.653 68.8973 184.025 72.0416 208.443C71.7108 213.654 67.4189 218.446 75.235 218.092C83.1041 217.508 159.499 211.462 215.649 216.398C220.291 216.875 221.109 212.717 220.799 211.008C218.157 196.392 245.138 149.646 254.174 130.533C256.037 126.594 265.993 126.099 268.108 125.594C267.969 125.628 270.97 123.869 269.204 121.68C258.485 108.392 236.339 82.2356 232.606 83.414ZM211.329 118.316C220.415 118.385 224.749 120.747 221.159 126.666C210.044 148.976 196.915 192.602 192.944 191.93C131.638 191.51 105.017 195.991 98.9284 193.977C96.7292 193.161 93.5165 169.077 79.5955 151.797C77.4061 149.079 78.3091 147.101 81.8494 146.24C102.478 141.624 181.646 118.092 211.329 118.316Z" fill="#B93C3C"/>
<path fill-rule="evenodd" clip-rule="evenodd" d="M112.414 30.705C112.701 33.8845 112.28 40.1855 117.221 42.0029C121.512 42.4503 132.314 50.7488 130.176 63.8341C130.246 207.43 132.715 216.78 130.415 327.8C126.116 367.974 135.56 389.288 138.684 394.251C140.927 399.286 143.365 398.466 144.494 395.35C154.411 367.979 158.753 385.757 155.728 316.722C155.284 202 153.523 75.5346 170.297 66.2402C176.923 60.9204 185.621 44.3192 183.552 40.4688C185.924 36.6675 144.872 -0.82301 141.431 2.64802C135.801 8.79117 113.43 19.428 112.414 30.705Z" fill="#B93C3C"/>
</svg>
