<svg width="154" height="29" viewBox="0 0 154 29" fill="none" xmlns="http://www.w3.org/2000/svg">
<path d="M83.9877 22.9765C83.5518 23.0798 83.1549 23.3068 82.8445 23.6304C82.7431 23.7237 82.6596 23.835 82.5982 23.9585C82.4306 24.3165 82.3464 24.7079 82.3518 25.1032L81.9428 25.5128C81.1464 26.2386 80.2693 26.8702 79.3287 27.3952L78.836 27.642C78.5264 27.7929 78.1842 27.8644 77.8402 27.8502C77.4962 27.836 77.1611 27.7364 76.865 27.5605C76.7837 27.4791 76.7024 27.4791 76.7024 27.3977C76.5905 27.1989 76.5613 26.9641 76.6211 26.7439C76.8351 26.2966 77.1104 25.8815 77.439 25.5103L77.6854 25.2636C78.1611 24.7054 78.6801 24.1857 79.2376 23.7093C80.0933 22.9048 81.0908 22.2665 82.1793 21.8269C82.3419 21.7454 82.507 21.7454 82.6721 21.664C83.0249 21.5682 83.3998 21.597 83.734 21.7454C83.8153 21.7454 83.8153 21.8269 83.8966 21.8269C84.0604 22.0044 84.1488 22.2389 84.143 22.4806C84.0715 22.6484 84.1528 22.8927 83.9877 22.9765ZM64.7087 25.0218C61.4541 28.3624 59.2367 27.8837 58.9115 27.3113C58.5025 26.3245 60.7913 24.6123 61.6068 23.6304C63.7306 21.2594 65.3641 21.1755 65.9357 21.5037C66.1372 21.6483 66.2753 21.8652 66.3212 22.1092C66.3671 22.3532 66.3173 22.6056 66.1821 22.8137C65.7406 22.9911 65.363 23.2981 65.0992 23.6945C64.8353 24.0908 64.6975 24.5579 64.7038 25.0342L64.7087 25.0218ZM39.9577 27.8837C38.682 28.0611 37.3862 28.0336 36.1191 27.8023C35.8934 27.7234 35.695 27.5813 35.5475 27.3928V27.3113C35.5475 27.1485 35.7101 27.0646 35.8752 26.9832C37.8462 26.2431 40.2041 26.6551 42.0839 27.3113H42.1652C41.4852 27.6727 40.7298 27.8688 39.9601 27.8837H39.9577ZM72.1419 3.34289C73.3738 4.32975 71.9793 6.2048 71.3239 7.18673C67.6506 10.9391 63.1445 13.77 58.1723 15.4492C59.0741 13.404 68.1408 1.2236 72.1444 3.34289H72.1419ZM90.2802 18.5579C89.8712 19.0513 85.1334 24.7751 84.5618 24.2027C84.3154 23.7932 85.705 21.7479 83.6625 21.0127C78.9247 20.1122 76.0667 24.6937 75.1674 25.5128C74.2682 26.4133 70.6735 28.1305 69.7767 27.9676C68.631 27.5556 74.0193 24.3656 73.5266 22.3203C73.1176 21.3334 72.8737 21.7479 71.3092 21.2569C71.6368 20.8474 72.9426 19.4584 71.9621 19.1303C70.9002 18.8021 70.5725 20.8573 70.4838 21.2569C70.3212 21.4198 66.9705 24.5284 66.7265 23.956C66.7265 23.8746 67.9584 20.9288 65.0019 20.6031C61.6536 20.1097 58.7932 24.1213 58.6306 24.3656C52.9122 28.128 45.5726 26.6551 45.5726 26.586C46.2255 26.1765 53.6587 22.0045 57.0907 16.6063C60.1176 15.6351 63.0226 14.318 65.7484 12.6811C65.911 12.6811 76.6137 6.13818 72.5287 2.78284C70.7326 1.79598 68.6089 2.70143 67.0567 3.52299C61.3383 6.87586 55.2133 15.7922 54.6393 16.3646C51.6162 17.1047 47.9403 16.7741 45.9816 14.075C43.3675 7.93921 54.3141 1.80585 62.4002 2.70389C62.4815 2.62248 62.4815 2.7039 62.5628 2.62248V2.54106C53.331 1.14958 46.9597 5.73109 45.001 9.08397C44.4442 10.0428 44.2102 11.1555 44.3335 12.2578C44.4569 13.3601 44.931 14.3934 45.6859 15.205C48.4626 18.2322 52.7915 17.5759 53.9371 17.5759C51.4311 21.335 48.0716 24.4463 44.1338 26.6551C43.4809 26.4923 35.1484 25.1008 34.7394 27.4742C34.9858 29.5195 41.4384 28.7078 43.6435 27.8837C46.9917 28.7842 53.4468 28.7843 57.857 26.0852L57.9383 26.1666C57.857 26.5761 57.6919 27.8936 58.5912 28.387C60.2247 29.1272 62.1858 28.7152 65.2902 25.688C65.4528 25.5251 65.6178 25.6065 65.9431 25.5251C67.9141 25.0317 70.1906 22.4165 70.9248 22.0884C71.4485 22.1242 71.968 22.2068 72.477 22.3351C73.6202 22.7446 67.5765 25.6066 68.6384 28.0614C69.7816 30.1067 74.8471 27.2423 75.4187 26.4256C75.4187 26.4256 75.1724 28.8805 77.6361 28.7966C79.6677 28.3884 81.5228 27.3592 82.9455 25.8508C85.9686 26.0975 90.2161 19.4707 90.46 18.8983C90.4428 18.5579 90.4428 18.4765 90.2802 18.5579Z" fill="white"/>
<path d="M139.208 27.8035C137.821 27.2311 140.44 24.7763 140.76 24.4507C144.111 21.0139 145.417 21.7516 145.498 21.9958C145.826 22.4054 144.513 24.2163 144.266 24.4507C141.416 27.7221 140.189 28.1292 139.208 27.8035ZM120.013 25.514C119.36 26.2542 117.153 28.1317 116.009 27.8035C115.847 27.7221 114.531 27.1497 118.298 23.6316C119.114 22.8914 122.708 20.4415 122.464 22.6447C121.698 23.643 120.88 24.6 120.013 25.5115V25.514ZM153.587 20.8511C153.094 20.5229 150.073 24.5321 148.603 25.514C147.617 26.2542 144.927 28.0502 144.192 27.4877C143.7 27.0782 148.44 22.662 149.258 21.2705H147.134C146.925 21.5054 146.675 21.6995 146.395 21.8429C145.089 19.4719 140.186 22.9062 139.452 23.7253C138.959 24.2187 138.063 25.5239 137.974 25.6078C137.235 26.3479 134.46 28.4697 133.726 27.8282C133.399 27.5001 136.503 24.7196 137.075 23.9844C137.383 23.6222 137.559 23.1657 137.574 22.6898C137.589 22.214 137.441 21.7473 137.156 21.3667C135.113 20.3798 134.298 22.0205 132.746 22.7582C132.664 22.5115 132.746 20.2219 130.132 21.2039C127.599 22.3486 124.251 26.9302 122.617 27.5025C122.104 27.731 121.531 27.7881 120.984 27.6654C120.331 27.3372 123.925 24.5567 126.049 21.4481H123.925C123.76 21.6109 123.433 22.0205 123.186 22.0205C122.777 21.2804 121.88 20.629 118.857 22.0205C116.487 23.2541 115.753 24.5568 114.364 25.7015C112.567 27.3372 110.035 28.2377 109.544 27.7468C109.054 27.2558 115.1 21.6109 115.263 21.4481H112.974C112.811 21.6109 107.827 26.1925 103.498 28.482C103.498 29.3011 107.911 26.5996 108.645 26.1111C108.645 26.1111 107.906 28.3315 109.298 28.6473C111.422 28.894 114.445 26.4268 114.526 26.602C114.481 26.8176 114.479 27.0401 114.521 27.2562C114.564 27.4724 114.649 27.6779 114.772 27.8603C114.894 28.0435 115.051 28.2004 115.234 28.3216C115.418 28.4428 115.623 28.5259 115.839 28.5659C117.055 28.6993 118.277 28.3786 119.271 27.6654C119.518 27.7468 119.518 29.0568 121.558 28.6522C123.312 28.0516 124.849 26.941 125.97 25.4622C126.463 24.9688 130.789 20.4736 131.524 21.7812C131.689 22.2746 131.277 22.7681 130.708 23.5082C129.723 24.653 127.929 26.2073 125.889 28.4154H128.34C128.668 28.0873 133.569 23.0172 133.896 22.6891C135.53 21.0534 136.51 21.6258 136.51 21.949C136.51 22.4424 135.939 23.1825 133.569 25.63C133.487 25.7114 131.201 27.6752 132.916 28.5757C134.394 28.7386 135.857 28.1662 137.654 26.7772C137.643 27.1833 137.777 27.5801 138.031 27.8964C138.286 28.2128 138.645 28.4282 139.043 28.5042C140.259 28.6376 141.481 28.3169 142.475 27.6037C142.8 27.7665 142.882 28.9113 144.762 28.5905C146.641 28.0971 148.765 26.301 149.581 25.6448C150.643 24.6135 153.831 21.0953 153.587 20.8511Z" fill="white"/>
<path d="M120.257 5.71761C123.852 8.90765 122.381 11.7696 122.137 12.5072C119.92 16.9235 116.662 16.0254 116.175 14.7968C115.031 10.8715 120.585 9.23332 120.666 10.0524C119.114 9.88958 115.11 13.652 117.48 15.041C119.114 15.4506 122.218 11.36 121.075 7.92572C120.754 7.24875 120.278 6.6571 119.685 6.19871C117.562 8.24399 114.539 14.2145 114.539 14.2145C113.8 15.5221 112.986 16.8322 112.171 18.0583C110.68 20.1092 108.956 21.9795 107.034 23.6317C104.99 25.3063 102.667 26.6075 100.172 27.4755C94.863 28.9558 93.7198 26.4886 93.2295 25.4302C92.5766 23.0593 94.619 22.0774 95.0256 22.6497C96.0111 24.3768 94.1263 25.4302 94.0401 25.5116C94.3121 26.0705 94.7461 26.5343 95.2854 26.8424C95.8247 27.1505 96.4442 27.2886 97.0631 27.2387C103.599 26.9919 108.825 19.06 112.176 14.4785C114.333 11.3916 116.679 8.44098 119.2 5.6436C115.689 3.51691 110.705 4.41002 107.357 6.29739C98.0437 11.5327 97.0631 16.4399 98.7803 17.9942C101.966 19.9679 108.175 16.9309 111.442 12.4308C112.585 11.0393 114.627 7.93066 114.955 5.72255C115.201 8.42162 112.422 12.3493 112.341 12.4308C108.419 18.2385 104.743 19.0575 102.294 19.3832C99.5146 19.7928 94.7792 17.5847 98.2901 12.4308C101.801 7.27686 106.785 4.8245 112.257 3.92399C114.829 3.45356 117.484 3.88945 119.772 5.15757C119.772 5.15757 125.653 -0.159167 127.858 0.00366531C125.079 1.13609 120.013 5.14523 120.257 5.71761Z" fill="white"/>
<path d="M116.663 17.5084C115.11 17.6712 114.211 20.0447 116.01 20.0447C117.889 19.9509 118.133 17.3332 116.663 17.5084Z" fill="white"/>
<path d="M17.2289 7.48069L18.7092 6.52606L20.1306 7.48069L19.6595 5.83477L20.9387 4.80607H19.3143L18.6401 3.16016L18.0309 4.80607H16.4065L17.6858 5.83477L17.2289 7.48069Z" fill="white"/>
<path d="M9.89162 15.6018L11.3719 14.6472L12.7933 15.6018L12.3222 13.9559L13.6015 12.9272H11.977L11.3029 11.2812L10.6937 12.9272H9.06924L10.3485 13.9559L9.89162 15.6018Z" fill="white"/>
<path d="M18.5641 11.5733L18.6311 11.5054C18.6311 11.4375 18.5641 11.4375 18.4971 11.4375C18.4793 11.4375 18.4623 11.4447 18.4497 11.4574C18.4371 11.4701 18.4301 11.4874 18.4301 11.5054C18.428 11.5733 18.4971 11.5733 18.5641 11.5733Z" fill="white"/>
<path d="M12.1108 3.46378C12.1108 3.46378 12.0437 3.39586 12.0437 3.46378C12.0105 3.50147 11.9922 3.55018 11.9922 3.60064C11.9922 3.65111 12.0105 3.69981 12.0437 3.7375C12.0335 3.64111 12.0573 3.54418 12.1108 3.46378Z" fill="white"/>
<path d="M12.438 3.38613C12.505 3.31821 12.505 3.25029 12.505 3.1124C12.5026 3.07716 12.4877 3.04399 12.4631 3.01902C12.4384 2.99405 12.4057 2.97897 12.371 2.97656C12.304 3.04448 12.438 3.18237 12.371 3.25029C12.304 3.38612 12.2369 3.38612 12.1679 3.4561C12.2349 3.52196 12.371 3.38613 12.438 3.38613Z" fill="white"/>
<path d="M12.9186 4.68422C13.1216 4.95794 13.3897 4.54838 13.6597 4.68422C13.6597 4.6163 13.5927 4.6163 13.5257 4.6163C13.3917 4.48046 13.2556 4.68421 13.1196 4.6163C13.0526 4.6163 13.0526 4.54839 12.9856 4.48047C12.9117 4.51545 12.8433 4.56121 12.7825 4.6163C12.7155 4.68421 12.5795 4.68421 12.5125 4.75213C12.6485 4.88796 12.7825 4.75213 12.9186 4.68422Z" fill="white"/>
<path d="M9.61345 4.206C9.74747 4.206 9.95052 4.2739 10.0845 4.13811C10.2186 4.00232 10.2876 4.2739 10.4907 4.206C10.7607 4.206 10.6247 3.86448 10.8968 3.93237C10.9679 3.91848 11.0347 3.88724 11.0913 3.84136C11.1479 3.79548 11.1927 3.73633 11.2217 3.66903C11.1547 3.39539 11.3557 3.3275 11.3557 3.12382C11.3557 3.05592 11.2887 2.91808 11.1526 2.98803V3.05181C11.2196 3.1197 11.1526 3.25754 11.1526 3.32544C10.9496 3.39333 11.0856 3.59907 11.0186 3.73692C10.9516 4.07845 10.5475 3.73692 10.5475 4.01055C10.4805 4.07845 10.4135 4.2163 10.2774 4.14634C10.0744 3.87271 10.0074 4.28213 9.73935 4.14634C9.67234 4.14634 9.60533 4.07845 9.53629 4.01055C9.46725 3.94266 9.53629 3.73692 9.40227 3.80481C9.33526 3.87271 9.33527 3.87271 9.33527 3.9406C9.41243 4.08051 9.47944 4.206 9.61345 4.206Z" fill="white"/>
<path d="M11.626 5.0953C11.626 4.75377 12.0321 4.95951 12.1641 4.61798C12.2175 4.53761 12.2413 4.44071 12.2311 4.34435C12.1641 4.13861 12.2981 4.00283 12.2981 3.79914C12.2981 3.73125 12.2311 3.66335 12.0951 3.73125C12.142 3.8144 12.1652 3.90914 12.1621 4.00488C11.959 4.21062 12.2291 4.4822 12.0281 4.68794C11.894 4.82373 11.557 4.68794 11.557 4.96157C11.49 5.02947 11.49 5.16731 11.3539 5.16731C11.4502 5.17691 11.5467 5.15137 11.626 5.0953Z" fill="white"/>
<path d="M23.5562 1.19922H6.45624V1.54075C6.45624 1.54075 6.59026 1.67654 6.6593 1.67654C6.84105 1.76646 6.99785 1.90081 7.11555 2.06747C7.23324 2.23413 7.30814 2.42785 7.33347 2.63117V15.6607C7.32193 15.9367 7.34444 16.2132 7.40048 16.4836C7.51794 17.0314 7.82927 17.5166 8.27569 17.8477C8.68118 18.1678 9.18322 18.3363 9.69713 18.325H13.929C14.1515 18.3341 14.3679 18.4019 14.5567 18.5217C14.7454 18.6415 14.9 18.8091 15.0052 19.0081L15.0722 19.1438L15.1392 19.076C15.2311 18.8792 15.3742 18.7117 15.5531 18.5913C15.732 18.4709 15.94 18.4023 16.1545 18.3929H20.3965C20.9104 18.4042 21.4125 18.2357 21.818 17.9156C22.0438 17.7719 22.2381 17.5827 22.3887 17.3597C22.5392 17.1367 22.6429 16.8847 22.6932 16.6194C22.7492 16.349 22.7717 16.0725 22.7602 15.7965V2.84514C22.7868 2.65072 22.863 2.4667 22.9812 2.3112C23.0995 2.15571 23.2556 2.03412 23.4344 1.9584C23.5014 1.9584 23.6374 1.75266 23.6374 1.75266L23.5562 1.19922ZM8.47469 4.33675C8.40768 4.20096 8.5417 4.06312 8.67775 3.99522C8.77286 4.00552 8.8685 3.98148 8.94783 3.92733C8.88082 3.72159 8.88081 3.45001 9.08185 3.38211H9.28491C9.25968 3.32519 9.25258 3.26171 9.26459 3.20051C9.2766 3.13931 9.30712 3.08341 9.35192 3.04059C9.48594 2.9727 9.75805 2.9727 9.75805 2.69906C9.82506 2.63117 9.89207 2.56327 9.96111 2.56327C10.1642 2.49538 10.3672 2.76901 10.3672 2.42749C10.5703 2.08596 11.0414 2.42748 11.3095 2.2917C11.5125 2.35959 11.5125 2.56533 11.6465 2.70318C11.72 2.61593 11.8155 2.55065 11.9229 2.51439C12.0302 2.47814 12.1453 2.47227 12.2557 2.49744C12.3898 2.56533 12.5258 2.56533 12.5928 2.77107C12.5928 2.83897 12.5928 2.83896 12.6598 2.90686C12.7938 2.83896 12.8629 2.77107 12.9969 2.83896C13.0859 2.87942 13.1595 2.948 13.2067 3.03443C13.2539 3.12086 13.2722 3.22048 13.2589 3.31834C13.3929 3.31834 13.4619 3.25045 13.5959 3.38623C13.5289 3.38623 13.3259 3.52202 13.5289 3.59197C13.5959 3.59197 13.5959 3.72776 13.5959 3.72776C13.663 3.79566 13.799 3.79566 13.799 3.9335C13.866 4.13924 13.665 4.27503 13.799 4.47871C13.799 4.54661 13.732 4.6145 13.799 4.68445C13.866 4.68445 13.933 4.75234 14.0691 4.75234C14.1303 4.8547 14.154 4.97559 14.1361 5.09387C14.2031 5.36751 13.665 5.29961 13.933 5.57119C13.933 5.70698 13.866 5.77693 13.73 5.84482C13.663 5.91271 13.5959 5.77693 13.5269 5.84482C13.5392 5.94331 13.5195 6.04318 13.4708 6.12931C13.422 6.21543 13.3469 6.28312 13.2568 6.32214C13.1228 6.32214 12.9197 6.39003 12.7857 6.32214L12.5827 6.04851C12.5145 6.11988 12.4279 6.17045 12.3328 6.19445C12.2377 6.21846 12.1378 6.21494 12.0445 6.1843C11.7075 6.04851 12.0445 5.56707 11.7075 5.43334C11.4374 5.36545 11.1693 5.63908 11.0333 5.84482H10.9663C10.7607 5.51665 10.5808 5.1727 10.4282 4.81612C10.3611 4.81612 10.3611 4.81612 10.3611 4.88402C10.4719 5.27827 10.6544 5.64808 10.8993 5.97444C10.9663 6.04233 10.9663 6.11023 11.1023 6.04233C11.1567 5.93086 11.2322 5.83133 11.3245 5.74943C11.4168 5.66753 11.5242 5.60486 11.6404 5.56502C11.6955 5.71761 11.7184 5.88023 11.7075 6.04233C11.599 6.17344 11.5189 6.32616 11.4724 6.4906C11.4259 6.65505 11.4139 6.82755 11.4374 6.99696V7.68002C11.4108 8.24869 11.5268 8.81493 11.7745 9.32594C11.5714 9.46173 11.3034 9.32594 11.1653 9.25805C10.9622 9.25805 10.8952 9.39383 10.6942 9.39383C10.6272 9.32594 10.5601 9.39383 10.4911 9.32594C10.9622 8.91446 10.7612 8.23552 10.8282 7.62036C10.7724 7.41977 10.7498 7.21121 10.7612 7.00314C10.7938 6.80733 10.7803 6.60646 10.7218 6.41695C10.6632 6.22744 10.5612 6.05466 10.4241 5.91272C10.2716 5.63445 10.1581 5.336 10.087 5.02598C10.087 4.95809 10.02 4.95808 9.95299 4.95808C9.88598 5.02598 9.88598 5.23172 9.74993 5.29961C9.54686 5.4354 9.41284 5.02598 9.21181 5.29961C9.1448 5.29961 9.00875 5.23172 9.00875 5.16382C9.00875 5.14582 9.00168 5.12855 8.98912 5.11581C8.97655 5.10308 8.95951 5.09593 8.94174 5.09593C8.87472 5.09593 8.87472 5.09593 8.87472 5.16382C8.87338 5.23435 8.89173 5.30383 8.92766 5.36425C8.96358 5.42467 9.01563 5.47358 9.07779 5.50535H9.34786C9.41487 5.29961 9.55093 5.50535 9.61794 5.50535H10.0241C10.1363 5.85788 10.3195 6.18296 10.5622 6.45999C10.5622 6.52788 10.5622 6.66573 10.4952 6.66573C10.2921 6.45999 10.2921 6.80151 10.1581 6.80151C10.0241 6.80151 9.95502 6.80151 9.88801 6.73362L9.75399 6.52788C9.61997 6.52788 9.48391 6.59577 9.4169 6.45999V6.25425C9.30016 6.27236 9.18084 6.24833 9.07982 6.18635C8.9458 6.11845 9.07982 5.77487 8.80974 5.77487C8.73664 5.7318 8.67428 5.67231 8.62745 5.60097C8.58063 5.52963 8.55059 5.44835 8.53967 5.36339C8.53967 5.2276 8.60668 5.02186 8.40565 4.95191C8.36161 4.91106 8.3277 4.86027 8.30668 4.80366C8.28565 4.74704 8.27809 4.68621 8.28462 4.62608C8.29115 4.56595 8.31157 4.50823 8.34424 4.4576C8.37692 4.40697 8.42091 4.36486 8.47266 4.33469L8.47469 4.33675ZM15.1392 18.3271C14.4651 17.9156 14.197 17.644 13.5899 17.7098H9.28288C8.96002 17.6482 8.6588 17.5017 8.40934 17.2851C8.15989 17.0684 7.97096 16.7892 7.86144 16.4754L7.79443 16.4075L7.72741 15.9302V10.0728H15.1331L15.1392 18.3271ZM15.4763 14.6443C15.5116 14.3199 15.5797 14 15.6794 13.6897C15.6951 13.5746 15.7175 13.4606 15.7464 13.3481C15.6308 13.165 15.5833 12.9463 15.6124 12.7309C15.6149 12.5832 15.6617 12.4397 15.7464 12.3195C15.8089 12.125 15.9 11.9412 16.0165 11.7742C16.2195 11.3628 16.2865 11.0233 16.4876 10.6139C16.6216 10.4081 17.0257 10.4781 17.2288 10.546C17.2958 10.546 17.3628 10.6818 17.3628 10.6818C17.4968 10.6818 17.5658 10.8875 17.5658 11.0932C17.5937 11.3296 17.5468 11.5687 17.4318 11.7763V12.1178C17.2978 12.1178 17.0947 12.1178 17.0257 11.9121C16.8917 11.8442 16.6886 11.9121 16.5546 11.7763C16.0165 11.7763 15.9454 12.2536 15.8134 12.663C15.8134 12.7309 15.7464 12.7988 15.7464 12.8688C15.6794 12.9367 15.7464 13.0745 15.7464 13.1424C15.9495 13.2103 15.8134 13.4839 15.8134 13.6197C15.7464 14.0312 15.7464 14.4427 15.4763 14.6484C15.4783 14.778 15.5454 14.6423 15.4783 14.6423L15.4763 14.6443ZM17.8318 13.0745C17.7951 13.0793 17.7579 13.0757 17.7227 13.0639C17.6876 13.0522 17.6555 13.0326 17.6288 13.0066C17.6958 12.9387 17.6288 12.8009 17.6288 12.733C17.6288 12.6651 17.6288 12.6651 17.6958 12.6651C17.6958 12.5293 17.6958 12.3236 17.9659 12.3915C17.9996 12.4419 18.0176 12.5013 18.0176 12.5622C18.0176 12.6231 17.9996 12.6826 17.9659 12.733C17.9009 12.8688 17.9009 13.0066 17.8339 13.0745H17.8318ZM17.7648 13.6917H17.6978C17.6881 13.6072 17.695 13.5215 17.718 13.4396C17.741 13.3577 17.7797 13.2812 17.8318 13.2144C17.8565 13.294 17.8633 13.3782 17.8517 13.4608C17.8401 13.5434 17.8104 13.6223 17.7648 13.6917ZM17.5618 13.486C17.5618 13.5539 17.4948 13.6218 17.4948 13.6917C17.4948 13.7617 17.4948 13.7596 17.4278 13.8275H17.3607V13.7493C17.3607 13.5436 17.3607 13.3379 17.4948 13.272C17.6288 13.2062 17.5638 13.414 17.5638 13.4839L17.5618 13.486ZM16.2155 13.0087C16.1485 12.9408 16.2155 12.8729 16.2155 12.735V12.5993L16.4185 12.1219C16.4855 12.054 16.5526 11.9862 16.6216 12.0541C16.6906 12.1219 16.6216 12.1898 16.6216 12.3277L16.4876 12.805L16.4206 13.0107C16.3536 13.0066 16.2175 13.0745 16.2175 13.0066L16.2155 13.0087ZM16.2825 13.5539V13.6897C16.2642 13.9608 16.1706 14.2211 16.0124 14.4406H15.9454C15.9572 14.1854 16.0023 13.9329 16.0794 13.6897C16.1464 13.5539 16.1464 13.416 16.2134 13.2782C16.2134 13.2103 16.2804 13.2782 16.3475 13.2782C16.3535 13.3379 16.2845 13.4839 16.2845 13.5436L16.2825 13.5539ZM16.3495 14.0312L16.4165 13.7576L16.4835 13.3461C16.5102 13.3201 16.5423 13.3006 16.5774 13.2888C16.6126 13.2771 16.6499 13.2734 16.6866 13.2782C16.6866 13.414 16.6196 13.5518 16.6196 13.6897C16.5442 13.8383 16.4987 14.0005 16.4855 14.167C16.4185 14.167 16.4185 14.2349 16.3515 14.167L16.3495 14.0312ZM16.6866 13.0025V12.7289C16.6986 12.5172 16.7438 12.3089 16.8206 12.1117C16.8573 12.1069 16.8946 12.1105 16.9297 12.1223C16.9649 12.134 16.997 12.1536 17.0237 12.1795C17.0237 12.3853 16.9566 12.5211 16.9566 12.7248C16.9566 12.8605 16.8896 12.9305 16.8896 12.9984C16.7556 13.0711 16.6886 13.0738 16.6886 13.0066L16.6866 13.0025ZM16.8896 13.6856C16.9644 13.5604 17.0102 13.4197 17.0237 13.2741L17.0907 13.2062C17.1577 13.2062 17.2247 13.2062 17.2247 13.2741C17.2247 13.4099 17.1577 13.5477 17.1577 13.6856C17.1555 13.8121 17.1078 13.9335 17.0237 14.0271H16.9566C16.8247 13.9551 16.8247 13.8234 16.8917 13.6876L16.8896 13.6856ZM17.1597 13.0025V12.5252L17.2267 12.3195C17.3218 12.3092 17.4175 12.3332 17.4968 12.3873C17.5147 12.5056 17.491 12.6265 17.4298 12.7289C17.4298 12.7968 17.3628 12.9346 17.3628 13.0025C17.3511 13.0187 17.3358 13.0318 17.3182 13.0409C17.3005 13.0499 17.281 13.0546 17.2612 13.0546C17.2415 13.0546 17.222 13.0499 17.2043 13.0409C17.1867 13.0318 17.1714 13.0187 17.1597 13.0025ZM17.1597 15.2533C17.0694 15.4654 16.9302 15.6524 16.7536 15.7985H16.6866C16.7583 15.594 16.8733 15.4079 17.0237 15.2533C17.0927 15.1895 17.1597 15.1895 17.1597 15.2574V15.2533ZM17.4298 15.459C17.4274 15.4943 17.4125 15.5274 17.3879 15.5524C17.3633 15.5773 17.3305 15.5924 17.2958 15.5948H17.2288C17.2226 15.5312 17.2316 15.467 17.2549 15.4076C17.2782 15.3482 17.3152 15.2953 17.3628 15.2533L17.4298 15.1854C17.4298 15.1854 17.4968 15.2533 17.4298 15.2533C17.4968 15.3253 17.4298 15.3953 17.4298 15.4611V15.459ZM17.4968 14.9817C17.4298 14.9817 17.3628 15.0496 17.2937 14.9817C17.2937 14.776 17.4968 14.6402 17.6308 14.5044C17.7648 14.5044 17.9009 14.3686 17.9679 14.5044H18.0349C18.0349 14.4365 17.9679 14.3686 17.9009 14.2987C17.7263 14.292 17.5531 14.3328 17.3992 14.4167C17.2453 14.5006 17.1164 14.6246 17.0257 14.776L16.8917 15.2533L16.2175 16.2182C16.1505 16.424 16.4206 16.354 16.4876 16.4919C16.3943 16.4612 16.2944 16.4577 16.1993 16.4817C16.1042 16.5057 16.0176 16.5563 15.9495 16.6276C15.8824 16.5597 15.8824 16.354 15.7464 16.354C15.8134 16.2861 15.9495 16.354 16.0165 16.2861C16.2865 15.9446 16.4876 15.6031 16.7576 15.2574C16.9663 14.9279 17.1913 14.6093 17.4318 14.3028C17.5052 14.2155 17.6008 14.1503 17.7081 14.114C17.8155 14.0777 17.9306 14.0719 18.041 14.097C18.175 14.097 18.2441 14.2328 18.3111 14.3028C18.3576 14.4623 18.3697 14.6302 18.3466 14.7949C18.3234 14.9596 18.2656 15.1173 18.1771 15.2574C18.1771 15.3253 18.1101 15.3253 18.1101 15.3932V15.1196C18.043 14.9838 17.976 14.9838 17.84 15.0517C17.6999 15.0517 17.6308 14.9838 17.4968 14.9838V14.9817ZM18.372 11.299C18.506 11.2311 18.6421 11.299 18.7781 11.2311C18.906 11.287 19.0454 11.3103 19.1843 11.299C19.1843 11.4348 18.9142 11.3669 18.9142 11.5726V11.9841C18.9055 11.975 18.8951 11.9678 18.8836 11.9628C18.872 11.9579 18.8597 11.9553 18.8472 11.9553C18.8351 11.9529 18.8227 11.9529 18.8106 11.9553C18.7992 11.96 18.7889 11.967 18.7802 11.9759C18.7131 11.9759 18.7802 12.0438 18.7131 12.0438C18.6461 12.0438 18.5791 11.908 18.5101 11.9759C18.5101 11.9759 18.4431 12.0438 18.4431 11.9759V11.7701C18.3761 11.6343 18.173 11.6343 18.0369 11.6343C18.171 11.5047 18.305 11.4368 18.372 11.301V11.299ZM18.238 10.6159C18.305 10.548 18.305 10.6159 18.238 10.6159C18.2467 10.6068 18.2571 10.5996 18.2686 10.5947C18.2801 10.5898 18.2925 10.5872 18.305 10.5872C18.3175 10.5872 18.3299 10.5898 18.3414 10.5947C18.3529 10.5996 18.3633 10.6068 18.372 10.6159H18.506C18.573 10.548 18.506 10.2744 18.7091 10.3423C18.7761 10.4102 18.7091 10.6159 18.8431 10.6159H18.9101C18.9771 10.6159 19.1132 10.4801 19.1802 10.6159C19.1802 10.6838 19.1132 10.7517 19.0462 10.8896C18.8003 10.8554 18.5509 10.8554 18.305 10.8896C18.305 10.8237 18.238 10.6859 18.238 10.618V10.6159ZM17.7669 15.2554C17.7669 15.1875 17.8339 15.1875 17.9009 15.1875V15.2554C17.9009 15.3233 17.8339 15.3911 17.8339 15.4611C17.8252 15.4702 17.8148 15.4774 17.8032 15.4823C17.7917 15.4873 17.7794 15.4898 17.7669 15.4898C17.7544 15.4898 17.742 15.4873 17.7305 15.4823C17.719 15.4774 17.7086 15.4702 17.6999 15.4611C17.6952 15.4239 17.6987 15.3861 17.7103 15.3505C17.7219 15.3149 17.7412 15.2824 17.7669 15.2554ZM19.8544 16.3478C19.8544 16.3478 19.5173 16.0742 19.3162 15.8705C19.2492 15.8026 19.2492 15.8705 19.2492 15.9384C19.4132 16.2403 19.6183 16.5174 19.8584 16.7614L19.9254 16.8293C19.8584 16.8293 19.7914 16.8293 19.7914 16.7614C19.6479 16.6843 19.5304 16.5653 19.4543 16.4198C19.3203 16.2841 19.3203 16.0084 19.1172 15.9425L19.0502 16.0104C19.0841 16.2596 19.0841 16.5122 19.0502 16.7614C19.0549 16.7986 19.0514 16.8363 19.0398 16.8719C19.0282 16.9075 19.0088 16.9401 18.9832 16.9671C18.9162 17.035 18.8492 16.8992 18.7802 16.8313V16.7634C18.7802 16.4898 18.7131 16.2182 18.7131 16.0125C18.7131 15.9446 18.6461 16.0125 18.5791 16.0125C18.4853 16.3059 18.3484 16.5834 18.173 16.8354C18.0702 16.919 17.9568 16.9882 17.8359 17.0412C17.8359 16.9733 17.9029 16.9054 17.9699 16.8354C18.131 16.6003 18.2671 16.3486 18.3761 16.0845C18.3761 16.0166 18.3761 15.9487 18.309 15.9487C18.175 16.0166 18.106 16.2223 17.972 16.2902C17.9398 16.3319 17.8989 16.3657 17.8521 16.3892C17.8054 16.4127 17.7541 16.4253 17.7019 16.426C17.7689 16.2203 17.905 16.0845 17.972 15.8808C18.0579 15.6613 18.1711 15.4539 18.309 15.2636C18.5121 14.9221 18.6461 14.5805 18.3761 14.2349C18.2612 14.0916 18.17 13.9304 18.106 13.7576C18.039 13.443 18.039 13.1175 18.106 12.8029C18.106 12.735 18.173 12.5972 18.173 12.5293C18.24 12.3935 18.307 12.1178 18.5791 12.1878C18.6461 12.2557 18.7131 12.3236 18.7822 12.2557C18.7822 12.1878 18.8492 12.1878 18.9162 12.1878C18.9832 12.2557 18.9832 12.3236 19.0502 12.3236C18.9832 12.3236 19.0502 12.2557 19.0502 12.3236C19.1843 12.4594 19.1172 12.6651 19.1172 12.8688C19.1172 13.1424 19.2513 13.414 19.2513 13.6197C19.2513 13.6876 19.3183 13.7555 19.2513 13.8255C19.1843 14.0312 19.1172 14.3028 19.0482 14.5085C19.0337 14.8269 19.1292 15.1405 19.3183 15.3953C19.3183 15.3953 19.2513 15.3953 19.3183 15.4632L19.8544 16.3478ZM19.7203 15.2554V15.3953C19.6856 15.3929 19.6529 15.3778 19.6282 15.3528C19.6036 15.3279 19.5887 15.2947 19.5863 15.2595V15.0537C19.7183 15.0517 19.7183 15.1895 19.7183 15.2574L19.7203 15.2554ZM20.0574 15.529C19.9865 15.4536 19.9398 15.3582 19.9234 15.2554V15.0496H19.9498C19.9581 15.0529 19.9657 15.0578 19.9721 15.064C19.9848 15.0765 19.9921 15.0935 19.9924 15.1113V15.2471C20.0554 15.3953 20.1224 15.4611 20.0554 15.529H20.0574ZM20.5955 15.7347C20.4615 15.8026 20.3925 15.599 20.3255 15.529C20.3091 15.4262 20.2623 15.3308 20.1915 15.2554C20.1915 15.1875 20.1914 15.1196 20.2585 15.1196L20.3925 15.2554C20.4448 15.3779 20.5131 15.4928 20.5955 15.5969V15.7347ZM21.2697 16.4178C21.2346 16.3378 21.1778 16.2696 21.1059 16.2212C21.034 16.1727 20.9499 16.146 20.8636 16.1442C20.9306 16.0763 20.9976 15.9384 20.9306 15.8705L20.5245 15.2533L20.1183 14.5702C19.9153 14.4345 19.7813 14.2287 19.5802 14.3645C19.5132 14.3645 19.5132 14.4324 19.5132 14.5003C19.5802 14.5682 19.7163 14.5003 19.7833 14.5003C19.8622 14.5358 19.9295 14.5934 19.9774 14.6663C20.0252 14.7391 20.0515 14.8243 20.0534 14.9118C20.0033 14.8784 19.9447 14.8606 19.8848 14.8606C19.8249 14.8606 19.7663 14.8784 19.7163 14.9118C19.5823 14.8439 19.4462 15.0476 19.3792 14.8439C19.3792 14.6381 19.2452 14.3666 19.3792 14.2267C19.56 14.1097 19.7759 14.0616 19.9884 14.0909C20.1224 14.1588 20.1914 14.2966 20.3255 14.4324L20.7966 15.2554L21.2027 15.9384C21.2697 16.0742 21.4728 16.0063 21.5398 16.1442C21.4017 16.1442 21.3347 16.2799 21.2677 16.424L21.2697 16.4178ZM21.0667 13.5539C21.0667 13.6218 21.1337 13.6897 21.1337 13.7596C21.2175 13.9291 21.2632 14.1153 21.2677 14.3048C21.2677 14.3727 21.2007 14.3727 21.2007 14.3048C21.0714 14.1459 20.9791 13.9596 20.9306 13.7596C20.8507 13.6061 20.7828 13.4466 20.7275 13.2823C20.7275 13.2144 20.7275 13.1465 20.7945 13.1465C20.9306 13.1321 20.9976 13.3379 21.0646 13.5436L21.0667 13.5539ZM20.8636 12.1137L20.9306 12.0458C21.2007 12.1137 21.2007 12.4573 21.3367 12.7289V12.7968C21.3344 12.832 21.3195 12.8652 21.2948 12.8901C21.2702 12.9151 21.2375 12.9302 21.2027 12.9326C21.1357 12.9326 21.1357 12.9326 21.0687 12.8647V12.7968C21.0646 12.5272 20.8636 12.3236 20.8636 12.1178V12.1137ZM20.7966 12.9367H20.6626C20.6369 12.9096 20.6176 12.8771 20.606 12.8415C20.5944 12.8059 20.5908 12.7681 20.5955 12.7309C20.5285 12.5951 20.5285 12.4573 20.4615 12.3195C20.4615 12.2516 20.4615 12.2516 20.5285 12.1837C20.7316 12.1837 20.7316 12.4573 20.8656 12.661V12.7968C20.8617 12.8508 20.8369 12.9011 20.7966 12.9367ZM20.6626 13.4819C20.6626 13.5498 20.7296 13.6177 20.7296 13.6876C20.7296 13.7576 20.7966 13.8934 20.7966 13.9613C20.6626 13.9613 20.6626 13.8255 20.5935 13.7555V13.6876C20.5265 13.4819 20.3904 13.3461 20.4595 13.2103C20.5265 13.2782 20.5935 13.414 20.6605 13.4839L20.6626 13.4819ZM20.3255 13.0046C20.1224 13.0725 20.0554 12.9367 20.0554 12.7309C20.0554 12.663 20.0554 12.5252 19.9884 12.5252C19.9884 12.4573 20.0554 12.3195 20.1224 12.3195C20.3925 12.3195 20.3255 12.5931 20.3925 12.7309C20.3925 12.7489 20.3995 12.7662 20.4121 12.7789C20.4247 12.7917 20.4417 12.7988 20.4595 12.7988C20.4595 12.8688 20.4595 13.0066 20.3255 13.0066V13.0046ZM20.3925 13.7555C20.3925 13.8234 20.3255 13.7555 20.3255 13.7555C20.2507 13.6304 20.2049 13.4897 20.1915 13.344C20.3255 13.3379 20.3925 13.5436 20.3925 13.7493V13.7555ZM20.0554 13.414C20.0554 13.4819 20.1224 13.5498 20.1224 13.6876C20.0476 13.5625 20.0018 13.4218 19.9884 13.2761C19.9884 13.2103 20.0554 13.3379 20.0554 13.414ZM19.8523 13.1404C19.6493 13.1404 19.6493 12.9346 19.6493 12.7289C19.654 12.6917 19.6504 12.6539 19.6388 12.6183C19.6272 12.5827 19.6079 12.5502 19.5823 12.5231C19.5823 12.4552 19.5823 12.4552 19.6493 12.3873C19.7833 12.3195 19.8523 12.4552 19.8523 12.5231C19.8523 12.591 19.8523 12.6589 19.9193 12.6589C19.9214 12.8688 19.9884 13.0745 19.8544 13.1321L19.8523 13.1404ZM19.6493 13.2082C19.7833 13.2082 19.7833 13.344 19.8523 13.414C19.8523 13.4819 19.9193 13.6197 19.8523 13.6876V13.7493C19.7853 13.8172 19.7853 13.7493 19.7183 13.6815C19.7183 13.6136 19.7183 13.6136 19.6513 13.6136C19.6513 13.4839 19.5843 13.3379 19.6513 13.2103L19.6493 13.2082ZM21.5337 14.2987C21.4157 14.1067 21.3248 13.899 21.2636 13.6815C21.1966 13.5457 21.1296 13.3399 21.0606 13.2041C21.1276 13.2041 21.0606 13.1362 21.1276 13.0683C21.1623 13.0708 21.1951 13.0858 21.2197 13.1108C21.2443 13.1358 21.2592 13.1689 21.2616 13.2041C21.337 13.3527 21.3825 13.5149 21.3956 13.6815C21.4645 13.7663 21.5125 13.8665 21.5358 13.9737C21.5591 14.081 21.557 14.1924 21.5296 14.2987C21.6048 14.3666 21.6048 14.3007 21.5357 14.3007L21.5337 14.2987ZM21.6677 13.6815C21.5836 13.5365 21.5375 13.3722 21.5337 13.2041C21.4667 12.9984 21.7368 12.9305 21.6677 12.7268C21.5946 12.3928 21.4315 12.0859 21.1966 11.8401C20.9265 11.7043 20.8595 12.0458 20.5874 11.9759C20.4534 12.2495 20.1163 12.0438 19.9132 12.2495V11.7722C19.7782 11.3975 19.7782 10.9865 19.9132 10.6118L20.1163 10.476C20.249 10.4111 20.3983 10.3892 20.5437 10.4135C20.6891 10.4379 20.8235 10.5071 20.9286 10.6118C21.148 10.9782 21.3284 11.3672 21.4667 11.7722C21.5337 11.8401 21.5337 11.908 21.6007 12.0458C21.708 12.2834 21.7766 12.537 21.8038 12.7968V13.0704C21.6697 13.2761 21.8708 13.4819 21.9378 13.6156V13.7493C22.0373 14.0146 22.1054 14.2908 22.1409 14.5723C21.8965 14.3348 21.7323 14.0252 21.6718 13.6876L21.6677 13.6815ZM22.5429 3.10848V10.0666H15.1413V1.88639H22.614C22.2769 1.88639 22.547 2.70523 22.547 3.11466L22.5429 3.10848Z" fill="white"/>
<path d="M27.8603 14.9176C28.1771 14.7368 28.5324 14.6362 28.8958 14.6244C29.2593 14.6126 29.6202 14.6899 29.9478 14.8497C29.8808 14.4382 29.6777 13.8951 29.0056 13.8951C29.1071 13.6584 29.1596 13.4032 29.1596 13.1451C29.1596 12.8871 29.1071 12.6318 29.0056 12.3952C28.8025 12.6009 28.8025 13.2182 28.5995 13.3498C27.3202 13.9671 28.3964 11.7039 28.3964 11.4406C28.4754 11.1826 28.4859 10.9081 28.4267 10.6448C28.3675 10.3814 28.2408 10.1386 28.0593 9.94073C27.9923 10.0765 27.9923 10.6238 27.7222 10.8275C27.2511 10.7596 27.5882 9.18156 27.2511 9.054C27.3181 9.46548 27.048 9.59921 26.981 9.87696C26.848 9.71954 26.759 9.52889 26.7233 9.32483C26.6876 9.12077 26.7065 8.91074 26.778 8.71658C26.8893 8.49561 27.0256 8.28848 27.1841 8.09936C26.778 7.96357 26.4429 8.23515 26.0388 8.37299C26.0115 7.98319 25.8439 7.61711 25.5677 7.34429C25.5952 7.5074 25.5707 7.67515 25.4977 7.82316C25.4246 7.97116 25.3069 8.0917 25.1616 8.16725C24.9976 8.00048 24.8801 7.79276 24.8209 7.56513C24.7617 7.33751 24.7629 7.09807 24.8245 6.87109C24.7612 6.88731 24.7019 6.9165 24.6503 6.95685C24.5986 6.99721 24.5556 7.04788 24.524 7.10573C24.4924 7.16358 24.4729 7.22737 24.4666 7.29318C24.4603 7.35898 24.4674 7.4254 24.4874 7.48831L24.3534 7.42042C24.1503 9.39758 25.4987 10.2164 25.3687 10.4222C24.9509 10.4475 24.5396 10.5399 24.1503 10.6958C24.1503 10.7637 25.6307 11.4467 26.1708 12.4014C26.912 13.5618 26.3048 14.0473 26.0368 14.107C25.2245 14.1749 25.3626 13.2202 26.0368 13.5618C25.6997 12.675 24.8184 12.6071 24.7575 12.9445C24.6956 12.8889 24.6461 12.8207 24.6121 12.7442C24.5782 12.6678 24.5606 12.585 24.5606 12.5012C24.5606 12.4174 24.5782 12.3345 24.6121 12.2581C24.6461 12.1817 24.6956 12.1134 24.7575 12.0578C24.0833 12.1257 24.0833 12.8808 24.0163 13.0865C23.8109 13.0431 23.5969 13.0739 23.4115 13.1734C23.2261 13.273 23.0809 13.4351 23.001 13.6317C23.6752 13.1544 26.5018 15.3373 24.7514 16.4277C24.0772 16.222 24.7514 15.6768 24.6844 15.6048C23.8092 15.6726 24.0752 16.5594 23.7422 16.4277C23.4852 16.367 23.2363 16.2752 23.001 16.1541C23.2072 16.529 23.4322 16.8929 23.6752 17.2445C23.4051 17.5181 23.066 18.1312 23.3381 18.4049C23.2711 18.1312 24.1503 17.5819 24.0793 18.5407C23.9452 19.2237 22.5299 19.3636 23.003 17.9954C22.5969 18.0633 22.3289 18.4728 22.1278 18.8184C21.9248 18.8184 21.5186 18.4769 21.3866 18.4769C21.3866 18.5448 22.3289 19.773 21.3866 20.7956C21.3261 20.6172 21.2183 20.4591 21.075 20.3387C20.9318 20.2182 20.7586 20.14 20.5744 20.1125C19.8332 20.1125 19.7621 20.454 19.7621 20.454C19.9652 20.3861 20.2332 20.3183 20.3003 20.454C20.5703 21.3408 19.8941 21.4087 19.2849 21.1371C19.2849 21.1371 18.7468 20.9314 18.8138 21.0692C19.3519 21.4107 19.0169 22.569 18.2046 21.5465C17.8323 22.0375 17.6194 22.6334 17.5954 23.2521C16.9355 24.1028 16.1658 24.8598 15.3069 25.5029C15.0368 24.9577 15.713 24.7519 15.9161 24.7519C15.8491 24.4104 15.3069 24.5462 15.3069 24.5462C15.3069 24.4104 15.713 24.001 15.9161 24.1347C15.646 23.7932 15.1039 23.9989 15.0409 23.9989C15.1079 23.5216 15.7151 22.9702 15.9161 22.7645C15.9569 22.7767 15.9949 22.7974 16.0275 22.8251C16.0601 22.8528 16.0868 22.887 16.1058 22.9256C16.1249 22.9641 16.1359 23.0063 16.1382 23.0494C16.1405 23.0924 16.134 23.1355 16.1192 23.176C16.3892 23.176 16.3892 22.7645 16.3892 22.7645C16.4778 22.767 16.5659 22.7499 16.6472 22.7143C16.7286 22.6788 16.8013 22.6257 16.8604 22.5588C18.2067 21.1947 18.1397 20.7071 18.0787 20.5116C18.038 20.4029 17.9749 20.3041 17.8937 20.2218C17.8125 20.1395 17.715 20.0756 17.6076 20.0343C16.9984 19.9664 15.9242 21.063 15.7232 22.0814C15.5892 22.0814 15.3861 22.1493 15.3861 22.3551C15.4531 22.3551 15.6562 22.2872 15.7232 22.423C15.7232 22.423 15.1851 23.0402 14.982 23.2459C14.8979 22.7965 14.8754 22.3375 14.915 21.8819C14.982 21.814 15.1181 22.0876 15.1851 22.0876C15.3881 22.0876 15.2521 21.6761 15.2521 21.5424C15.3861 21.3367 15.5892 20.9252 15.5892 20.9252C15.9263 19.2196 14.915 19.0735 14.7769 19.0735C14.6388 19.0735 13.4976 19.1414 13.9647 20.9252C13.9647 20.9252 14.1677 21.3367 14.3018 21.5424C14.3018 21.6782 14.0987 22.0876 14.3688 22.0876C14.4358 22.0876 14.5718 21.814 14.6388 21.8819C14.6785 22.3375 14.6559 22.7965 14.5718 23.2459C14.301 22.9946 14.0529 22.7192 13.8307 22.423C13.8977 22.2872 14.0337 22.3551 14.1677 22.3551C14.1007 22.0814 13.9647 22.0814 13.8307 22.0814C13.6276 20.991 12.5514 19.8985 11.9462 20.0343C11.8332 20.065 11.7302 20.1252 11.6475 20.209C11.5648 20.2928 11.5054 20.3972 11.4751 20.5116C11.4081 20.6474 11.3411 21.1947 12.6935 22.5588C12.8275 22.6267 13.0306 22.6945 13.1646 22.7645C13.1646 22.7645 13.1646 23.176 13.4347 23.176C13.3007 22.8344 13.5017 22.7645 13.6377 22.7645C14.0536 23.0692 14.3607 23.5024 14.5129 23.9989C14.368 23.9426 14.211 23.9255 14.0576 23.9493C13.9041 23.9731 13.7594 24.037 13.6377 24.1347C13.8408 23.9989 14.2469 24.4084 14.2469 24.5462C14.2469 24.5462 13.7758 24.4104 13.6377 24.7519C13.9078 24.7519 14.5129 24.9577 14.2469 25.5029C13.4034 24.8417 12.6357 24.0868 11.9584 23.2521C11.9162 22.6371 11.7052 22.0464 11.3492 21.5465C10.608 22.5752 10.273 21.4107 10.74 21.0692C10.874 20.8635 10.2689 21.1371 10.2689 21.1371C9.7308 21.4107 9.05054 21.3428 9.2536 20.454C9.32061 20.3183 9.65973 20.3861 9.79172 20.454C9.79172 20.454 9.72471 20.1125 8.97947 20.1125C8.79251 20.132 8.61548 20.2073 8.47086 20.3289C8.32625 20.4506 8.22056 20.613 8.16721 20.7956C7.29201 19.7669 8.16721 18.5448 8.16721 18.4769C8.1002 18.4769 7.62909 18.7505 7.42603 18.8184C7.35467 18.6209 7.23816 18.4434 7.08603 18.3004C6.93391 18.1573 6.7505 18.0528 6.55083 17.9954C6.95695 19.4356 5.53551 19.2299 5.47459 18.5407C5.40758 17.586 6.28684 18.1292 6.21577 18.4049C6.48585 18.1312 6.14876 17.5181 5.87869 17.2445C6.01271 17.0388 6.55286 16.1541 6.55286 16.1541C6.32231 16.2859 6.07189 16.3784 5.81168 16.4277C5.84708 16.3337 5.86067 16.2327 5.85141 16.1326C5.84215 16.0324 5.81028 15.9357 5.75827 15.85C5.70626 15.7643 5.6355 15.6919 5.55145 15.6383C5.46741 15.5847 5.37232 15.5514 5.27356 15.541C5.13954 15.6089 5.81168 16.1582 5.20655 16.3639C3.45614 15.2735 6.28278 13.0906 6.95695 13.5679C6.87705 13.3713 6.73183 13.2092 6.54641 13.1097C6.361 13.0101 6.14707 12.9793 5.94164 13.0227C5.80762 12.817 5.80762 12.136 5.12938 12.0681C5.2384 12.1893 5.29882 12.3474 5.29882 12.5115C5.29882 12.6755 5.2384 12.8336 5.12938 12.9548C5.06237 12.6812 4.18717 12.6812 3.85008 13.572C4.52425 13.2305 4.66234 14.1893 3.85008 14.1173C3.58001 14.0494 2.97488 13.572 3.71606 12.4117C4.25418 11.457 5.73654 10.7658 5.73654 10.7061C5.34725 10.5502 4.93602 10.4578 4.51816 10.4324C4.45115 10.2267 5.79746 9.40375 5.5944 7.43071L5.46038 7.4986C5.48042 7.43568 5.48751 7.36927 5.48122 7.30347C5.47493 7.23766 5.45538 7.17387 5.42379 7.11602C5.39219 7.05817 5.34922 7.0075 5.29754 6.96715C5.24586 6.92679 5.18655 6.89759 5.12329 6.88138C5.12329 7.01717 5.25731 7.83601 4.78621 8.17754C4.63119 8.11403 4.50438 7.99537 4.4296 7.84384C4.35482 7.69231 4.33721 7.51834 4.38008 7.35458C4.11752 7.63694 3.95224 7.99783 3.90897 8.38328C3.57189 8.24749 3.2348 7.9718 2.76369 8.10965C2.89772 8.31539 3.10078 8.45117 3.16982 8.72686C3.24133 8.92103 3.26021 9.13106 3.2245 9.33512C3.18879 9.53918 3.09979 9.72982 2.96676 9.88724C2.89975 9.61361 2.69668 9.54571 2.69668 9.06428C2.3596 9.20007 2.76369 10.7699 2.22558 10.8378C2.01868 10.5886 1.90002 10.2764 1.88849 9.95102C1.72768 10.161 1.61418 10.404 1.55595 10.6631C1.49771 10.9222 1.49616 11.1911 1.5514 11.4509C1.61842 11.7245 2.62764 13.9753 1.34834 13.3601C1.14528 13.1544 1.14528 12.6092 0.942214 12.4055C0.840533 12.6421 0.788058 12.8974 0.788058 13.1554C0.788058 13.4135 0.840533 13.6687 0.942214 13.9053C0.701081 13.9313 0.47601 14.0402 0.304546 14.2139C0.133081 14.3876 0.0255891 14.6157 0 14.86C0.322942 14.6837 0.686153 14.5972 1.05277 14.6091C1.41939 14.621 1.77637 14.731 2.08749 14.9279C2.22151 14.9958 3.30587 16.0882 2.08749 16.4277C1.68136 16.4277 1.41332 15.8105 1.41332 15.8105C1.32792 16.2442 1.40554 16.6946 1.63094 17.0733C1.85634 17.452 2.21326 17.7317 2.6317 17.8576C2.90178 18.0633 3.16982 18.3349 3.10281 18.6806C2.83273 19.2258 2.49362 18.2691 2.49362 18.2691C2.38426 18.4401 2.3206 18.6369 2.30885 18.8403C2.2971 19.0437 2.33768 19.2467 2.42661 19.4294C2.42661 19.4294 1.61435 19.9747 2.42661 20.9992C3.77292 18.2032 5.52333 19.9705 5.11923 20.5219C4.91617 20.8635 4.44506 20.7956 4.10391 20.7956C4.13105 21.0385 4.2523 21.2605 4.441 21.4128C4.32598 21.554 4.24724 21.7218 4.21181 21.9013C4.17638 22.0808 4.18536 22.2664 4.23794 22.4415C4.43079 22.1105 4.72905 21.8558 5.0837 21.7193C5.43835 21.5829 5.82827 21.5727 6.18938 21.6905C6.3234 21.7584 6.93056 22.1679 6.05535 22.5773C5.9806 22.7024 5.93478 22.8431 5.92133 22.9888C6.79653 22.3715 8.61395 22.5114 9.01805 23.0566C9.22111 23.7397 8.54694 23.7397 8.40886 23.8796C8.55444 24.0554 8.75718 24.1727 8.98056 24.2104C9.20394 24.2481 9.43327 24.2038 9.62724 24.0853C9.76126 24.2911 9.56023 24.4968 9.56023 24.7026C9.72756 24.7071 9.89365 24.6723 10.0455 24.6009C10.1973 24.5295 10.3308 24.4235 10.4354 24.2911C10.6038 24.4849 10.8109 24.6401 11.043 24.7466C11.2751 24.853 11.527 24.9081 11.7817 24.9083C11.8488 24.7725 11.7147 24.6347 11.7817 24.4968C12.1879 24.361 13.3311 25.7313 13.7332 26.5439C13.6525 26.5279 13.5692 26.5336 13.4914 26.5603C13.4136 26.5871 13.344 26.634 13.2896 26.6964C13.2352 26.7588 13.1979 26.8345 13.1813 26.916C13.1647 26.9975 13.1694 27.0821 13.1951 27.1612C13.7332 26.6159 13.9362 27.3669 14.1373 27.5726C14.3403 27.8463 13.8672 27.7084 13.8002 27.9142C13.9656 27.9925 14.1047 28.1182 14.2004 28.2758C14.296 28.4334 14.344 28.616 14.3383 28.8009H16.0217C16.016 28.616 16.064 28.4334 16.1596 28.2758C16.2553 28.1182 16.3944 27.9925 16.5598 27.9142C16.5598 27.6405 16.0887 27.8463 16.2227 27.5726C16.4258 27.3669 16.6289 26.618 17.165 27.1612C17.1859 27.0824 17.1872 26.9996 17.1688 26.9202C17.1504 26.8408 17.1129 26.7672 17.0596 26.7061C17.0063 26.6449 16.9389 26.5981 16.8633 26.5698C16.7878 26.5415 16.7066 26.5326 16.6268 26.5439C16.9639 25.721 18.1762 24.361 18.5783 24.4968C18.6453 24.6326 18.5113 24.7705 18.5783 24.9083C19.0866 24.8769 19.5658 24.6572 19.9246 24.2911C20.0292 24.4235 20.1627 24.5295 20.3145 24.6009C20.4664 24.6723 20.6325 24.7071 20.7998 24.7026C20.7998 24.4968 20.5967 24.2911 20.7328 24.0853C21.0699 24.2211 21.608 24.4269 21.9512 23.8796C21.8171 23.8117 21.1389 23.7438 21.342 23.0566C21.7481 22.4394 23.4965 22.3736 24.4387 22.9888C24.4481 22.9144 24.4409 22.8388 24.4177 22.7676C24.3946 22.6964 24.3559 22.6314 24.3047 22.5773C23.4295 22.1658 23.9676 21.7543 24.1706 21.6905C24.5317 21.5727 24.9217 21.5829 25.2763 21.7193C25.631 21.8558 25.9292 22.1105 26.1221 22.4415C26.1616 22.2652 26.164 22.0824 26.129 21.9052C26.094 21.7279 26.0224 21.5601 25.919 21.4128C26.0287 21.3547 26.1192 21.2652 26.1791 21.1555C26.239 21.0458 26.2658 20.9206 26.2561 20.7956C25.919 20.8635 25.3809 20.8635 25.2408 20.5219C24.8347 19.9047 26.5871 18.2032 27.9334 20.9992C28.7457 19.9705 27.9334 19.4294 27.9334 19.4294C28.0233 19.247 28.0645 19.0438 28.0527 18.8402C28.0409 18.6366 27.9767 18.4397 27.8664 18.2691C27.8664 18.2691 27.5293 19.2237 27.2572 18.6806C27.1902 18.339 27.4603 18.0633 27.7283 17.8576C28.1502 17.7372 28.5109 17.4586 28.7373 17.0783C28.9636 16.698 29.0385 16.2447 28.9467 15.8105C28.9467 15.8105 28.6766 16.4935 28.2725 16.4277C26.6561 16.078 27.7263 14.9855 27.8603 14.9176Z" fill="white"/>
</svg>
