<svg width="30" height="28" viewBox="0 0 30 28" fill="none" xmlns="http://www.w3.org/2000/svg">
<path d="M17.2286 6.28147L18.7089 5.32684L20.1303 6.28147L19.6592 4.63556L20.9385 3.60686H19.314L18.6399 1.96094L18.0307 3.60686H16.4062L17.6855 4.63556L17.2286 6.28147Z" fill="white"/>
<path d="M9.89123 14.4026L11.3715 13.4479L12.7929 14.4026L12.3218 12.7566L13.6011 11.728H11.9766L11.3025 10.082L10.6933 11.728H9.06885L10.3481 12.7566L9.89123 14.4026Z" fill="white"/>
<path d="M23.556 0H6.45605V0.341529C6.45605 0.341529 6.59008 0.477318 6.65912 0.477318C6.84087 0.567239 6.99767 0.701587 7.11536 0.868247C7.23306 1.03491 7.30796 1.22863 7.33329 1.43195V14.4614C7.32174 14.7375 7.34425 15.014 7.4003 15.2844C7.51775 15.8322 7.82908 16.3174 8.2755 16.6485C8.681 16.9685 9.18304 17.1371 9.69695 17.1258H13.9288C14.1513 17.1349 14.3677 17.2026 14.5565 17.3224C14.7452 17.4422 14.8998 17.6099 15.005 17.8088L15.072 17.9446L15.139 17.8767C15.2309 17.68 15.374 17.5125 15.5529 17.3921C15.7318 17.2717 15.9398 17.2031 16.1544 17.1937H20.3964C20.9103 17.205 21.4123 17.0364 21.8178 16.7164C22.0437 16.5727 22.2379 16.3835 22.3885 16.1605C22.539 15.9375 22.6427 15.6855 22.693 15.4202C22.749 15.1498 22.7715 14.8733 22.76 14.5972V1.64592C22.7867 1.45151 22.8628 1.26748 22.9811 1.11199C23.0993 0.956491 23.2555 0.834897 23.4342 0.75918C23.5012 0.75918 23.6372 0.55344 23.6372 0.55344L23.556 0ZM8.47451 3.13753C8.40749 3.00174 8.54152 2.8639 8.67757 2.796C8.77268 2.8063 8.86832 2.78226 8.94764 2.72811C8.88063 2.52237 8.88063 2.25079 9.08166 2.1829H9.28473C9.2595 2.12597 9.2524 2.0625 9.26441 2.00129C9.27642 1.94009 9.30694 1.8842 9.35174 1.84137C9.48576 1.77348 9.75786 1.77348 9.75786 1.49984C9.82488 1.43195 9.89189 1.36406 9.96093 1.36406C10.164 1.29616 10.3671 1.56979 10.3671 1.22827C10.5701 0.886739 11.0412 1.22827 11.3093 1.09248C11.5123 1.16037 11.5123 1.36611 11.6464 1.50396C11.7198 1.41671 11.8153 1.35143 11.9227 1.31518C12.03 1.27892 12.1451 1.27306 12.2555 1.29822C12.3896 1.36611 12.5256 1.36612 12.5926 1.57185C12.5926 1.63975 12.5926 1.63974 12.6596 1.70764C12.7937 1.63974 12.8627 1.57185 12.9967 1.63975C13.0857 1.6802 13.1593 1.74878 13.2065 1.83521C13.2538 1.92164 13.2721 2.02126 13.2587 2.11912C13.3927 2.11912 13.4617 2.05123 13.5958 2.18701C13.5288 2.18701 13.3257 2.3228 13.5288 2.39275C13.5958 2.39275 13.5958 2.52854 13.5958 2.52854C13.6628 2.59644 13.7988 2.59644 13.7988 2.73428C13.8658 2.94002 13.6648 3.07581 13.7988 3.27949C13.7988 3.34739 13.7318 3.41528 13.7988 3.48523C13.8658 3.48523 13.9328 3.55312 14.0689 3.55312C14.1301 3.65548 14.1538 3.77637 14.1359 3.89465C14.2029 4.16829 13.6648 4.10039 13.9329 4.37197C13.9329 4.50776 13.8658 4.57771 13.7298 4.6456C13.6628 4.7135 13.5958 4.57771 13.5267 4.6456C13.539 4.74409 13.5193 4.84396 13.4706 4.93009C13.4218 5.01621 13.3467 5.0839 13.2566 5.12292C13.1226 5.12292 12.9196 5.19081 12.7855 5.12292L12.5825 4.84929C12.5143 4.92067 12.4277 4.97123 12.3326 4.99524C12.2375 5.01924 12.1376 5.01572 12.0444 4.98508C11.7073 4.84929 12.0444 4.36785 11.7073 4.23412C11.4372 4.16623 11.1692 4.43986 11.0331 4.6456H10.9661C10.7605 4.31743 10.5806 3.97348 10.428 3.6169C10.361 3.6169 10.361 3.61691 10.361 3.6848C10.4718 4.07905 10.6543 4.44886 10.8991 4.77522C10.9661 4.84311 10.9661 4.91101 11.1021 4.84312C11.1565 4.73164 11.232 4.63211 11.3243 4.55021C11.4167 4.46831 11.524 4.40564 11.6403 4.3658C11.6953 4.5184 11.7182 4.68101 11.7073 4.84312C11.5988 4.97422 11.5187 5.12694 11.4722 5.29138C11.4257 5.45583 11.4138 5.62833 11.4372 5.79775V6.4808C11.4106 7.04948 11.5266 7.61571 11.7743 8.12672C11.5712 8.26251 11.3032 8.12672 11.1651 8.05883C10.962 8.05883 10.895 8.19461 10.694 8.19461C10.627 8.12672 10.56 8.19461 10.4909 8.12672C10.962 7.71524 10.761 7.0363 10.828 6.42114C10.7722 6.22055 10.7496 6.01199 10.761 5.80392C10.7937 5.60811 10.7802 5.40724 10.7216 5.21773C10.663 5.02822 10.561 4.85544 10.4239 4.7135C10.2714 4.43523 10.158 4.13678 10.0868 3.82676C10.0868 3.75887 10.0198 3.75886 9.95281 3.75886C9.8858 3.82676 9.8858 4.0325 9.74974 4.10039C9.54668 4.23618 9.41266 3.82676 9.21163 4.10039C9.14462 4.10039 9.00856 4.0325 9.00856 3.9646C9.00856 3.9466 9.0015 3.92933 8.98893 3.9166C8.97637 3.90386 8.95932 3.89671 8.94155 3.89671C8.87454 3.89671 8.87454 3.89671 8.87454 3.9646C8.8732 4.03513 8.89155 4.10461 8.92748 4.16503C8.9634 4.22545 9.01544 4.27436 9.0776 4.30613H9.34768C9.41469 4.10039 9.55074 4.30613 9.61775 4.30613H10.0239C10.1361 4.65866 10.3193 4.98374 10.562 5.26077C10.562 5.32866 10.562 5.46651 10.495 5.46651C10.2919 5.26077 10.2919 5.6023 10.1579 5.6023C10.0239 5.6023 9.95484 5.60229 9.88783 5.5344L9.75381 5.32866C9.61978 5.32866 9.48373 5.39656 9.41672 5.26077V5.05503C9.29998 5.07314 9.18066 5.04911 9.07963 4.98713C8.94561 4.91924 9.07963 4.57565 8.80956 4.57565C8.73646 4.53259 8.67409 4.47309 8.62727 4.40175C8.58044 4.33041 8.55041 4.24913 8.53948 4.16417C8.53948 4.02838 8.6065 3.82264 8.40547 3.75269C8.36143 3.71184 8.32752 3.66105 8.30649 3.60444C8.28546 3.54783 8.27791 3.48699 8.28443 3.42686C8.29096 3.36673 8.31139 3.30901 8.34406 3.25838C8.37673 3.20776 8.42073 3.16564 8.47247 3.13547L8.47451 3.13753ZM15.139 17.1278C14.4649 16.7164 14.1968 16.4448 13.5897 16.5106H9.2827C8.95984 16.449 8.65861 16.3025 8.40916 16.0859C8.15971 15.8692 7.97077 15.59 7.86125 15.2762L7.79424 15.2083L7.72723 14.731V8.87356H15.133L15.139 17.1278ZM15.4761 13.4451C15.5115 13.1207 15.5795 12.8008 15.6792 12.4905C15.6949 12.3754 15.7173 12.2613 15.7462 12.1489C15.6306 11.9658 15.5831 11.747 15.6122 11.5317C15.6147 11.384 15.6615 11.2405 15.7462 11.1202C15.8088 10.9258 15.8998 10.742 16.0163 10.575C16.2193 10.1635 16.2864 9.82408 16.4874 9.41465C16.6214 9.20891 17.0255 9.27886 17.2286 9.34676C17.2956 9.34676 17.3626 9.48254 17.3626 9.48254C17.4966 9.48254 17.5657 9.68829 17.5657 9.89402C17.5935 10.1303 17.5466 10.3695 17.4316 10.5771V10.9186C17.2976 10.9186 17.0945 10.9186 17.0255 10.7129C16.8915 10.645 16.6884 10.7129 16.5544 10.5771C16.0163 10.5771 15.9452 11.0544 15.8132 11.4638C15.8132 11.5317 15.7462 11.5996 15.7462 11.6696C15.6792 11.7375 15.7462 11.8753 15.7462 11.9432C15.9493 12.0111 15.8132 12.2847 15.8132 12.4205C15.7462 12.832 15.7462 13.2435 15.4761 13.4492C15.4782 13.5788 15.5452 13.443 15.4782 13.443L15.4761 13.4451ZM17.8317 11.8753C17.795 11.8801 17.7577 11.8764 17.7225 11.8647C17.6874 11.8529 17.6553 11.8334 17.6286 11.8074C17.6956 11.7395 17.6286 11.6017 17.6286 11.5338C17.6286 11.4659 17.6286 11.4659 17.6956 11.4659C17.6956 11.3301 17.6956 11.1243 17.9657 11.1922C17.9994 11.2426 18.0174 11.3021 18.0174 11.363C18.0174 11.4239 17.9994 11.4834 17.9657 11.5338C17.9007 11.6696 17.9007 11.8074 17.8337 11.8753H17.8317ZM17.7647 12.4925H17.6976C17.6879 12.4079 17.6948 12.3222 17.7178 12.2403C17.7408 12.1584 17.7795 12.0819 17.8317 12.0152C17.8563 12.0948 17.8631 12.179 17.8515 12.2615C17.8399 12.3441 17.8102 12.423 17.7647 12.4925ZM17.5616 12.2868C17.5616 12.3547 17.4946 12.4226 17.4946 12.4925C17.4946 12.5625 17.4946 12.5604 17.4276 12.6283H17.3606V12.5501C17.3606 12.3444 17.3606 12.1386 17.4946 12.0728C17.6286 12.007 17.5636 12.2148 17.5636 12.2847L17.5616 12.2868ZM16.2153 11.8095C16.1483 11.7416 16.2153 11.6737 16.2153 11.5358V11.4L16.4183 10.9227C16.4854 10.8548 16.5524 10.7869 16.6214 10.8548C16.6905 10.9227 16.6214 10.9906 16.6214 11.1285L16.4874 11.6058L16.4204 11.8115C16.3534 11.8074 16.2173 11.8753 16.2173 11.8074L16.2153 11.8095ZM16.2823 12.3547V12.4905C16.264 12.7616 16.1704 13.0219 16.0122 13.2414H15.9452C15.9571 12.9862 16.0021 12.7337 16.0792 12.4905C16.1462 12.3547 16.1462 12.2168 16.2132 12.079C16.2132 12.0111 16.2803 12.079 16.3473 12.079C16.3534 12.1386 16.2843 12.2847 16.2843 12.3444L16.2823 12.3547ZM16.3493 12.832L16.4163 12.5584L16.4833 12.1469C16.51 12.1209 16.5421 12.1013 16.5773 12.0896C16.6124 12.0778 16.6497 12.0742 16.6864 12.079C16.6864 12.2148 16.6194 12.3526 16.6194 12.4905C16.544 12.639 16.4985 12.8013 16.4854 12.9678C16.4184 12.9678 16.4183 13.0357 16.3513 12.9678L16.3493 12.832ZM16.6864 11.8033V11.5297C16.6984 11.318 16.7436 11.1097 16.8204 10.9124C16.8571 10.9077 16.8944 10.9113 16.9295 10.923C16.9647 10.9348 16.9968 10.9544 17.0235 10.9803C17.0235 11.1861 16.9565 11.3219 16.9565 11.5255C16.9565 11.6613 16.8895 11.7313 16.8895 11.7992C16.7554 11.8719 16.6884 11.8746 16.6884 11.8074L16.6864 11.8033ZM16.8895 12.4863C16.9642 12.3612 17.01 12.2205 17.0235 12.0749L17.0905 12.007C17.1575 12.007 17.2245 12.007 17.2245 12.0749C17.2245 12.2107 17.1575 12.3485 17.1575 12.4863C17.1553 12.6129 17.1077 12.7343 17.0235 12.8279H16.9565C16.8245 12.7559 16.8245 12.6242 16.8915 12.4884L16.8895 12.4863ZM17.1595 11.8033V11.326L17.2265 11.1202C17.3216 11.1099 17.4173 11.134 17.4966 11.1881C17.5145 11.3064 17.4908 11.4273 17.4296 11.5297C17.4296 11.5976 17.3626 11.7354 17.3626 11.8033C17.3509 11.8194 17.3356 11.8326 17.318 11.8416C17.3003 11.8507 17.2808 11.8554 17.2611 11.8554C17.2413 11.8554 17.2218 11.8507 17.2041 11.8416C17.1865 11.8326 17.1712 11.8194 17.1595 11.8033ZM17.1595 14.0541C17.0693 14.2662 16.93 14.4532 16.7534 14.5993H16.6864C16.7581 14.3948 16.8732 14.2087 17.0235 14.0541C17.0925 13.9903 17.1595 13.9903 17.1595 14.0582V14.0541ZM17.4296 14.2598C17.4272 14.295 17.4123 14.3282 17.3877 14.3532C17.3631 14.3781 17.3303 14.3932 17.2956 14.3956H17.2286C17.2224 14.332 17.2314 14.2678 17.2547 14.2084C17.278 14.149 17.315 14.0961 17.3626 14.0541L17.4296 13.9862C17.4296 13.9862 17.4966 14.0541 17.4296 14.0541C17.4966 14.1261 17.4296 14.196 17.4296 14.2619V14.2598ZM17.4966 13.7825C17.4296 13.7825 17.3626 13.8504 17.2935 13.7825C17.2935 13.5768 17.4966 13.441 17.6306 13.3052C17.7647 13.3052 17.9007 13.1694 17.9677 13.3052H18.0347C18.0347 13.2373 17.9677 13.1694 17.9007 13.0995C17.7261 13.0928 17.5529 13.1335 17.399 13.2175C17.2451 13.3014 17.1162 13.4254 17.0255 13.5768L16.8915 14.0541L16.2173 15.019C16.1503 15.2247 16.4204 15.1548 16.4874 15.2926C16.3941 15.262 16.2943 15.2585 16.1991 15.2825C16.104 15.3065 16.0174 15.357 15.9493 15.4284C15.8823 15.3605 15.8823 15.1548 15.7462 15.1548C15.8132 15.0869 15.9493 15.1548 16.0163 15.0869C16.2864 14.7454 16.4874 14.4038 16.7575 14.0582C16.9661 13.7287 17.1911 13.41 17.4316 13.1036C17.5051 13.0163 17.6006 12.951 17.708 12.9148C17.8153 12.8785 17.9304 12.8727 18.0408 12.8978C18.1748 12.8978 18.2439 13.0336 18.3109 13.1036C18.3574 13.2631 18.3695 13.4309 18.3464 13.5957C18.3233 13.7604 18.2655 13.9181 18.1769 14.0582C18.1769 14.1261 18.1099 14.1261 18.1099 14.194V13.9203C18.0429 13.7846 17.9758 13.7846 17.8398 13.8525C17.6997 13.8525 17.6306 13.7846 17.4966 13.7846V13.7825ZM18.3718 10.0998C18.5058 10.0319 18.6419 10.0998 18.7779 10.0319C18.9058 10.0878 19.0453 10.1111 19.1841 10.0998C19.1841 10.2356 18.914 10.1677 18.914 10.3734V10.7849C18.9053 10.7758 18.8949 10.7685 18.8834 10.7636C18.8719 10.7586 18.8595 10.7561 18.847 10.7561C18.8349 10.7537 18.8225 10.7537 18.8104 10.7561C18.799 10.7608 18.7887 10.7678 18.78 10.7767C18.713 10.7767 18.78 10.8445 18.713 10.8445C18.646 10.8445 18.5789 10.7088 18.5099 10.7767C18.5099 10.7767 18.4429 10.8445 18.4429 10.7767V10.5709C18.3759 10.4351 18.1728 10.4351 18.0368 10.4351C18.1708 10.3055 18.3048 10.2376 18.3718 10.1018V10.0998ZM18.2378 9.41671C18.3048 9.34881 18.3048 9.41671 18.2378 9.41671C18.2465 9.40762 18.2569 9.4004 18.2684 9.39547C18.2799 9.39054 18.2923 9.388 18.3048 9.388C18.3173 9.388 18.3297 9.39054 18.3412 9.39547C18.3527 9.4004 18.3631 9.40762 18.3718 9.41671H18.5058C18.5728 9.34881 18.5058 9.07518 18.7089 9.14308C18.7759 9.21097 18.7089 9.41671 18.8429 9.41671H18.9099C18.9769 9.41671 19.113 9.28092 19.18 9.41671C19.18 9.4846 19.113 9.5525 19.046 9.69034C18.8001 9.65617 18.5507 9.65617 18.3048 9.69034C18.3048 9.62451 18.2378 9.48666 18.2378 9.41877V9.41671ZM17.7667 14.0561C17.7667 13.9882 17.8337 13.9882 17.9007 13.9882V14.0561C17.9007 14.124 17.8337 14.1919 17.8337 14.2619C17.825 14.271 17.8146 14.2782 17.8031 14.2831C17.7916 14.288 17.7792 14.2906 17.7667 14.2906C17.7542 14.2906 17.7418 14.288 17.7303 14.2831C17.7188 14.2782 17.7084 14.271 17.6997 14.2619C17.695 14.2247 17.6985 14.1869 17.7101 14.1513C17.7217 14.1157 17.7411 14.0832 17.7667 14.0561ZM19.8542 15.1486C19.8542 15.1486 19.5171 14.875 19.3161 14.6713C19.249 14.6034 19.2491 14.6713 19.2491 14.7392C19.413 15.0411 19.6181 15.3182 19.8582 15.5622L19.9252 15.63C19.8582 15.63 19.7912 15.6301 19.7912 15.5622C19.6477 15.485 19.5303 15.3661 19.4541 15.2206C19.3201 15.0848 19.3201 14.8091 19.1171 14.7433L19.05 14.8112C19.084 15.0603 19.084 15.313 19.05 15.5622C19.0548 15.5993 19.0512 15.6371 19.0396 15.6727C19.028 15.7083 19.0087 15.7409 18.983 15.7679C18.916 15.8358 18.849 15.7 18.78 15.6321V15.5642C18.78 15.2906 18.713 15.019 18.713 14.8133C18.713 14.7454 18.646 14.8133 18.5789 14.8133C18.4851 15.1067 18.3482 15.3841 18.1728 15.6362C18.07 15.7198 17.9567 15.789 17.8357 15.842C17.8357 15.7741 17.9027 15.7062 17.9698 15.6362C18.1308 15.4011 18.2669 15.1493 18.3759 14.8853C18.3759 14.8174 18.3759 14.7495 18.3089 14.7495C18.1748 14.8174 18.1058 15.0231 17.9718 15.091C17.9396 15.1326 17.8987 15.1664 17.8519 15.1899C17.8052 15.2134 17.7539 15.226 17.7017 15.2268C17.7687 15.0211 17.9048 14.8853 17.9718 14.6816C18.0577 14.4621 18.171 14.2547 18.3089 14.0644C18.5119 13.7228 18.646 13.3813 18.3759 13.0357C18.261 12.8924 18.1698 12.7312 18.1058 12.5584C18.0388 12.2438 18.0388 11.9183 18.1058 11.6037C18.1058 11.5358 18.1728 11.398 18.1728 11.3301C18.2398 11.1943 18.3068 10.9186 18.5789 10.9886C18.646 11.0565 18.713 11.1243 18.782 11.0565C18.782 10.9886 18.849 10.9886 18.916 10.9886C18.983 11.0565 18.983 11.1244 19.05 11.1244C18.983 11.1244 19.05 11.0565 19.05 11.1244C19.1841 11.2601 19.1171 11.4659 19.1171 11.6696C19.1171 11.9432 19.2511 12.2148 19.2511 12.4205C19.2511 12.4884 19.3181 12.5563 19.2511 12.6262C19.1841 12.832 19.1171 13.1036 19.048 13.3093C19.0335 13.6277 19.129 13.9413 19.3181 14.196C19.3181 14.196 19.2511 14.196 19.3181 14.2639L19.8542 15.1486ZM19.7202 14.0561V14.196C19.6854 14.1936 19.6527 14.1786 19.628 14.1536C19.6034 14.1286 19.5885 14.0955 19.5861 14.0603V13.8545C19.7181 13.8525 19.7181 13.9903 19.7181 14.0582L19.7202 14.0561ZM20.0572 14.3298C19.9864 14.2543 19.9396 14.159 19.9232 14.0561V13.8504H19.9496C19.9579 13.8537 19.9655 13.8585 19.972 13.8648C19.9846 13.8773 19.9919 13.8943 19.9923 13.9121V14.0479C20.0552 14.1961 20.1222 14.2619 20.0552 14.3298H20.0572ZM20.5954 14.5355C20.4613 14.6034 20.3923 14.3997 20.3253 14.3298C20.3089 14.227 20.2622 14.1316 20.1913 14.0561C20.1913 13.9882 20.1913 13.9203 20.2583 13.9203L20.3923 14.0561C20.4446 14.1787 20.5129 14.2936 20.5954 14.3977V14.5355ZM21.2695 15.2186C21.2345 15.1386 21.1776 15.0704 21.1057 15.0219C21.0338 14.9735 20.9498 14.9468 20.8634 14.9449C20.9304 14.877 20.9974 14.7392 20.9304 14.6713L20.5243 14.0541L20.1182 13.371C19.9151 13.2352 19.7811 13.0295 19.58 13.1653C19.513 13.1653 19.513 13.2332 19.513 13.3011C19.58 13.369 19.7161 13.3011 19.7831 13.3011C19.862 13.3366 19.9294 13.3942 19.9772 13.467C20.025 13.5399 20.0514 13.6251 20.0532 13.7126C20.0031 13.6792 19.9445 13.6614 19.8846 13.6614C19.8247 13.6614 19.7661 13.6792 19.7161 13.7126C19.5821 13.6447 19.446 13.8483 19.379 13.6447C19.379 13.4389 19.245 13.1673 19.379 13.0274C19.5598 12.9105 19.7757 12.8624 19.9882 12.8917C20.1222 12.9595 20.1913 13.0974 20.3253 13.2332L20.7964 14.0561L21.2025 14.7392C21.2695 14.875 21.4726 14.8071 21.5396 14.9449C21.4015 14.9449 21.3345 15.0807 21.2675 15.2247L21.2695 15.2186ZM21.0665 12.3547C21.0665 12.4226 21.1335 12.4905 21.1335 12.5604C21.2173 12.7299 21.263 12.9161 21.2675 13.1056C21.2675 13.1735 21.2005 13.1735 21.2005 13.1056C21.0712 12.9467 20.9789 12.7604 20.9304 12.5604C20.8505 12.4069 20.7826 12.2473 20.7274 12.0831C20.7274 12.0152 20.7274 11.9473 20.7944 11.9473C20.9304 11.9329 20.9974 12.1386 21.0644 12.3444L21.0665 12.3547ZM20.8634 10.9145L20.9304 10.8466C21.2005 10.9145 21.2005 11.2581 21.3365 11.5297V11.5975C21.3342 11.6328 21.3193 11.6659 21.2947 11.6909C21.27 11.7159 21.2373 11.7309 21.2025 11.7333C21.1355 11.7333 21.1355 11.7333 21.0685 11.6654V11.5975C21.0644 11.328 20.8634 11.1244 20.8634 10.9186V10.9145ZM20.7964 11.7375H20.6624C20.6367 11.7104 20.6174 11.6779 20.6058 11.6423C20.5942 11.6067 20.5907 11.5689 20.5954 11.5317C20.5284 11.3959 20.5284 11.2581 20.4613 11.1202C20.4613 11.0523 20.4613 11.0523 20.5283 10.9844C20.7314 10.9844 20.7314 11.2581 20.8654 11.4618V11.5975C20.8615 11.6516 20.8367 11.7018 20.7964 11.7375ZM20.6624 12.2827C20.6624 12.3506 20.7294 12.4185 20.7294 12.4884C20.7294 12.5584 20.7964 12.6941 20.7964 12.762C20.6624 12.762 20.6624 12.6262 20.5933 12.5563V12.4884C20.5263 12.2827 20.3903 12.1469 20.4593 12.0111C20.5263 12.079 20.5933 12.2148 20.6603 12.2847L20.6624 12.2827ZM20.3253 11.8053C20.1222 11.8732 20.0552 11.7375 20.0552 11.5317C20.0552 11.4638 20.0552 11.326 19.9882 11.326C19.9882 11.2581 20.0552 11.1202 20.1222 11.1202C20.3923 11.1202 20.3253 11.3939 20.3923 11.5317C20.3923 11.5497 20.3994 11.567 20.4119 11.5797C20.4245 11.5925 20.4415 11.5996 20.4593 11.5996C20.4593 11.6696 20.4593 11.8074 20.3253 11.8074V11.8053ZM20.3923 12.5563C20.3923 12.6242 20.3253 12.5563 20.3253 12.5563C20.2505 12.4311 20.2047 12.2905 20.1913 12.1448C20.3253 12.1386 20.3923 12.3444 20.3923 12.5501V12.5563ZM20.0552 12.2148C20.0552 12.2827 20.1222 12.3506 20.1222 12.4884C20.0474 12.3633 20.0016 12.2226 19.9882 12.0769C19.9882 12.0111 20.0552 12.1386 20.0552 12.2148ZM19.8521 11.9411C19.6491 11.9411 19.6491 11.7354 19.6491 11.5297C19.6538 11.4925 19.6502 11.4547 19.6386 11.4191C19.627 11.3835 19.6077 11.351 19.5821 11.3239C19.5821 11.256 19.5821 11.256 19.6491 11.1881C19.7831 11.1202 19.8521 11.256 19.8521 11.3239C19.8521 11.3918 19.8521 11.4597 19.9192 11.4597C19.9212 11.6696 19.9882 11.8753 19.8542 11.9329L19.8521 11.9411ZM19.6491 12.009C19.7831 12.009 19.7831 12.1448 19.8521 12.2148C19.8521 12.2827 19.9192 12.4205 19.8521 12.4884V12.5501C19.7851 12.618 19.7851 12.5501 19.7181 12.4822C19.7181 12.4143 19.7181 12.4143 19.6511 12.4143C19.6511 12.2847 19.5841 12.1386 19.6511 12.0111L19.6491 12.009ZM21.5335 13.0995C21.4155 12.9075 21.3246 12.6997 21.2634 12.4822C21.1964 12.3464 21.1294 12.1407 21.0604 12.0049C21.1274 12.0049 21.0604 11.937 21.1274 11.8691C21.1622 11.8715 21.1949 11.8866 21.2195 11.9116C21.2442 11.9365 21.259 11.9697 21.2614 12.0049C21.3368 12.1535 21.3823 12.3157 21.3954 12.4822C21.4643 12.5671 21.5123 12.6672 21.5356 12.7745C21.5589 12.8818 21.5568 12.9932 21.5295 13.0995C21.6046 13.1673 21.6046 13.1015 21.5355 13.1015L21.5335 13.0995ZM21.6675 12.4822C21.5834 12.3373 21.5373 12.173 21.5335 12.0049C21.4665 11.7992 21.7366 11.7313 21.6675 11.5276C21.5944 11.1936 21.4313 10.8867 21.1964 10.6409C20.9264 10.5051 20.8593 10.8466 20.5872 10.7767C20.4532 11.0503 20.1161 10.8445 19.9131 11.0503V10.573C19.778 10.1983 19.778 9.78728 19.9131 9.41259L20.1161 9.2768C20.2488 9.21184 20.3981 9.19002 20.5435 9.21433C20.6889 9.23863 20.8233 9.30788 20.9284 9.41259C21.1478 9.77898 21.3282 10.168 21.4665 10.573C21.5335 10.6409 21.5335 10.7088 21.6005 10.8466C21.7078 11.0842 21.7764 11.3378 21.8036 11.5975V11.8712C21.6696 12.0769 21.8706 12.2827 21.9376 12.4164V12.5501C22.0371 12.8154 22.1052 13.0916 22.1407 13.3731C21.8963 13.1356 21.7321 12.826 21.6716 12.4884L21.6675 12.4822ZM22.5427 1.90926V8.86738H15.1411V0.68717H22.6138C22.2767 0.68717 22.5468 1.50601 22.5468 1.91544L22.5427 1.90926Z" fill="white"/>
<path d="M27.8603 13.7184C28.1771 13.5376 28.5324 13.437 28.8958 13.4252C29.2593 13.4134 29.6202 13.4907 29.9478 13.6505C29.8808 13.239 29.6777 12.6958 29.0056 12.6958C29.1071 12.4592 29.1596 12.2039 29.1596 11.9459C29.1596 11.6879 29.1071 11.4326 29.0056 11.196C28.8025 11.4017 28.8025 12.0189 28.5995 12.1506C27.3202 12.7678 28.3964 10.5047 28.3964 10.2414C28.4754 9.98341 28.4859 9.70891 28.4267 9.44556C28.3675 9.18222 28.2408 8.93936 28.0593 8.74152C27.9923 8.8773 27.9923 9.42457 27.7222 9.62825C27.2511 9.56036 27.5882 7.98234 27.2511 7.85478C27.3181 8.26626 27.048 8.39999 26.981 8.67774C26.848 8.52032 26.759 8.32967 26.7233 8.12561C26.6876 7.92155 26.7065 7.71153 26.778 7.51736C26.8893 7.29639 27.0256 7.08926 27.1841 6.90014C26.778 6.76435 26.4429 7.03593 26.0388 7.17377C26.0115 6.78397 25.8439 6.4179 25.5677 6.14507C25.5952 6.30818 25.5707 6.47593 25.4977 6.62394C25.4246 6.77194 25.3069 6.89248 25.1616 6.96803C24.9976 6.80126 24.8801 6.59354 24.8209 6.36591C24.7617 6.13829 24.7629 5.89885 24.8245 5.67188C24.7612 5.68809 24.7019 5.71728 24.6503 5.75764C24.5986 5.79799 24.5556 5.84866 24.524 5.90651C24.4924 5.96436 24.4729 6.02815 24.4666 6.09396C24.4603 6.15976 24.4674 6.22618 24.4874 6.28909L24.3534 6.2212C24.1503 8.19836 25.4987 9.01721 25.3687 9.22295C24.9509 9.2483 24.5396 9.34066 24.1503 9.49658C24.1503 9.56447 25.6307 10.2475 26.1708 11.2022C26.912 12.3625 26.3048 12.8481 26.0368 12.9077C25.2245 12.9756 25.3626 12.021 26.0368 12.3625C25.6997 11.4758 24.8184 11.4079 24.7575 11.7453C24.6956 11.6897 24.6461 11.6215 24.6121 11.545C24.5782 11.4686 24.5606 11.3857 24.5606 11.3019C24.5606 11.2181 24.5782 11.1353 24.6121 11.0589C24.6461 10.9824 24.6956 10.9142 24.7575 10.8586C24.0833 10.9265 24.0833 11.6815 24.0163 11.8873C23.8109 11.8439 23.5969 11.8747 23.4115 11.9742C23.2261 12.0738 23.0809 12.2359 23.001 12.4325C23.6752 11.9552 26.5018 14.1381 24.7514 15.2285C24.0772 15.0228 24.7514 14.4775 24.6844 14.4055C23.8092 14.4734 24.0752 15.3602 23.7422 15.2285C23.4852 15.1678 23.2363 15.0759 23.001 14.9549C23.2072 15.3297 23.4322 15.6937 23.6752 16.0453C23.4051 16.3189 23.066 16.932 23.3381 17.2057C23.2711 16.932 24.1503 16.3827 24.0793 17.3414C23.9452 18.0245 22.5299 18.1644 23.003 16.7962C22.5969 16.8641 22.3289 17.2735 22.1278 17.6192C21.9248 17.6192 21.5186 17.2777 21.3866 17.2777C21.3866 17.3455 22.3289 18.5738 21.3866 19.5963C21.3261 19.418 21.2183 19.2599 21.075 19.1395C20.9318 19.019 20.7586 18.9408 20.5744 18.9133C19.8332 18.9133 19.7621 19.2548 19.7621 19.2548C19.9652 19.1869 20.2332 19.119 20.3003 19.2548C20.5703 20.1416 19.8941 20.2095 19.2849 19.9379C19.2849 19.9379 18.7468 19.7321 18.8138 19.87C19.3519 20.2115 19.0169 21.3698 18.2046 20.3473C17.8323 20.8383 17.6194 21.4342 17.5954 22.0529C16.9355 22.9035 16.1658 23.6606 15.3069 24.3037C15.0368 23.7585 15.713 23.5527 15.9161 23.5527C15.8491 23.2112 15.3069 23.347 15.3069 23.347C15.3069 23.2112 15.713 22.8018 15.9161 22.9355C15.646 22.594 15.1039 22.7997 15.0409 22.7997C15.1079 22.3224 15.7151 21.771 15.9161 21.5653C15.9569 21.5775 15.9949 21.5981 16.0275 21.6258C16.0601 21.6535 16.0868 21.6878 16.1058 21.7263C16.1249 21.7649 16.1359 21.8071 16.1382 21.8501C16.1405 21.8932 16.134 21.9363 16.1192 21.9768C16.3892 21.9768 16.3892 21.5653 16.3892 21.5653C16.4778 21.5678 16.5659 21.5506 16.6472 21.5151C16.7286 21.4796 16.8013 21.4265 16.8604 21.3595C18.2067 19.9955 18.1397 19.5079 18.0787 19.3124C18.038 19.2036 17.9749 19.1049 17.8937 19.0226C17.8125 18.9403 17.715 18.8764 17.6076 18.8351C16.9984 18.7672 15.9242 19.8638 15.7232 20.8822C15.5892 20.8822 15.3861 20.9501 15.3861 21.1559C15.4531 21.1559 15.6562 21.088 15.7232 21.2238C15.7232 21.2238 15.1851 21.841 14.982 22.0467C14.8979 21.5973 14.8754 21.1383 14.915 20.6827C14.982 20.6148 15.1181 20.8884 15.1851 20.8884C15.3881 20.8884 15.2521 20.4769 15.2521 20.3432C15.3861 20.1374 15.5892 19.726 15.5892 19.726C15.9263 18.0204 14.915 17.8743 14.7769 17.8743C14.6388 17.8743 13.4976 17.9422 13.9647 19.726C13.9647 19.726 14.1677 20.1374 14.3018 20.3432C14.3018 20.479 14.0987 20.8884 14.3688 20.8884C14.4358 20.8884 14.5718 20.6148 14.6388 20.6827C14.6785 21.1383 14.6559 21.5973 14.5718 22.0467C14.301 21.7954 14.0529 21.52 13.8307 21.2238C13.8977 21.088 14.0337 21.1559 14.1677 21.1559C14.1007 20.8822 13.9647 20.8822 13.8307 20.8822C13.6276 19.7918 12.5514 18.6993 11.9462 18.8351C11.8332 18.8658 11.7302 18.926 11.6475 19.0098C11.5648 19.0936 11.5054 19.198 11.4751 19.3124C11.4081 19.4482 11.3411 19.9955 12.6935 21.3595C12.8275 21.4274 13.0306 21.4953 13.1646 21.5653C13.1646 21.5653 13.1646 21.9768 13.4347 21.9768C13.3007 21.6352 13.5017 21.5653 13.6377 21.5653C14.0536 21.87 14.3607 22.3031 14.5129 22.7997C14.368 22.7434 14.211 22.7262 14.0576 22.7501C13.9041 22.7739 13.7594 22.8378 13.6377 22.9355C13.8408 22.7997 14.2469 23.2091 14.2469 23.347C14.2469 23.347 13.7758 23.2112 13.6377 23.5527C13.9078 23.5527 14.5129 23.7585 14.2469 24.3037C13.4034 23.6425 12.6357 22.8875 11.9584 22.0529C11.9162 21.4379 11.7052 20.8472 11.3492 20.3473C10.608 21.376 10.273 20.2115 10.74 19.87C10.874 19.6642 10.2689 19.9379 10.2689 19.9379C9.7308 20.2115 9.05054 20.1436 9.2536 19.2548C9.32061 19.119 9.65973 19.1869 9.79172 19.2548C9.79172 19.2548 9.72471 18.9133 8.97947 18.9133C8.79251 18.9328 8.61548 19.0081 8.47086 19.1297C8.32625 19.2513 8.22056 19.4138 8.16721 19.5963C7.29201 18.5676 8.16721 17.3455 8.16721 17.2777C8.1002 17.2777 7.62909 17.5513 7.42603 17.6192C7.35467 17.4217 7.23816 17.2442 7.08603 17.1011C6.93391 16.9581 6.7505 16.8536 6.55083 16.7962C6.95695 18.2364 5.53551 18.0307 5.47459 17.3414C5.40758 16.3868 6.28684 16.93 6.21577 17.2057C6.48585 16.932 6.14876 16.3189 5.87869 16.0453C6.01271 15.8395 6.55286 14.9549 6.55286 14.9549C6.32231 15.0867 6.07189 15.1791 5.81168 15.2285C5.84708 15.1345 5.86067 15.0335 5.85141 14.9333C5.84215 14.8332 5.81028 14.7365 5.75827 14.6508C5.70626 14.5651 5.6355 14.4926 5.55145 14.439C5.46741 14.3855 5.37232 14.3522 5.27356 14.3418C5.13954 14.4096 5.81168 14.959 5.20655 15.1647C3.45614 14.0743 6.28278 11.8914 6.95695 12.3687C6.87705 12.1721 6.73183 12.01 6.54641 11.9104C6.361 11.8109 6.14707 11.7801 5.94164 11.8235C5.80762 11.6178 5.80762 10.9368 5.12938 10.8689C5.2384 10.9901 5.29882 11.1482 5.29882 11.3122C5.29882 11.4762 5.2384 11.6344 5.12938 11.7556C5.06237 11.482 4.18717 11.482 3.85008 12.3728C4.52425 12.0313 4.66234 12.99 3.85008 12.918C3.58001 12.8501 2.97488 12.3728 3.71606 11.2124C4.25418 10.2578 5.73654 9.56653 5.73654 9.50687C5.34725 9.35095 4.93602 9.25859 4.51816 9.23323C4.45115 9.02749 5.79746 8.20453 5.5944 6.23149L5.46038 6.29938C5.48042 6.23646 5.48751 6.17005 5.48122 6.10425C5.47493 6.03845 5.45538 5.97465 5.42379 5.9168C5.39219 5.85895 5.34922 5.80828 5.29754 5.76793C5.24585 5.72757 5.18655 5.69838 5.12329 5.68216C5.12329 5.81795 5.25731 6.6368 4.78621 6.97832C4.63119 6.91482 4.50438 6.79615 4.4296 6.64462C4.35482 6.49309 4.33721 6.31912 4.38008 6.15536C4.11752 6.43772 3.95224 6.79862 3.90897 7.18406C3.57189 7.04828 3.2348 6.77258 2.76369 6.91043C2.89772 7.11617 3.10078 7.25195 3.16982 7.52765C3.24133 7.72181 3.26021 7.93184 3.2245 8.1359C3.18879 8.33996 3.09979 8.5306 2.96676 8.68802C2.89975 8.41439 2.69668 8.34649 2.69668 7.86506C2.3596 8.00085 2.76369 9.57065 2.22558 9.63854C2.01868 9.38936 1.90002 9.07721 1.88849 8.7518C1.72768 8.96173 1.61418 9.20478 1.55595 9.46388C1.49771 9.72299 1.49616 9.99187 1.5514 10.2516C1.61842 10.5253 2.62764 12.7761 1.34834 12.1609C1.14528 11.9552 1.14528 11.41 0.942214 11.2063C0.840533 11.4429 0.788058 11.6982 0.788058 11.9562C0.788058 12.2143 0.840533 12.4695 0.942214 12.7061C0.701081 12.732 0.47601 12.841 0.304546 13.0147C0.133081 13.1884 0.0255891 13.4164 0 13.6608C0.322942 13.4845 0.686153 13.398 1.05277 13.4099C1.41939 13.4218 1.77637 13.5318 2.08749 13.7286C2.22151 13.7965 3.30587 14.889 2.08749 15.2285C1.68136 15.2285 1.41332 14.6113 1.41332 14.6113C1.32792 15.045 1.40554 15.4953 1.63094 15.8741C1.85634 16.2528 2.21326 16.5325 2.6317 16.6584C2.90178 16.8641 3.16982 17.1357 3.10281 17.4813C2.83273 18.0266 2.49362 17.0699 2.49362 17.0699C2.38426 17.2409 2.3206 17.4377 2.30885 17.6411C2.2971 17.8445 2.33768 18.0475 2.42661 18.2302C2.42661 18.2302 1.61435 18.7754 2.42661 19.8C3.77292 17.004 5.52333 18.7713 5.11923 19.3227C4.91617 19.6642 4.44506 19.5963 4.10391 19.5963C4.13105 19.8392 4.2523 20.0613 4.441 20.2136C4.32598 20.3547 4.24724 20.5226 4.21181 20.702C4.17638 20.8815 4.18536 21.0671 4.23794 21.2423C4.43079 20.9113 4.72905 20.6566 5.0837 20.5201C5.43835 20.3837 5.82827 20.3735 6.18938 20.4913C6.3234 20.5592 6.93056 20.9686 6.05535 21.3781C5.9806 21.5032 5.93478 21.6439 5.92133 21.7895C6.79653 21.1723 8.61395 21.3122 9.01805 21.8574C9.22111 22.5405 8.54694 22.5405 8.40886 22.6804C8.55444 22.8561 8.75718 22.9734 8.98056 23.0112C9.20394 23.0489 9.43327 23.0045 9.62724 22.8861C9.76126 23.0919 9.56023 23.2976 9.56023 23.5033C9.72756 23.5079 9.89365 23.4731 10.0455 23.4017C10.1973 23.3303 10.3308 23.2242 10.4354 23.0919C10.6038 23.2857 10.8109 23.4409 11.043 23.5473C11.2751 23.6538 11.527 23.7089 11.7817 23.7091C11.8488 23.5733 11.7147 23.4354 11.7817 23.2976C12.1879 23.1618 13.3311 24.532 13.7332 25.3447C13.6525 25.3287 13.5692 25.3344 13.4914 25.3611C13.4136 25.3879 13.344 25.4348 13.2896 25.4972C13.2352 25.5595 13.1979 25.6353 13.1813 25.7168C13.1647 25.7983 13.1694 25.8828 13.1951 25.9619C13.7332 25.4167 13.9362 26.1677 14.1373 26.3734C14.3403 26.6471 13.8672 26.5092 13.8002 26.715C13.9656 26.7933 14.1047 26.919 14.2004 27.0766C14.296 27.2342 14.344 27.4168 14.3383 27.6017H16.0217C16.016 27.4168 16.064 27.2342 16.1596 27.0766C16.2553 26.919 16.3944 26.7933 16.5598 26.715C16.5598 26.4413 16.0887 26.6471 16.2227 26.3734C16.4258 26.1677 16.6289 25.4188 17.165 25.9619C17.1859 25.8832 17.1872 25.8004 17.1688 25.721C17.1504 25.6415 17.1129 25.568 17.0596 25.5068C17.0063 25.4457 16.9389 25.3989 16.8633 25.3706C16.7878 25.3423 16.7066 25.3334 16.6268 25.3447C16.9639 24.5218 18.1762 23.1618 18.5783 23.2976C18.6453 23.4334 18.5113 23.5712 18.5783 23.7091C19.0866 23.6777 19.5658 23.458 19.9246 23.0919C20.0292 23.2242 20.1627 23.3303 20.3145 23.4017C20.4664 23.4731 20.6325 23.5079 20.7998 23.5033C20.7998 23.2976 20.5967 23.0919 20.7328 22.8861C21.0699 23.0219 21.608 23.2277 21.9512 22.6804C21.8171 22.6125 21.1389 22.5446 21.342 21.8574C21.7481 21.2402 23.4965 21.1744 24.4387 21.7895C24.4481 21.7152 24.4409 21.6396 24.4177 21.5684C24.3946 21.4972 24.3559 21.4322 24.3047 21.3781C23.4295 20.9666 23.9676 20.5551 24.1706 20.4913C24.5317 20.3735 24.9217 20.3837 25.2763 20.5201C25.631 20.6566 25.9292 20.9113 26.1221 21.2423C26.1616 21.066 26.164 20.8832 26.129 20.7059C26.094 20.5287 26.0224 20.3609 25.919 20.2136C26.0287 20.1555 26.1192 20.066 26.1791 19.9563C26.239 19.8465 26.2658 19.7214 26.2561 19.5963C25.919 19.6642 25.3809 19.6642 25.2408 19.3227C24.8347 18.7055 26.5871 17.004 27.9334 19.8C28.7457 18.7713 27.9334 18.2302 27.9334 18.2302C28.0233 18.0478 28.0645 17.8446 28.0527 17.641C28.0409 17.4374 27.9767 17.2405 27.8664 17.0699C27.8664 17.0699 27.5293 18.0245 27.2572 17.4813C27.1902 17.1398 27.4603 16.8641 27.7283 16.6584C28.1502 16.538 28.5109 16.2593 28.7373 15.8791C28.9636 15.4988 29.0385 15.0455 28.9467 14.6113C28.9467 14.6113 28.6766 15.2943 28.2725 15.2285C26.6561 14.8787 27.7263 13.7863 27.8603 13.7184Z" fill="white"/>
</svg>
